<svg width="24" height="24" viewBox="0 0 24 24" fill="none" xmlns="http://www.w3.org/2000/svg">
<path d="M9 16.0001C9.85217 16.0001 10.2974 15.0145 9.78323 14.3775L9.70711 14.2929L7.41603 12.0007C8.68529 10.7976 10.6983 10.0001 13 10.0001C16.9183 10.0001 20 12.3113 20 15.0001C20 15.5523 20.4477 16.0001 21 16.0001C21.5523 16.0001 22 15.5523 22 15.0001C22 11.0613 17.9183 8.00005 13 8.00005C10.1933 8.00005 7.65905 8.99699 6.00031 10.585L3.70711 8.29294C3.10453 7.69037 2.09282 8.07238 2.00598 8.88642L2 9.00005V15.0001C2 15.5129 2.38604 15.9356 2.88338 15.9933L3 16.0001H9Z" fill="black"/>
</svg>
