<svg width="24" height="24" viewBox="0 0 24 24" fill="none" xmlns="http://www.w3.org/2000/svg">
<path fill-rule="evenodd" clip-rule="evenodd" d="M8 2C8.55228 2 9 2.44772 9 3C9 3.51284 8.61396 3.93551 8.11662 3.99327L8 4H4V8C4 8.51284 3.61396 8.93551 3.11662 8.99327L3 9C2.48716 9 2.06449 8.61396 2.00673 8.11662L2 8V3C2 2.48716 2.38604 2.06449 2.88338 2.00673L3 2H8ZM3.11662 15.0067L3 15L2.88338 15.0067C2.4243 15.06 2.06005 15.4243 2.00673 15.8834L2 16V21L2.00673 21.1166C2.06005 21.5757 2.4243 21.94 2.88338 21.9933L3 22H8L8.11662 21.9933C8.61396 21.9355 9 21.5128 9 21C9 20.4872 8.61396 20.0645 8.11662 20.0067L8 20H4V16L3.99327 15.8834C3.93995 15.4243 3.5757 15.06 3.11662 15.0067ZM21.9933 15.8834C21.9355 15.386 21.5128 15 21 15L20.8834 15.0067C20.386 15.0645 20 15.4872 20 16V20H16L15.8834 20.0067C15.386 20.0645 15 20.4872 15 21C15 21.5523 15.4477 22 16 22H21L21.1166 21.9933C21.614 21.9355 22 21.5128 22 21V16L21.9933 15.8834ZM21.1166 2.00673L21 2H16L15.8834 2.00673C15.386 2.06449 15 2.48716 15 3C15 3.51284 15.386 3.93551 15.8834 3.99327L16 4H20V8L20.0067 8.11662C20.06 8.5757 20.4243 8.93995 20.8834 8.99327L21 9L21.1166 8.99327C21.5757 8.93995 21.94 8.5757 21.9933 8.11662L22 8V3L21.9933 2.88338C21.94 2.4243 21.5757 2.06005 21.1166 2.00673Z" fill="black"/>
</svg>
