<svg width="24" height="24" viewBox="0 0 24 24" fill="none" xmlns="http://www.w3.org/2000/svg">
<path fill-rule="evenodd" clip-rule="evenodd" d="M10.8251 2H13.1739C14.8492 2.00379 15.2338 2.01855 16.1227 2.0591C17.1871 2.10765 17.9141 2.27672 18.5502 2.52396C19.2079 2.77949 19.7656 3.12144 20.3216 3.6774C20.8775 4.2334 21.2195 4.79111 21.475 5.44873C21.7222 6.08484 21.8913 6.81182 21.9399 7.87626C21.9869 8.90737 21.9992 9.25998 22 11.7357V12.2633C21.9992 14.739 21.9869 15.0916 21.9399 16.1227C21.8913 17.1871 21.7222 17.9141 21.475 18.5502C21.2195 19.2079 20.8775 19.7656 20.3216 20.3216C19.7656 20.8775 19.2079 21.2195 18.5502 21.475C17.9141 21.7222 17.1871 21.8913 16.1227 21.9399C15.0916 21.9869 14.739 21.9992 12.2633 22H11.7357C9.25998 21.9992 8.90737 21.9869 7.87626 21.9399C6.81182 21.8913 6.08484 21.7222 5.44873 21.475C4.79111 21.2195 4.2334 20.8775 3.6774 20.3216C3.12144 19.7656 2.77949 19.2079 2.52396 18.5502C2.27672 17.9141 2.10765 17.1871 2.0591 16.1227C2.01855 15.2338 2.00379 14.8492 2 13.1739V10.8251C2.00379 9.1498 2.01855 8.76515 2.0591 7.87626C2.10765 6.81182 2.27672 6.08484 2.52396 5.44873C2.77949 4.79111 3.12144 4.2334 3.6774 3.6774C4.2334 3.12144 4.79111 2.77949 5.44873 2.52396C6.08484 2.27672 6.81182 2.10765 7.87626 2.0591C8.76515 2.01855 9.1498 2.00379 10.8251 2H13.1739H10.8251ZM12.733 3.80115H11.2659C9.25858 3.80324 8.90746 3.81583 7.9584 3.85914C6.98335 3.9036 6.45383 4.06651 6.10144 4.20347C5.63464 4.38489 5.3015 4.60159 4.95157 4.95157C4.60159 5.3015 4.38489 5.63464 4.20347 6.10144C4.06651 6.45383 3.9036 6.98335 3.85914 7.9584C3.81583 8.90746 3.80324 9.25858 3.80115 11.2659V12.733C3.80324 14.7404 3.81583 15.0915 3.85914 16.0406C3.9036 17.0156 4.06651 17.5451 4.20347 17.8975C4.38489 18.3643 4.60163 18.6975 4.95157 19.0474C5.3015 19.3974 5.63464 19.6141 6.10144 19.7955C6.45383 19.9324 6.98335 20.0954 7.9584 20.1398C9.0128 20.1879 9.32902 20.1981 11.9995 20.1981C14.6699 20.1981 14.9862 20.1879 16.0406 20.1398C17.0156 20.0954 17.5451 19.9324 17.8975 19.7955C18.3643 19.6141 18.6975 19.3974 19.0474 19.0474C19.3974 18.6975 19.6141 18.3643 19.7955 17.8975C19.9324 17.5451 20.0954 17.0156 20.1398 16.0406C20.1879 14.986 20.1981 14.6697 20.1981 11.9995C20.1981 9.32922 20.1879 9.01292 20.1398 7.9584C20.0954 6.98335 19.9324 6.45383 19.7955 6.10144C19.6141 5.63464 19.3974 5.3015 19.0474 4.95157C18.6975 4.60159 18.3643 4.38489 17.8975 4.20347C17.5451 4.06651 17.0156 3.9036 16.0406 3.85914C15.0915 3.81583 14.7404 3.80324 12.733 3.80115ZM11.9995 6.9992C14.7611 6.9992 16.9998 9.23788 16.9998 11.9995C16.9998 14.7611 14.7611 16.9998 11.9995 16.9998C9.23788 16.9998 6.9992 14.7611 6.9992 11.9995C6.9992 9.23788 9.23788 6.9992 11.9995 6.9992ZM11.9995 8.75368C10.2069 8.75368 8.75368 10.2069 8.75368 11.9995C8.75368 13.7921 10.2069 15.2453 11.9995 15.2453C13.7921 15.2453 15.2453 13.7921 15.2453 11.9995C15.2453 10.2069 13.7921 8.75368 11.9995 8.75368ZM17.4164 5.33244C18.1068 5.33244 18.6665 5.89213 18.6665 6.58253C18.6665 7.27293 18.1068 7.83258 17.4164 7.83258C16.7261 7.83258 16.1664 7.27293 16.1664 6.58253C16.1664 5.89213 16.7261 5.33244 17.4164 5.33244Z" fill="black"/>
</svg>
