<svg width="24" height="24" viewBox="0 0 24 24" fill="none" xmlns="http://www.w3.org/2000/svg">
<path fill-rule="evenodd" clip-rule="evenodd" d="M12.6129 2.2097L12.7071 2.29289L15.415 5H18C18.5128 5 18.9355 5.38604 18.9933 5.88338L19 6V8.585L21.7071 11.2929C22.0676 11.6534 22.0953 12.2206 21.7903 12.6129L21.7071 12.7071L19 15.414V18C19 18.5128 18.614 18.9355 18.1166 18.9933L18 19H15.414L12.7071 21.7071C12.3466 22.0676 11.7794 22.0953 11.3871 21.7903L11.2929 21.7071L8.585 19H6C5.48716 19 5.06449 18.614 5.00673 18.1166L5 18V15.415L2.29289 12.7071C1.93241 12.3466 1.90468 11.7794 2.2097 11.3871L2.29289 11.2929L5 8.584V6C5 5.48716 5.38604 5.06449 5.88338 5.00673L6 5H8.584L11.2929 2.29289C11.6534 1.93241 12.2206 1.90468 12.6129 2.2097ZM12.8554 6.48103C12.4739 5.84164 11.5331 5.83966 11.1481 6.47511L11.0862 6.59386L7.08619 15.5939L7.04497 15.7032C6.90725 16.1443 7.09217 16.6251 7.49002 16.8603L7.59386 16.9138L7.70316 16.955C8.14433 17.0928 8.62512 16.9078 8.8603 16.51L8.91381 16.4061L9.53875 15H14.4608L15.0862 16.4061L15.1397 16.51C15.3945 16.941 15.9375 17.1221 16.4061 16.9138C16.8748 16.7055 17.1042 16.1811 16.955 15.7032L16.9138 15.5939L12.9138 6.59386L12.8554 6.48103ZM13.5728 13L12 9.461L10.4268 13H13.5728Z" fill="black"/>
</svg>
