<svg width="24" height="24" viewBox="0 0 24 24" fill="none" xmlns="http://www.w3.org/2000/svg">
<path fill-rule="evenodd" clip-rule="evenodd" d="M12 2C17.5228 2 22 6.47715 22 12C22 17.5228 17.5228 22 12 22C6.47715 22 2 17.5228 2 12C2 6.47715 6.47715 2 12 2ZM12 4C7.58172 4 4 7.58172 4 12C4 16.4183 7.58172 20 12 20C16.4183 20 20 16.4183 20 12C20 7.58172 16.4183 4 12 4ZM12 18C14.2091 18 16 16.2091 16 14H8L8.0049 14.1996C8.10892 16.316 9.8578 18 12 18ZM8.5 8C9.32843 8 10 8.67157 10 9.5C10 10.3284 9.32843 11 8.5 11C7.67157 11 7 10.3284 7 9.5C7 8.67157 7.67157 8 8.5 8ZM17 9.5C17 8.67157 16.3284 8 15.5 8C14.6716 8 14 8.67157 14 9.5C14 10.3284 14.6716 11 15.5 11C16.3284 11 17 10.3284 17 9.5Z" fill="black"/>
</svg>
