<svg width="24" height="24" viewBox="0 0 24 24" fill="none" xmlns="http://www.w3.org/2000/svg">
<path fill-rule="evenodd" clip-rule="evenodd" d="M18.6 2.20006C19.0078 2.50594 19.1155 3.06355 18.869 3.49503L18.8 3.60006L12.9999 11.333V12L16 12.0001C16.5523 12.0001 17 12.4478 17 13.0001C17 13.5523 16.5523 14.0001 16 14.0001L12.9999 14V16L16 16.0001C16.5523 16.0001 17 16.4478 17 17.0001C17 17.5523 16.5523 18.0001 16 18.0001L12.9999 18L13 21.0001C13 21.5523 12.5523 22.0001 12 22.0001C11.4477 22.0001 11 21.5523 11 21.0001L10.9999 18L8 18.0001C7.44771 18.0001 7 17.5523 7 17.0001C7 16.4478 7.44771 16.0001 8 16.0001L10.9999 16V14L8 14.0001C7.44771 14.0001 7 13.5523 7 13.0001C7 12.4478 7.44771 12.0001 8 12.0001L10.9999 12V11.333L5.2 3.60006C4.86863 3.15823 4.95817 2.53143 5.4 2.20006C5.80784 1.89418 6.37329 1.94695 6.7185 2.30438L6.8 2.40006L11.999 9.33206L17.2 2.40006C17.5314 1.95823 18.1582 1.86869 18.6 2.20006Z" fill="black"/>
</svg>
