<svg width="24" height="24" viewBox="0 0 24 24" fill="none" xmlns="http://www.w3.org/2000/svg">
<path fill-rule="evenodd" clip-rule="evenodd" d="M21.1166 2.00673L21 2H19L18.8834 2.00673C18.386 2.06449 18 2.48716 18 3C18 3.51284 18.386 3.93551 18.8834 3.99327L19 4H20V5L20.0067 5.11662C20.06 5.5757 20.4243 5.93995 20.8834 5.99327L21 6L21.1166 5.99327C21.5757 5.93995 21.94 5.5757 21.9933 5.11662L22 5V3L21.9933 2.88338C21.94 2.4243 21.5757 2.06005 21.1166 2.00673ZM4 11C4 10.4477 3.55228 10 3 10C2.44772 10 2 10.4477 2 11V13C2 13.5523 2.44772 14 3 14C3.55228 14 4 13.5523 4 13V11ZM3.11662 18.0067L3 18L2.88338 18.0067C2.4243 18.06 2.06005 18.4243 2.00673 18.8834L2 19V21L2.00673 21.1166C2.06005 21.5757 2.4243 21.94 2.88338 21.9933L3 22H5L5.11662 21.9933C5.61396 21.9355 6 21.5128 6 21C6 20.4872 5.61396 20.0645 5.11662 20.0067L5 20H4V19L3.99327 18.8834C3.93995 18.4243 3.5757 18.06 3.11662 18.0067ZM21.1166 18.0067L21 18L20.8834 18.0067L20.7707 18.0264C20.3657 18.1214 20.0556 18.4626 20.0067 18.8834L20 19V20H19L18.8834 20.0067L18.7707 20.0264C18.3289 20.1301 18 20.5266 18 21C18 21.5128 18.386 21.9355 18.8834 21.9933L19 22H21L21.1166 21.9933L21.2293 21.9736C21.6343 21.8786 21.9444 21.5374 21.9933 21.1166L22 21V19L21.9933 18.8834L21.9736 18.7707C21.8786 18.3657 21.5374 18.0556 21.1166 18.0067ZM13 20C13.5523 20 14 20.4477 14 21C14 21.5523 13.5523 22 13 22H11C10.4477 22 10 21.5523 10 21C10 20.4477 10.4477 20 11 20H13ZM21 10C21.5523 10 22 10.4477 22 11V13C22 13.5523 21.5523 14 21 14C20.4477 14 20 13.5523 20 13V11C20 10.4477 20.4477 10 21 10ZM5 2L5.11662 2.00673C5.61396 2.06449 6 2.48716 6 3C6 3.47339 5.67107 3.86995 5.22929 3.97359L5.11662 3.99327L5 4H4V5L3.99327 5.11662C3.94439 5.53745 3.63425 5.87858 3.22929 5.97359L3.11662 5.99327L3 6L2.88338 5.99327C2.46255 5.94439 2.12142 5.63425 2.02641 5.22929L2.00673 5.11662L2 5V3L2.00673 2.88338C2.05561 2.46255 2.36575 2.12142 2.77071 2.02641L2.88338 2.00673L3 2H5ZM17.9949 8.82373C17.9037 7.24892 16.5977 6 15 6H9L8.82373 6.00509C7.24892 6.09634 6 7.40232 6 9V15L6.00509 15.1763C6.09634 16.7511 7.40232 18 9 18H15L15.1763 17.9949C16.7511 17.9037 18 16.5977 18 15V9L17.9949 8.82373ZM15 8H9C8.48716 8 8.06449 8.38604 8.00673 8.88338L8 9V15C8 15.5128 8.38604 15.9355 8.88338 15.9933L9 16H15C15.5128 16 15.9355 15.614 15.9933 15.1166L16 15V9C16 8.48716 15.614 8.06449 15.1166 8.00673L15 8ZM14 3C14 2.44772 13.5523 2 13 2H11C10.4477 2 10 2.44772 10 3C10 3.55228 10.4477 4 11 4H13C13.5523 4 14 3.55228 14 3Z" fill="black"/>
</svg>
