<svg width="24" height="24" viewBox="0 0 24 24" fill="none" xmlns="http://www.w3.org/2000/svg">
<path fill-rule="evenodd" clip-rule="evenodd" d="M8.272 4.95258C7.174 4.95258 6.077 5.34958 5.241 6.14458C4.441 6.90658 4 7.91758 4 8.99158C4 10.0646 4.441 11.0756 5.241 11.8376L12 18.2696L18.759 11.8376C19.559 11.0756 20 10.0646 20 8.99158C20 7.91858 19.559 6.90658 18.759 6.14458C17.088 4.55458 14.368 4.55458 12.697 6.14458L12 6.80858L11.303 6.14458C10.467 5.34958 9.37 4.95258 8.272 4.95258ZM12 20.9996L3.847 13.2406C2.656 12.1076 2 10.5986 2 8.99158C2 7.38458 2.656 5.87558 3.847 4.74158C6.067 2.62858 9.552 2.43858 12 4.16858C14.448 2.43858 17.933 2.62858 20.153 4.74158C21.344 5.87558 22 7.38458 22 8.99158C22 10.5986 21.344 12.1076 20.153 13.2406L12 20.9996Z" fill="black"/>
</svg>
