<svg width="24" height="24" viewBox="0 0 24 24" fill="none" xmlns="http://www.w3.org/2000/svg">
<path fill-rule="evenodd" clip-rule="evenodd" d="M19 11C19.5523 11 20 11.4477 20 12C20 16.0793 16.9468 19.4455 13.001 19.938L13 21C13 21.5523 12.5523 22 12 22C11.4477 22 11 21.5523 11 21L11 19.9381C7.05371 19.446 4 16.0796 4 12C4 11.4477 4.44772 11 5 11C5.55228 11 6 11.4477 6 12C6 15.3137 8.68629 18 12 18C15.3137 18 18 15.3137 18 12C18 11.4477 18.4477 11 19 11ZM12 2C14.2091 2 16 3.79086 16 6V12C16 14.2091 14.2091 16 12 16C9.79086 16 8 14.2091 8 12V6C8 3.79086 9.79086 2 12 2ZM12 4C10.8954 4 10 4.89543 10 6V12C10 13.1046 10.8954 14 12 14C13.1046 14 14 13.1046 14 12V6C14 4.89543 13.1046 4 12 4Z" fill="black"/>
</svg>
