<svg width="24" height="24" viewBox="0 0 24 24" fill="none" xmlns="http://www.w3.org/2000/svg">
<path fill-rule="evenodd" clip-rule="evenodd" d="M9.5547 9.83205C9.8329 9.64658 10 9.33435 10 9V5C10 3.34315 8.65685 2 7 2H3C2.44772 2 2 2.44772 2 3C2 12.9411 11.0589 22 21 22C21.5523 22 22 21.5523 22 21V17C22 15.3431 20.6569 14 19 14H15C14.6656 14 14.3534 14.1671 14.1679 14.4453L12.2626 17.3033C10.1874 15.9615 8.36925 14.1892 6.97074 12.149L6.69668 11.7374L9.5547 9.83205ZM15.5352 16H19C19.5523 16 20 16.4477 20 17V19.9653C18.0628 19.8313 16.1721 19.3132 14.4087 18.4916L14.0041 18.2966L15.5352 16ZM15.7071 2.29289L18 4.585L20.2929 2.29289C20.6534 1.93241 21.2206 1.90468 21.6129 2.2097L21.7071 2.29289C22.0676 2.65338 22.0953 3.22061 21.7903 3.6129L21.7071 3.70711L19.415 6L21.7071 8.29289C22.0976 8.68342 22.0976 9.31658 21.7071 9.70711C21.3166 10.0976 20.6834 10.0976 20.2929 9.70711L18 7.415L15.7071 9.70711C15.3466 10.0676 14.7794 10.0953 14.3871 9.7903L14.2929 9.70711C13.9324 9.34662 13.9047 8.77939 14.2097 8.3871L14.2929 8.29289L16.585 6L14.2929 3.70711C13.9024 3.31658 13.9024 2.68342 14.2929 2.29289C14.6834 1.90237 15.3166 1.90237 15.7071 2.29289ZM7 4C7.55228 4 8 4.44772 8 5V8.46482L5.70338 9.9959C4.76882 8.11845 4.17903 6.08626 4.03467 4H7Z" fill="black"/>
</svg>
