<svg width="24" height="24" viewBox="0 0 24 24" fill="none" xmlns="http://www.w3.org/2000/svg">
<path fill-rule="evenodd" clip-rule="evenodd" d="M19.9442 7.98749C19.9569 8.16248 19.9569 8.33751 19.9569 8.5125C19.9569 13.85 15.8326 20 8.29444 20C5.97209 20 3.81473 19.3375 2 18.1875C2.32996 18.225 2.64719 18.2375 2.98985 18.2375C4.90607 18.2375 6.67006 17.6 8.0787 16.5125C6.27666 16.475 4.76649 15.3125 4.24618 13.7125C4.5 13.75 4.7538 13.775 5.02032 13.775C5.38833 13.775 5.75638 13.725 6.099 13.6375C4.22083 13.2625 2.81215 11.6375 2.81215 9.67499V9.62501C3.35782 9.92501 3.99239 10.1125 4.66493 10.1375C3.56087 9.41247 2.83754 8.17498 2.83754 6.77497C2.83754 6.02499 3.04055 5.33749 3.3959 4.73748C5.41369 7.18748 8.4467 8.78745 11.8477 8.96248C11.7843 8.66248 11.7462 8.35001 11.7462 8.03751C11.7462 5.81248 13.5736 4 15.8452 4C17.0254 4 18.0914 4.4875 18.8401 5.275C19.7665 5.10001 20.6548 4.76249 21.4416 4.3C21.137 5.23752 20.4898 6.02502 19.6396 6.52499C20.4645 6.43753 21.264 6.21248 22 5.90001C21.4417 6.69998 20.7437 7.41245 19.9442 7.98749Z" fill="black"/>
</svg>
