<svg width="24" height="24" viewBox="0 0 24 24" fill="none" xmlns="http://www.w3.org/2000/svg">
<path fill-rule="evenodd" clip-rule="evenodd" d="M22 12C22 12.5523 21.5523 13 21 13H19C18.4477 13 18 12.5523 18 12C18 11.4477 18.4477 11 19 11H21C21.5523 11 22 11.4477 22 12ZM6 12C6 12.5523 5.55228 13 5 13H3C2.44772 13 2 12.5523 2 12C2 11.4477 2.44772 11 3 11H5C5.55228 11 6 11.4477 6 12ZM16 20C16 21.1046 15.1046 22 14 22H10C8.89543 22 8 21.1046 8 20V4C8 2.89543 8.89543 2 10 2H14C15.1046 2 16 2.89543 16 4V20Z" fill="black"/>
</svg>
