<svg width="24" height="24" viewBox="0 0 24 24" fill="none" xmlns="http://www.w3.org/2000/svg">
<path fill-rule="evenodd" clip-rule="evenodd" d="M7 16H17C19.7614 16 22 18.2386 22 21C22 21.5523 21.5523 22 21 22C20.4872 22 20.0645 21.614 20.0067 21.1166L19.9949 20.8237C19.907 19.3072 18.6928 18.093 17.1763 18.0051L17 18H7C5.34315 18 4 19.3431 4 21C4 21.5523 3.55228 22 3 22C2.44772 22 2 21.5523 2 21C2 18.3112 4.12231 16.1182 6.78311 16.0046L7 16ZM12 2C12.4062 2 12.8078 2.04051 13.2004 2.12029C13.7416 2.23029 14.0912 2.75821 13.9812 3.29943C13.8712 3.84065 13.3432 4.19022 12.802 4.08022C12.5404 4.02705 12.2722 4 12 4C9.79086 4 8 5.79086 8 8C8 10.2091 9.79086 12 12 12C13.2748 12 14.4482 11.4008 15.2001 10.4004C15.5319 9.95889 16.1588 9.86999 16.6003 10.2018C17.0418 10.5336 17.1307 11.1605 16.7989 11.602C15.6731 13.0999 13.9104 14 12 14C8.68629 14 6 11.3137 6 8C6 4.68629 8.68629 2 12 2ZM19 2C19.5523 2 20 2.44772 20 3V4H21C21.5523 4 22 4.44772 22 5C22 5.55228 21.5523 6 21 6H20V7C20 7.55228 19.5523 8 19 8C18.4477 8 18 7.55228 18 7V6H17C16.4477 6 16 5.55228 16 5C16 4.44772 16.4477 4 17 4H18V3C18 2.44772 18.4477 2 19 2Z" fill="black"/>
</svg>
