<svg width="24" height="24" viewBox="0 0 24 24" fill="none" xmlns="http://www.w3.org/2000/svg">
<path fill-rule="evenodd" clip-rule="evenodd" d="M2.00612 7.11043L2.57852 12.2621C2.88236 14.9966 4.42033 17.442 6.75349 18.9002L11.47 21.848C11.7943 22.0507 12.2057 22.0507 12.53 21.848L17.2465 18.9002C19.5797 17.442 21.1176 14.9966 21.4215 12.2621L21.9939 7.11043C22.042 6.6774 21.8042 6.26305 21.406 6.08614L12.406 2.08736C12.1475 1.97251 11.8525 1.97251 11.594 2.08736L2.59397 6.08614C2.1958 6.26305 1.958 6.6774 2.00612 7.11043ZM4.07469 7.61677L12 4.09548L19.9253 7.61677L19.4337 12.0412C19.1974 14.1681 18.0012 16.07 16.1865 17.2042L12 19.8208L7.81349 17.2042C5.99881 16.07 4.80261 14.1681 4.56629 12.0412L4.07469 7.61677Z" fill="black"/>
</svg>
