<svg width="24" height="24" viewBox="0 0 24 24" fill="none" xmlns="http://www.w3.org/2000/svg">
<path fill-rule="evenodd" clip-rule="evenodd" d="M12 2C17.5228 2 22 6.47715 22 12C22 17.5228 17.5228 22 12 22C6.47715 22 2 17.5228 2 12C2 6.47715 6.47715 2 12 2ZM12 4C7.58172 4 4 7.58172 4 12C4 16.4183 7.58172 20 12 20C16.4183 20 20 16.4183 20 12C20 7.58172 16.4183 4 12 4ZM7.29325 7.29325C7.65417 6.93233 8.22045 6.90456 8.61296 7.20996L8.70725 7.29325L12.0002 10.5863L15.2933 7.29325C15.6842 6.90225 16.3162 6.90225 16.7072 7.29325C17.0682 7.65417 17.0959 8.22045 16.7905 8.61296L16.7072 8.70725L13.4142 12.0002L16.7072 15.2933C17.0982 15.6842 17.0982 16.3162 16.7072 16.7072C16.5122 16.9022 16.2562 17.0002 16.0002 17.0002C15.7869 17.0002 15.5736 16.9322 15.3956 16.7967L15.2933 16.7072L12.0002 13.4142L8.70725 16.7072C8.51225 16.9022 8.25625 17.0002 8.00025 17.0002C7.74425 17.0002 7.48825 16.9022 7.29325 16.7072C6.93233 16.3463 6.90456 15.7801 7.20996 15.3875L7.29325 15.2933L10.5863 12.0002L7.29325 8.70725C6.90225 8.31625 6.90225 7.68425 7.29325 7.29325Z" fill="black"/>
</svg>
