<svg width="24" height="24" viewBox="0 0 24 24" fill="none" xmlns="http://www.w3.org/2000/svg">
<path fill-rule="evenodd" clip-rule="evenodd" d="M17 2C18.6569 2 20 3.34315 20 5V21C20 21.8544 18.9979 22.3153 18.3492 21.7593L12 16.3171L5.65079 21.7593C5.00212 22.3153 4 21.8544 4 21V5C4 3.34315 5.34315 2 7 2H17ZM17 4H7C6.44772 4 6 4.44772 6 5V18.8258L11.3492 14.2407C11.7237 13.9198 12.2763 13.9198 12.6508 14.2407L18 18.8258V5C18 4.44772 17.5523 4 17 4ZM12 6C12.5523 6 13 6.44772 13 7V8H14C14.5523 8 15 8.44772 15 9C15 9.55228 14.5523 10 14 10H13V11C13 11.5523 12.5523 12 12 12C11.4477 12 11 11.5523 11 11V10H10C9.44772 10 9 9.55228 9 9C9 8.44772 9.44772 8 10 8H11V7C11 6.44772 11.4477 6 12 6Z" fill="black"/>
</svg>
