<svg width="24" height="24" viewBox="0 0 24 24" fill="none" xmlns="http://www.w3.org/2000/svg">
<path fill-rule="evenodd" clip-rule="evenodd" d="M3 18L3.11662 18.0067L3.22929 18.0264C3.59376 18.1119 3.88142 18.3968 3.97094 18.7597L3.99327 18.8834L4 19V20H5L5.11662 20.0067L5.22929 20.0264C5.67107 20.1301 6 20.5266 6 21C6 21.4734 5.67107 21.8699 5.22929 21.9736L5.11662 21.9933L5 22H3L2.88338 21.9933L2.77071 21.9736C2.40624 21.8881 2.11858 21.6032 2.02906 21.2403L2.00673 21.1166L2 21V19L2.00673 18.8834L2.02641 18.7707C2.11192 18.4062 2.39679 18.1186 2.75969 18.0291L2.88338 18.0067L3 18ZM21 18L21.1166 18.0067C21.5374 18.0556 21.8786 18.3657 21.9736 18.7707L21.9933 18.8834L22 19V21L21.9933 21.1166C21.9444 21.5374 21.6343 21.8786 21.2293 21.9736L21.1166 21.9933L21 22H19L18.8834 21.9933C18.386 21.9355 18 21.5128 18 21C18 20.5266 18.3289 20.1301 18.7707 20.0264L18.8834 20.0067L19 20H20V19L20.0067 18.8834C20.0556 18.4626 20.3657 18.1214 20.7707 18.0264L20.8834 18.0067L21 18ZM12 2C12.5523 2 13 2.44772 13 3V11H21C21.5523 11 22 11.4477 22 12C22 12.5523 21.5523 13 21 13H13V21C13 21.5523 12.5523 22 12 22C11.4477 22 11 21.5523 11 21V13H3C2.44772 13 2 12.5523 2 12C2 11.4477 2.44772 11 3 11H11V3C11 2.44772 11.4477 2 12 2ZM5 2L5.11662 2.00673C5.61396 2.06449 6 2.48716 6 3C6 3.47339 5.67107 3.86995 5.22929 3.97359L5.11662 3.99327L5 4H4V5L3.99327 5.11662C3.94439 5.53745 3.63425 5.87858 3.22929 5.97359L3.11662 5.99327L3 6L2.88338 5.99327C2.46255 5.94439 2.12142 5.63425 2.02641 5.22929L2.00673 5.11662L2 5V3L2.00673 2.88338C2.05561 2.46255 2.36575 2.12142 2.77071 2.02641L2.88338 2.00673L3 2H5ZM21 2L21.1166 2.00673C21.5757 2.06005 21.94 2.4243 21.9933 2.88338L22 3V5L21.9933 5.11662C21.94 5.5757 21.5757 5.93995 21.1166 5.99327L21 6L20.8834 5.99327C20.4243 5.93995 20.06 5.5757 20.0067 5.11662L20 5V4H19L18.8834 3.99327C18.386 3.93551 18 3.51284 18 3C18 2.48716 18.386 2.06449 18.8834 2.00673L19 2H21Z" fill="black"/>
</svg>
