<svg width="24" height="24" viewBox="0 0 24 24" fill="none" xmlns="http://www.w3.org/2000/svg">
<path fill-rule="evenodd" clip-rule="evenodd" d="M13 2C14.5977 2 15.9037 3.24892 15.9949 4.82373L16 5V8H19C20.5977 8 21.9037 9.24892 21.9949 10.8237L22 11V19C22 20.5977 20.7511 21.9037 19.1763 21.9949L19 22H11C9.40232 22 8.09634 20.7511 8.00509 19.1763L8 19V16H5C3.40232 16 2.09634 14.7511 2.00509 13.1763L2 13V5C2 3.40232 3.24892 2.09634 4.82373 2.00509L5 2H13ZM14 10H11C10.4872 10 10.0645 10.386 10.0067 10.8834L10 11V14H13C13.5128 14 13.9355 13.614 13.9933 13.1166L14 13V10Z" fill="black"/>
</svg>
