<svg width="24" height="24" viewBox="0 0 24 24" fill="none" xmlns="http://www.w3.org/2000/svg">
<path fill-rule="evenodd" clip-rule="evenodd" d="M12.684 2.27026C12.2717 1.88219 11.6049 1.91205 11.2318 2.35982L6.2318 8.35982L6.16396 8.4506C5.73193 9.099 6.19072 10 7.00002 10H17L17.1132 9.994C17.8879 9.9108 18.2863 8.98154 17.7682 8.35982L12.7682 2.35982L12.684 2.27026ZM17.8361 15.5494C18.2681 14.901 17.8093 14 17 14H7.00002L6.88685 14.006C6.11215 14.0892 5.7137 15.0185 6.2318 15.6402L11.2318 21.6402L11.3161 21.7297C11.7283 22.1178 12.3951 22.088 12.7682 21.6402L17.7682 15.6402L17.8361 15.5494Z" fill="black"/>
</svg>
