<svg width="24" height="24" viewBox="0 0 24 24" fill="none" xmlns="http://www.w3.org/2000/svg">
<path fill-rule="evenodd" clip-rule="evenodd" d="M19 2C20.6569 2 22 3.34315 22 5V19C22 20.6569 20.6569 22 19 22H5C3.34315 22 2 20.6569 2 19V5C2 3.34315 3.34315 2 5 2H19ZM19 4H5C4.44772 4 4 4.44772 4 5V19C4 19.5523 4.44772 20 5 20H19C19.5523 20 20 19.5523 20 19V5C20 4.44772 19.5523 4 19 4ZM9 6H12C14.2091 6 16 7.79086 16 10C16 12.1422 14.316 13.8911 12.1996 13.9951L12 14H10V17C10 17.5523 9.55228 18 9 18C8.44772 18 8 17.5523 8 17V7C8 6.44772 8.44772 6 9 6H12H9ZM12 8H10V12H12L12.1493 11.9945C13.1841 11.9182 14 11.0544 14 10C14 8.89543 13.1046 8 12 8Z" fill="black"/>
</svg>
