<svg width="24" height="24" viewBox="0 0 24 24" fill="none" xmlns="http://www.w3.org/2000/svg">
<path fill-rule="evenodd" clip-rule="evenodd" d="M3 18C3.47339 18 3.86995 18.3289 3.97359 18.7707L3.99327 18.8834L4 19V20H5L5.11662 20.0067C5.53745 20.0556 5.87858 20.3657 5.97359 20.7707L5.99327 20.8834L6 21L5.99327 21.1166C5.94439 21.5374 5.63425 21.8786 5.22929 21.9736L5.11662 21.9933L5 22H3L2.88338 21.9933C2.46255 21.9444 2.12142 21.6343 2.02641 21.2293L2.00673 21.1166L2 21V19L2.00673 18.8834C2.06449 18.386 2.48716 18 3 18ZM12 2C12.5523 2 13 2.44772 13 3V21C13 21.5523 12.5523 22 12 22C11.4477 22 11 21.5523 11 21V3C11 2.44772 11.4477 2 12 2ZM21 18C21.4734 18 21.8699 18.3289 21.9736 18.7707L21.9933 18.8834L22 19V21L21.9933 21.1166L21.9736 21.2293C21.8881 21.5938 21.6032 21.8814 21.2403 21.9709L21.1166 21.9933L21 22H19L18.8834 21.9933L18.7707 21.9736C18.4062 21.8881 18.1186 21.6032 18.0291 21.2403L18.0067 21.1166L18 21L18.0067 20.8834L18.0264 20.7707C18.1119 20.4062 18.3968 20.1186 18.7597 20.0291L18.8834 20.0067L19 20H20V19L20.0067 18.8834L20.0264 18.7707C20.1301 18.3289 20.5266 18 21 18ZM3 10C3.55228 10 4 10.4477 4 11V13C4 13.5523 3.55228 14 3 14C2.44772 14 2 13.5523 2 13V11C2 10.4477 2.44772 10 3 10ZM21 10C21.5128 10 21.9355 10.386 21.9933 10.8834L22 11V13C22 13.5523 21.5523 14 21 14C20.4872 14 20.0645 13.614 20.0067 13.1166L20 13V11C20 10.4477 20.4477 10 21 10ZM5 2L5.11662 2.00673C5.5757 2.06005 5.93995 2.4243 5.99327 2.88338L6 3L5.99327 3.11662C5.93995 3.5757 5.5757 3.93995 5.11662 3.99327L5 4H4V5L3.99327 5.11662C3.93551 5.61396 3.51284 6 3 6C2.48716 6 2.06449 5.61396 2.00673 5.11662L2 5V3L2.00673 2.88338C2.06005 2.4243 2.4243 2.06005 2.88338 2.00673L3 2H5ZM21 2L21.1166 2.00673C21.5374 2.05561 21.8786 2.36575 21.9736 2.77071L21.9933 2.88338L22 3V5L21.9933 5.11662C21.9355 5.61396 21.5128 6 21 6C20.5266 6 20.1301 5.67107 20.0264 5.22929L20.0067 5.11662L20 5V4H19L18.8834 3.99327C18.4626 3.94439 18.1214 3.63425 18.0264 3.22929L18.0067 3.11662L18 3L18.0067 2.88338C18.0556 2.46255 18.3657 2.12142 18.7707 2.02641L18.8834 2.00673L19 2H21Z" fill="black"/>
</svg>
