<svg width="24" height="24" viewBox="0 0 24 24" fill="none" xmlns="http://www.w3.org/2000/svg">
<path fill-rule="evenodd" clip-rule="evenodd" d="M4 3C4 2.44772 3.55228 2 3 2C2.44772 2 2 2.44772 2 3V21C2 21.5523 2.44772 22 3 22C3.55228 22 4 21.5523 4 21V3ZM15 12C15 11.4477 14.5523 11 14 11H13V10C13 9.44772 12.5523 9 12 9C11.4477 9 11 9.44772 11 10V11H10C9.44772 11 9 11.4477 9 12C9 12.5523 9.44772 13 10 13H11V14C11 14.5523 11.4477 15 12 15C12.5523 15 13 14.5523 13 14V13H14C14.5523 13 15 12.5523 15 12ZM14 21C14 20.4477 13.5523 20 13 20H11C10.4477 20 10 20.4477 10 21C10 21.5523 10.4477 22 11 22H13C13.5523 22 14 21.5523 14 21ZM14 3C14 2.44772 13.5523 2 13 2H11C10.4477 2 10 2.44772 10 3C10 3.55228 10.4477 4 11 4H13C13.5523 4 14 3.55228 14 3ZM22 3L21.9933 2.88338C21.94 2.4243 21.5757 2.06005 21.1166 2.00673L21 2H19L18.8834 2.00673C18.4243 2.06005 18.06 2.4243 18.0067 2.88338L18 3L18.0067 3.11662C18.06 3.5757 18.4243 3.93995 18.8834 3.99327L19 4H20V5L20.0067 5.11662C20.0645 5.61396 20.4872 6 21 6C21.5128 6 21.9355 5.61396 21.9933 5.11662L22 5V3ZM22 19L21.9933 18.8834C21.9355 18.386 21.5128 18 21 18C20.5266 18 20.1301 18.3289 20.0264 18.7707L20.0067 18.8834L20 19V20H19L18.8834 20.0067C18.4626 20.0556 18.1214 20.3657 18.0264 20.7707L18.0067 20.8834L18 21L18.0067 21.1166C18.0556 21.5374 18.3657 21.8786 18.7707 21.9736L18.8834 21.9933L19 22H21L21.1166 21.9933C21.5374 21.9444 21.8786 21.6343 21.9736 21.2293L21.9933 21.1166L22 21V19ZM22 11C22 10.4477 21.5523 10 21 10C20.4477 10 20 10.4477 20 11V13C20 13.5523 20.4477 14 21 14C21.5523 14 22 13.5523 22 13V11Z" fill="black"/>
</svg>
