<svg width="24" height="24" viewBox="0 0 24 24" fill="none" xmlns="http://www.w3.org/2000/svg">
<path fill-rule="evenodd" clip-rule="evenodd" d="M12 2C17.5228 2 22 6.47715 22 12C22 17.5228 17.5228 22 12 22C6.47715 22 2 17.5228 2 12C2 6.47715 6.47715 2 12 2ZM12 4C7.58172 4 4 7.58172 4 12C4 16.4183 7.58172 20 12 20C16.4183 20 20 16.4183 20 12C20 7.58172 16.4183 4 12 4ZM15.2929 8.29289L10 13.5858L8.70711 12.2929C8.31658 11.9024 7.68342 11.9024 7.29289 12.2929C6.90237 12.6834 6.90237 13.3166 7.29289 13.7071L9.29289 15.7071C9.68342 16.0976 10.3166 16.0976 10.7071 15.7071L16.7071 9.70711C17.0976 9.31658 17.0976 8.68342 16.7071 8.29289C16.3166 7.90237 15.6834 7.90237 15.2929 8.29289Z" fill="black"/>
</svg>
