<svg width="24" height="24" viewBox="0 0 24 24" fill="none" xmlns="http://www.w3.org/2000/svg">
<path fill-rule="evenodd" clip-rule="evenodd" d="M9 14.2912L2.15634 3.53688C1.73269 2.87115 2.21091 2 3 2H21C21.7891 2 22.2673 2.87115 21.8437 3.53688L15 14.2912V19C15 19.3788 14.786 19.725 14.4472 19.8944L10.4472 21.8944C9.78231 22.2269 9 21.7434 9 21V14.2912ZM4.82167 4L10.8437 13.4631C10.9458 13.6236 11 13.8098 11 14V19.382L13 18.382V14C13 13.8098 13.0542 13.6236 13.1563 13.4631L19.1783 4H4.82167Z" fill="black"/>
</svg>
