<svg width="24" height="24" viewBox="0 0 24 24" fill="none" xmlns="http://www.w3.org/2000/svg">
<path fill-rule="evenodd" clip-rule="evenodd" d="M22 12C22 6.47715 17.5228 2 12 2C6.47715 2 2 6.47715 2 12C2 17.5228 6.47715 22 12 22C17.5228 22 22 17.5228 22 12ZM4 12C4 7.58172 7.58172 4 12 4C16.4183 4 20 7.58172 20 12C20 16.4183 16.4183 20 12 20C7.58172 20 4 16.4183 4 12ZM10 7C10.5523 7 11 7.44772 11 8V16C11 16.5523 10.5523 17 10 17C9.44772 17 9 16.5523 9 16V8C9 7.44772 9.44772 7 10 7ZM15 8C15 7.44772 14.5523 7 14 7C13.4477 7 13 7.44772 13 8V16C13 16.5523 13.4477 17 14 17C14.5523 17 15 16.5523 15 16V8Z" fill="black"/>
</svg>
