<svg width="24" height="24" viewBox="0 0 24 24" fill="none" xmlns="http://www.w3.org/2000/svg">
<path fill-rule="evenodd" clip-rule="evenodd" d="M21 20C21.5523 20 22 20.4477 22 21C22 21.5523 21.5523 22 21 22H3C2.44772 22 2 21.5523 2 21C2 20.4477 2.44772 20 3 20H21ZM12 9C12.5523 9 13 9.44772 13 10V11H14C14.5523 11 15 11.4477 15 12C15 12.5523 14.5523 13 14 13H13V14C13 14.5523 12.5523 15 12 15C11.4477 15 11 14.5523 11 14V13H10C9.44772 13 9 12.5523 9 12C9 11.4477 9.44772 11 10 11H11V10C11 9.44772 11.4477 9 12 9ZM3 10C3.55228 10 4 10.4477 4 11V13C4 13.5523 3.55228 14 3 14C2.44772 14 2 13.5523 2 13V11C2 10.4477 2.44772 10 3 10ZM21 10C21.5523 10 22 10.4477 22 11V13C22 13.5523 21.5523 14 21 14C20.4477 14 20 13.5523 20 13V11C20 10.4477 20.4477 10 21 10ZM21 2L21.1166 2.00673C21.5757 2.06005 21.94 2.4243 21.9933 2.88338L22 3V5L21.9933 5.11662C21.94 5.5757 21.5757 5.93995 21.1166 5.99327L21 6L20.8834 5.99327C20.4243 5.93995 20.06 5.5757 20.0067 5.11662L20 5V4H19L18.8834 3.99327C18.386 3.93551 18 3.51284 18 3C18 2.48716 18.386 2.06449 18.8834 2.00673L19 2H21ZM5 2L5.11662 2.00673C5.61396 2.06449 6 2.48716 6 3C6 3.47339 5.67107 3.86995 5.22929 3.97359L5.11662 3.99327L5 4H4V5L3.99327 5.11662C3.94439 5.53745 3.63425 5.87858 3.22929 5.97359L3.11662 5.99327L3 6L2.88338 5.99327C2.46255 5.94439 2.12142 5.63425 2.02641 5.22929L2.00673 5.11662L2 5V3L2.00673 2.88338C2.05561 2.46255 2.36575 2.12142 2.77071 2.02641L2.88338 2.00673L3 2H5ZM13 2C13.5523 2 14 2.44772 14 3C14 3.55228 13.5523 4 13 4H11C10.4477 4 10 3.55228 10 3C10 2.44772 10.4477 2 11 2H13Z" fill="black"/>
</svg>
