<svg width="24" height="24" viewBox="0 0 24 24" fill="none" xmlns="http://www.w3.org/2000/svg">
<path fill-rule="evenodd" clip-rule="evenodd" d="M17.8532 16.5219L17.8319 16.5554L17.7738 16.6335L17.7071 16.7071L12.7071 21.7071C12.1045 22.3097 11.0928 21.9277 11.006 21.1136L11 21L11 14.079L7.6247 16.7809C7.19344 17.1259 6.56415 17.0559 6.21914 16.6247C5.90067 16.2266 5.93575 15.6598 6.28223 15.3036L6.37531 15.2191L10.399 12L6.37531 8.78086C5.94405 8.43585 5.87413 7.80656 6.21914 7.3753C6.53761 6.97721 7.09831 6.88701 7.52188 7.14685L7.6247 7.21912L11 9.91999L11 2.99999C11 2.14782 11.9855 1.70256 12.6225 2.21677L12.7071 2.29288L17.7071 7.29288C17.7545 7.34027 17.7961 7.39111 17.8319 7.44456L17.8597 7.48847L17.9043 7.57217L17.9541 7.69957C18.0587 8.04194 17.9797 8.41987 17.7274 8.68642L17.6247 8.78086L13.6 12L17.6247 15.2191C17.8906 15.4319 18.0172 15.7497 17.9982 16.0618C17.9918 16.1594 17.9727 16.2517 17.9404 16.3408L17.9043 16.4278L17.8532 16.5219ZM13 14.08V18.584L15.502 16.082L13 14.08ZM13 9.91899V5.41499L15.502 7.91699L13 9.91899Z" fill="black"/>
</svg>
