<svg width="24" height="24" viewBox="0 0 24 24" fill="none" xmlns="http://www.w3.org/2000/svg">
<path fill-rule="evenodd" clip-rule="evenodd" d="M19 2C20.6569 2 22 3.34315 22 5V19C22 20.6569 20.6569 22 19 22H5C3.34315 22 2 20.6569 2 19V5C2 3.34315 3.34315 2 5 2H19ZM19 4H5C4.44772 4 4 4.44772 4 5V19C4 19.5523 4.44772 20 5 20H19C19.5523 20 20 19.5523 20 19V5C20 4.44772 19.5523 4 19 4ZM8 14C8.55228 14 9 14.4477 9 15V17C9 17.5523 8.55228 18 8 18C7.44772 18 7 17.5523 7 17V15C7 14.4477 7.44772 14 8 14ZM12 6C12.5523 6 13 6.44772 13 7V17C13 17.5523 12.5523 18 12 18C11.4477 18 11 17.5523 11 17V7C11 6.44772 11.4477 6 12 6ZM16 10C16.5523 10 17 10.4477 17 11V17C17 17.5523 16.5523 18 16 18C15.4477 18 15 17.5523 15 17V11C15 10.4477 15.4477 10 16 10Z" fill="black"/>
</svg>
