<svg width="24" height="24" viewBox="0 0 24 24" fill="none" xmlns="http://www.w3.org/2000/svg">
<path fill-rule="evenodd" clip-rule="evenodd" d="M7 18.585L8.29289 17.2929C8.65338 16.9324 9.22061 16.9047 9.6129 17.2097L9.70711 17.2929C10.0676 17.6534 10.0953 18.2206 9.7903 18.6129L9.70711 18.7071L6.70711 21.7071L6.66315 21.7485L6.59531 21.8037L6.48406 21.8753L6.4231 21.9063L6.34165 21.9401L6.26599 21.9642L6.11747 21.9932L6 22L5.918 21.996L5.79927 21.9798L5.68786 21.9503L5.57678 21.9063L5.47929 21.854L5.40484 21.8037L5.29289 21.7071L2.29289 18.7071C1.90237 18.3166 1.90237 17.6834 2.29289 17.2929C2.65338 16.9324 3.22061 16.9047 3.6129 17.2097L3.70711 17.2929L5 18.585V5.415L3.70711 6.70711L3.6129 6.7903C3.22061 7.09532 2.65338 7.06759 2.29289 6.70711C1.93241 6.34662 1.90468 5.77939 2.2097 5.3871L2.29289 5.29289L5.29289 2.29289L5.40484 2.19631L5.47929 2.146L5.57678 2.09367L5.68786 2.04974L5.79927 2.02024L5.918 2.004L6 2L6.11747 2.00683L6.26599 2.03585L6.34165 2.05989L6.4231 2.09365L6.48406 2.12467L6.59531 2.19633L6.66315 2.2515L6.70711 2.29289L9.70711 5.29289L9.7903 5.3871C10.0699 5.7467 10.0699 6.2533 9.7903 6.6129L9.70711 6.70711L9.6129 6.7903C9.2533 7.0699 8.7467 7.0699 8.3871 6.7903L8.29289 6.70711L7 5.415V18.585ZM21 19C21.5523 19 22 19.4477 22 20C22 20.5523 21.5523 21 21 21H13C12.4477 21 12 20.5523 12 20C12 19.4477 12.4477 19 13 19H21ZM21 11C21.5523 11 22 11.4477 22 12C22 12.5523 21.5523 13 21 13H13C12.4477 13 12 12.5523 12 12C12 11.4477 12.4477 11 13 11H21ZM21 3C21.5523 3 22 3.44772 22 4C22 4.55228 21.5523 5 21 5H13C12.4477 5 12 4.55228 12 4C12 3.44772 12.4477 3 13 3H21Z" fill="black"/>
</svg>
