<svg width="24" height="24" viewBox="0 0 24 24" fill="none" xmlns="http://www.w3.org/2000/svg">
<path fill-rule="evenodd" clip-rule="evenodd" d="M13.944 2.73117L14.0855 2.86386L21.1361 9.91446C22.288 11.0663 22.288 12.9337 21.1361 14.0855L14.0855 21.1361C12.9337 22.288 11.0663 22.288 9.91446 21.1361L2.86386 14.0855C1.71205 12.9337 1.71205 11.0663 2.86386 9.91446L9.91446 2.86386C11.0202 1.75812 12.7855 1.71389 13.944 2.73117ZM11.3287 4.27807L4.27807 11.3287C3.90731 11.6994 3.90731 12.3006 4.27807 12.6713L11.3287 19.7219C11.6994 20.0927 12.3006 20.0927 12.6713 19.7219L19.7219 12.6713C20.0927 12.3006 20.0927 11.6994 19.7219 11.3287L12.6865 4.29321L12.6243 4.23401C12.2515 3.90661 11.6828 3.92398 11.3287 4.27807ZM13.6129 9.2097L13.7071 9.29289L15.7071 11.2929C16.0676 11.6534 16.0953 12.2206 15.7903 12.6129L15.7071 12.7071L13.7071 14.7071C13.3166 15.0976 12.6834 15.0976 12.2929 14.7071C11.9324 14.3466 11.9047 13.7794 12.2097 13.3871L12.2929 13.2929L12.584 13H10V14C10 14.5523 9.55228 15 9 15C8.48716 15 8.06449 14.614 8.00673 14.1166L8 14V12C8 11.4872 8.38604 11.0645 8.88338 11.0067L9 11H12.585L12.2929 10.7071C11.9324 10.3466 11.9047 9.77939 12.2097 9.3871L12.2929 9.29289C12.6534 8.93241 13.2206 8.90468 13.6129 9.2097Z" fill="black"/>
</svg>
