<svg width="24" height="24" viewBox="0 0 24 24" fill="none" xmlns="http://www.w3.org/2000/svg">
<path fill-rule="evenodd" clip-rule="evenodd" d="M8.17071 4L8.23766 3.82776C8.69415 2.75341 9.75909 2 11 2C12.3062 2 13.4175 2.83481 13.8293 4H17C18.6569 4 20 5.34315 20 7V10.1707C21.1652 10.5825 22 11.6938 22 13C22 14.293 21.1794 15.4032 20 15.8231V19C20 20.6569 18.6569 22 17 22H14C13.4872 22 13.0645 21.614 13.0067 21.1166L12.9945 20.8507C12.9182 19.8159 12.0544 19 11 19C9.89543 19 9 19.8954 9 21C9 21.5523 8.55228 22 8 22H5C3.34315 22 2 20.6569 2 19V16C2 15.4872 2.38604 15.0645 2.88338 15.0067L3.14926 14.9945C4.18412 14.9182 5 14.0544 5 13C5 11.8954 4.10457 11 3 11C2.44772 11 2 10.5523 2 10V7C2 5.34315 3.34315 4 5 4H8.17071ZM17 20C17.5523 20 18 19.5523 18 19V15C18 14.462 18.4256 14.0204 18.9633 14.0007L19.0757 13.9972C19.5945 13.9589 20 13.5243 20 13C20 12.4872 19.614 12.0645 19.1166 12.0067L18.8834 11.9933C18.386 11.9355 18 11.5128 18 11V7C18 6.44772 17.5523 6 17 6H13C12.4872 6 12.0645 5.61396 12.0067 5.11662L11.9933 4.88338C11.9355 4.38604 11.5128 4 11 4C10.4872 4 10.0645 4.38604 10.0067 4.88338L9.99327 5.11662C9.93551 5.61396 9.51284 6 9 6H5C4.44772 6 4 6.44772 4 7V9.12602C5.72523 9.57006 7 11.1362 7 13C7 14.8638 5.72523 16.4299 4 16.874V19C4 19.5523 4.44772 20 5 20H7.12602C7.57006 18.2748 9.13616 17 11 17C12.7948 17 14.3135 18.1821 14.8201 19.8102L14.874 20H17Z" fill="black"/>
</svg>
