<svg width="24" height="24" viewBox="0 0 24 24" fill="none" xmlns="http://www.w3.org/2000/svg">
<path fill-rule="evenodd" clip-rule="evenodd" d="M21.1166 2.00673L21 2H19L18.8834 2.00673C18.386 2.06449 18 2.48716 18 3C18 3.51284 18.386 3.93551 18.8834 3.99327L19 4H20V5L20.0067 5.11662C20.06 5.5757 20.4243 5.93995 20.8834 5.99327L21 6L21.1166 5.99327C21.5757 5.93995 21.94 5.5757 21.9933 5.11662L22 5V3L21.9933 2.88338C21.94 2.4243 21.5757 2.06005 21.1166 2.00673ZM3 6L3.11662 6.00673C3.5757 6.06005 3.93995 6.4243 3.99327 6.88338L4 7V20H17L17.1166 20.0067C17.614 20.0645 18 20.4872 18 21C18 21.5128 17.614 21.9355 17.1166 21.9933L17 22H3L2.88338 21.9933C2.4243 21.94 2.06005 21.5757 2.00673 21.1166L2 21V7L2.00673 6.88338C2.06005 6.4243 2.4243 6.06005 2.88338 6.00673L3 6ZM7 14L7.11662 14.0067C7.5757 14.06 7.93995 14.4243 7.99327 14.8834L8 15V16H9L9.11662 16.0067C9.61396 16.0645 10 16.4872 10 17C10 17.5128 9.61396 17.9355 9.11662 17.9933L9 18H7L6.88338 17.9933C6.4243 17.94 6.06005 17.5757 6.00673 17.1166L6 17V15L6.00673 14.8834C6.06005 14.4243 6.4243 14.06 6.88338 14.0067L7 14ZM21.1166 14.0067L21 14L20.8834 14.0067L20.7707 14.0264C20.3657 14.1214 20.0556 14.4626 20.0067 14.8834L20 15V16H19L18.8834 16.0067L18.7707 16.0264C18.3289 16.1301 18 16.5266 18 17C18 17.5128 18.386 17.9355 18.8834 17.9933L19 18H21L21.1166 17.9933L21.2293 17.9736C21.6343 17.8786 21.9444 17.5374 21.9933 17.1166L22 17V15L21.9933 14.8834L21.9736 14.7707C21.8786 14.3657 21.5374 14.0556 21.1166 14.0067ZM15 16C15.5523 16 16 16.4477 16 17C16 17.5523 15.5523 18 15 18H13C12.4477 18 12 17.5523 12 17C12 16.4477 12.4477 16 13 16H15ZM8 9C8 8.44772 7.55228 8 7 8C6.44772 8 6 8.44772 6 9V11C6 11.5523 6.44772 12 7 12C7.55228 12 8 11.5523 8 11V9ZM21 8C21.5523 8 22 8.44772 22 9V11C22 11.5523 21.5523 12 21 12C20.4477 12 20 11.5523 20 11V9C20 8.44772 20.4477 8 21 8ZM9 2L9.11662 2.00673C9.61396 2.06449 10 2.48716 10 3C10 3.47339 9.67107 3.86995 9.22929 3.97359L9.11662 3.99327L9 4H8V5L7.99327 5.11662C7.94439 5.53745 7.63425 5.87858 7.22929 5.97359L7.11662 5.99327L7 6L6.88338 5.99327C6.46255 5.94439 6.12142 5.63425 6.02641 5.22929L6.00673 5.11662L6 5V3L6.00673 2.88338C6.05561 2.46255 6.36575 2.12142 6.77071 2.02641L6.88338 2.00673L7 2H9ZM16 3C16 2.44772 15.5523 2 15 2H13C12.4477 2 12 2.44772 12 3C12 3.55228 12.4477 4 13 4H15C15.5523 4 16 3.55228 16 3Z" fill="black"/>
</svg>
