<svg width="24" height="24" viewBox="0 0 24 24" fill="none" xmlns="http://www.w3.org/2000/svg">
<path fill-rule="evenodd" clip-rule="evenodd" d="M17 2C17.5523 2 18 2.44772 18 3V4H19C20.6569 4 22 5.34315 22 7V9C22 9.55228 21.5523 10 21 10C20.4477 10 20 9.55228 20 9V7C20 6.44772 19.5523 6 19 6H18V7C18 7.55228 17.5523 8 17 8C16.4477 8 16 7.55228 16 7V6H8V7C8 7.55228 7.55228 8 7 8C6.44772 8 6 7.55228 6 7V6H5C4.44772 6 4 6.44772 4 7V10H9C9.55228 10 10 10.4477 10 11C10 11.5523 9.55228 12 9 12H4V19C4 19.5523 4.44772 20 5 20H9C9.55228 20 10 20.4477 10 21C10 21.5523 9.55228 22 9 22H5C3.34315 22 2 20.6569 2 19V7C2 5.34315 3.34315 4 5 4H6V3C6 2.44772 6.44772 2 7 2C7.55228 2 8 2.44772 8 3V4H16V3C16 2.44772 16.4477 2 17 2ZM15.7071 14.2929L18 16.585L20.2929 14.2929C20.6534 13.9324 21.2206 13.9047 21.6129 14.2097L21.7071 14.2929C22.0676 14.6534 22.0953 15.2206 21.7903 15.6129L21.7071 15.7071L19.415 18L21.7071 20.2929C22.0976 20.6834 22.0976 21.3166 21.7071 21.7071C21.3166 22.0976 20.6834 22.0976 20.2929 21.7071L18 19.415L15.7071 21.7071C15.3466 22.0676 14.7794 22.0953 14.3871 21.7903L14.2929 21.7071C13.9324 21.3466 13.9047 20.7794 14.2097 20.3871L14.2929 20.2929L16.585 18L14.2929 15.7071C13.9024 15.3166 13.9024 14.6834 14.2929 14.2929C14.6834 13.9024 15.3166 13.9024 15.7071 14.2929Z" fill="black"/>
</svg>
