<svg width="24" height="24" viewBox="0 0 24 24" fill="none" xmlns="http://www.w3.org/2000/svg">
<path fill-rule="evenodd" clip-rule="evenodd" d="M17 5H5C3.34315 5 2 6.34315 2 8V16C2 17.6569 3.34315 19 5 19H17L17.1763 18.9949C18.7511 18.9037 20 17.5977 20 16V15.822L20.0293 15.8125C21.193 15.3847 22 14.2823 22 13V11L21.9949 10.8237C21.9279 9.66692 21.2054 8.68597 20.1933 8.24671L20 8.17V8C20 6.34315 18.6569 5 17 5ZM5 7H17C17.5523 7 18 7.44772 18 8V9C18 9.51284 18.386 9.93551 18.8834 9.99327L19 10C19.5523 10 20 10.4477 20 11V13C20 13.5243 19.5945 13.9589 19.0757 13.9972L18.9633 14.0007C18.4256 14.0204 18 14.462 18 15V16C18 16.5523 17.5523 17 17 17H5C4.44772 17 4 16.5523 4 16V8C4 7.44772 4.44772 7 5 7Z" fill="black"/>
</svg>
