<svg width="24" height="24" viewBox="0 0 24 24" fill="none" xmlns="http://www.w3.org/2000/svg">
<path fill-rule="evenodd" clip-rule="evenodd" d="M5.63604 5.63604L11.289 11.289L13.4214 9.15729C13.8139 8.76479 14.4502 8.76479 14.8427 9.15729C15.2352 9.54978 15.2352 10.1861 14.8427 10.5786L12.71 12.71L18.364 18.364C18.7545 18.7545 18.7545 19.3877 18.364 19.7782C17.9734 20.1687 17.3403 20.1687 16.9497 19.7782L14.139 16.968L10.5786 20.5281C8.61616 22.4906 5.43435 22.4906 3.47186 20.5281C1.56102 18.6173 1.51074 15.5505 3.32101 13.5788L3.47186 13.4214L7.032 9.861L4.22183 7.05025C3.8313 6.65973 3.8313 6.02656 4.22183 5.63604C4.61235 5.24551 5.24551 5.24551 5.63604 5.63604ZM8.453 11.282L4.89322 14.8427C3.71573 16.0202 3.71573 17.9293 4.89322 19.1068C6.02866 20.2422 7.84437 20.2828 9.0284 19.2284L9.15729 19.1068L12.717 15.546L11.296 14.125L10.5786 14.8427C10.1861 15.2352 9.54978 15.2352 9.15729 14.8427C8.76479 14.4502 8.76479 13.8139 9.15729 13.4214L9.875 12.704L8.453 11.282ZM20.5281 3.47186C22.4906 5.43435 22.4906 8.61616 20.5281 10.5786L17.6854 13.4214C17.2929 13.8139 16.6566 13.8139 16.2641 13.4214C15.8716 13.0289 15.8716 12.3925 16.2641 12L19.1068 9.15729C20.2843 7.9798 20.2843 6.07071 19.1068 4.89322C17.9293 3.71573 16.0202 3.71573 14.8427 4.89322L12 7.73593C11.6075 8.12843 10.9711 8.12843 10.5786 7.73593C10.1861 7.34343 10.1861 6.70707 10.5786 6.31458L13.4214 3.47186C15.3838 1.50938 18.5657 1.50938 20.5281 3.47186ZM12.7071 9.87868L11.2929 11.2929L12.7071 12.7071L14.1213 11.2929L12.7071 9.87868Z" fill="black"/>
</svg>
