<svg width="24" height="24" viewBox="0 0 24 24" fill="none" xmlns="http://www.w3.org/2000/svg">
<path fill-rule="evenodd" clip-rule="evenodd" d="M5.63604 5.63604L18.364 18.364C18.7545 18.7545 18.7545 19.3877 18.364 19.7782C17.9734 20.1687 17.3403 20.1687 16.9497 19.7782L16.0628 18.893C15.1442 19.4356 14.1077 19.7998 13.001 19.938L13 21C13 21.5523 12.5523 22 12 22C11.4477 22 11 21.5523 11 21L11 19.9381C7.38161 19.4869 4.51362 16.6192 4.06201 13.0009L3 13C2.44772 13 2 12.5523 2 12C2 11.4477 2.44772 11 3 11L4.06188 11.0001C4.19994 9.89281 4.5643 8.85579 5.10721 7.93679L4.22183 7.05025C3.8313 6.65973 3.8313 6.02656 4.22183 5.63604C4.61235 5.24551 5.24551 5.24551 5.63604 5.63604ZM6 12C6 15.3137 8.68629 18 12 18C12.9261 18 13.8032 17.7902 14.5863 17.4155L6.58449 9.41369C6.20981 10.1968 6 11.0739 6 12ZM12 2C12.5523 2 13 2.44772 13 3L13.001 4.06201C16.6193 4.51365 19.487 7.3817 19.9381 11.0002L21 11C21.5523 11 22 11.4477 22 12C22 12.5523 21.5523 13 21 13L19.938 13.0008C19.7998 14.1079 19.4354 15.1447 18.8926 16.0636L17.4157 14.5859C17.7903 13.8029 18 12.9259 18 12C18 8.68629 15.3137 6 12 6C11.0741 6 10.1971 6.20974 9.41408 6.58431L7.93664 5.1073C8.85567 4.56435 9.89272 4.19996 11 4.06189L11 3C11 2.44772 11.4477 2 12 2Z" fill="black"/>
</svg>
