<svg width="24" height="24" viewBox="0 0 24 24" fill="none" xmlns="http://www.w3.org/2000/svg">
<path fill-rule="evenodd" clip-rule="evenodd" d="M13 20C13.5523 20 14 20.4477 14 21C14 21.5128 13.614 21.9355 13.1166 21.9933L13 22H11C10.4477 22 10 21.5523 10 21C10 20.4872 10.386 20.0645 10.8834 20.0067L11 20H13ZM21 18C21.4734 18 21.8699 18.3289 21.9736 18.7707L21.9933 18.8834L22 19V21L21.9933 21.1166L21.9736 21.2293C21.8881 21.5938 21.6032 21.8814 21.2403 21.9709L21.1166 21.9933L21 22H19L18.8834 21.9933L18.7707 21.9736C18.4062 21.8881 18.1186 21.6032 18.0291 21.2403L18.0067 21.1166L18 21L18.0067 20.8834L18.0264 20.7707C18.1119 20.4062 18.3968 20.1186 18.7597 20.0291L18.8834 20.0067L19 20H20V19L20.0067 18.8834L20.0264 18.7707C20.1301 18.3289 20.5266 18 21 18ZM21 2C21.5523 2 22 2.44772 22 3C22 3.51284 21.614 3.93551 21.1166 3.99327L21 4H5C4.48716 4 4.06449 4.38604 4.00673 4.88338L4 5V21C4 21.5523 3.55228 22 3 22C2.48716 22 2.06449 21.614 2.00673 21.1166L2 21V5C2 3.40232 3.24892 2.09634 4.82373 2.00509L5 2H21ZM12 9C12.5128 9 12.9355 9.38604 12.9933 9.88338L13 10V11H14C14.5523 11 15 11.4477 15 12C15 12.5128 14.614 12.9355 14.1166 12.9933L14 13H13V14C13 14.5523 12.5523 15 12 15C11.4872 15 11.0645 14.614 11.0067 14.1166L11 14V13H10C9.44772 13 9 12.5523 9 12C9 11.4872 9.38604 11.0645 9.88338 11.0067L10 11H11V10C11 9.44772 11.4477 9 12 9ZM21 10C21.5128 10 21.9355 10.386 21.9933 10.8834L22 11V13C22 13.5523 21.5523 14 21 14C20.4872 14 20.0645 13.614 20.0067 13.1166L20 13V11C20 10.4477 20.4477 10 21 10Z" fill="black"/>
</svg>
