<svg width="24" height="24" viewBox="0 0 24 24" fill="none" xmlns="http://www.w3.org/2000/svg">
<path fill-rule="evenodd" clip-rule="evenodd" d="M17 2C17.5523 2 18 2.44772 18 3V4H19C20.6569 4 22 5.34315 22 7V9C22 9.55228 21.5523 10 21 10C20.4477 10 20 9.55228 20 9V7C20 6.44772 19.5523 6 19 6H18V7C18 7.55228 17.5523 8 17 8C16.4477 8 16 7.55228 16 7V6H8V7C8 7.55228 7.55228 8 7 8C6.44772 8 6 7.55228 6 7V6H5C4.44772 6 4 6.44772 4 7V10H9C9.55228 10 10 10.4477 10 11C10 11.5523 9.55228 12 9 12H4V19C4 19.5523 4.44772 20 5 20H9C9.55228 20 10 20.4477 10 21C10 21.5523 9.55228 22 9 22H5C3.34315 22 2 20.6569 2 19V7C2 5.34315 3.34315 4 5 4H6V3C6 2.44772 6.44772 2 7 2C7.55228 2 8 2.44772 8 3V4H16V3C16 2.44772 16.4477 2 17 2ZM17 12C17.5523 12 18 12.4477 18 13V16H21C21.5523 16 22 16.4477 22 17C22 17.5523 21.5523 18 21 18H18V21C18 21.5523 17.5523 22 17 22C16.4477 22 16 21.5523 16 21V18H13C12.4477 18 12 17.5523 12 17C12 16.4477 12.4477 16 13 16H16V13C16 12.4477 16.4477 12 17 12Z" fill="black"/>
</svg>
