<svg width="24" height="24" viewBox="0 0 24 24" fill="none" xmlns="http://www.w3.org/2000/svg">
<path fill-rule="evenodd" clip-rule="evenodd" d="M19.6129 13.2097L19.7071 13.2929C20.0676 13.6534 20.0953 14.2206 19.7903 14.6129L19.7071 14.7071L12.7071 21.7071L12.6631 21.7485L12.5953 21.8037L12.4841 21.8753L12.3713 21.9288L12.266 21.9642L12.1181 21.9931L12 22L11.9248 21.9972L11.7993 21.9798L11.6879 21.9503L11.5768 21.9063L11.4793 21.854L11.3746 21.7803L11.2929 21.7071L4.29289 14.7071C3.90237 14.3166 3.90237 13.6834 4.29289 13.2929C4.65338 12.9324 5.22061 12.9047 5.6129 13.2097L5.70711 13.2929L11 18.584V3C11 2.44772 11.4477 2 12 2C12.5523 2 13 2.44772 13 3V18.586L18.2929 13.2929C18.6534 12.9324 19.2206 12.9047 19.6129 13.2097L19.7071 13.2929L19.6129 13.2097Z" fill="black"/>
</svg>
