<svg width="24" height="24" viewBox="0 0 24 24" fill="none" xmlns="http://www.w3.org/2000/svg">
<path fill-rule="evenodd" clip-rule="evenodd" d="M20 3C20 2.44772 20.4477 2 21 2C21.5523 2 22 2.44772 22 3V21C22 21.5523 21.5523 22 21 22C20.4477 22 20 21.5523 20 21V3ZM9 12C9 11.4477 9.44772 11 10 11H11V10C11 9.44772 11.4477 9 12 9C12.5523 9 13 9.44772 13 10V11H14C14.5523 11 15 11.4477 15 12C15 12.5523 14.5523 13 14 13H13V14C13 14.5523 12.5523 15 12 15C11.4477 15 11 14.5523 11 14V13H10C9.44772 13 9 12.5523 9 12ZM10 21C10 20.4477 10.4477 20 11 20H13C13.5523 20 14 20.4477 14 21C14 21.5523 13.5523 22 13 22H11C10.4477 22 10 21.5523 10 21ZM10 3C10 2.44772 10.4477 2 11 2H13C13.5523 2 14 2.44772 14 3C14 3.55228 13.5523 4 13 4H11C10.4477 4 10 3.55228 10 3ZM2 3L2.00673 2.88338C2.06005 2.4243 2.4243 2.06005 2.88338 2.00673L3 2H5L5.11662 2.00673C5.5757 2.06005 5.93995 2.4243 5.99327 2.88338L6 3L5.99327 3.11662C5.93995 3.5757 5.5757 3.93995 5.11662 3.99327L5 4H4V5L3.99327 5.11662C3.93551 5.61396 3.51284 6 3 6C2.48716 6 2.06449 5.61396 2.00673 5.11662L2 5V3ZM2 19L2.00673 18.8834C2.06449 18.386 2.48716 18 3 18C3.47339 18 3.86995 18.3289 3.97359 18.7707L3.99327 18.8834L4 19V20H5L5.11662 20.0067C5.53745 20.0556 5.87858 20.3657 5.97359 20.7707L5.99327 20.8834L6 21L5.99327 21.1166C5.94439 21.5374 5.63425 21.8786 5.22929 21.9736L5.11662 21.9933L5 22H3L2.88338 21.9933C2.46255 21.9444 2.12142 21.6343 2.02641 21.2293L2.00673 21.1166L2 21V19ZM2 11C2 10.4477 2.44772 10 3 10C3.55228 10 4 10.4477 4 11V13C4 13.5523 3.55228 14 3 14C2.44772 14 2 13.5523 2 13V11Z" fill="black"/>
</svg>
