<svg width="24" height="24" viewBox="0 0 24 24" fill="none" xmlns="http://www.w3.org/2000/svg">
<path fill-rule="evenodd" clip-rule="evenodd" d="M21 2L21.1166 2.00673C21.5757 2.06005 21.94 2.4243 21.9933 2.88338L22 3V17L21.9933 17.1166C21.9444 17.5374 21.6343 17.8786 21.2293 17.9736L21.1166 17.9933L21 18H7L6.88338 17.9933C6.4243 17.9399 6.06005 17.5757 6.00673 17.1166L6 17V3L6.00673 2.88338C6.05561 2.46255 6.36575 2.12142 6.77071 2.02641L6.88338 2.00673L7 2H21ZM3 18L3.11662 18.0067C3.5757 18.06 3.93995 18.4243 3.99327 18.8834L4 19V20H5L5.11662 20.0067C5.61396 20.0645 6 20.4872 6 21C6 21.5128 5.61396 21.9355 5.11662 21.9933L5 22H3L2.88338 21.9933C2.4243 21.94 2.06005 21.5757 2.00673 21.1166L2 21V19L2.00673 18.8834C2.06005 18.4243 2.4243 18.06 2.88338 18.0067L3 18ZM17 20C17.5523 20 18 20.4477 18 21C18 21.5523 17.5523 22 17 22H15C14.4477 22 14 21.5523 14 21C14 20.4477 14.4477 20 15 20H17ZM12 21C12 20.4477 11.5523 20 11 20H9C8.44772 20 8 20.4477 8 21C8 21.5523 8.44772 22 9 22H11C11.5523 22 12 21.5523 12 21ZM20 16H8V4H20V16ZM3 12C3.55228 12 4 12.4477 4 13V15C4 15.5523 3.55228 16 3 16C2.44772 16 2 15.5523 2 15V13C2 12.4477 2.44772 12 3 12ZM4 7C4 6.44772 3.55228 6 3 6C2.44772 6 2 6.44772 2 7V9C2 9.55228 2.44772 10 3 10C3.55228 10 4 9.55228 4 9V7Z" fill="black"/>
</svg>
