<svg width="24" height="24" viewBox="0 0 24 24" fill="none" xmlns="http://www.w3.org/2000/svg">
<path fill-rule="evenodd" clip-rule="evenodd" d="M21 4C21.5523 4 22 3.55228 22 3C22 2.44772 21.5523 2 21 2H3C2.44772 2 2 2.44772 2 3C2 3.55228 2.44772 4 3 4H21ZM12 15C12.5523 15 13 14.5523 13 14V13H14C14.5523 13 15 12.5523 15 12C15 11.4477 14.5523 11 14 11H13V10C13 9.44772 12.5523 9 12 9C11.4477 9 11 9.44772 11 10V11H10C9.44772 11 9 11.4477 9 12C9 12.5523 9.44772 13 10 13H11V14C11 14.5523 11.4477 15 12 15ZM3 14C3.55228 14 4 13.5523 4 13V11C4 10.4477 3.55228 10 3 10C2.44772 10 2 10.4477 2 11V13C2 13.5523 2.44772 14 3 14ZM21 14C21.5523 14 22 13.5523 22 13V11C22 10.4477 21.5523 10 21 10C20.4477 10 20 10.4477 20 11V13C20 13.5523 20.4477 14 21 14ZM21 22L21.1166 21.9933C21.5757 21.94 21.94 21.5757 21.9933 21.1166L22 21V19L21.9933 18.8834C21.94 18.4243 21.5757 18.06 21.1166 18.0067L21 18L20.8834 18.0067C20.4243 18.06 20.06 18.4243 20.0067 18.8834L20 19V20H19L18.8834 20.0067C18.386 20.0645 18 20.4872 18 21C18 21.5128 18.386 21.9355 18.8834 21.9933L19 22H21ZM5 22L5.11662 21.9933C5.61396 21.9355 6 21.5128 6 21C6 20.5266 5.67107 20.1301 5.22929 20.0264L5.11662 20.0067L5 20H4V19L3.99327 18.8834C3.94439 18.4626 3.63425 18.1214 3.22929 18.0264L3.11662 18.0067L3 18L2.88338 18.0067C2.46255 18.0556 2.12142 18.3657 2.02641 18.7707L2.00673 18.8834L2 19V21L2.00673 21.1166C2.05561 21.5374 2.36575 21.8786 2.77071 21.9736L2.88338 21.9933L3 22H5ZM13 22C13.5523 22 14 21.5523 14 21C14 20.4477 13.5523 20 13 20H11C10.4477 20 10 20.4477 10 21C10 21.5523 10.4477 22 11 22H13Z" fill="black"/>
</svg>
