<svg width="24" height="24" viewBox="0 0 24 24" fill="none" xmlns="http://www.w3.org/2000/svg">
<path fill-rule="evenodd" clip-rule="evenodd" d="M9.5547 9.83205C9.8329 9.64658 10 9.33435 10 9V5C10 3.34315 8.65685 2 7 2H3C2.44772 2 2 2.44772 2 3C2 12.9411 11.0589 22 21 22C21.5523 22 22 21.5523 22 21V17C22 15.3431 20.6569 14 19 14H15C14.6656 14 14.3534 14.1671 14.1679 14.4453L12.2626 17.3033C10.1874 15.9615 8.36925 14.1892 6.97074 12.149L6.69668 11.7374L9.5547 9.83205ZM15.5352 16H19C19.5523 16 20 16.4477 20 17V19.9653C18.0628 19.8313 16.1721 19.3132 14.4087 18.4916L14.0041 18.2966L15.5352 16ZM7 4C7.55228 4 8 4.44772 8 5V8.46482L5.70338 9.9959C4.76882 8.11845 4.17903 6.08626 4.03467 4H7ZM12.0275 6.23364L12.0154 6.17491L12.0018 6.05914L12.0018 5.94096L12.0154 5.82544L12.05 5.68735L12.0819 5.60327L12.1462 5.47942L12.1866 5.41831L12.2167 5.37848L12.293 5.29297L15.293 2.2929L15.3872 2.20971C15.7468 1.9301 16.2534 1.9301 16.613 2.20971L16.7072 2.2929L16.7904 2.38711C17.07 2.74672 17.07 3.25333 16.7904 3.61294L16.7072 3.70715L15.4151 5.00021L21.0001 5.00008C21.5129 5.00008 21.9356 5.38612 21.9934 5.88346L22.0001 6.00008L21.9934 6.11675C21.9401 6.57583 21.5758 6.94008 21.1167 6.9934L21.0001 7.00013L15.4151 7.00021L16.7072 8.29306L16.7904 8.38727C17.0954 8.77957 17.0677 9.34681 16.7072 9.70731C16.3467 10.0678 15.7795 10.0955 15.3872 9.7905L15.293 9.70731L12.293 6.70724L12.1964 6.59529L12.125 6.48441L12.0938 6.42334L12.0498 6.31225L12.0275 6.23364Z" fill="black"/>
</svg>
