<svg width="24" height="24" viewBox="0 0 24 24" fill="none" xmlns="http://www.w3.org/2000/svg">
<path fill-rule="evenodd" clip-rule="evenodd" d="M19 13C20.6569 13 22 14.3431 22 16V19C22 20.6569 20.6569 22 19 22H16C14.3431 22 13 20.6569 13 19V16C13 14.3431 14.3431 13 16 13H19ZM8 13C9.65685 13 11 14.3431 11 16V19C11 20.6569 9.65685 22 8 22H5C3.34315 22 2 20.6569 2 19V16C2 14.3431 3.34315 13 5 13H8ZM19 15H16C15.4477 15 15 15.4477 15 16V19C15 19.5523 15.4477 20 16 20H19C19.5523 20 20 19.5523 20 19V16C20 15.4477 19.5523 15 19 15ZM8 15H5C4.44772 15 4 15.4477 4 16V19C4 19.5523 4.44772 20 5 20H8C8.55228 20 9 19.5523 9 19V16C9 15.4477 8.55228 15 8 15ZM8 2C9.65685 2 11 3.34315 11 5V8C11 9.65685 9.65685 11 8 11H5C3.34315 11 2 9.65685 2 8V5C2 3.34315 3.34315 2 5 2H8ZM19 2C20.6569 2 22 3.34315 22 5V8C22 9.65685 20.6569 11 19 11H16C14.3431 11 13 9.65685 13 8V5C13 3.34315 14.3431 2 16 2H19ZM8 4H5C4.44772 4 4 4.44772 4 5V8C4 8.55228 4.44772 9 5 9H8C8.55228 9 9 8.55228 9 8V5C9 4.44772 8.55228 4 8 4ZM19 4H16C15.4477 4 15 4.44772 15 5V8C15 8.55228 15.4477 9 16 9H19C19.5523 9 20 8.55228 20 8V5C20 4.44772 19.5523 4 19 4Z" fill="black"/>
</svg>
