<svg width="24" height="24" viewBox="0 0 24 24" fill="none" xmlns="http://www.w3.org/2000/svg">
<path fill-rule="evenodd" clip-rule="evenodd" d="M19 2C19.5523 2 20 2.44772 20 3C20 3.55228 19.5523 4 19 4H10V10H19C19.5523 10 20 10.4477 20 11C20 11.5523 19.5523 12 19 12H10V16H13C13.5523 16 14 16.4477 14 17C14 17.5523 13.5523 18 13 18H10V21C10 21.5523 9.55228 22 9 22C8.44772 22 8 21.5523 8 21V18H5C4.44772 18 4 17.5523 4 17C4 16.4477 4.44772 16 5 16H8V3C8 2.44772 8.44772 2 9 2H19Z" fill="black"/>
</svg>
