<svg width="24" height="24" viewBox="0 0 24 24" fill="none" xmlns="http://www.w3.org/2000/svg">
<path fill-rule="evenodd" clip-rule="evenodd" d="M12 14L12.1175 14.0068L12.266 14.0358L12.3417 14.0599L12.4231 14.0937L12.4841 14.1247L12.5953 14.1963L12.6631 14.2515L12.7071 14.2929L14.7071 16.2929L14.7903 16.3871C15.0699 16.7467 15.0699 17.2533 14.7903 17.6129L14.7071 17.7071L14.6129 17.7903C14.2533 18.0699 13.7467 18.0699 13.3871 17.7903L13.2929 17.7071L13 17.415V21C13 21.5523 12.5523 22 12 22C11.4872 22 11.0645 21.614 11.0067 21.1166L11 21V17.415L10.7071 17.7071L10.6129 17.7903C10.2206 18.0953 9.65338 18.0676 9.29289 17.7071C8.93241 17.3466 8.90468 16.7794 9.2097 16.3871L9.29289 16.2929L11.2929 14.2929L11.4048 14.1963L11.4793 14.146L11.5768 14.0937L11.6879 14.0497L11.7993 14.0202L11.918 14.004L12 14ZM21 11C21.5523 11 22 11.4477 22 12C22 12.5128 21.614 12.9355 21.1166 12.9933L21 13H3C2.44772 13 2 12.5523 2 12C2 11.4872 2.38604 11.0645 2.88338 11.0067L3 11H21ZM12 2C12.5523 2 13 2.44772 13 3V6.585L13.2929 6.29289C13.6534 5.93241 14.2206 5.90468 14.6129 6.2097L14.7071 6.29289C15.0676 6.65338 15.0953 7.22061 14.7903 7.6129L14.7071 7.70711L12.7071 9.70711L12.6631 9.7485L12.5953 9.80367L12.4841 9.87533L12.4231 9.90635L12.3417 9.94011L12.266 9.96415L12.1175 9.99317L12 10L11.918 9.996L11.7993 9.97976L11.6879 9.95026L11.5768 9.90633L11.4793 9.854L11.4048 9.80369L11.2929 9.70711L9.29289 7.70711C8.90237 7.31658 8.90237 6.68342 9.29289 6.29289C9.65338 5.93241 10.2206 5.90468 10.6129 6.2097L10.7071 6.29289L11 6.585V3C11 2.44772 11.4477 2 12 2Z" fill="black"/>
</svg>
