<svg width="24" height="24" viewBox="0 0 24 24" fill="none" xmlns="http://www.w3.org/2000/svg">
<path d="M15 16C14.1478 16 13.7026 15.0145 14.2168 14.3775L14.2929 14.2929L16.584 12.0006C15.3147 10.7975 13.3017 9.99999 11 9.99999C7.08172 9.99999 4 12.3113 4 15C4 15.5523 3.55228 16 3 16C2.44772 16 2 15.5523 2 15C2 11.0613 6.08172 7.99999 11 7.99999C13.8067 7.99999 16.341 8.99693 17.9997 10.5849L20.2929 8.29288C20.8955 7.69031 21.9072 8.07232 21.994 8.88636L22 8.99999V15C22 15.5128 21.614 15.9355 21.1166 15.9933L21 16H15Z" fill="black"/>
</svg>
