<svg width="24" height="24" viewBox="0 0 24 24" fill="none" xmlns="http://www.w3.org/2000/svg">
<path d="M15.9696 2C17.5463 2 19.0725 2.36818 20.4512 3.06514C20.944 3.31431 21.1416 3.91586 20.8924 4.40874C20.6433 4.90162 20.0417 5.09919 19.5488 4.85002C18.4483 4.29368 17.2309 4 15.9696 4C12.6253 4 9.76136 6.06809 8.5791 9.00044L14 9C14.5523 9 15 9.44772 15 10C15 10.5523 14.5523 11 14 11L8.06155 11.0008C8.02093 11.3282 8 11.6616 8 12C8 12.3387 8.02097 12.6725 8.06167 13.0002L14 13C14.5523 13 15 13.4477 15 14C15 14.5523 14.5523 15 14 15L8.5795 15.0006C9.762 17.9324 12.6256 20 15.9696 20C17.2306 20 18.4477 19.7065 19.548 19.1504C20.0409 18.9013 20.6424 19.099 20.8915 19.5919C21.1406 20.0848 20.943 20.6863 20.4501 20.9354C19.0717 21.632 17.5458 22 15.9696 22C11.5053 22 7.72722 19.0571 6.45667 15.0008L4 15C3.44772 15 3 14.5523 3 14C3 13.4477 3.44772 13 4 13L6.04933 13.001C6.0167 12.6718 6 12.3378 6 12C6 11.6625 6.01667 11.3289 6.04923 11L4 11C3.44772 11 3 10.5523 3 10C3 9.44772 3.44772 9 4 9L6.45636 9.00024C7.72659 4.94337 11.505 2 15.9696 2Z" fill="black"/>
</svg>
