<svg width="24" height="24" viewBox="0 0 24 24" fill="none" xmlns="http://www.w3.org/2000/svg">
<path fill-rule="evenodd" clip-rule="evenodd" d="M21 20C21.5523 20 22 20.4477 22 21C22 21.5523 21.5523 22 21 22H3C2.44772 22 2 21.5523 2 21C2 20.4477 2.44772 20 3 20H21ZM19 6C20.6569 6 22 7.34315 22 9V15C22 16.6569 20.6569 18 19 18H5C3.34315 18 2 16.6569 2 15V9C2 7.34315 3.34315 6 5 6H19ZM19 8H5C4.44772 8 4 8.44772 4 9V15C4 15.5523 4.44772 16 5 16H19C19.5523 16 20 15.5523 20 15V9C20 8.44772 19.5523 8 19 8ZM21 2C21.5523 2 22 2.44772 22 3C22 3.55228 21.5523 4 21 4H3C2.44772 4 2 3.55228 2 3C2 2.44772 2.44772 2 3 2H21Z" fill="black"/>
</svg>
