<svg width="24" height="24" viewBox="0 0 24 24" fill="none" xmlns="http://www.w3.org/2000/svg">
<path fill-rule="evenodd" clip-rule="evenodd" d="M7 16H17C19.7614 16 22 18.2386 22 21C22 21.5523 21.5523 22 21 22C20.4872 22 20.0645 21.614 20.0067 21.1166L19.9949 20.8237C19.907 19.3072 18.6928 18.093 17.1763 18.0051L17 18H7C5.34315 18 4 19.3431 4 21C4 21.5523 3.55228 22 3 22C2.44772 22 2 21.5523 2 21C2 18.3112 4.12231 16.1182 6.78311 16.0046L7 16ZM12 2C12.4062 2 12.8078 2.04051 13.2004 2.12029C13.7416 2.23029 14.0912 2.75821 13.9812 3.29943C13.8712 3.84065 13.3432 4.19022 12.802 4.08022C12.5404 4.02705 12.2722 4 12 4C9.79086 4 8 5.79086 8 8C8 10.2091 9.79086 12 12 12C13.2748 12 14.4482 11.4008 15.2001 10.4004C15.5319 9.95889 16.1588 9.86999 16.6003 10.2018C17.0418 10.5336 17.1307 11.1605 16.7989 11.602C15.6731 13.0999 13.9104 14 12 14C8.68629 14 6 11.3137 6 8C6 4.68629 8.68629 2 12 2ZM17.7071 2.29289L19 3.585L20.2929 2.29289C20.6534 1.93241 21.2206 1.90468 21.6129 2.2097L21.7071 2.29289C22.0676 2.65338 22.0953 3.22061 21.7903 3.6129L21.7071 3.70711L20.415 5L21.7071 6.29289C22.0976 6.68342 22.0976 7.31658 21.7071 7.70711C21.3166 8.09763 20.6834 8.09763 20.2929 7.70711L19 6.415L17.7071 7.70711C17.3466 8.06759 16.7794 8.09532 16.3871 7.7903L16.2929 7.70711C15.9324 7.34662 15.9047 6.77939 16.2097 6.3871L16.2929 6.29289L17.585 5L16.2929 3.70711C15.9024 3.31658 15.9024 2.68342 16.2929 2.29289C16.6834 1.90237 17.3166 1.90237 17.7071 2.29289Z" fill="black"/>
</svg>
