<svg width="24" height="24" viewBox="0 0 24 24" fill="none" xmlns="http://www.w3.org/2000/svg">
<path fill-rule="evenodd" clip-rule="evenodd" d="M16 2L16.1166 2.00673C16.5757 2.06005 16.94 2.4243 16.9933 2.88338L17 3V7H21L21.1166 7.00673C21.614 7.06449 22 7.48716 22 8C22 8.51284 21.614 8.93551 21.1166 8.99327L21 9H16L15.8834 8.99327C15.4243 8.93995 15.06 8.5757 15.0067 8.11662L15 8V3L15.0067 2.88338C15.06 2.4243 15.4243 2.06005 15.8834 2.00673L16 2ZM8.11662 15.0067L8 15H3L2.88338 15.0067C2.38604 15.0645 2 15.4872 2 16C2 16.5128 2.38604 16.9355 2.88338 16.9933L3 17H7V21L7.00673 21.1166C7.06005 21.5757 7.4243 21.94 7.88338 21.9933L8 22L8.11662 21.9933C8.5757 21.94 8.93995 21.5757 8.99327 21.1166L9 21V16L8.99327 15.8834C8.93995 15.4243 8.5757 15.06 8.11662 15.0067ZM22 16C22 15.4477 21.5523 15 21 15H16L15.8834 15.0067C15.386 15.0645 15 15.4872 15 16V21L15.0067 21.1166C15.0645 21.614 15.4872 22 16 22L16.1166 21.9933C16.614 21.9355 17 21.5128 17 21V17H21L21.1166 16.9933C21.614 16.9355 22 16.5128 22 16ZM8.99327 2.88338C8.93551 2.38604 8.51284 2 8 2L7.88338 2.00673C7.38604 2.06449 7 2.48716 7 3V7H3L2.88338 7.00673C2.38604 7.06449 2 7.48716 2 8C2 8.55228 2.44772 9 3 9H8L8.11662 8.99327C8.61396 8.93551 9 8.51284 9 8V3L8.99327 2.88338Z" fill="black"/>
</svg>
