<svg width="24" height="24" viewBox="0 0 24 24" fill="none" xmlns="http://www.w3.org/2000/svg">
<path fill-rule="evenodd" clip-rule="evenodd" d="M12 2C12.5523 2 13 2.44772 13 3V5C13 5.55228 12.5523 6 12 6C11.4477 6 11 5.55228 11 5V3C11 2.44772 11.4477 2 12 2ZM12 18C12.5523 18 13 18.4477 13 19V21C13 21.5523 12.5523 22 12 22C11.4477 22 11 21.5523 11 21V19C11 18.4477 11.4477 18 12 18ZM20 8C21.1046 8 22 8.89543 22 10V14C22 15.1046 21.1046 16 20 16H4C2.89543 16 2 15.1046 2 14V10C2 8.89543 2.89543 8 4 8H20Z" fill="black"/>
</svg>
