<svg width="24" height="24" viewBox="0 0 24 24" fill="none" xmlns="http://www.w3.org/2000/svg">
<path fill-rule="evenodd" clip-rule="evenodd" d="M6.70711 3.70711C7.09763 3.31658 7.09763 2.68342 6.70711 2.29289C6.31658 1.90237 5.68342 1.90237 5.29289 2.29289L2.29289 5.29289C1.90237 5.68342 1.90237 6.31658 2.29289 6.70711C2.68342 7.09763 3.31658 7.09763 3.70711 6.70711L6.70711 3.70711ZM18.6129 2.2097L18.7071 2.29289L21.7071 5.29289C22.0976 5.68342 22.0976 6.31658 21.7071 6.70711C21.3466 7.06759 20.7794 7.09532 20.3871 6.7903L20.2929 6.70711L17.2929 3.70711C16.9024 3.31658 16.9024 2.68342 17.2929 2.29289C17.6233 1.96245 18.1275 1.91161 18.5114 2.14038L18.6129 2.2097ZM12 4C16.9706 4 21 8.02944 21 13C21 17.9706 16.9706 22 12 22C7.02944 22 3 17.9706 3 13C3 8.02944 7.02944 4 12 4ZM12 6C8.13401 6 5 9.13401 5 13C5 16.866 8.13401 20 12 20C15.866 20 19 16.866 19 13C19 9.13401 15.866 6 12 6ZM13 9C13 8.44772 12.5523 8 12 8C11.4477 8 11 8.44772 11 9V12H8C7.44772 12 7 12.4477 7 13C7 13.5523 7.44772 14 8 14H11V17C11 17.5523 11.4477 18 12 18C12.5523 18 13 17.5523 13 17V14H16C16.5523 14 17 13.5523 17 13C17 12.4477 16.5523 12 16 12H13V9Z" fill="black"/>
</svg>
