<svg width="24" height="24" viewBox="0 0 24 24" fill="none" xmlns="http://www.w3.org/2000/svg">
<path fill-rule="evenodd" clip-rule="evenodd" d="M21 18C21.5523 18 22 18.4477 22 19C22 19.5523 21.5523 20 21 20H7C6.44772 20 6 19.5523 6 19C6 18.4477 6.44772 18 7 18H21ZM21 11C21.5523 11 22 11.4477 22 12C22 12.5523 21.5523 13 21 13H7C6.44772 13 6 12.5523 6 12C6 11.4477 6.44772 11 7 11H21ZM21 4C21.5523 4 22 4.44772 22 5C22 5.55228 21.5523 6 21 6H7C6.44772 6 6 5.55228 6 5C6 4.44772 6.44772 4 7 4H21ZM2 4H4V6H2V4ZM2 11H4V13H2V11ZM2 18H4V20H2V18Z" fill="black"/>
</svg>
