<svg width="24" height="24" viewBox="0 0 24 24" fill="none" xmlns="http://www.w3.org/2000/svg">
<path fill-rule="evenodd" clip-rule="evenodd" d="M9.5547 9.83205C9.8329 9.64658 10 9.33435 10 9V5C10 3.34315 8.65685 2 7 2H3C2.44772 2 2 2.44772 2 3C2 12.9411 11.0589 22 21 22C21.5523 22 22 21.5523 22 21V17C22 15.3431 20.6569 14 19 14H15C14.6656 14 14.3534 14.1671 14.1679 14.4453L12.2626 17.3033C10.1874 15.9615 8.36925 14.1892 6.97074 12.149L6.69668 11.7374L9.5547 9.83205ZM15.5352 16H19C19.5523 16 20 16.4477 20 17V19.9653C18.0628 19.8313 16.1721 19.3132 14.4087 18.4916L14.0041 18.2966L15.5352 16ZM18.613 2.20971L18.7072 2.2929L21.7072 5.29297L21.7835 5.37848L21.8342 5.44831L21.8914 5.54624L21.9307 5.6334L21.9643 5.7341L21.9891 5.85163L21.9996 5.96707L22.0001 6.00013L21.9965 6.08511L21.9891 6.14909L21.9644 6.26597L21.9402 6.34179L21.9064 6.42334L21.8541 6.52083L21.8038 6.59529L21.7072 6.70723L18.7072 9.70731C18.3167 10.0978 17.6835 10.0978 17.293 9.70731C16.9325 9.34681 16.9048 8.77957 17.2098 8.38727L17.293 8.29306L18.5851 7.00021L13.0001 7.00013C12.4873 7.00013 12.0646 6.61409 12.0068 6.11675L12.0001 6.00008C12.0001 5.44779 12.4478 5.00008 13.0001 5.00008L18.5851 5.00021L17.293 3.70715C16.9325 3.34666 16.9048 2.77941 17.2098 2.38711L17.293 2.2929C17.6535 1.93241 18.2207 1.90468 18.613 2.20971ZM7 4C7.55228 4 8 4.44772 8 5V8.46482L5.70338 9.9959C4.76882 8.11845 4.17903 6.08626 4.03467 4H7Z" fill="black"/>
</svg>
