<svg width="24" height="24" viewBox="0 0 24 24" fill="none" xmlns="http://www.w3.org/2000/svg">
<path fill-rule="evenodd" clip-rule="evenodd" d="M18.2097 4.3871L18.2929 4.29289C18.6534 3.93241 19.2206 3.90468 19.6129 4.2097L19.7071 4.29289L21.7071 6.29289L21.7485 6.33685L21.797 6.39587L21.8753 6.51594L21.9284 6.62767L21.9596 6.71808L21.9847 6.82535L21.9983 6.94074L21.9984 7.0568L21.9854 7.17067L21.9732 7.23106L21.9401 7.34167L21.9063 7.42322L21.854 7.52071L21.7872 7.61675L21.7313 7.68209L19.7071 9.70711C19.3166 10.0976 18.6834 10.0976 18.2929 9.70711C17.9324 9.34662 17.9047 8.77939 18.2097 8.3871L18.2929 8.29289L18.584 8H16C12.7519 8 11.1145 8.99471 9.00178 11.9984C11.1141 15.0051 12.7516 16 16 16H18.585L18.2929 15.7071C17.9324 15.3466 17.9047 14.7794 18.2097 14.3871L18.2929 14.2929C18.6534 13.9324 19.2206 13.9047 19.6129 14.2097L19.7071 14.2929L21.7071 16.2929L21.7485 16.3369L21.8037 16.4047L21.8753 16.5159L21.9248 16.6187L21.9642 16.734L21.9931 16.8819L22 17L21.9976 17.0696L21.9857 17.1692L21.9503 17.3121L21.9082 17.4192L21.854 17.5207L21.7803 17.6254L21.7071 17.7071L19.7071 19.7071C19.3166 20.0976 18.6834 20.0976 18.2929 19.7071C17.9324 19.3466 17.9047 18.7794 18.2097 18.3871L18.2929 18.2929L18.584 18H16C12.2046 18 10.1147 16.8298 7.82647 13.7839L7.31763 14.5811C7.17998 14.7943 7.05472 14.985 6.9353 15.1629L6.81759 15.3367L6.58805 15.667L6.35664 15.9878C5.40438 17.2846 4.32404 18 3 18C2.44772 18 2 17.5523 2 17C2 16.4872 2.38604 16.0645 2.88338 16.0067L3.12472 15.9944C3.66311 15.9457 4.17694 15.577 4.74458 14.804C4.98574 14.4756 5.20753 14.1542 5.47754 13.7421L5.64588 13.4831L6.591 12L5.64588 10.5169C5.29546 9.97404 5.03397 9.59008 4.74458 9.19598C4.17694 8.42296 3.66311 8.05432 3.12472 8.0056L3 8C2.44772 8 2 7.55228 2 7C2 6.44772 2.44772 6 3 6C4.32404 6 5.40438 6.71542 6.35664 8.01223L6.58805 8.33304L6.81759 8.66326L7.18387 9.21286C7.31399 9.41214 7.45432 9.63066 7.6114 9.87783L7.82647 10.2161C10.0454 7.26254 12.0777 6.07265 15.6596 6.00324L16 6H18.585L18.2929 5.70711C17.9324 5.34662 17.9047 4.77939 18.2097 4.3871L18.2929 4.29289L18.2097 4.3871Z" fill="black"/>
</svg>
