<svg width="24" height="24" viewBox="0 0 24 24" fill="none" xmlns="http://www.w3.org/2000/svg">
<path fill-rule="evenodd" clip-rule="evenodd" d="M13.2097 4.3871L13.2929 4.29289C13.6534 3.93241 14.2206 3.90468 14.6129 4.2097L14.7071 4.29289L21.7071 11.2929L21.7485 11.3369L21.8037 11.4047L21.8753 11.5159L21.9288 11.6287L21.9642 11.734L21.9931 11.8819L22 12L21.9972 12.0752L21.9798 12.2007L21.9503 12.3121L21.9063 12.4232L21.854 12.5207L21.7803 12.6254L21.7071 12.7071L14.7071 19.7071C14.3166 20.0976 13.6834 20.0976 13.2929 19.7071C12.9324 19.3466 12.9047 18.7794 13.2097 18.3871L13.2929 18.2929L18.584 13H3C2.44772 13 2 12.5523 2 12C2 11.4477 2.44772 11 3 11H18.586L13.2929 5.70711C12.9324 5.34662 12.9047 4.77939 13.2097 4.3871L13.2929 4.29289L13.2097 4.3871Z" fill="black"/>
</svg>
