<svg width="24" height="24" viewBox="0 0 24 24" fill="none" xmlns="http://www.w3.org/2000/svg">
<path fill-rule="evenodd" clip-rule="evenodd" d="M8 12C8 13.3063 7.16515 14.4175 5.99991 14.8293L6 21C6 21.5523 5.55228 22 5 22C4.44772 22 4 21.5523 4 21L3.9991 14.829C2.83438 14.4169 2 13.3059 2 12C2 10.6941 2.83438 9.58312 3.9991 9.17102L4 3C4 2.44772 4.44772 2 5 2C5.55228 2 6 2.44772 6 3L5.99991 9.17067C7.16515 9.58249 8 10.6937 8 12ZM6 12C6 11.4477 5.55228 11 5 11C4.44772 11 4 11.4477 4 12C4 12.5523 4.44772 13 5 13C5.55228 13 6 12.5523 6 12ZM15 19C15 20.6569 13.6569 22 12 22C10.3431 22 9 20.6569 9 19C9 17.6941 9.83438 16.5831 10.9991 16.171L11 3C11 2.44772 11.4477 2 12 2C12.5523 2 13 2.44772 13 3L12.9999 16.1707C14.1651 16.5825 15 17.6937 15 19ZM13 19C13 18.4477 12.5523 18 12 18C11.4477 18 11 18.4477 11 19C11 19.5523 11.4477 20 12 20C12.5523 20 13 19.5523 13 19ZM22 5C22 6.3118 21.158 7.42695 19.985 7.83453C19.9953 7.88799 20 7.94344 20 8V21C20 21.5523 19.5523 22 19 22C18.4477 22 18 21.5523 18 21V8C18 7.94344 18.0047 7.88799 18.0137 7.83399C16.842 7.42695 16 6.3118 16 5C16 3.34315 17.3431 2 19 2C20.6569 2 22 3.34315 22 5ZM20 5C20 4.44772 19.5523 4 19 4C18.4477 4 18 4.44772 18 5C18 5.55228 18.4477 6 19 6C19.5523 6 20 5.55228 20 5Z" fill="black"/>
</svg>
