<svg width="24" height="24" viewBox="0 0 24 24" fill="none" xmlns="http://www.w3.org/2000/svg">
<path fill-rule="evenodd" clip-rule="evenodd" d="M14 2C14.2652 2 14.5196 2.10536 14.7071 2.29289L19.7071 7.29289C19.8946 7.48043 20 7.73478 20 8V9C20 9.55228 19.5523 10 19 10H13C12.4872 10 12.0645 9.61396 12.0067 9.11662L12 9L11.999 4H7C6.44772 4 6 4.44772 6 5V19C6 19.5523 6.44772 20 7 20H9C9.55228 20 10 20.4477 10 21C10 21.5523 9.55228 22 9 22H7C5.34315 22 4 20.6569 4 19V5C4 3.34315 5.34315 2 7 2H14ZM17.2929 12.2929C17.6534 11.9324 18.2206 11.9047 18.6129 12.2097L18.7071 12.2929L21.7071 15.2929C22.0676 15.6534 22.0953 16.2206 21.7903 16.6129L21.7071 16.7071L16.7071 21.7071C16.5508 21.8634 16.3481 21.9626 16.1314 21.9913L16 22H13C12.4872 22 12.0645 21.614 12.0067 21.1166L12 21V18C12 17.779 12.0732 17.5655 12.2061 17.392L12.2929 17.2929L17.2929 12.2929ZM18 14.4142L14 18.4142V20H15.5858L19.5858 16L18 14.4142ZM13.999 4.414L14 8H17.586L13.999 4.414Z" fill="black"/>
</svg>
