<svg width="24" height="24" viewBox="0 0 24 24" fill="none" xmlns="http://www.w3.org/2000/svg">
<path fill-rule="evenodd" clip-rule="evenodd" d="M12 2C17.5228 2 22 6.47715 22 12C22 17.5228 17.5228 22 12 22C6.47715 22 2 17.5228 2 12C2 6.47715 6.47715 2 12 2ZM12 4C7.58172 4 4 7.58172 4 12C4 16.4183 7.58172 20 12 20C16.4183 20 20 16.4183 20 12C20 7.58172 16.4183 4 12 4ZM12 16C12.5523 16 13 16.4477 13 17C13 17.5523 12.5523 18 12 18C11.4477 18 11 17.5523 11 17C11 16.4477 11.4477 16 12 16ZM12 6C14.2091 6 16 7.79086 16 10C16 11.7948 14.8179 13.3135 13.1898 13.8201L13 13.874V14C13 14.5523 12.5523 15 12 15C11.4872 15 11.0645 14.614 11.0067 14.1166L11 14V13C11 12.4872 11.386 12.0645 11.8834 12.0067L12.1493 11.9945C13.1841 11.9182 14 11.0544 14 10C14 8.89543 13.1046 8 12 8C10.8954 8 10 8.89543 10 10C10 10.5523 9.55228 11 9 11C8.44772 11 8 10.5523 8 10C8 7.79086 9.79086 6 12 6Z" fill="black"/>
</svg>
