<svg width="24" height="24" viewBox="0 0 24 24" fill="none" xmlns="http://www.w3.org/2000/svg">
<path fill-rule="evenodd" clip-rule="evenodd" d="M5.63604 5.56529L10.6072 10.5356C10.9673 10.1877 11.4585 9.97347 12 9.97347C13.1046 9.97347 14 10.8649 14 11.9646C14 12.5071 13.7821 12.9989 13.4287 13.3581L18.364 18.2932C18.7545 18.6837 18.7545 19.3169 18.364 19.7074C17.9734 20.0979 17.3403 20.0979 16.9497 19.7074L16.0498 18.8084C14.7649 19.5525 13.4151 19.9292 12 19.9292C8.41439 19.9292 5.2486 17.5106 2.49391 12.8261L2.28282 12.4613L2 11.9646L2.28282 11.4679C3.12423 9.99032 4.00457 8.72699 4.92408 7.68241L4.22183 6.9795C3.8313 6.58897 3.8313 5.95581 4.22183 5.56529C4.61235 5.17476 5.24551 5.17476 5.63604 5.56529ZM4.54572 11.569L4.30532 11.9646L4.51336 12.3079C6.87517 16.1384 9.37415 17.9381 12 17.9381C12.8728 17.9381 13.7313 17.7396 14.575 17.3343L10.7964 13.555C10.6453 13.4414 10.5108 13.307 10.3974 13.1561L6.33749 9.09402C5.73183 9.79538 5.13452 10.6192 4.54572 11.569ZM12 4C15.5856 4 18.7514 6.41863 21.5061 11.1031L21.7172 11.4679L22 11.9646L21.5113 12.8173C20.7425 14.1258 19.9416 15.2576 19.1086 16.2096L17.6965 14.7975C18.3734 14.0081 19.0396 13.0654 19.6948 11.9648C17.2718 7.89826 14.7031 5.99116 12 5.99116C11.1437 5.99116 10.3009 6.18253 9.47198 6.5733L7.99438 5.09542C9.26603 4.36816 10.6011 4 12 4Z" fill="black"/>
</svg>
