<svg width="24" height="24" viewBox="0 0 24 24" fill="none" xmlns="http://www.w3.org/2000/svg">
<path fill-rule="evenodd" clip-rule="evenodd" d="M17 5C18.5977 5 19.9037 6.24892 19.9949 7.82373L20 8V8.17L20.1933 8.24671C21.1459 8.66013 21.8419 9.55339 21.9763 10.6215L21.9949 10.8237L22 11V13C22 14.2181 21.2717 15.274 20.2012 15.7434L20 15.822V16C20 17.5385 18.8419 18.8065 17.3499 18.9798L17.1763 18.9949L17 19H5C3.40232 19 2.09634 17.7511 2.00509 16.1763L2 16V8C2 6.40232 3.24892 5.09634 4.82373 5.00509L5 5H17ZM17 7H5C4.48716 7 4.06449 7.38604 4.00673 7.88338L4 8V16C4 16.5128 4.38604 16.9355 4.88338 16.9933L5 17H17C17.5128 17 17.9355 16.614 17.9933 16.1166L18 16V15C18 14.5004 18.367 14.084 18.8499 14.0112L18.9633 14.0007L19.0757 13.9972C19.5546 13.9619 19.9369 13.5888 19.9929 13.1193L20 13V11C20 10.4872 19.614 10.0645 19.1166 10.0067L18.8834 9.99327C18.4243 9.93995 18.06 9.5757 18.0067 9.11662L18 9V8C18 7.48716 17.614 7.06449 17.1166 7.00673L17 7ZM11 9C11.5523 9 12 9.44772 12 10V14C12 14.5523 11.5523 15 11 15H7C6.44772 15 6 14.5523 6 14V10C6 9.44772 6.44772 9 7 9H11Z" fill="black"/>
</svg>
