<svg width="181" height="99" viewBox="0 0 181 99" fill="none" xmlns="http://www.w3.org/2000/svg">
<path d="M5.37963 92.12C5.19296 92.12 5.00629 92.0933 4.81963 92.04C4.63296 92.0133 4.44629 91.9867 4.25963 91.96C3.77963 91.8267 3.44629 91.5467 3.25963 91.12C3.01963 90.5867 3.01963 89.9467 3.25963 89.2C3.52629 88.4267 3.95296 87.44 4.53963 86.24C4.64629 86.0267 4.75296 85.7867 4.85963 85.52C4.99296 85.2533 5.11296 85 5.21963 84.76C4.87296 84.8933 4.49963 85.12 4.09963 85.44C3.72629 85.7333 3.33963 86.04 2.93963 86.36C2.67296 86.5467 2.37963 86.6267 2.05963 86.6C1.71296 86.5467 1.43296 86.4 1.21963 86.16C1.03296 85.8933 0.966293 85.6 1.01963 85.28C1.04629 84.96 1.17963 84.68 1.41963 84.44C1.79296 84.1733 2.17963 83.88 2.57963 83.56C3.00629 83.24 3.43296 82.9733 3.85963 82.76C4.95296 82.2 5.95296 82.0533 6.85963 82.32C7.28629 82.4 7.60629 82.6667 7.81963 83.12C8.03296 83.5467 8.01963 84.08 7.77963 84.72C7.56629 85.36 7.19296 86.2267 6.65963 87.32C6.52629 87.64 6.37963 87.96 6.21963 88.28C6.08629 88.6 5.95296 88.9067 5.81963 89.2C5.79296 89.3067 5.75296 89.4 5.69963 89.48C5.67296 89.56 5.64629 89.64 5.61963 89.72C6.17963 89.64 6.99296 89.36 8.05963 88.88C9.15296 88.3733 10.6196 87.3867 12.4596 85.92C13.4463 85.1467 14.3396 84.4 15.1396 83.68C15.9396 82.9333 16.5796 82.32 17.0596 81.84C17.5396 81.36 17.7796 81.12 17.7796 81.12C18.0996 80.7467 18.4863 80.6267 18.9396 80.76C19.153 80.7867 19.3263 80.88 19.4596 81.04C19.593 81.1733 19.6996 81.3067 19.7796 81.44C19.9663 81.8133 19.9796 82.2533 19.8196 82.76C19.6863 83.24 19.393 84.0267 18.9396 85.12C18.7796 85.4667 18.6196 85.8133 18.4596 86.16C18.3263 86.5067 18.193 86.8267 18.0596 87.12C18.033 87.2267 18.0063 87.32 17.9796 87.4C17.9796 87.4533 17.9663 87.5067 17.9396 87.56C18.4463 87.48 18.9796 87.2667 19.5396 86.92C20.1263 86.5467 20.6863 86.1333 21.2196 85.68C21.7796 85.2267 22.2463 84.84 22.6196 84.52C22.8863 84.28 23.1796 84.1733 23.4996 84.2C23.8196 84.2267 24.0996 84.36 24.3396 84.6C24.553 84.8667 24.6463 85.16 24.6196 85.48C24.6196 85.8 24.4863 86.08 24.2196 86.32C23.393 87.04 22.5396 87.72 21.6596 88.36C20.8063 89 19.9396 89.48 19.0596 89.8C18.2063 90.0933 17.3396 90.1333 16.4596 89.92C16.033 89.7333 15.7263 89.4667 15.5396 89.12C15.3796 88.7467 15.3263 88.3333 15.3796 87.88C15.4596 87.4267 15.6196 86.8667 15.8596 86.2C15.5663 86.4667 15.2596 86.72 14.9396 86.96C14.6463 87.2 14.3263 87.4667 13.9796 87.76C10.2996 90.6667 7.43296 92.12 5.37963 92.12ZM26.6687 92.12C26.482 92.12 26.2954 92.0933 26.1087 92.04C25.922 92.0133 25.7354 91.9867 25.5487 91.96C25.0687 91.8267 24.7354 91.5467 24.5487 91.12C24.3087 90.5867 24.3087 89.9467 24.5487 89.2C24.8154 88.4267 25.242 87.44 25.8287 86.24C25.9354 86.0267 26.042 85.7867 26.1487 85.52C26.282 85.2533 26.402 85 26.5087 84.76C26.162 84.8933 25.7887 85.12 25.3887 85.44C25.0154 85.7333 24.6287 86.04 24.2287 86.36C23.962 86.5467 23.6687 86.6267 23.3487 86.6C23.002 86.5467 22.722 86.4 22.5087 86.16C22.322 85.8933 22.2554 85.6 22.3087 85.28C22.3354 84.96 22.4687 84.68 22.7087 84.44C23.082 84.1733 23.4687 83.88 23.8687 83.56C24.2954 83.24 24.722 82.9733 25.1487 82.76C26.242 82.2 27.242 82.0533 28.1487 82.32C28.5754 82.4 28.8954 82.6667 29.1087 83.12C29.322 83.5467 29.3087 84.08 29.0687 84.72C28.8554 85.36 28.482 86.2267 27.9487 87.32C27.8154 87.64 27.6687 87.96 27.5087 88.28C27.3754 88.6 27.242 88.9067 27.1087 89.2C27.082 89.3067 27.042 89.4 26.9887 89.48C26.962 89.56 26.9354 89.64 26.9087 89.72C27.4687 89.64 28.282 89.36 29.3487 88.88C30.442 88.3733 31.9087 87.3867 33.7487 85.92C34.7354 85.1467 35.6287 84.4 36.4287 83.68C37.2287 82.9333 37.8687 82.32 38.3487 81.84C38.8287 81.36 39.0687 81.12 39.0687 81.12C39.3887 80.7467 39.7754 80.6267 40.2287 80.76C40.442 80.7867 40.6154 80.88 40.7487 81.04C40.882 81.1733 40.9887 81.3067 41.0687 81.44C41.2554 81.8133 41.2687 82.2533 41.1087 82.76C40.9754 83.24 40.682 84.0267 40.2287 85.12C40.0687 85.4667 39.9087 85.8133 39.7487 86.16C39.6154 86.5067 39.482 86.8267 39.3487 87.12C39.322 87.2267 39.2954 87.32 39.2687 87.4C39.2687 87.4533 39.2554 87.5067 39.2287 87.56C39.7354 87.48 40.2687 87.2667 40.8287 86.92C41.4154 86.5467 41.9754 86.1333 42.5087 85.68C43.0687 85.2267 43.5354 84.84 43.9087 84.52C44.1754 84.28 44.4687 84.1733 44.7887 84.2C45.1087 84.2267 45.3887 84.36 45.6287 84.6C45.842 84.8667 45.9354 85.16 45.9087 85.48C45.9087 85.8 45.7754 86.08 45.5087 86.32C44.682 87.04 43.8287 87.72 42.9487 88.36C42.0954 89 41.2287 89.48 40.3487 89.8C39.4954 90.0933 38.6287 90.1333 37.7487 89.92C37.322 89.7333 37.0154 89.4667 36.8287 89.12C36.6687 88.7467 36.6154 88.3333 36.6687 87.88C36.7487 87.4267 36.9087 86.8667 37.1487 86.2C36.8554 86.4667 36.5487 86.72 36.2287 86.96C35.9354 87.2 35.6154 87.4667 35.2687 87.76C31.5887 90.6667 28.722 92.12 26.6687 92.12ZM58.7978 89.44C58.6111 89.44 58.4378 89.4133 58.2778 89.36C57.7711 89.2533 57.4111 88.9467 57.1978 88.44C57.0378 87.9867 57.0778 87.48 57.3178 86.92C57.5844 86.36 57.9311 85.7333 58.3578 85.04C58.5178 84.8 58.6644 84.56 58.7978 84.32C58.9578 84.0533 59.0911 83.8133 59.1978 83.6C59.2511 83.52 59.2911 83.4533 59.3178 83.4C59.3444 83.32 59.3711 83.2533 59.3978 83.2C58.5978 83.0667 57.6644 83.04 56.5978 83.12C55.5578 83.1733 54.3844 83.3733 53.0778 83.72C51.9311 84.0133 50.6911 84.4 49.3578 84.88C48.0511 85.3333 46.6644 85.88 45.1978 86.52C44.9044 86.6267 44.6111 86.6267 44.3178 86.52C44.0244 86.4133 43.8111 86.2133 43.6778 85.92C43.5178 85.6267 43.5044 85.32 43.6378 85C43.7711 84.6533 43.9844 84.4267 44.2778 84.32C45.7711 83.6533 47.1978 83.08 48.5578 82.6C49.9444 82.0933 51.2511 81.6933 52.4778 81.4C55.7578 80.5733 58.4378 80.44 60.5178 81C61.1311 81.16 61.5578 81.5333 61.7978 82.12C62.0378 82.7067 61.9844 83.36 61.6378 84.08C61.2911 84.8 60.8778 85.5467 60.3978 86.32C60.3711 86.3733 60.3311 86.44 60.2778 86.52C60.2244 86.6 60.1711 86.6933 60.1178 86.8C60.7311 86.6667 61.6378 86.4 62.8378 86C64.0378 85.6 65.6911 85.0133 67.7978 84.24C68.0911 84.1333 68.3844 84.16 68.6778 84.32C68.9978 84.4533 69.2111 84.68 69.3178 85C69.4511 85.2933 69.4511 85.6 69.3178 85.92C69.1844 86.2133 68.9444 86.4267 68.5978 86.56C67.3711 86.9867 66.2511 87.3733 65.2378 87.72C64.2244 88.0667 63.3178 88.36 62.5178 88.6C61.4511 88.92 60.6378 89.1467 60.0778 89.28C59.5178 89.3867 59.0911 89.44 58.7978 89.44ZM77.4324 89.84C77.1124 89.84 76.8458 89.7467 76.6324 89.56C76.2058 89.2133 76.0858 88.7733 76.2724 88.24C76.2724 88.2133 76.3658 87.8933 76.5524 87.28C76.7658 86.6667 77.0058 85.9733 77.2724 85.2C77.4058 84.7467 77.5258 84.36 77.6324 84.04C77.7391 83.6933 77.8324 83.3867 77.9124 83.12C77.1924 83.3867 76.3124 83.72 75.2724 84.12C74.2324 84.4933 73.1391 84.8933 71.9924 85.32C70.8724 85.7467 69.7791 86.16 68.7124 86.56C68.4191 86.6667 68.1258 86.6533 67.8324 86.52C67.5124 86.36 67.2858 86.12 67.1524 85.8C67.0458 85.5067 67.0724 85.2133 67.2324 84.92C67.3658 84.6 67.5924 84.3733 67.9124 84.24C69.1124 83.8133 70.3524 83.3733 71.6324 82.92C72.9124 82.44 74.0991 82 75.1924 81.6C76.2858 81.1733 77.1791 80.8267 77.8724 80.56C78.5658 80.2933 78.9124 80.16 78.9124 80.16C79.0458 80.1333 79.1791 80.12 79.3124 80.12C79.4458 80.0933 79.5658 80.1067 79.6724 80.16C80.0458 80.2133 80.3124 80.4267 80.4724 80.8C80.6058 81.0133 80.6591 81.2933 80.6324 81.64C80.6324 81.96 80.5658 82.4267 80.4324 83.04C80.3524 83.3867 80.2458 83.7733 80.1124 84.2C80.0058 84.6 79.8591 85.0667 79.6724 85.6C79.6458 85.7067 79.6191 85.8 79.5924 85.88C79.5658 85.96 79.5391 86.0533 79.5124 86.16C80.5791 85.5733 81.8858 84.96 83.4324 84.32C83.7258 84.1867 84.0191 84.1867 84.3124 84.32C84.6324 84.4267 84.8458 84.6267 84.9524 84.92C85.1124 85.2133 85.1258 85.52 84.9924 85.84C84.8591 86.16 84.6458 86.3867 84.3524 86.52C83.1524 87.0533 82.0724 87.56 81.1124 88.04C80.1791 88.52 79.4324 88.9067 78.8724 89.2C78.3124 89.4933 78.0324 89.64 78.0324 89.64C77.8724 89.7733 77.6724 89.84 77.4324 89.84ZM97.8993 89.44C97.7126 89.44 97.5393 89.4133 97.3793 89.36C96.8726 89.2533 96.5126 88.9467 96.2993 88.44C96.1393 87.9867 96.1793 87.48 96.4193 86.92C96.686 86.36 97.0326 85.7333 97.4593 85.04C97.6193 84.8 97.766 84.56 97.8993 84.32C98.0593 84.0533 98.1926 83.8133 98.2993 83.6C98.3526 83.52 98.3926 83.4533 98.4193 83.4C98.446 83.32 98.4726 83.2533 98.4993 83.2C97.6993 83.0667 96.766 83.04 95.6993 83.12C94.6593 83.1733 93.486 83.3733 92.1793 83.72C91.0326 84.0133 89.7926 84.4 88.4593 84.88C87.1526 85.3333 85.766 85.88 84.2993 86.52C84.006 86.6267 83.7126 86.6267 83.4193 86.52C83.126 86.4133 82.9126 86.2133 82.7793 85.92C82.6193 85.6267 82.606 85.32 82.7393 85C82.8726 84.6533 83.086 84.4267 83.3793 84.32C84.8726 83.6533 86.2993 83.08 87.6593 82.6C89.046 82.0933 90.3526 81.6933 91.5793 81.4C94.8593 80.5733 97.5393 80.44 99.6193 81C100.233 81.16 100.659 81.5333 100.899 82.12C101.139 82.7067 101.086 83.36 100.739 84.08C100.393 84.8 99.9793 85.5467 99.4993 86.32C99.4726 86.3733 99.4326 86.44 99.3793 86.52C99.326 86.6 99.2726 86.6933 99.2193 86.8C99.8326 86.6667 100.739 86.4 101.939 86C103.139 85.6 104.793 85.0133 106.899 84.24C107.193 84.1333 107.486 84.16 107.779 84.32C108.099 84.4533 108.313 84.68 108.419 85C108.553 85.2933 108.553 85.6 108.419 85.92C108.286 86.2133 108.046 86.4267 107.699 86.56C106.473 86.9867 105.353 87.3733 104.339 87.72C103.326 88.0667 102.419 88.36 101.619 88.6C100.553 88.92 99.7393 89.1467 99.1793 89.28C98.6193 89.3867 98.1926 89.44 97.8993 89.44ZM121.454 89.44C121.267 89.44 121.094 89.4133 120.934 89.36C120.427 89.2533 120.067 88.9467 119.854 88.44C119.694 87.9867 119.734 87.48 119.974 86.92C120.241 86.36 120.587 85.7333 121.014 85.04C121.174 84.8 121.321 84.56 121.454 84.32C121.614 84.0533 121.747 83.8133 121.854 83.6C121.907 83.52 121.947 83.4533 121.974 83.4C122.001 83.32 122.027 83.2533 122.054 83.2C121.254 83.0667 120.321 83.04 119.254 83.12C118.214 83.1733 117.041 83.3733 115.734 83.72C114.587 84.0133 113.347 84.4 112.014 84.88C110.707 85.3333 109.321 85.88 107.854 86.52C107.561 86.6267 107.267 86.6267 106.974 86.52C106.681 86.4133 106.467 86.2133 106.334 85.92C106.174 85.6267 106.161 85.32 106.294 85C106.427 84.6533 106.641 84.4267 106.934 84.32C108.427 83.6533 109.854 83.08 111.214 82.6C112.601 82.0933 113.907 81.6933 115.134 81.4C118.414 80.5733 121.094 80.44 123.174 81C123.787 81.16 124.214 81.5333 124.454 82.12C124.694 82.7067 124.641 83.36 124.294 84.08C123.947 84.8 123.534 85.5467 123.054 86.32C123.027 86.3733 122.987 86.44 122.934 86.52C122.881 86.6 122.827 86.6933 122.774 86.8C123.387 86.6667 124.294 86.4 125.494 86C126.694 85.6 128.347 85.0133 130.454 84.24C130.747 84.1333 131.041 84.16 131.334 84.32C131.654 84.4533 131.867 84.68 131.974 85C132.107 85.2933 132.107 85.6 131.974 85.92C131.841 86.2133 131.601 86.4267 131.254 86.56C130.027 86.9867 128.907 87.3733 127.894 87.72C126.881 88.0667 125.974 88.36 125.174 88.6C124.107 88.92 123.294 89.1467 122.734 89.28C122.174 89.3867 121.747 89.44 121.454 89.44ZM134.169 92.12C133.982 92.12 133.795 92.0933 133.609 92.04C133.422 92.0133 133.235 91.9867 133.049 91.96C132.569 91.8267 132.235 91.5467 132.049 91.12C131.809 90.5867 131.809 89.9467 132.049 89.2C132.315 88.4267 132.742 87.44 133.329 86.24C133.435 86.0267 133.542 85.7867 133.649 85.52C133.782 85.2533 133.902 85 134.009 84.76C133.662 84.8933 133.289 85.12 132.889 85.44C132.515 85.7333 132.129 86.04 131.729 86.36C131.462 86.5467 131.169 86.6267 130.849 86.6C130.502 86.5467 130.222 86.4 130.009 86.16C129.822 85.8933 129.755 85.6 129.809 85.28C129.835 84.96 129.969 84.68 130.209 84.44C130.582 84.1733 130.969 83.88 131.369 83.56C131.795 83.24 132.222 82.9733 132.649 82.76C133.742 82.2 134.742 82.0533 135.649 82.32C136.075 82.4 136.395 82.6667 136.609 83.12C136.822 83.5467 136.809 84.08 136.569 84.72C136.355 85.36 135.982 86.2267 135.449 87.32C135.315 87.64 135.169 87.96 135.009 88.28C134.875 88.6 134.742 88.9067 134.609 89.2C134.582 89.3067 134.542 89.4 134.489 89.48C134.462 89.56 134.435 89.64 134.409 89.72C134.969 89.64 135.782 89.36 136.849 88.88C137.942 88.3733 139.409 87.3867 141.249 85.92C142.235 85.1467 143.129 84.4 143.929 83.68C144.729 82.9333 145.369 82.32 145.849 81.84C146.329 81.36 146.569 81.12 146.569 81.12C146.889 80.7467 147.275 80.6267 147.729 80.76C147.942 80.7867 148.115 80.88 148.249 81.04C148.382 81.1733 148.489 81.3067 148.569 81.44C148.755 81.8133 148.769 82.2533 148.609 82.76C148.475 83.24 148.182 84.0267 147.729 85.12C147.569 85.4667 147.409 85.8133 147.249 86.16C147.115 86.5067 146.982 86.8267 146.849 87.12C146.822 87.2267 146.795 87.32 146.769 87.4C146.769 87.4533 146.755 87.5067 146.729 87.56C147.235 87.48 147.769 87.2667 148.329 86.92C148.915 86.5467 149.475 86.1333 150.009 85.68C150.569 85.2267 151.035 84.84 151.409 84.52C151.675 84.28 151.969 84.1733 152.289 84.2C152.609 84.2267 152.889 84.36 153.129 84.6C153.342 84.8667 153.435 85.16 153.409 85.48C153.409 85.8 153.275 86.08 153.009 86.32C152.182 87.04 151.329 87.72 150.449 88.36C149.595 89 148.729 89.48 147.849 89.8C146.995 90.0933 146.129 90.1333 145.249 89.92C144.822 89.7333 144.515 89.4667 144.329 89.12C144.169 88.7467 144.115 88.3333 144.169 87.88C144.249 87.4267 144.409 86.8667 144.649 86.2C144.355 86.4667 144.049 86.72 143.729 86.96C143.435 87.2 143.115 87.4667 142.769 87.76C139.089 90.6667 136.222 92.12 134.169 92.12ZM157.578 88.64C157.444 88.64 157.338 88.6267 157.258 88.6C156.831 88.4933 156.524 88.3333 156.338 88.12C156.178 87.88 156.071 87.6933 156.018 87.56C155.831 86.9733 155.898 86.3733 156.218 85.76C156.538 85.12 156.951 84.4533 157.458 83.76C157.618 83.5467 157.764 83.32 157.898 83.08C158.058 82.8133 158.191 82.5867 158.298 82.4C158.324 82.3733 158.364 82.32 158.418 82.24C158.258 82.2933 158.058 82.3733 157.818 82.48C157.604 82.5867 157.351 82.7467 157.058 82.96C156.578 83.2533 156.071 83.64 155.538 84.12C155.004 84.5733 154.458 85.0533 153.898 85.56C153.764 85.6667 153.618 85.7867 153.458 85.92C153.324 86.0533 153.191 86.1867 153.058 86.32C152.818 86.5333 152.538 86.64 152.218 86.64C151.871 86.6133 151.591 86.4667 151.378 86.2C151.138 85.96 151.031 85.68 151.058 85.36C151.084 85.0133 151.218 84.7333 151.458 84.52C151.591 84.3867 151.738 84.2533 151.898 84.12C152.031 83.9867 152.164 83.8667 152.298 83.76C153.151 82.9867 153.991 82.28 154.818 81.64C155.644 80.9733 156.458 80.4667 157.258 80.12C158.058 79.7733 158.831 79.7067 159.578 79.92C160.031 80.0267 160.351 80.2133 160.538 80.48C160.751 80.72 160.871 80.9333 160.898 81.12C161.138 81.7067 161.084 82.3333 160.738 83C160.391 83.64 159.951 84.3467 159.418 85.12C159.364 85.1733 159.298 85.2667 159.218 85.4C159.164 85.5067 159.098 85.6133 159.018 85.72C159.418 85.56 159.938 85.36 160.578 85.12C161.218 84.88 161.991 84.5867 162.898 84.24C163.244 84.1333 163.564 84.16 163.858 84.32C164.151 84.4533 164.351 84.68 164.458 85C164.591 85.2933 164.578 85.6 164.418 85.92C164.284 86.2133 164.071 86.4267 163.778 86.56C162.924 86.8533 162.151 87.12 161.458 87.36C160.764 87.6 160.178 87.8133 159.698 88C159.431 88.1067 159.191 88.2 158.978 88.28C158.791 88.3333 158.618 88.3867 158.458 88.44C158.271 88.4933 158.111 88.5467 157.978 88.6C157.844 88.6267 157.711 88.64 157.578 88.64ZM172.393 89.84C172.073 89.84 171.807 89.7467 171.593 89.56C171.167 89.2133 171.047 88.7733 171.233 88.24C171.233 88.2133 171.327 87.8933 171.513 87.28C171.727 86.6667 171.967 85.9733 172.233 85.2C172.367 84.7467 172.487 84.36 172.593 84.04C172.7 83.6933 172.793 83.3867 172.873 83.12C172.153 83.3867 171.273 83.72 170.233 84.12C169.193 84.4933 168.1 84.8933 166.953 85.32C165.833 85.7467 164.74 86.16 163.673 86.56C163.38 86.6667 163.087 86.6533 162.793 86.52C162.473 86.36 162.247 86.12 162.113 85.8C162.007 85.5067 162.033 85.2133 162.193 84.92C162.327 84.6 162.553 84.3733 162.873 84.24C164.073 83.8133 165.313 83.3733 166.593 82.92C167.873 82.44 169.06 82 170.153 81.6C171.247 81.1733 172.14 80.8267 172.833 80.56C173.527 80.2933 173.873 80.16 173.873 80.16C174.007 80.1333 174.14 80.12 174.273 80.12C174.407 80.0933 174.527 80.1067 174.633 80.16C175.007 80.2133 175.273 80.4267 175.433 80.8C175.567 81.0133 175.62 81.2933 175.593 81.64C175.593 81.96 175.527 82.4267 175.393 83.04C175.313 83.3867 175.207 83.7733 175.073 84.2C174.967 84.6 174.82 85.0667 174.633 85.6C174.607 85.7067 174.58 85.8 174.553 85.88C174.527 85.96 174.5 86.0533 174.473 86.16C175.54 85.5733 176.847 84.96 178.393 84.32C178.687 84.1867 178.98 84.1867 179.273 84.32C179.593 84.4267 179.807 84.6267 179.913 84.92C180.073 85.2133 180.087 85.52 179.953 85.84C179.82 86.16 179.607 86.3867 179.313 86.52C178.113 87.0533 177.033 87.56 176.073 88.04C175.14 88.52 174.393 88.9067 173.833 89.2C173.273 89.4933 172.993 89.64 172.993 89.64C172.833 89.7733 172.633 89.84 172.393 89.84Z" fill="black"/>
<path d="M87.3529 4.96324C88.4823 2.84559 91.5176 2.84559 92.647 4.96324L97.247 13.5882C97.7176 14.4706 97.7176 15.5294 97.247 16.4118L92.647 25.0368C91.5176 27.1544 88.4823 27.1544 87.3529 25.0368L82.7529 16.4118C82.2823 15.5294 82.2823 14.4706 82.7529 13.5882L87.3529 4.96324Z" fill="#E9C46A"/>
<path d="M124.394 34.8899C126.422 36.0391 126.422 38.9609 124.394 40.1101L115.479 45.1619C114.561 45.6818 113.438 45.6818 112.521 45.1619L103.606 40.1101C101.578 38.9609 101.578 36.0391 103.606 34.8899L112.521 29.8381C113.438 29.3182 114.561 29.3182 115.479 29.8381L124.394 34.8899Z" fill="#E9C46A"/>
<path d="M76.3939 34.8899C78.4219 36.0391 78.4219 38.9609 76.3939 40.1101L67.479 45.1619C66.5615 45.6818 65.4384 45.6818 64.5209 45.1619L55.6059 40.1101C53.578 38.9609 53.578 36.0391 55.6059 34.8899L64.5209 29.8381C65.4384 29.3182 66.5615 29.3182 67.479 29.8381L76.3939 34.8899Z" fill="#E9C46A"/>
<path d="M81.2839 25.0751C81.9305 27.3382 79.8382 29.4305 77.5751 28.7839L68.0907 26.074C67.0941 25.7893 66.3151 25.0102 66.0303 24.0136L63.3205 14.5292C62.6739 12.2662 64.7662 10.1739 67.0292 10.8205L76.5136 13.5303C77.5103 13.8151 78.2893 14.5941 78.574 15.5907L81.2839 25.0751Z" fill="#E9C46A"/>
<path d="M102.425 29.7839C100.162 30.4305 98.0695 28.3383 98.7161 26.0752L101.426 16.5908C101.711 15.5942 102.49 14.8151 103.486 14.5304L112.971 11.8206C115.234 11.174 117.326 13.2662 116.679 15.5293L113.97 25.0137C113.685 26.0103 112.906 26.7894 111.909 27.0741L102.425 29.7839Z" fill="#E9C46A"/>
</svg>
