<svg width="44" height="17" viewBox="0 0 44 17" fill="none" xmlns="http://www.w3.org/2000/svg">
<path fill-rule="evenodd" clip-rule="evenodd" d="M10 15C9.44772 15 9 14.5523 9 14L9 5C9 4.44772 8.55229 4 8 4V4C7.44772 4 7 4.44771 7 5V15V16C7 16.5523 7.44771 17 8 17H43C43.5523 17 44 16.5523 44 16V16C44 15.4477 43.5523 15 43 15H10Z" fill="black"/>
<path fill-rule="evenodd" clip-rule="evenodd" d="M0.928635 6.65691L7.2926 0.292946C7.68312 -0.0975785 8.31629 -0.0975785 8.70681 0.292946L15.0708 6.65691C15.4613 7.04743 15.4613 7.6806 15.0708 8.07112C14.6802 8.46164 14.0471 8.46164 13.6566 8.07112L8.9997 3.41427L8.9997 5.00005H6.9997V3.41427L2.34285 8.07112C1.95232 8.46164 1.31916 8.46164 0.928635 8.07112C0.538111 7.6806 0.538111 7.04743 0.928635 6.65691Z" fill="black"/>
</svg>
