<svg width="20" height="20" viewBox="0 0 20 20" fill="none" xmlns="http://www.w3.org/2000/svg">
<path fill-rule="evenodd" clip-rule="evenodd" d="M8.31623 8.94868C8.72457 8.81257 9 8.43043 9 8V5C9 3.34315 7.65685 2 6 2H3C2.44772 2 2 2.44772 2 3C2 10.8547 9.14528 18 17 18C17.5523 18 18 17.5523 18 17V14C18 12.3431 16.6569 11 15 11H12C11.5696 11 11.1874 11.2754 11.0513 11.6838L10.3043 13.9248C8.74458 12.9124 7.37501 11.582 6.31438 10.0522L6.07516 9.69571L8.31623 8.94868ZM12.7208 13H15C15.5523 13 16 13.4477 16 14V15.9546C14.7978 15.8457 13.621 15.5439 12.503 15.0828L12.0866 14.9024L12.7208 13ZM13.7071 2.29289L15 3.585L16.2929 2.29289C16.6534 1.93241 17.2206 1.90468 17.6129 2.2097L17.7071 2.29289C18.0676 2.65338 18.0953 3.22061 17.7903 3.6129L17.7071 3.70711L16.415 5L17.7071 6.29289C18.0976 6.68342 18.0976 7.31658 17.7071 7.70711C17.3166 8.09763 16.6834 8.09763 16.2929 7.70711L15 6.415L13.7071 7.70711C13.3466 8.06759 12.7794 8.09532 12.3871 7.7903L12.2929 7.70711C11.9324 7.34662 11.9047 6.77939 12.2097 6.3871L12.2929 6.29289L13.585 5L12.2929 3.70711C11.9024 3.31658 11.9024 2.68342 12.2929 2.29289C12.6834 1.90237 13.3166 1.90237 13.7071 2.29289ZM6 4C6.55228 4 7 4.44772 7 5V7.27924L5.09757 7.91338C4.53454 6.67278 4.16796 5.35246 4.04542 4H6Z" fill="black"/>
</svg>
