<svg width="20" height="20" viewBox="0 0 20 20" fill="none" xmlns="http://www.w3.org/2000/svg">
<path fill-rule="evenodd" clip-rule="evenodd" d="M17.1166 2.00673L17 2H15L14.8834 2.00673C14.386 2.06449 14 2.48716 14 3C14 3.51284 14.386 3.93551 14.8834 3.99327L15 4H16V5L16.0067 5.11662C16.06 5.5757 16.4243 5.93995 16.8834 5.99327L17 6L17.1166 5.99327C17.5757 5.93995 17.94 5.5757 17.9933 5.11662L18 5V3L17.9933 2.88338C17.94 2.4243 17.5757 2.06005 17.1166 2.00673ZM13.9945 7.85074C13.9182 6.81588 13.0544 6 12 6H8L7.85074 6.00549C6.81588 6.08183 6 6.94564 6 8V12L6.00549 12.1493C6.08183 13.1841 6.94564 14 8 14H12L12.1493 13.9945C13.1841 13.9182 14 13.0544 14 12V8L13.9945 7.85074ZM3.11662 14.0067L3 14L2.88338 14.0067C2.4243 14.06 2.06005 14.4243 2.00673 14.8834L2 15V17L2.00673 17.1166C2.06005 17.5757 2.4243 17.94 2.88338 17.9933L3 18H5L5.11662 17.9933C5.61396 17.9355 6 17.5128 6 17C6 16.4872 5.61396 16.0645 5.11662 16.0067L5 16H4V15L3.99327 14.8834C3.93995 14.4243 3.5757 14.06 3.11662 14.0067ZM17.1166 14.0067L17 14L16.8834 14.0067L16.7707 14.0264C16.3657 14.1214 16.0556 14.4626 16.0067 14.8834L16 15V16H15L14.8834 16.0067L14.7707 16.0264C14.3289 16.1301 14 16.5266 14 17C14 17.5128 14.386 17.9355 14.8834 17.9933L15 18H17L17.1166 17.9933L17.2293 17.9736C17.6343 17.8786 17.9444 17.5374 17.9933 17.1166L18 17V15L17.9933 14.8834L17.9736 14.7707C17.8786 14.3657 17.5374 14.0556 17.1166 14.0067ZM11 16C11.5523 16 12 16.4477 12 17C12 17.5523 11.5523 18 11 18H9C8.44772 18 8 17.5523 8 17C8 16.4477 8.44772 16 9 16H11ZM3 8C3.55228 8 4 8.44772 4 9V11C4 11.5523 3.55228 12 3 12C2.44772 12 2 11.5523 2 11V9C2 8.44772 2.44772 8 3 8ZM18 9C18 8.44772 17.5523 8 17 8C16.4477 8 16 8.44772 16 9V11C16 11.5523 16.4477 12 17 12C17.5523 12 18 11.5523 18 11V9ZM12 8H8V12H12V8ZM5 2L5.11662 2.00673C5.61396 2.06449 6 2.48716 6 3C6 3.47339 5.67107 3.86995 5.22929 3.97359L5.11662 3.99327L5 4H4V5L3.99327 5.11662C3.94439 5.53745 3.63425 5.87858 3.22929 5.97359L3.11662 5.99327L3 6L2.88338 5.99327C2.46255 5.94439 2.12142 5.63425 2.02641 5.22929L2.00673 5.11662L2 5V3L2.00673 2.88338C2.05561 2.46255 2.36575 2.12142 2.77071 2.02641L2.88338 2.00673L3 2H5ZM12 3C12 2.44772 11.5523 2 11 2H9C8.44772 2 8 2.44772 8 3C8 3.55228 8.44772 4 9 4H11C11.5523 4 12 3.55228 12 3Z" fill="black"/>
</svg>
