<svg width="20" height="20" viewBox="0 0 20 20" fill="none" xmlns="http://www.w3.org/2000/svg">
<path d="M3.6129 5.2097L3.70711 5.29289L8 9.585L10.2929 7.29289C10.6534 6.93241 11.2206 6.90468 11.6129 7.2097L11.7071 7.29289L15 10.585L16.2929 9.29289C16.8955 8.69032 17.9072 9.07233 17.994 9.88637L18 10V14C18 14.5128 17.614 14.9355 17.1166 14.9933L17 15H13C12.1478 15 11.7026 14.0145 12.2168 13.3775L12.2929 13.2929L13.585 12L11 9.415L8.70711 11.7071C8.34662 12.0676 7.77939 12.0953 7.3871 11.7903L7.29289 11.7071L2.29289 6.70711C1.90237 6.31658 1.90237 5.68342 2.29289 5.29289C2.65338 4.93241 3.22061 4.90468 3.6129 5.2097Z" fill="black"/>
</svg>
