<svg width="20" height="20" viewBox="0 0 20 20" fill="none" xmlns="http://www.w3.org/2000/svg">
<path fill-rule="evenodd" clip-rule="evenodd" d="M12 2C12.5523 2 13 2.44772 13 3V5H14C15.6569 5 17 6.34315 17 8V10C17 13.3137 14.3137 16 11 16V17C11 17.5523 10.5523 18 10 18C9.44772 18 9 17.5523 9 17V16C5.68629 16 3 13.3137 3 10V8C3 6.34315 4.34315 5 6 5H7V3C7 2.44772 7.44772 2 8 2C8.55228 2 9 2.44772 9 3V5H11V3C11 2.44772 11.4477 2 12 2ZM14 7H6C5.44772 7 5 7.44772 5 8V10C5 12.2091 6.79086 14 9 14H11C13.2091 14 15 12.2091 15 10V8C15 7.44772 14.5523 7 14 7Z" fill="black"/>
</svg>
