<svg width="20" height="20" viewBox="0 0 20 20" fill="none" xmlns="http://www.w3.org/2000/svg">
<path fill-rule="evenodd" clip-rule="evenodd" d="M13 16C13.5523 16 14 16.4477 14 17C14 17.5523 13.5523 18 13 18H11C10.4477 18 10 17.5523 10 17C10 16.4477 10.4477 16 11 16H13ZM3 14L3.11662 14.0067C3.5757 14.06 3.93995 14.4243 3.99327 14.8834L4 15V16H5L5.11662 16.0067C5.61396 16.0645 6 16.4872 6 17C6 17.5128 5.61396 17.9355 5.11662 17.9933L5 18H3L2.88338 17.9933C2.4243 17.94 2.06005 17.5757 2.00673 17.1166L2 17V15L2.00673 14.8834C2.06005 14.4243 2.4243 14.06 2.88338 14.0067L3 14ZM18 13L17.9933 13.1166C17.9444 13.5374 17.6343 13.8786 17.2293 13.9736L17.1166 13.9933L17 14H7L6.88338 13.9933C6.4243 13.9399 6.06005 13.5757 6.00673 13.1166L6 13V3L6.00673 2.88338C6.05561 2.46255 6.36575 2.12142 6.77071 2.02641L6.88338 2.00673L7 2H17L17.1166 2.00673C17.5757 2.06005 17.9399 2.4243 17.9933 2.88338L18 3V13ZM16 12V4H8V12H16ZM3 6C3.55228 6 4 6.44772 4 7V9C4 9.55228 3.55228 10 3 10C2.44772 10 2 9.55228 2 9V7C2 6.44772 2.44772 6 3 6Z" fill="black"/>
</svg>
