<svg width="20" height="20" viewBox="0 0 20 20" fill="none" xmlns="http://www.w3.org/2000/svg">
<path fill-rule="evenodd" clip-rule="evenodd" d="M15 2C16.6569 2 18 3.34315 18 5V15C18 16.6569 16.6569 18 15 18H5C3.34315 18 2 16.6569 2 15V5C2 3.34315 3.34315 2 5 2H15ZM4 14V15C4 15.5523 4.44772 16 5 16H6V14H4ZM12 11H8V16H12V11ZM16 14H14V16H15C15.5523 16 16 15.5523 16 15V14ZM16 8H14V12H16V8ZM12 4H8V9H12V4ZM15 4H14V6H16V5C16 4.44772 15.5523 4 15 4ZM6 4H5C4.44772 4 4 4.44772 4 5V6H6V4ZM4 12H6V8H4V12Z" fill="black"/>
</svg>
