<svg width="20" height="20" viewBox="0 0 20 20" fill="none" xmlns="http://www.w3.org/2000/svg">
<path fill-rule="evenodd" clip-rule="evenodd" d="M5 18C3.34315 18 2 16.6569 2 15V7C2 5.34315 3.34315 4 5 4V3C5 2.44772 5.44772 2 6 2C6.55228 2 7 2.44772 7 3V4H13V3C13 2.44772 13.4477 2 14 2C14.5523 2 15 2.44772 15 3V4C16.6569 4 18 5.34315 18 7V15C18 16.6569 16.6569 18 15 18H5ZM9 14H4V15C4 15.5523 4.44772 16 5 16H9V14ZM16 14H11V16H15C15.5523 16 16 15.5523 16 15V14ZM9 10H4V12H9V10ZM16 10H11V12H16V10ZM15 6H5C4.44772 6 4 6.44772 4 7V8H16V7C16 6.44772 15.5523 6 15 6Z" fill="black"/>
</svg>
