<svg width="20" height="20" viewBox="0 0 20 20" fill="none" xmlns="http://www.w3.org/2000/svg">
<path fill-rule="evenodd" clip-rule="evenodd" d="M15 2C16.6569 2 18 3.34315 18 5V15C18 16.6569 16.6569 18 15 18H5C3.34315 18 2 16.6569 2 15V5C2 3.34315 3.34315 2 5 2H15ZM10 6C9.48716 6 9.06449 6.38604 9.00673 6.88338L9 7V13C9 13.5523 9.44772 14 10 14C10.5128 14 10.9355 13.614 10.9933 13.1166L11 13V7C11 6.44772 10.5523 6 10 6ZM14 8C13.4872 8 13.0645 8.38604 13.0067 8.88338L13 9V13C13 13.5523 13.4477 14 14 14C14.5128 14 14.9355 13.614 14.9933 13.1166L15 13V9C15 8.44772 14.5523 8 14 8ZM6 10C5.48716 10 5.06449 10.386 5.00673 10.8834L5 11V13C5 13.5523 5.44772 14 6 14C6.51284 14 6.93551 13.614 6.99327 13.1166L7 13V11C7 10.4477 6.55228 10 6 10Z" fill="black"/>
</svg>
