<svg width="20" height="20" viewBox="0 0 20 20" fill="none" xmlns="http://www.w3.org/2000/svg">
<path fill-rule="evenodd" clip-rule="evenodd" d="M12 5C13.6569 5 15 6.34315 15 8V15C15 16.6569 13.6569 18 12 18H5C3.34315 18 2 16.6569 2 15V8C2 6.34315 3.34315 5 5 5H12ZM12 7H5C4.44772 7 4 7.44772 4 8V14.697L6.18627 11.4188C6.50017 10.9793 7.09949 10.8737 7.54124 11.159L7.64018 11.2318L10.7853 15.5193L13 13V8C13 7.44772 12.5523 7 12 7ZM15 2C16.5977 2 17.9037 3.24892 17.9949 4.82373L18 5V12C18 12.5523 17.5523 13 17 13C16.4872 13 16.0645 12.614 16.0067 12.1166L16 12V5C16 4.48716 15.614 4.06449 15.1166 4.00673L15 4H8C7.44772 4 7 3.55228 7 3C7 2.48716 7.38604 2.06449 7.88338 2.00673L8 2H15Z" fill="black"/>
</svg>
