<svg width="20" height="20" viewBox="0 0 20 20" fill="none" xmlns="http://www.w3.org/2000/svg">
<path fill-rule="evenodd" clip-rule="evenodd" d="M11 2C13.2091 2 15 3.79086 15 6C15 6.55228 14.5523 7 14 7C13.4872 7 13.0645 6.61396 13.0067 6.11662L13 6C13 4.89543 12.1046 4 11 4C9.94564 4 9.08183 4.81588 9.00549 5.85074L9 6V11H12C12.5128 11 12.9355 11.386 12.9933 11.8834L13 12C13 12.5128 12.614 12.9355 12.1166 12.9933L12 13H9V16H15C15.5523 16 16 16.4477 16 17C16 17.5523 15.5523 18 15 18H5C4.44772 18 4 17.5523 4 17C4 16.4477 4.44772 16 5 16H7V13H6C5.48716 13 5.06449 12.614 5.00673 12.1166L5 12C5 11.4872 5.38604 11.0645 5.88338 11.0067L6 11H7V6C7 3.79086 8.79086 2 11 2Z" fill="black"/>
</svg>
