<svg width="20" height="20" viewBox="0 0 20 20" fill="none" xmlns="http://www.w3.org/2000/svg">
<path fill-rule="evenodd" clip-rule="evenodd" d="M17 4C17.5523 4 18 3.55228 18 3C18 2.44772 17.5523 2 17 2H3C2.44772 2 2 2.44772 2 3C2 3.55228 2.44772 4 3 4H17ZM10 6L9.918 6.004L9.79927 6.02024L9.68786 6.04974L9.57678 6.09367L9.47929 6.146L9.40484 6.19631L9.29289 6.29289L6.29289 9.29289C5.90237 9.68342 5.90237 10.3166 6.29289 10.7071C6.65338 11.0676 7.22061 11.0953 7.6129 10.7903L7.70711 10.7071L9 9.415V17C9 17.5523 9.44772 18 10 18C10.5523 18 11 17.5523 11 17V9.415L12.2929 10.7071C12.6534 11.0676 13.2206 11.0953 13.6129 10.7903L13.7071 10.7071C14.0676 10.3466 14.0953 9.77939 13.7903 9.3871L13.7071 9.29289L10.7071 6.29289L10.6631 6.2515L10.5953 6.19633L10.4841 6.12467L10.4231 6.09365L10.3417 6.05989L10.266 6.03585L10.1175 6.00683L10 6Z" fill="black"/>
</svg>
