<svg width="20" height="20" viewBox="0 0 20 20" fill="none" xmlns="http://www.w3.org/2000/svg">
<path fill-rule="evenodd" clip-rule="evenodd" d="M8.31623 8.94868C8.72457 8.81257 9 8.43043 9 8V5C9 3.34315 7.65685 2 6 2H3C2.44772 2 2 2.44772 2 3C2 10.8547 9.14528 18 17 18C17.5523 18 18 17.5523 18 17V14C18 12.3431 16.6569 11 15 11H12C11.5696 11 11.1874 11.2754 11.0513 11.6838L10.3043 13.9248C8.74458 12.9124 7.37501 11.582 6.31438 10.0522L6.07516 9.69571L8.31623 8.94868ZM12.7208 13H15C15.5523 13 16 13.4477 16 14V15.9546C14.7978 15.8457 13.621 15.5439 12.503 15.0828L12.0866 14.9024L12.7208 13ZM14.7071 2.29289C15.0676 2.65338 15.0953 3.22061 14.7903 3.6129L14.7071 3.70711L14.414 4H17C17.5523 4 18 4.44772 18 5C18 5.55228 17.5523 6 17 6H14.415L14.7071 6.29289C15.0676 6.65338 15.0953 7.22061 14.7903 7.6129L14.7071 7.70711C14.3466 8.06759 13.7794 8.09532 13.3871 7.7903L13.2929 7.70711L11.2929 5.70711L11.1963 5.59531L11.1247 5.48406L11.0937 5.4231L11.0599 5.34165L11.0358 5.26599L11.011 5.14847L11.004 5.0898L11.0002 4.98164L11.003 4.918L11.0202 4.79927L11.0497 4.68786L11.0937 4.57678L11.146 4.47929L11.2128 4.38325C11.2377 4.35153 11.2644 4.32136 11.2929 4.29289L13.2929 2.29289C13.6834 1.90237 14.3166 1.90237 14.7071 2.29289ZM6 4C6.55228 4 7 4.44772 7 5V7.27924L5.09757 7.91338C4.53454 6.67278 4.16796 5.35246 4.04542 4H6Z" fill="black"/>
</svg>
