<svg width="20" height="20" viewBox="0 0 20 20" fill="none" xmlns="http://www.w3.org/2000/svg">
<path fill-rule="evenodd" clip-rule="evenodd" d="M16 2C16.5523 2 17 2.44772 17 3C17 3.55228 16.5523 4 16 4H8V7.999L16 8C16.5523 8 17 8.44772 17 9C17 9.55228 16.5523 10 16 10L8 9.999V13H10C10.5523 13 11 13.4477 11 14C11 14.5523 10.5523 15 10 15H8V17C8 17.5523 7.55228 18 7 18C6.44772 18 6 17.5523 6 17V15H4C3.44772 15 3 14.5523 3 14C3 13.4477 3.44772 13 4 13H6V3C6 2.44772 6.44772 2 7 2L16 2Z" fill="black"/>
</svg>
