<svg width="20" height="20" viewBox="0 0 20 20" fill="none" xmlns="http://www.w3.org/2000/svg">
<path fill-rule="evenodd" clip-rule="evenodd" d="M16.3554 6.99061C16.3655 7.12186 16.3655 7.25313 16.3655 7.38437C16.3655 11.3875 13.066 16 7.03555 16C5.17767 16 3.45179 15.5031 2 14.6406C2.26397 14.6687 2.51775 14.6781 2.79188 14.6781C4.32485 14.6781 5.73605 14.2 6.86296 13.3844C5.42133 13.3563 4.2132 12.4844 3.79694 11.2844C4 11.3125 4.20304 11.3312 4.41626 11.3312C4.71067 11.3312 5.00511 11.2937 5.2792 11.2281C3.77666 10.9469 2.64972 9.72812 2.64972 8.25624V8.21876C3.08625 8.44376 3.59391 8.58438 4.13195 8.60311C3.24869 8.05935 2.67003 7.13124 2.67003 6.08123C2.67003 5.51874 2.83244 5.00311 3.11672 4.55311C4.73095 6.39061 7.15736 7.59059 9.87816 7.72186C9.82741 7.49686 9.79694 7.26251 9.79694 7.02813C9.79694 5.35936 11.2589 4 13.0761 4C14.0203 4 14.8731 4.36562 15.4721 4.95625C16.2132 4.82501 16.9238 4.57187 17.5533 4.225C17.3096 4.92814 16.7919 5.51877 16.1117 5.89374C16.7716 5.82815 17.4112 5.65936 18 5.42501C17.5534 6.02499 16.995 6.55934 16.3554 6.99061Z" fill="black"/>
</svg>
