<svg width="20" height="20" viewBox="0 0 20 20" fill="none" xmlns="http://www.w3.org/2000/svg">
<path fill-rule="evenodd" clip-rule="evenodd" d="M13 3C15.7614 3 18 5.23858 18 8C18 10.7614 15.7614 13 13 13H9C7.34315 13 6 11.6569 6 10C6 8.34315 7.34315 7 9 7H13C13.5523 7 14 7.44772 14 8C14 8.55228 13.5523 9 13 9H9L8.88338 9.00673C8.38604 9.06449 8 9.48716 8 10C8 10.5128 8.38604 10.9355 8.88338 10.9933L9 11H13C14.6569 11 16 9.65685 16 8C16 6.34315 14.6569 5 13 5H9C6.23858 5 4 7.23858 4 10C4 12.6888 6.12231 14.8818 8.78311 14.9954L9 15H13C13.5523 15 14 15.4477 14 16C14 16.5523 13.5523 17 13 17H9C5.13401 17 2 13.866 2 10C2 6.13401 5.13401 3 9 3H13Z" fill="black"/>
</svg>
