<svg width="20" height="20" viewBox="0 0 20 20" fill="none" xmlns="http://www.w3.org/2000/svg">
<path d="M10 2C11.1046 2 12 2.89543 12 4C12 4.73984 11.5983 5.38585 11.0011 5.73181L11 15.917C13.1189 15.5616 14.8612 14.0955 15.6079 12.138L15.657 12H14C12.9061 12 12.6271 10.5216 13.5736 10.0943L13.6838 10.0513L16.6838 9.05132C17.3313 8.83547 18 9.31744 18 10C18 14.4183 14.4183 18 10 18C5.58172 18 2 14.4183 2 10C2 9.35759 2.59234 8.89287 3.20188 9.02037L3.31623 9.05132L6.31623 10.0513C7.35398 10.3972 7.15113 11.888 6.11817 11.994L6 12H4.342L4.39209 12.138C5.13891 14.0957 6.88148 15.5619 9.00064 15.9171L8.99993 5.73239C8.40217 5.38657 8 4.74025 8 4C8 2.89543 8.89543 2 10 2Z" fill="black"/>
</svg>
