<svg width="20" height="20" viewBox="0 0 20 20" fill="none" xmlns="http://www.w3.org/2000/svg">
<path fill-rule="evenodd" clip-rule="evenodd" d="M7 2C7.51284 2 7.93551 2.38604 7.99327 2.88338L8 3V7C8 7.51284 7.61396 7.93551 7.11662 7.99327L7 8H3C2.44772 8 2 7.55228 2 7C2 6.48716 2.38604 6.06449 2.88338 6.00673L3 6H6V3C6 2.48716 6.38604 2.06449 6.88338 2.00673L7 2ZM7.11662 12.0067L7 12H3L2.88338 12.0067C2.38604 12.0645 2 12.4872 2 13C2 13.5128 2.38604 13.9355 2.88338 13.9933L3 14H6V17L6.00673 17.1166C6.06005 17.5757 6.4243 17.94 6.88338 17.9933L7 18L7.11662 17.9933C7.5757 17.94 7.93995 17.5757 7.99327 17.1166L8 17V13L7.99327 12.8834C7.93995 12.4243 7.5757 12.06 7.11662 12.0067ZM18 13C18 12.4477 17.5523 12 17 12H13L12.8834 12.0067C12.386 12.0645 12 12.4872 12 13V17L12.0067 17.1166C12.0645 17.614 12.4872 18 13 18L13.1166 17.9933C13.614 17.9355 14 17.5128 14 17V14H17L17.1166 13.9933C17.614 13.9355 18 13.5128 18 13ZM13.1166 2.00673L13 2L12.8834 2.00673C12.4243 2.06005 12.06 2.4243 12.0067 2.88338L12 3V7L12.0067 7.11662C12.06 7.5757 12.4243 7.93995 12.8834 7.99327L13 8H17L17.1166 7.99327C17.614 7.93551 18 7.51284 18 7C18 6.48716 17.614 6.06449 17.1166 6.00673L17 6H14V3L13.9933 2.88338C13.94 2.4243 13.5757 2.06005 13.1166 2.00673Z" fill="black"/>
</svg>
