<svg width="20" height="20" viewBox="0 0 20 20" fill="none" xmlns="http://www.w3.org/2000/svg">
<path d="M3.6129 14.7903L3.70711 14.7071L8 10.415L10.2929 12.7071C10.6534 13.0676 11.2206 13.0953 11.6129 12.7903L11.7071 12.7071L15 9.415L16.2929 10.7071C16.8955 11.3097 17.9072 10.9277 17.994 10.1136L18 10V6C18 5.48716 17.614 5.06449 17.1166 5.00673L17 5H13C12.1478 5 11.7026 5.98551 12.2168 6.62253L12.2929 6.70711L13.585 8L11 10.585L8.70711 8.29289C8.34662 7.93241 7.77939 7.90468 7.3871 8.2097L7.29289 8.29289L2.29289 13.2929C1.90237 13.6834 1.90237 14.3166 2.29289 14.7071C2.65338 15.0676 3.22061 15.0953 3.6129 14.7903Z" fill="black"/>
</svg>
