<svg width="20" height="20" viewBox="0 0 20 20" fill="none" xmlns="http://www.w3.org/2000/svg">
<path fill-rule="evenodd" clip-rule="evenodd" d="M7 12H13C15.7614 12 18 14.2386 18 17C18 17.5523 17.5523 18 17 18C16.4872 18 16.0645 17.614 16.0067 17.1166L15.9949 16.8237C15.907 15.3072 14.6928 14.093 13.1763 14.0051L13 14H7C5.34315 14 4 15.3431 4 17C4 17.5523 3.55228 18 3 18C2.44772 18 2 17.5523 2 17C2 14.3112 4.12231 12.1182 6.78311 12.0046L7 12ZM10 2C10.5523 2 11 2.44772 11 3C11 3.55228 10.5523 4 10 4C8.34315 4 7 5.34315 7 7C7 8.65685 8.34315 10 10 10C10.7415 10 11.4387 9.73127 11.9833 9.25098C12.3975 8.88566 13.0294 8.92529 13.3947 9.33949C13.76 9.75369 13.7204 10.3856 13.3062 10.7509C12.3997 11.5504 11.2334 12 10 12C7.23858 12 5 9.76142 5 7C5 4.23858 7.23858 2 10 2ZM14.6129 2.2097L14.7071 2.29289L15.5 3.085L16.2929 2.29289C16.6834 1.90237 17.3166 1.90237 17.7071 2.29289C18.0976 2.68342 18.0976 3.31658 17.7071 3.70711L16.915 4.5L17.7071 5.29289C18.0676 5.65338 18.0953 6.22061 17.7903 6.6129L17.7071 6.70711C17.3466 7.06759 16.7794 7.09532 16.3871 6.7903L16.2929 6.70711L15.5 5.915L14.7071 6.70711C14.3166 7.09763 13.6834 7.09763 13.2929 6.70711C12.9024 6.31658 12.9024 5.68342 13.2929 5.29289L14.085 4.5L13.2929 3.70711C12.9324 3.34662 12.9047 2.77939 13.2097 2.3871L13.2929 2.29289C13.6233 1.96245 14.1275 1.91161 14.5114 2.14038L14.6129 2.2097Z" fill="black"/>
</svg>
