<svg width="20" height="20" viewBox="0 0 20 20" fill="none" xmlns="http://www.w3.org/2000/svg">
<path fill-rule="evenodd" clip-rule="evenodd" d="M10 2C10.5523 2 11 2.44772 11 3V5C11 5.55228 10.5523 6 10 6C9.44772 6 9 5.55228 9 5V3C9 2.44772 9.44772 2 10 2ZM10 14C10.5523 14 11 14.4477 11 15V17C11 17.5523 10.5523 18 10 18C9.44772 18 9 17.5523 9 17V15C9 14.4477 9.44772 14 10 14ZM16 7C17.1046 7 18 7.89543 18 9V11C18 12.1046 17.1046 13 16 13H4C2.89543 13 2 12.1046 2 11V9C2 7.89543 2.89543 7 4 7H16Z" fill="black"/>
</svg>
