<svg width="20" height="20" viewBox="0 0 20 20" fill="none" xmlns="http://www.w3.org/2000/svg">
<path fill-rule="evenodd" clip-rule="evenodd" d="M10 2C14.4183 2 18 5.58172 18 10C18 14.4183 14.4183 18 10 18C5.58172 18 2 14.4183 2 10C2 5.58172 5.58172 2 10 2ZM10 4C6.68629 4 4 6.68629 4 10C4 13.3137 6.68629 16 10 16C13.3137 16 16 13.3137 16 10C16 6.68629 13.3137 4 10 4ZM10 6C10.5128 6 10.9355 6.38604 10.9933 6.88338L11 7V9.58579L12.7071 11.2929C13.0976 11.6834 13.0976 12.3166 12.7071 12.7071C12.3466 13.0676 11.7794 13.0953 11.3871 12.7903L11.2929 12.7071L9.29289 10.7071C9.13661 10.5508 9.0374 10.3481 9.00867 10.1314L9 10V7C9 6.44772 9.44772 6 10 6Z" fill="black"/>
</svg>
