<svg width="20" height="20" viewBox="0 0 20 20" fill="none" xmlns="http://www.w3.org/2000/svg">
<path fill-rule="evenodd" clip-rule="evenodd" d="M10 17L3.4776 10.9652C2.5248 10.0839 2 8.91026 2 7.66036C2 6.41045 2.5248 5.23678 3.4776 4.35477C5.2536 2.71131 8.0416 2.56353 10 3.9091C11.9584 2.56353 14.7464 2.71131 16.5224 4.35477C17.4752 5.23678 18 6.41045 18 7.66036C18 8.91026 17.4752 10.0839 16.5224 10.9652L10 17ZM15.1644 9.49688C15.7122 8.9902 16 8.34661 16 7.66036C16 6.97401 15.7121 6.33009 15.164 5.82269C14.0968 4.83516 12.3463 4.72358 11.1326 5.55751L10 6.33568L8.86742 5.55751C7.65368 4.72358 5.90315 4.83516 4.83624 5.82245C4.28786 6.33009 4 6.97401 4 7.66036C4 8.34661 4.28776 8.9902 4.83588 9.49715L10 14.2752L15.1644 9.49688Z" fill="black"/>
</svg>
