<svg width="20" height="20" viewBox="0 0 20 20" fill="none" xmlns="http://www.w3.org/2000/svg">
<path d="M13 14C12.1478 14 11.7026 13.0145 12.2168 12.3775L12.2929 12.2929L13.5683 11.0169C12.5736 10.4078 11.1361 9.99999 9.5 9.99999C6.48051 9.99999 4.13725 11.3889 4.00582 12.8692L4 13C4 13.5523 3.55228 14 3 14C2.44772 14 2 13.5523 2 13C2 10.1099 5.42859 7.99999 9.5 7.99999C11.6541 7.99999 13.6282 8.59059 15.0098 9.57486L16.2929 8.29288C16.8955 7.69031 17.9072 8.07232 17.994 8.88636L18 8.99999V13C18 13.5128 17.614 13.9355 17.1166 13.9933L17 14H13Z" fill="black"/>
</svg>
