<svg width="20" height="20" viewBox="0 0 20 20" fill="none" xmlns="http://www.w3.org/2000/svg">
<path fill-rule="evenodd" clip-rule="evenodd" d="M5 18C3.40232 18 2.09634 16.7511 2.00509 15.1763L2 15V5C2 3.40232 3.24892 2.09634 4.82373 2.00509L5 2H15C16.5977 2 17.9037 3.24892 17.9949 4.82373L18 5V15C18 16.5977 16.7511 17.9037 15.1763 17.9949L15 18H5ZM9 11H4V15C4 15.5128 4.38604 15.9355 4.88338 15.9933L5 16H9V11ZM11 11H16V15L15.9933 15.1166C15.9355 15.614 15.5128 16 15 16H11V11ZM9 4H5C4.48716 4 4.06449 4.38604 4.00673 4.88338L4 5V9H9V4ZM11 4H15L15.1166 4.00673C15.614 4.06449 16 4.48716 16 5V9H11V4Z" fill="black"/>
</svg>
