<svg width="20" height="20" viewBox="0 0 20 20" fill="none" xmlns="http://www.w3.org/2000/svg">
<path fill-rule="evenodd" clip-rule="evenodd" d="M11 16C11.5523 16 12 16.4477 12 17C12 17.5128 11.614 17.9355 11.1166 17.9933L11 18H9C8.44772 18 8 17.5523 8 17C8 16.4872 8.38604 16.0645 8.88338 16.0067L9 16H11ZM17 14C17.4734 14 17.8699 14.3289 17.9736 14.7707L17.9933 14.8834L18 15V17L17.9933 17.1166L17.9736 17.2293C17.8881 17.5938 17.6032 17.8814 17.2403 17.9709L17.1166 17.9933L17 18H15L14.8834 17.9933L14.7707 17.9736C14.4062 17.8881 14.1186 17.6032 14.0291 17.2403L14.0067 17.1166L14 17L14.0067 16.8834L14.0264 16.7707C14.1119 16.4062 14.3968 16.1186 14.7597 16.0291L14.8834 16.0067L15 16H16V15L16.0067 14.8834L16.0264 14.7707C16.1301 14.3289 16.5266 14 17 14ZM17 2C17.5523 2 18 2.44772 18 3C18 3.51284 17.614 3.93551 17.1166 3.99327L17 4H5C4.48716 4 4.06449 4.38604 4.00673 4.88338L4 5V17C4 17.5523 3.55228 18 3 18C2.48716 18 2.06449 17.614 2.00673 17.1166L2 17V5C2 3.40232 3.24892 2.09634 4.82373 2.00509L5 2H17ZM10 7C10.5128 7 10.9355 7.38604 10.9933 7.88338L11 8V9H12C12.5523 9 13 9.44772 13 10C13 10.5128 12.614 10.9355 12.1166 10.9933L12 11H11V12C11 12.5523 10.5523 13 10 13C9.48716 13 9.06449 12.614 9.00673 12.1166L9 12V11H8C7.44772 11 7 10.5523 7 10C7 9.48716 7.38604 9.06449 7.88338 9.00673L8 9H9V8C9 7.44772 9.44772 7 10 7ZM17 8C17.5128 8 17.9355 8.38604 17.9933 8.88338L18 9V11C18 11.5523 17.5523 12 17 12C16.4872 12 16.0645 11.614 16.0067 11.1166L16 11V9C16 8.44772 16.4477 8 17 8Z" fill="black"/>
</svg>
