<svg width="20" height="20" viewBox="0 0 20 20" fill="none" xmlns="http://www.w3.org/2000/svg">
<path fill-rule="evenodd" clip-rule="evenodd" d="M15.6402 2.2318C16.0318 2.55817 16.1108 3.12056 15.8426 3.53886L15.7682 3.64021L11 9.362V10L13 10C13.5523 10 14 10.4477 14 11C14 11.5523 13.5523 12 13 12L11 12V13L13 13C13.5523 13 14 13.4477 14 14C14 14.5523 13.5523 15 13 15L11 15L11 17C11 17.5523 10.5523 18 10 18C9.44774 18 9.00003 17.5523 9.00003 17L9 15L7.00003 15C6.44774 15 6.00003 14.5523 6.00003 14C6.00003 13.4477 6.44774 13 7.00003 13L9 13V12L7.00003 12C6.44774 12 6.00003 11.5523 6.00003 11C6.00003 10.4477 6.44774 10 7.00003 10L9 10V9.363L4.2318 3.64021C3.87824 3.21593 3.93556 2.58537 4.35984 2.2318C4.75148 1.90544 5.31889 1.92918 5.68196 2.26846L5.76825 2.35984L10 7.43703L14.2318 2.35984C14.5854 1.93556 15.2159 1.87824 15.6402 2.2318Z" fill="black"/>
</svg>
