<svg width="20" height="20" viewBox="0 0 20 20" fill="none" xmlns="http://www.w3.org/2000/svg">
<path fill-rule="evenodd" clip-rule="evenodd" d="M5 18C4.44772 18 4 17.5523 4 17V3C4 2.44772 4.44772 2 5 2H10C12.2463 2 14 4.04599 14 6.5C14 7.50829 13.7039 8.44769 13.1993 9.20461C14.8407 9.77921 16 11.5047 16 13.5C16 15.8818 14.3479 17.8793 12.1969 17.9947L12 18H5ZM12.1327 11.0056L12 11H6V16H12C13.0674 16 14 14.912 14 13.5C14 12.1468 13.1435 11.0912 12.1327 11.0056ZM10 4H6V9H10C11.0674 9 12 7.91199 12 6.5C12 5.14685 11.1435 4.09123 10.1327 4.00561L10 4Z" fill="black"/>
</svg>
