<svg width="20" height="20" viewBox="0 0 20 20" fill="none" xmlns="http://www.w3.org/2000/svg">
<path fill-rule="evenodd" clip-rule="evenodd" d="M3.89733 6.44812C3.91733 6.26232 3.842 6.07904 3.69533 5.95434L2.202 4.25382V4H6.84067L10.426 11.4288L13.578 4H18V4.25382L16.7227 5.4108C16.6127 5.49016 16.558 5.62053 16.5807 5.74965V14.251C16.558 14.3795 16.6127 14.5098 16.7227 14.5892L17.97 15.7462V16H11.6953V15.7462L12.988 14.5609C13.1147 14.4412 13.1147 14.4059 13.1147 14.2226V7.35128L9.522 15.9723H9.03667L4.85333 7.35128V13.1293C4.81867 13.3718 4.904 13.6168 5.08467 13.7918L6.76533 15.7178V15.9723H2V15.7178L3.68067 13.7918C3.86067 13.6161 3.94067 13.3699 3.89733 13.1293V6.44812Z" fill="black"/>
</svg>
