<svg width="20" height="20" viewBox="0 0 20 20" fill="none" xmlns="http://www.w3.org/2000/svg">
<path fill-rule="evenodd" clip-rule="evenodd" d="M14.9933 2.88338C14.9355 2.38604 14.5128 2 14 2C13.4477 2 13 2.44772 13 3V9L12.9949 9.17627C12.9037 10.7511 11.5977 12 10 12C8.34315 12 7 10.6569 7 9V3L6.99327 2.88338C6.93551 2.38604 6.51284 2 6 2C5.44772 2 5 2.44772 5 3V9L5.00462 9.21689C5.11818 11.8777 7.31125 14 10 14C12.7614 14 15 11.7614 15 9V3L14.9933 2.88338ZM15 17C15 16.4477 14.5523 16 14 16H6C5.44772 16 5 16.4477 5 17C5 17.5523 5.44772 18 6 18H14C14.5523 18 15 17.5523 15 17Z" fill="black"/>
</svg>
