<svg width="20" height="20" viewBox="0 0 20 20" fill="none" xmlns="http://www.w3.org/2000/svg">
<path fill-rule="evenodd" clip-rule="evenodd" d="M15 2C16.6569 2 18 3.34315 18 5V13C18 14.6569 16.6569 16 15 16H12.4142L10.7071 17.7071C10.3166 18.0976 9.68342 18.0976 9.29289 17.7071L7.58579 16H5C3.34315 16 2 14.6569 2 13V5C2 3.34315 3.34315 2 5 2H15ZM15 4H5C4.44772 4 4 4.44772 4 5V13C4 13.5523 4.44772 14 5 14H8C8.26522 14 8.51957 14.1054 8.70711 14.2929L10 15.5858L11.2929 14.2929C11.4804 14.1054 11.7348 14 12 14H15C15.5523 14 16 13.5523 16 13V5C16 4.44772 15.5523 4 15 4ZM10 6C10.5523 6 11 6.44772 11 7V8H12C12.5523 8 13 8.44772 13 9C13 9.55228 12.5523 10 12 10H11V11C11 11.5523 10.5523 12 10 12C9.44772 12 9 11.5523 9 11V10H8C7.44772 10 7 9.55228 7 9C7 8.44772 7.44772 8 8 8H9V7C9 6.44772 9.44772 6 10 6Z" fill="black"/>
</svg>
