<svg width="20" height="20" viewBox="0 0 20 20" fill="none" xmlns="http://www.w3.org/2000/svg">
<path fill-rule="evenodd" clip-rule="evenodd" d="M9.00002 3C9.00002 2.44772 9.44774 2 10 2C10.5523 2 11 2.44772 11 3V4.02746C13.25 4.27619 15 6.18372 15 8.5L15.0064 8.86733C15.0745 10.8233 15.6854 12.7245 16.7742 14.3567L16.8332 14.4451C17.2765 15.1096 16.8001 16 16.0013 16H12C12 17.1046 11.1046 18 10 18C8.89545 18 8.00002 17.1046 8.00002 16H4.00131C3.20275 16 2.72634 15.1101 3.1691 14.4455L3.22723 14.3583C4.38326 12.6231 5.00028 10.5848 5.00067 8.49982L5.00561 8.28798C5.10885 6.06856 6.81959 4.26924 9.00002 4.0276V3ZM10.5 6H9.50131C8.12043 6 7.00092 7.1193 7.00067 8.50018C7.00034 10.291 6.6175 12.0528 5.88695 13.6707L5.73102 14H14.27L14.1143 13.6705C13.4393 12.1772 13.061 10.5611 13.0068 8.91271L13 8.5C13 7.11929 11.8807 6 10.5 6Z" fill="black"/>
</svg>
