<svg width="20" height="20" viewBox="0 0 20 20" fill="none" xmlns="http://www.w3.org/2000/svg">
<path fill-rule="evenodd" clip-rule="evenodd" d="M15 15C15.5523 15 16 15.4477 16 16C16 16.5523 15.5523 17 15 17H5C4.44772 17 4 16.5523 4 16C4 15.4477 4.44772 15 5 15H15ZM17 11C17.5523 11 18 11.4477 18 12C18 12.5523 17.5523 13 17 13H3C2.44772 13 2 12.5523 2 12C2 11.4477 2.44772 11 3 11H17ZM15 7C15.5523 7 16 7.44772 16 8C16 8.55228 15.5523 9 15 9H5C4.44772 9 4 8.55228 4 8C4 7.44772 4.44772 7 5 7H15ZM17 3C17.5523 3 18 3.44772 18 4C18 4.55228 17.5523 5 17 5H3C2.44772 5 2 4.55228 2 4C2 3.44772 2.44772 3 3 3H17Z" fill="black"/>
</svg>
