<svg width="20" height="20" viewBox="0 0 20 20" fill="none" xmlns="http://www.w3.org/2000/svg">
<path fill-rule="evenodd" clip-rule="evenodd" d="M10 4.99998V15C10 15.824 9.05924 16.2944 8.4 15.8L4.66667 13H3C2.44772 13 2 12.5523 2 12V7.99998C2 7.4477 2.44772 6.99998 3 6.99998H4.66667L8.4 4.19998C9.05924 3.70556 10 4.17594 10 4.99998ZM12.0923 6.58039C12.324 6.07907 12.9183 5.86054 13.4196 6.09227C14.979 6.81312 16 8.31404 16 9.99998C16 11.6859 14.979 13.1869 13.4196 13.9077C12.9183 14.1394 12.324 13.9209 12.0923 13.4196C11.8606 12.9183 12.0791 12.324 12.5804 12.0923C13.4513 11.6897 14 10.8831 14 9.99998C14 9.11691 13.4513 8.31027 12.5804 7.90769C12.0791 7.67596 11.8606 7.0817 12.0923 6.58039ZM8 6.99998L5.6 8.79998C5.4269 8.92981 5.21637 8.99998 5 8.99998H4V11H5C5.21637 11 5.4269 11.0702 5.6 11.2L8 13V6.99998Z" fill="black"/>
</svg>
