<svg width="20" height="20" viewBox="0 0 20 20" fill="none" xmlns="http://www.w3.org/2000/svg">
<path fill-rule="evenodd" clip-rule="evenodd" d="M5.29272 10.2926L5.38693 10.2094C5.74653 9.92975 6.25312 9.92975 6.61271 10.2094L6.70692 10.2926L6.79011 10.3868C7.06971 10.7464 7.06971 11.253 6.79011 11.6127L6.70692 11.7069L5.41469 13.0002L14.9997 12.9999C15.5125 12.9999 15.9352 13.3859 15.993 13.8832L15.9997 13.9999L15.993 14.1166C15.9396 14.5757 15.5754 14.94 15.1163 14.9933L14.9997 15L5.41469 15.0002L6.70692 16.293L6.79011 16.3872C7.09513 16.7795 7.0674 17.3468 6.70692 17.7073C6.34644 18.0678 5.77922 18.0956 5.38693 17.7905L5.29272 17.7073L2.29277 14.7071L2.18994 14.5867L2.13596 14.5041L2.07719 14.3862L2.04191 14.2876L2.01089 14.149L2.00105 14.0538L2.00133 13.9458L2.01089 13.8515L2.04199 13.7121L2.08953 13.5854L2.14524 13.4804L2.20099 13.3982L2.25342 13.3344L2.29277 13.2928L5.29272 10.2926L5.38693 10.2094L5.29272 10.2926ZM14.6131 2.20948L14.7073 2.29267L17.7072 5.29287L17.7835 5.37838L17.8346 5.44876L17.8913 5.54588L17.9249 5.61876L17.9499 5.68626L17.9653 5.73777L17.9891 5.85157L17.9987 5.94588L17.9971 6.07476L17.9891 6.14908L17.9581 6.28766L17.9111 6.41317L17.864 6.50421L17.8101 6.58676L17.7761 6.62976L17.7072 6.7072L14.7073 9.70742C14.3168 10.098 13.6836 10.098 13.2931 9.70742C12.9326 9.34691 12.9049 8.77964 13.2099 8.38732L13.2931 8.2931L14.5853 7.00033L5.00031 7.00012C4.48747 7.00012 4.0648 6.61408 4.00703 6.11674L4.00031 5.99997C4.00031 5.44769 4.44802 4.99997 5.00031 4.99997L14.5853 5.00033L13.2931 3.70699C12.9326 3.34648 12.9049 2.7792 13.2099 2.38688L13.2931 2.29267C13.6235 1.9622 14.1277 1.91136 14.5116 2.14015L14.6131 2.20948Z" fill="black"/>
</svg>
