<svg width="20" height="20" viewBox="0 0 20 20" fill="none" xmlns="http://www.w3.org/2000/svg">
<path fill-rule="evenodd" clip-rule="evenodd" d="M6.17071 4L6.23766 3.82776C6.69415 2.75341 7.75909 2 9 2C10.293 2 11.4032 2.82061 11.8231 4H13C14.6569 4 16 5.34315 16 7V8.17071C17.1652 8.58254 18 9.69378 18 11C18 12.3062 17.1652 13.4175 16 13.8293V15C16 16.6569 14.6569 18 13 18H11C10.4872 18 10.0645 17.614 10.0067 17.1166L9.99327 16.8834C9.93551 16.386 9.51284 16 9 16C8.48716 16 8.06449 16.386 8.00673 16.8834L7.99327 17.1166C7.93551 17.614 7.51284 18 7 18H5C3.34315 18 2 16.6569 2 15V13C2 12.4872 2.38604 12.0645 2.88338 12.0067L3.11662 11.9933C3.61396 11.9355 4 11.5128 4 11C4 10.4872 3.61396 10.0645 3.11662 10.0067L2.88338 9.99327C2.38604 9.93551 2 9.51284 2 9V7C2 5.34315 3.34315 4 5 4H6.17071ZM13 16C13.5523 16 14 15.5523 14 15V13C14 12.4872 14.386 12.0645 14.8834 12.0067L15.1166 11.9933C15.614 11.9355 16 11.5128 16 11C16 10.4872 15.614 10.0645 15.1166 10.0067L14.8834 9.99327C14.386 9.93551 14 9.51284 14 9V7C14 6.44772 13.5523 6 13 6H11C10.462 6 10.0204 5.57436 10.0007 5.03673L9.99722 4.92431C9.95895 4.40547 9.52432 4 9 4C8.48716 4 8.06449 4.38604 8.00673 4.88338L7.99327 5.11662C7.93551 5.61396 7.51284 6 7 6H5C4.44772 6 4 6.44772 4 7V8.17071C5.16519 8.58254 6 9.69378 6 11C6 12.3062 5.16519 13.4175 4 13.8293V15C4 15.5523 4.44772 16 5 16H6.17071C6.58254 14.8348 7.69378 14 9 14C10.2409 14 11.3058 14.7534 11.7623 15.8278L11.8293 16H13Z" fill="black"/>
</svg>
