<svg width="20" height="20" viewBox="0 0 20 20" fill="none" xmlns="http://www.w3.org/2000/svg">
<path fill-rule="evenodd" clip-rule="evenodd" d="M3 4H8C8.51284 4 8.93551 4.38604 8.99327 4.88338L9 5V9C9 9.07165 8.9923 9.143 8.97709 9.21281L8.94868 9.31623L6.94868 15.3162C6.82494 15.6874 6.49788 15.9488 6.11604 15.9933L6 16H5C4.35759 16 3.89287 15.4077 4.02037 14.7981L4.05132 14.6838L5.61257 10H3C2.48716 10 2.06449 9.61396 2.00673 9.11662L2 9V5C2 4.48716 2.38604 4.06449 2.88338 4.00673L3 4H8H3ZM12 4H17C17.5128 4 17.9355 4.38604 17.9933 4.88338L18 5V9C18 9.07165 17.9923 9.143 17.9771 9.21281L17.9487 9.31623L15.9487 15.3162C15.8249 15.6874 15.4979 15.9488 15.116 15.9933L15 16H14C13.3576 16 12.8929 15.4077 13.0204 14.7981L13.0513 14.6838L14.6126 10H12C11.4872 10 11.0645 9.61396 11.0067 9.11662L11 9V5C11 4.48716 11.386 4.06449 11.8834 4.00673L12 4H17H12Z" fill="black"/>
</svg>
