<svg width="20" height="20" viewBox="0 0 20 20" fill="none" xmlns="http://www.w3.org/2000/svg">
<path fill-rule="evenodd" clip-rule="evenodd" d="M16.0067 7.11662L16 7C16 6.44772 15.5523 6 15 6H5C4.44772 6 4 6.44772 4 7V8H7C7.55228 8 8 8.44772 8 9C8 9.55228 7.55228 10 7 10H4V15C4 15.5523 4.44772 16 5 16H7C7.55228 16 8 16.4477 8 17C8 17.5523 7.55228 18 7 18H5C3.34315 18 2 16.6569 2 15V7C2 5.34315 3.34315 4 5 4V3C5 2.44772 5.44772 2 6 2C6.55228 2 7 2.44772 7 3V4H13V3C13 2.44772 13.4477 2 14 2C14.5523 2 15 2.44772 15 3V4C16.6569 4 18 5.34315 18 7C18 7.55228 17.5523 8 17 8C16.4872 8 16.0645 7.61396 16.0067 7.11662ZM11.7071 10.2929L14 12.585L16.2929 10.2929C16.6534 9.93241 17.2206 9.90468 17.6129 10.2097L17.7071 10.2929C18.0676 10.6534 18.0953 11.2206 17.7903 11.6129L17.7071 11.7071L15.415 14L17.7071 16.2929C18.0976 16.6834 18.0976 17.3166 17.7071 17.7071C17.3166 18.0976 16.6834 18.0976 16.2929 17.7071L14 15.415L11.7071 17.7071C11.3466 18.0676 10.7794 18.0953 10.3871 17.7903L10.2929 17.7071C9.93241 17.3466 9.90468 16.7794 10.2097 16.3871L10.2929 16.2929L12.585 14L10.2929 11.7071C9.90237 11.3166 9.90237 10.6834 10.2929 10.2929C10.6834 9.90237 11.3166 9.90237 11.7071 10.2929Z" fill="black"/>
</svg>
