<svg width="20" height="20" viewBox="0 0 20 20" fill="none" xmlns="http://www.w3.org/2000/svg">
<path fill-rule="evenodd" clip-rule="evenodd" d="M17 9C17.5523 9 18 9.44772 18 10C18 10.5523 17.5523 11 17 11H15V15C15 15.5523 14.5523 16 14 16C13.4477 16 13 15.5523 13 15V11H11C10.4477 11 10 10.5523 10 10C10 9.44772 10.4477 9 11 9H17ZM13 4C13.5523 4 14 4.44772 14 5C14 5.55228 13.5523 6 13 6H9V15C9 15.5523 8.55228 16 8 16C7.44772 16 7 15.5523 7 15V6H3C2.44772 6 2 5.55228 2 5C2 4.44772 2.44772 4 3 4H13Z" fill="black"/>
</svg>
