<svg width="20" height="20" viewBox="0 0 20 20" fill="none" xmlns="http://www.w3.org/2000/svg">
<path fill-rule="evenodd" clip-rule="evenodd" d="M11.5552 2.58494L11.6684 2.69109L17.3089 8.33157C18.2304 9.25302 18.2304 10.747 17.3089 11.6684L11.6684 17.3089C10.747 18.2304 9.25302 18.2304 8.33157 17.3089L2.69109 11.6684C1.76964 10.747 1.76964 9.25302 2.69109 8.33157L8.33157 2.69109C9.21616 1.8065 10.6284 1.77111 11.5552 2.58494ZM11.7071 7.29289L11.6129 7.2097C11.2533 6.9301 10.7467 6.9301 10.3871 7.2097L10.2929 7.29289L10.2097 7.3871C9.9301 7.7467 9.9301 8.2533 10.2097 8.6129L10.2929 8.70711L10.585 9H7L6.88338 9.00673C6.4243 9.06005 6.06005 9.4243 6.00673 9.88338L6 10V12L6.00673 12.1166C6.06449 12.614 6.48716 13 7 13C7.51284 13 7.93551 12.614 7.99327 12.1166L8 12V11H10.584L10.2929 11.2929L10.2097 11.3871C9.90468 11.7794 9.93241 12.3466 10.2929 12.7071C10.6534 13.0676 11.2206 13.0953 11.6129 12.7903L11.7071 12.7071L13.7071 10.7071L13.7903 10.6129C14.0699 10.2533 14.0699 9.7467 13.7903 9.3871L13.7071 9.29289L11.7071 7.29289L11.6129 7.2097L11.7071 7.29289Z" fill="black"/>
</svg>
