<svg width="20" height="20" viewBox="0 0 20 20" fill="none" xmlns="http://www.w3.org/2000/svg">
<path fill-rule="evenodd" clip-rule="evenodd" d="M3 2H8C9.30625 2 10.4175 2.83485 10.8293 4.00009L15 4C16.5977 4 17.9037 5.24892 17.9949 6.82373L18 7V13C18 14.5977 16.7511 15.9037 15.1763 15.9949L15 16H12C10.6941 16 9.58312 15.1656 9.17102 14.0009L4 14V17C4 17.5523 3.55228 18 3 18C2.44772 18 2 17.5523 2 17V3C2 2.44772 2.44772 2 3 2ZM11 6V13C11 13.5128 11.386 13.9355 11.8834 13.9933L12 14H15C15.5128 14 15.9355 13.614 15.9933 13.1166L16 13V7C16 6.48716 15.614 6.06449 15.1166 6.00673L15 6H11ZM8 4H4V12H9V5C9 4.48716 8.61396 4.06449 8.11662 4.00673L8 4Z" fill="black"/>
</svg>
