<svg width="20" height="20" viewBox="0 0 20 20" fill="none" xmlns="http://www.w3.org/2000/svg">
<path fill-rule="evenodd" clip-rule="evenodd" d="M18 10C18 5.58172 14.4183 2 10 2C5.58172 2 2 5.58172 2 10C2 14.4183 5.58172 18 10 18C14.4183 18 18 14.4183 18 10ZM16 10C16 13.3137 13.3137 16 10 16C6.68629 16 4 13.3137 4 10C4 6.68629 6.68629 4 10 4C13.3137 4 16 6.68629 16 10ZM9.414 9H13C13.5523 9 14 9.44772 14 10C14 10.5523 13.5523 11 13 11H9.416L9.70711 11.2929L9.7903 11.3871C10.0953 11.7794 10.0676 12.3466 9.70711 12.7071C9.31658 13.0976 8.68342 13.0976 8.29289 12.7071L6.29289 10.7071L6.21969 10.6254L6.146 10.5207L6.09367 10.4232L6.04974 10.3121L6.02024 10.2007L6.00279 10.0752L6 10L6.00691 9.8819L6.03585 9.73401L6.07123 9.62866L6.12467 9.51594L6.19633 9.40469L6.2515 9.33685L6.29289 9.29289L8.29289 7.29289L8.3871 7.2097C8.77939 6.90468 9.34662 6.93241 9.70711 7.29289L9.7903 7.3871L9.85962 7.4886C10.0884 7.87249 10.0375 8.37666 9.70711 8.70711L9.414 9Z" fill="black"/>
</svg>
