<svg width="20" height="20" viewBox="0 0 20 20" fill="none" xmlns="http://www.w3.org/2000/svg">
<path fill-rule="evenodd" clip-rule="evenodd" d="M10 2C14.4183 2 18 5.58172 18 10C18 14.4183 14.4183 18 10 18C5.58172 18 2 14.4183 2 10C2 5.58172 5.58172 2 10 2ZM10 9C9.48716 9 9.06449 9.38604 9.00673 9.88338L9 10V14C9 14.5523 9.44772 15 10 15C10.5128 15 10.9355 14.614 10.9933 14.1166L11 14V10C11 9.44772 10.5523 9 10 9ZM10 5C9.44772 5 9 5.44772 9 6C9 6.55228 9.44772 7 10 7C10.5523 7 11 6.55228 11 6C11 5.44772 10.5523 5 10 5Z" fill="black"/>
</svg>
