<svg width="20" height="20" viewBox="0 0 20 20" fill="none" xmlns="http://www.w3.org/2000/svg">
<path fill-rule="evenodd" clip-rule="evenodd" d="M16 3C16 2.44772 16.4477 2 17 2C17.5523 2 18 2.44772 18 3V17C18 17.5523 17.5523 18 17 18C16.4477 18 16 17.5523 16 17V3ZM7 10C7 9.44772 7.44772 9 8 9H9V8C9 7.44772 9.44772 7 10 7C10.5523 7 11 7.44772 11 8V9H12C12.5523 9 13 9.44772 13 10C13 10.5523 12.5523 11 12 11H11V12C11 12.5523 10.5523 13 10 13C9.44772 13 9 12.5523 9 12V11H8C7.44772 11 7 10.5523 7 10ZM8 17C8 16.4477 8.44772 16 9 16H11C11.5523 16 12 16.4477 12 17C12 17.5523 11.5523 18 11 18H9C8.44772 18 8 17.5523 8 17ZM8 3C8 2.44772 8.44772 2 9 2H11C11.5523 2 12 2.44772 12 3C12 3.55228 11.5523 4 11 4H9C8.44772 4 8 3.55228 8 3ZM2 3L2.00673 2.88338C2.06005 2.4243 2.4243 2.06005 2.88338 2.00673L3 2H5L5.11662 2.00673C5.5757 2.06005 5.93995 2.4243 5.99327 2.88338L6 3L5.99327 3.11662C5.93995 3.5757 5.5757 3.93995 5.11662 3.99327L5 4H4V5L3.99327 5.11662C3.93551 5.61396 3.51284 6 3 6C2.48716 6 2.06449 5.61396 2.00673 5.11662L2 5V3ZM2 15L2.00673 14.8834C2.06449 14.386 2.48716 14 3 14C3.47339 14 3.86995 14.3289 3.97359 14.7707L3.99327 14.8834L4 15V16H5L5.11662 16.0067C5.53745 16.0556 5.87858 16.3657 5.97359 16.7707L5.99327 16.8834L6 17L5.99327 17.1166C5.94439 17.5374 5.63425 17.8786 5.22929 17.9736L5.11662 17.9933L5 18H3L2.88338 17.9933C2.46255 17.9444 2.12142 17.6343 2.02641 17.2293L2.00673 17.1166L2 17V15ZM2 9C2 8.44772 2.44772 8 3 8C3.55228 8 4 8.44772 4 9V11C4 11.5523 3.55228 12 3 12C2.44772 12 2 11.5523 2 11V9Z" fill="black"/>
</svg>
