<svg width="20" height="20" viewBox="0 0 20 20" fill="none" xmlns="http://www.w3.org/2000/svg">
<path fill-rule="evenodd" clip-rule="evenodd" d="M17.2 2C16.6878 2 16.1965 2.20348 15.8343 2.56569L13.5203 4.87971C13.3216 5.07842 13.0332 5.1583 12.7606 5.09014L3.6 2.8L2.78485 3.61515C2.47243 3.92757 2.47243 4.4341 2.78485 4.74652C2.84565 4.80733 2.91585 4.85793 2.99276 4.89638L10 8.4L6.8 11.6H3.29443C2.99141 11.6 2.7144 11.7712 2.57889 12.0422L2 13.2L5.2 14.8L6.8 18L7.95777 17.4211C8.2288 17.2856 8.4 17.0086 8.4 16.7056V13.2L11.6 10L15.1036 17.0072C15.3012 17.4024 15.7817 17.5626 16.1769 17.365C16.2538 17.3266 16.324 17.276 16.3848 17.2152L17.2 16.4L14.9099 7.23943C14.8417 6.96681 14.9216 6.67842 15.1203 6.47971L17.4343 4.16569C17.7965 3.80348 18 3.31223 18 2.8C18 2.35817 17.6418 2 17.2 2Z" fill="black"/>
</svg>
