<svg width="20" height="20" viewBox="0 0 20 20" fill="none" xmlns="http://www.w3.org/2000/svg">
<path fill-rule="evenodd" clip-rule="evenodd" d="M10.9427 2.22307C11.3508 2.4271 11.6817 2.75797 11.8857 3.16603L17.7769 14.9485C18.2977 15.9901 17.8755 17.2566 16.834 17.7774C16.5412 17.9238 16.2183 18 15.891 18H4.10854C2.94402 18 2 17.056 2 15.8915C2 15.5641 2.07621 15.2413 2.2226 14.9485L8.11384 3.16603C8.63462 2.12446 9.90116 1.70228 10.9427 2.22307ZM10 14C9.44772 14 9 14.4477 9 15C9 15.5523 9.44772 16 10 16C10.5523 16 11 15.5523 11 15C11 14.4477 10.5523 14 10 14ZM10 6C9.48716 6 9.06449 6.38604 9.00673 6.88338L9 7V11C9 11.5523 9.44772 12 10 12C10.5128 12 10.9355 11.614 10.9933 11.1166L11 11V7C11 6.44772 10.5523 6 10 6Z" fill="black"/>
</svg>
