<svg width="20" height="20" viewBox="0 0 20 20" fill="none" xmlns="http://www.w3.org/2000/svg">
<path fill-rule="evenodd" clip-rule="evenodd" d="M10 2C14.4183 2 18 5.58172 18 10C18 14.4183 14.4183 18 10 18C5.58172 18 2 14.4183 2 10C2 5.58172 5.58172 2 10 2ZM10 14C9.44772 14 9 14.4477 9 15C9 15.5523 9.44772 16 10 16C10.5523 16 11 15.5523 11 15C11 14.4477 10.5523 14 10 14ZM10 4C11.6569 4 13 5.34315 13 7C13 7.5406 12.7972 7.95243 12.4325 8.33695L12.305 8.46426L11.6977 9.00562C11.2279 9.46314 11 9.98494 11 11C11 11.5128 10.614 11.9355 10.1166 11.9933L10 12C9.44772 12 9 11.5523 9 11L9.00529 10.7129C9.05456 9.40117 9.44742 8.47877 10.1476 7.73055L10.3023 7.5728L10.5268 7.36698L10.9833 6.96529C10.994 6.95807 10.9983 6.95877 10.9999 6.96468L10.9912 6.86664C10.926 6.37741 10.5071 6 10 6C9.48716 6 9.06449 6.38604 9.00673 6.88338L8.99327 7.11662C8.93551 7.61396 8.51284 8 8 8C7.44772 8 7 7.55228 7 7C7 5.34315 8.34315 4 10 4Z" fill="black"/>
</svg>
