<svg width="20" height="20" viewBox="0 0 20 20" fill="none" xmlns="http://www.w3.org/2000/svg">
<path d="M14 2C14.5523 2 15 2.44772 15 3C15 3.51284 14.614 3.93551 14.1166 3.99327L14 4H8.17399L12.7593 9.34921C13.0535 9.69249 13.078 10.1854 12.8328 10.5537L12.7593 10.6508L8.17299 16H14C14.5128 16 14.9355 16.386 14.9933 16.8834L15 17C15 17.5128 14.614 17.9355 14.1166 17.9933L14 18H5.99999C5.18279 18 4.72555 17.0831 5.17393 16.4357L5.24074 16.3492L10.682 10L5.24074 3.65079C4.70891 3.03032 5.10748 2.08647 5.89084 2.00557L5.99999 2H14Z" fill="black"/>
</svg>
