<svg width="20" height="20" viewBox="0 0 20 20" fill="none" xmlns="http://www.w3.org/2000/svg">
<path fill-rule="evenodd" clip-rule="evenodd" d="M14.9988 2C16.6557 2 17.9988 3.34315 17.9988 5V9C17.9988 10.6569 16.6557 12 14.9988 12H13.6468L12.446 16.3416C11.9678 17.2982 11.0195 17.9232 9.96219 17.9934L9.76277 18H9.49884C8.17335 18 7.0888 16.9685 7.00415 15.6644L6.99884 15.5V12H5.00058C4.80302 12 4.60595 11.9805 4.41223 11.9417C2.84558 11.6284 1.80989 10.1476 2.02926 8.5855L2.05884 8.41165L3.25884 4.41165C3.52761 3.06781 4.66958 2.0848 6.02291 2.00521L6.20058 2H14.9988ZM13.9988 10H14.9988C15.5511 10 15.9988 9.55228 15.9988 9V5C15.9988 4.44772 15.5511 4 14.9988 4H13.9988V10ZM9.49884 16H9.76277C10.052 16 10.3223 15.8752 10.5094 15.6653L10.5843 15.5702L11.7544 11.3367C11.7889 11.2119 11.8354 11.0908 11.8933 10.9751C11.9453 10.8709 11.9787 10.7588 11.9921 10.6437L11.9988 10.5279V4H6.14058C5.70362 4 5.32235 4.28272 5.18983 4.68988L5.11449 4.98635L3.94874 8.87217L3.94044 8.99078C3.93557 9.46183 4.26561 9.88481 4.74446 9.98058L4.84204 9.99513L4.94058 10H6.99884C8.0532 10 8.917 10.8159 8.99335 11.8507L8.99884 12V15.5C8.99884 15.7455 9.17571 15.9496 9.40896 15.9919L9.49884 16Z" fill="black"/>
</svg>
