<svg width="20" height="20" viewBox="0 0 20 20" fill="none" xmlns="http://www.w3.org/2000/svg">
<path fill-rule="evenodd" clip-rule="evenodd" d="M12 2C13.5977 2 14.9037 3.24892 14.9949 4.82373L15 5V7C15 7.27541 14.8865 7.53676 14.6895 7.72431L14.6 7.8L11.667 10L14.6 12.2C14.8518 12.3889 15 12.6852 15 13V15C15 16.6569 13.6569 18 12 18H8C6.34315 18 5 16.6569 5 15V13C5 12.6852 5.14819 12.3889 5.4 12.2L8.333 10L5.4 7.8C5.17967 7.63475 5.03867 7.38717 5.00686 7.117L5 7V5C5 3.40232 6.24892 2.09634 7.82373 2.00509L8 2H12ZM10 11.25L7 13.5V15C7 15.5523 7.44772 16 8 16H12L12.1166 15.9933C12.614 15.9355 13 15.5128 13 15V13.5L10 11.25ZM8 4H12L12.1166 4.00673L12.2293 4.02641C12.6711 4.13005 13 4.52661 13 5V6H7V5L7.00673 4.88338C7.06449 4.38604 7.48716 4 8 4Z" fill="black"/>
</svg>
