<svg width="20" height="20" viewBox="0 0 20 20" fill="none" xmlns="http://www.w3.org/2000/svg">
<path fill-rule="evenodd" clip-rule="evenodd" d="M5.29289 11.2929C5.65338 10.9324 6.22061 10.9047 6.6129 11.2097L6.70711 11.2929L10 14.5858L13.2929 11.2929C13.6834 10.9024 14.3166 10.9024 14.7071 11.2929C15.0676 11.6534 15.0953 12.2206 14.7903 12.6129L14.7071 12.7071L10.7071 16.7071C10.3466 17.0676 9.77939 17.0953 9.3871 16.7903L9.29289 16.7071L5.29289 12.7071C4.90237 12.3166 4.90237 11.6834 5.29289 11.2929ZM10.7071 3.29289L14.7071 7.29289C15.0976 7.68342 15.0976 8.31658 14.7071 8.70711C14.3166 9.09763 13.6834 9.09763 13.2929 8.70711L10 5.41421L6.70711 8.70711C6.31658 9.09763 5.68342 9.09763 5.29289 8.70711C4.90237 8.31658 4.90237 7.68342 5.29289 7.29289L9.29289 3.29289C9.68342 2.90237 10.3166 2.90237 10.7071 3.29289Z" fill="black"/>
</svg>
