<svg width="20" height="20" viewBox="0 0 20 20" fill="none" xmlns="http://www.w3.org/2000/svg">
<path fill-rule="evenodd" clip-rule="evenodd" d="M9 14H5C3.34315 14 2 12.6569 2 11V5C2 3.34315 3.34315 2 5 2H15C16.6569 2 18 3.34315 18 5V11C18 12.6569 16.6569 14 15 14H11V16H13C13.5523 16 14 16.4477 14 17C14 17.5523 13.5523 18 13 18H7C6.44772 18 6 17.5523 6 17C6 16.4477 6.44772 16 7 16H9V14ZM15 4H5C4.44772 4 4 4.44772 4 5V11C4 11.5523 4.44772 12 5 12H15C15.5523 12 16 11.5523 16 11V5C16 4.44772 15.5523 4 15 4Z" fill="black"/>
</svg>
