<svg width="20" height="20" viewBox="0 0 20 20" fill="none" xmlns="http://www.w3.org/2000/svg">
<path fill-rule="evenodd" clip-rule="evenodd" d="M10 2C12.1422 2 13.8911 3.68397 13.9951 5.80036L14 6L14.0009 8.17102C15.1656 8.58312 16 9.69412 16 11V15C16 16.6569 14.6569 18 13 18H7C5.34315 18 4 16.6569 4 15V11C4 9.69375 4.83485 8.58249 6.00009 8.17067L6 6C6 3.79086 7.79086 2 10 2ZM13 10H7C6.44772 10 6 10.4477 6 11V15C6 15.5523 6.44772 16 7 16H13C13.5523 16 14 15.5523 14 15V11C14 10.4477 13.5523 10 13 10ZM10.1493 4.00549L10 4C8.94564 4 8.08183 4.81588 8.00549 5.85074L8 6V8H12V6C12 4.94564 11.1841 4.08183 10.1493 4.00549L10 4L10.1493 4.00549Z" fill="black"/>
</svg>
