<svg width="20" height="20" viewBox="0 0 20 20" fill="none" xmlns="http://www.w3.org/2000/svg">
<path fill-rule="evenodd" clip-rule="evenodd" d="M3 14C3.47339 14 3.86995 14.3289 3.97359 14.7707L3.99327 14.8834L4 15V16H5L5.11662 16.0067C5.53745 16.0556 5.87858 16.3657 5.97359 16.7707L5.99327 16.8834L6 17L5.99327 17.1166C5.94439 17.5374 5.63425 17.8786 5.22929 17.9736L5.11662 17.9933L5 18H3L2.88338 17.9933C2.46255 17.9444 2.12142 17.6343 2.02641 17.2293L2.00673 17.1166L2 17V15L2.00673 14.8834C2.06449 14.386 2.48716 14 3 14ZM17 14C17.4734 14 17.8699 14.3289 17.9736 14.7707L17.9933 14.8834L18 15V17L17.9933 17.1166L17.9736 17.2293C17.8881 17.5938 17.6032 17.8814 17.2403 17.9709L17.1166 17.9933L17 18H15L14.8834 17.9933L14.7707 17.9736C14.4062 17.8881 14.1186 17.6032 14.0291 17.2403L14.0067 17.1166L14 17L14.0067 16.8834L14.0264 16.7707C14.1119 16.4062 14.3968 16.1186 14.7597 16.0291L14.8834 16.0067L15 16H16V15L16.0067 14.8834L16.0264 14.7707C16.1301 14.3289 16.5266 14 17 14ZM10 2C10.5523 2 11 2.44772 11 3V17C11 17.5523 10.5523 18 10 18C9.44772 18 9 17.5523 9 17V3C9 2.44772 9.44772 2 10 2ZM3 8C3.55228 8 4 8.44772 4 9V11C4 11.5523 3.55228 12 3 12C2.44772 12 2 11.5523 2 11V9C2 8.44772 2.44772 8 3 8ZM17 8C17.5523 8 18 8.44772 18 9V11C18 11.5523 17.5523 12 17 12C16.4477 12 16 11.5523 16 11V9C16 8.44772 16.4477 8 17 8ZM5 2L5.11662 2.00673C5.5757 2.06005 5.93995 2.4243 5.99327 2.88338L6 3L5.99327 3.11662C5.93995 3.5757 5.5757 3.93995 5.11662 3.99327L5 4H4V5L3.99327 5.11662C3.93551 5.61396 3.51284 6 3 6C2.48716 6 2.06449 5.61396 2.00673 5.11662L2 5V3L2.00673 2.88338C2.06005 2.4243 2.4243 2.06005 2.88338 2.00673L3 2H5ZM17 2L17.1166 2.00673C17.5374 2.05561 17.8786 2.36575 17.9736 2.77071L17.9933 2.88338L18 3V5L17.9933 5.11662C17.9355 5.61396 17.5128 6 17 6C16.5266 6 16.1301 5.67107 16.0264 5.22929L16.0067 5.11662L16 5V4H15L14.8834 3.99327C14.4626 3.94439 14.1214 3.63425 14.0264 3.22929L14.0067 3.11662L14 3L14.0067 2.88338C14.0556 2.46255 14.3657 2.12142 14.7707 2.02641L14.8834 2.00673L15 2H17Z" fill="black"/>
</svg>
