<svg width="20" height="20" viewBox="0 0 20 20" fill="none" xmlns="http://www.w3.org/2000/svg">
<path fill-rule="evenodd" clip-rule="evenodd" d="M10 18C14.4183 18 18 14.4183 18 10C18 5.58172 14.4183 2 10 2C5.58172 2 2 5.58172 2 10C2 14.4183 5.58172 18 10 18ZM10 16C6.68629 16 4 13.3137 4 10C4 6.68629 6.68629 4 10 4C13.3137 4 16 6.68629 16 10C16 13.3137 13.3137 16 10 16ZM11 9.414V13C11 13.5523 10.5523 14 10 14C9.44772 14 9 13.5523 9 13V9.416L8.70711 9.70711L8.6129 9.7903C8.22061 10.0953 7.65338 10.0676 7.29289 9.70711C6.90237 9.31658 6.90237 8.68342 7.29289 8.29289L9.29289 6.29289L9.37455 6.21969L9.47929 6.146L9.57678 6.09367L9.68786 6.04974L9.79927 6.02024L9.92476 6.00279L10 6L10.1181 6.00691L10.266 6.03585L10.3713 6.07123L10.4841 6.12467L10.5953 6.19633L10.6631 6.2515L10.7071 6.29289L12.7071 8.29289L12.7903 8.3871C13.0953 8.77939 13.0676 9.34662 12.7071 9.70711L12.6129 9.7903L12.5114 9.85962C12.1275 10.0884 11.6233 10.0375 11.2929 9.70711L11 9.414Z" fill="black"/>
</svg>
