<svg width="20" height="20" viewBox="0 0 20 20" fill="none" xmlns="http://www.w3.org/2000/svg">
<path fill-rule="evenodd" clip-rule="evenodd" d="M16.0067 7.11662L16 7C16 6.44772 15.5523 6 15 6H5C4.44772 6 4 6.44772 4 7V8H7C7.55228 8 8 8.44772 8 9C8 9.55228 7.55228 10 7 10H4V15C4 15.5523 4.44772 16 5 16H7C7.55228 16 8 16.4477 8 17C8 17.5523 7.55228 18 7 18H5C3.34315 18 2 16.6569 2 15V7C2 5.34315 3.34315 4 5 4V3C5 2.44772 5.44772 2 6 2C6.55228 2 7 2.44772 7 3V4H13V3C13 2.44772 13.4477 2 14 2C14.5523 2 15 2.44772 15 3V4C16.6569 4 18 5.34315 18 7C18 7.55228 17.5523 8 17 8C16.4872 8 16.0645 7.61396 16.0067 7.11662ZM14.2929 10.2929C14.6534 9.93241 15.2206 9.90468 15.6129 10.2097L15.7071 10.2929L17.7071 12.2929C18.0676 12.6534 18.0953 13.2206 17.7903 13.6129L17.7071 13.7071L13.7071 17.7071C13.5508 17.8634 13.3481 17.9626 13.1314 17.9913L13 18H11C10.4872 18 10.0645 17.614 10.0067 17.1166L10 17V15C10 14.779 10.0732 14.5655 10.2061 14.392L10.2929 14.2929L14.2929 10.2929Z" fill="black"/>
</svg>
