<svg width="20" height="20" viewBox="0 0 20 20" fill="none" xmlns="http://www.w3.org/2000/svg">
<path fill-rule="evenodd" clip-rule="evenodd" d="M9.06007 2H10.9391C12.2793 2.00303 12.587 2.01484 13.2982 2.04728C14.1497 2.08612 14.7313 2.22138 15.2402 2.41917C15.7663 2.62359 16.2124 2.89715 16.6572 3.34192C17.102 3.78672 17.3756 4.23289 17.58 4.75899C17.7778 5.26787 17.913 5.84946 17.9519 6.70101C17.9895 7.5259 17.9994 7.80798 18 9.78856V10.2106C17.9994 12.1912 17.9895 12.4733 17.9519 13.2982C17.913 14.1497 17.7778 14.7313 17.58 15.2402C17.3756 15.7663 17.102 16.2124 16.6572 16.6572C16.2124 17.102 15.7663 17.3756 15.2402 17.58C14.7313 17.7778 14.1497 17.913 13.2982 17.9519C12.4733 17.9895 12.1912 17.9994 10.2106 18H9.78856C7.80798 17.9994 7.5259 17.9895 6.70101 17.9519C5.84946 17.913 5.26787 17.7778 4.75899 17.58C4.23289 17.3756 3.78672 17.102 3.34192 16.6572C2.89715 16.2124 2.62359 15.7663 2.41917 15.2402C2.22138 14.7313 2.08612 14.1497 2.04728 13.2982C2.01484 12.587 2.00303 12.2793 2 10.9391V9.06007C2.00303 7.71984 2.01484 7.41212 2.04728 6.70101C2.08612 5.84946 2.22138 5.26787 2.41917 4.75899C2.62359 4.23289 2.89715 3.78672 3.34192 3.34192C3.78672 2.89715 4.23289 2.62359 4.75899 2.41917C5.26787 2.22138 5.84946 2.08612 6.70101 2.04728C7.41212 2.01484 7.71984 2.00303 9.06007 2H10.9391H9.06007ZM10.5864 3.44092H9.41276C7.80686 3.44259 7.52597 3.45267 6.76672 3.48731C5.98668 3.52288 5.56306 3.65321 5.28115 3.76278C4.90771 3.90791 4.6412 4.08128 4.36125 4.36125C4.08128 4.6412 3.90791 4.90771 3.76278 5.28115C3.65321 5.56306 3.52288 5.98668 3.48731 6.76672C3.45267 7.52597 3.44259 7.80686 3.44092 9.41276V10.5864C3.44259 12.1923 3.45267 12.4732 3.48731 13.2325C3.52288 14.0125 3.65321 14.4361 3.76278 14.718C3.90791 15.0915 4.08131 15.358 4.36125 15.6379C4.6412 15.9179 4.90771 16.0913 5.28115 16.2364C5.56306 16.346 5.98668 16.4763 6.76672 16.5119C7.61024 16.5504 7.86322 16.5585 9.9996 16.5585C12.1359 16.5585 12.389 16.5504 13.2325 16.5119C14.0125 16.4763 14.4361 16.346 14.718 16.2364C15.0915 16.0913 15.358 15.9179 15.6379 15.6379C15.9179 15.358 16.0913 15.0915 16.2364 14.718C16.346 14.4361 16.4763 14.0125 16.5119 13.2325C16.5504 12.3888 16.5585 12.1358 16.5585 9.9996C16.5585 7.86338 16.5504 7.61033 16.5119 6.76672C16.4763 5.98668 16.346 5.56306 16.2364 5.28115C16.0913 4.90771 15.9179 4.6412 15.6379 4.36125C15.358 4.08128 15.0915 3.90791 14.718 3.76278C14.4361 3.65321 14.0125 3.52288 13.2325 3.48731C12.4732 3.45267 12.1923 3.44259 10.5864 3.44092ZM9.9996 5.99936C12.2089 5.99936 13.9998 7.79031 13.9998 9.9996C13.9998 12.2089 12.2089 13.9998 9.9996 13.9998C7.79031 13.9998 5.99936 12.2089 5.99936 9.9996C5.99936 7.79031 7.79031 5.99936 9.9996 5.99936ZM9.9996 7.40295C8.56549 7.40295 7.40295 8.56549 7.40295 9.9996C7.40295 11.4337 8.56549 12.5962 9.9996 12.5962C11.4337 12.5962 12.5962 11.4337 12.5962 9.9996C12.5962 8.56549 11.4337 7.40295 9.9996 7.40295ZM14.3331 4.66595C14.8855 4.66595 15.3332 5.1137 15.3332 5.66603C15.3332 6.21835 14.8855 6.66607 14.3331 6.66607C13.7809 6.66607 13.3331 6.21835 13.3331 5.66603C13.3331 5.1137 13.7809 4.66595 14.3331 4.66595Z" fill="black"/>
</svg>
