<svg width="20" height="20" viewBox="0 0 20 20" fill="none" xmlns="http://www.w3.org/2000/svg">
<path fill-rule="evenodd" clip-rule="evenodd" d="M10.7071 11.2929L14.7071 15.2929C15.0976 15.6834 15.0976 16.3166 14.7071 16.7071C14.3166 17.0976 13.6834 17.0976 13.2929 16.7071L10 13.4142L6.70711 16.7071C6.31658 17.0976 5.68342 17.0976 5.29289 16.7071C4.90237 16.3166 4.90237 15.6834 5.29289 15.2929L9.29289 11.2929C9.68342 10.9024 10.3166 10.9024 10.7071 11.2929ZM5.29289 3.29289C5.65338 2.93241 6.22061 2.90468 6.6129 3.2097L6.70711 3.29289L10 6.58579L13.2929 3.29289C13.6834 2.90237 14.3166 2.90237 14.7071 3.29289C15.0676 3.65338 15.0953 4.22061 14.7903 4.6129L14.7071 4.70711L10.7071 8.70711C10.3466 9.06759 9.77939 9.09532 9.3871 8.7903L9.29289 8.70711L5.29289 4.70711C4.90237 4.31658 4.90237 3.68342 5.29289 3.29289Z" fill="black"/>
</svg>
