<svg width="20" height="20" viewBox="0 0 20 20" fill="none" xmlns="http://www.w3.org/2000/svg">
<path fill-rule="evenodd" clip-rule="evenodd" d="M3.53611 9.38854L5.37067 7.55397C5.76143 7.16321 6.39498 7.16321 6.78574 7.55397C7.14859 7.91682 7.17451 8.48902 6.8635 8.88177L6.78574 8.96905L4.95118 10.8036C3.7789 11.9759 3.7789 13.8765 4.95118 15.0488C6.08159 16.1792 7.88928 16.2196 9.06807 15.1699L9.19639 15.0488L11.031 13.2143C11.4217 12.8235 12.0553 12.8235 12.446 13.2143C12.8089 13.5771 12.8348 14.1493 12.5238 14.5421L12.446 14.6293L10.6115 16.4639C8.65766 18.4177 5.48991 18.4177 3.53611 16.4639C1.63372 14.5615 1.58366 11.5082 3.38592 9.54526L3.53611 9.38854ZM3.69956 3.6288L16.3712 16.3004C16.76 16.6892 16.76 17.3196 16.3712 17.7084C15.9824 18.0972 15.352 18.0972 14.9632 17.7084L2.2916 5.03676C1.9028 4.64797 1.9028 4.0176 2.2916 3.6288C2.6804 3.24001 3.31076 3.24001 3.69956 3.6288ZM16.5346 3.46535C18.4885 5.41916 18.4885 8.5869 16.5346 10.5407L15.6957 11.3797C15.3049 11.7705 14.6714 11.7705 14.2806 11.3797C13.8898 10.9889 13.8898 10.3554 14.2806 9.96462L15.1196 9.12564C16.2919 7.95335 16.2919 6.05271 15.1196 4.88042C13.9473 3.70814 12.0466 3.70814 10.8744 4.88042L10.0354 5.71941C9.64462 6.11017 9.01107 6.11017 8.62031 5.71941C8.22955 5.32865 8.22955 4.6951 8.62031 4.30434L9.45929 3.46535C11.4131 1.51155 14.5808 1.51155 16.5346 3.46535Z" fill="black"/>
</svg>
