<svg width="20" height="20" viewBox="0 0 20 20" fill="none" xmlns="http://www.w3.org/2000/svg">
<path fill-rule="evenodd" clip-rule="evenodd" d="M17 16C17.5523 16 18 16.4477 18 17C18 17.5523 17.5523 18 17 18H3C2.44772 18 2 17.5523 2 17C2 16.4477 2.44772 16 3 16H17ZM5.29289 6.29289C5.89547 5.69032 6.90718 6.07233 6.99402 6.88637L7 7V13C7 13.8522 6.01449 14.2974 5.37747 13.7832L5.29289 13.7071L2.29289 10.7071C1.93241 10.3466 1.90468 9.77939 2.2097 9.3871L2.29289 9.29289L5.29289 6.29289ZM17 11C17.5523 11 18 11.4477 18 12C18 12.5523 17.5523 13 17 13H11C10.4477 13 10 12.5523 10 12C10 11.4477 10.4477 11 11 11H17ZM17 7C17.5523 7 18 7.44772 18 8C18 8.55228 17.5523 9 17 9H11C10.4477 9 10 8.55228 10 8C10 7.44772 10.4477 7 11 7H17ZM17 2C17.5523 2 18 2.44772 18 3C18 3.55228 17.5523 4 17 4H3C2.44772 4 2 3.55228 2 3C2 2.44772 2.44772 2 3 2H17Z" fill="black"/>
</svg>
