<svg width="20" height="20" viewBox="0 0 20 20" fill="none" xmlns="http://www.w3.org/2000/svg">
<path fill-rule="evenodd" clip-rule="evenodd" d="M15 2C16.5977 2 17.9037 3.24892 17.9949 4.82373L18 5V15C18 16.5977 16.7511 17.9037 15.1763 17.9949L15 18H5C3.40232 18 2.09634 16.7511 2.00509 15.1763L2 15V5C2 3.40232 3.24892 2.09634 4.82373 2.00509L5 2L15 2ZM9 4H5C4.48716 4 4.06449 4.49634 4.00673 5.13577L4 5.28571V9H5C5.55228 9 6 9.44772 6 10C6 10.5523 5.55228 11 5 11H4V15C4 15.5128 4.49634 15.9355 5.13577 15.9933L5.28571 16H9V15C9 14.4477 9.44772 14 10 14C10.5523 14 11 14.4477 11 15V16H15C15.5128 16 15.9355 15.614 15.9933 15.1166L16 15V11H15C14.4477 11 14 10.5523 14 10C14 9.44772 14.4477 9 15 9H16V5.28571C16 4.62635 15.5037 4.08292 14.8642 4.00865L14.7143 4H11V5C11 5.55228 10.5523 6 10 6C9.44772 6 9 5.55228 9 5V4ZM10 7C10.5128 7 10.9355 7.38604 10.9933 7.88338L11 8V9H12C12.5523 9 13 9.44772 13 10C13 10.5128 12.614 10.9355 12.1166 10.9933L12 11H11V12C11 12.5523 10.5523 13 10 13C9.48716 13 9.06449 12.614 9.00673 12.1166L9 12V11H8C7.44772 11 7 10.5523 7 10C7 9.48716 7.38604 9.06449 7.88338 9.00673L8 9H9V8C9 7.44772 9.44772 7 10 7Z" fill="black"/>
</svg>
