<svg width="20" height="20" viewBox="0 0 20 20" fill="none" xmlns="http://www.w3.org/2000/svg">
<path fill-rule="evenodd" clip-rule="evenodd" d="M16.6634 2C17.4016 2 18 2.59802 18 3.33663V16.6634C18 17.4016 17.402 18 16.6634 18H3.33663C2.59843 18 2 17.402 2 16.6634V3.33663C2 2.59843 2.59802 2 3.33663 2H16.6634ZM12.815 8C11.6878 8 10.9139 8.49453 10.5643 9.07216L10.5 9.18867V8.1H8.33333V15.7667H10.6667V12.053C10.6667 10.8083 11.125 10.0167 12.2267 10.0167C12.9792 10.0167 13.2991 10.6757 13.3307 11.8522L13.3333 12.053V15.7667H15.6667V11.5323C15.6667 9.246 15.1197 8 12.815 8ZM6.66667 8H4.33333V15.6667H6.66667V8ZM5.5 4C4.67167 4 4 4.67167 4 5.5C4 6.32833 4.67167 7 5.5 7C6.32833 7 7 6.32833 7 5.5C7 4.67167 6.32833 4 5.5 4Z" fill="black"/>
</svg>
