<svg width="20" height="20" viewBox="0 0 20 20" fill="none" xmlns="http://www.w3.org/2000/svg">
<path fill-rule="evenodd" clip-rule="evenodd" d="M2 10C2 9.44772 2.44772 9 3 9H14.585L12.2929 6.70711C11.9324 6.34662 11.9047 5.77939 12.2097 5.3871L12.2929 5.29289C12.6534 4.93241 13.2206 4.90468 13.6129 5.2097L13.7071 5.29289L17.7071 9.29289L17.7485 9.33685L17.8037 9.40469L17.8753 9.51594L17.9288 9.62866L17.9642 9.73401L17.9932 9.88253L18 10L17.9972 10.0752L17.9798 10.2007L17.9503 10.3121L17.9063 10.4232L17.854 10.5207L17.7872 10.6168C17.7623 10.6485 17.7356 10.6786 17.7071 10.7071L13.7071 14.7071C13.3166 15.0976 12.6834 15.0976 12.2929 14.7071C11.9324 14.3466 11.9047 13.7794 12.2097 13.3871L12.2929 13.2929L14.585 11H3C2.44772 11 2 10.5523 2 10Z"/>
</svg>
