<svg width="20" height="20" viewBox="0 0 20 20" fill="none" xmlns="http://www.w3.org/2000/svg">
<path fill-rule="evenodd" clip-rule="evenodd" d="M14.2097 3.3871L14.2929 3.29289C14.6534 2.93241 15.2206 2.90468 15.6129 3.2097L15.7071 3.29289L17.7071 5.29289L17.7485 5.33685L17.8037 5.40469L17.8753 5.51594L17.9288 5.62866L17.9642 5.73401L17.989 5.85153L17.9983 5.94074L17.9973 6.07415L17.9798 6.20073L17.9503 6.31214L17.9063 6.42322L17.854 6.52071L17.7872 6.61675L17.7071 6.70711L15.7071 8.70711C15.3166 9.09763 14.6834 9.09763 14.2929 8.70711C13.9324 8.34662 13.9047 7.77939 14.2097 7.3871L14.2929 7.29289L14.584 7H13.1111C10.717 7 9.49595 7.73635 7.92774 10.0003C9.49632 12.2639 10.7173 13 13.1111 13H14.585L14.2929 12.7071C13.9324 12.3466 13.9047 11.7794 14.2097 11.3871L14.2929 11.2929C14.6534 10.9324 15.2206 10.9047 15.6129 11.2097L15.7071 11.2929L17.7071 13.2929L17.7485 13.3369L17.8037 13.4047L17.8737 13.513L17.9063 13.5769L17.9392 13.6559L17.9721 13.7645L17.9931 13.8819L18 14L17.9972 14.0752L17.9798 14.2007L17.9503 14.3121L17.9063 14.4232L17.854 14.5207L17.8037 14.5952C17.7747 14.6343 17.7425 14.6717 17.7071 14.7071L17.7895 14.6138L17.7304 14.6831L15.7071 16.7071C15.3166 17.0976 14.6834 17.0976 14.2929 16.7071C13.9324 16.3466 13.9047 15.7794 14.2097 15.3871L14.2929 15.2929L14.584 15H13.1111C10.1786 15 8.51448 14.0995 6.77018 11.8074L6.48048 12.2757L6.24127 12.6481L6.01922 12.9806L5.79768 13.2978C5.02016 14.3869 4.11998 15 3 15C2.44772 15 2 14.5523 2 14C2 13.4872 2.38604 13.0645 2.88338 13.0067L3.09118 12.9947C3.426 12.9558 3.7679 12.6988 4.16993 12.1357L4.40411 11.7989C4.5213 11.6257 4.6417 11.441 4.77909 11.224L5.53836 9.99955L4.92267 9.00439C4.62215 8.52307 4.40799 8.19778 4.16993 7.86432C3.7679 7.30118 3.426 7.04419 3.09118 7.00527L3 7C2.44772 7 2 6.55228 2 6C2 5.44772 2.44772 5 3 5C4.11998 5 5.02016 5.61314 5.79768 6.70225L6.01922 7.01942L6.24127 7.35191L6.48048 7.72435L6.77018 8.19261C8.45434 5.97957 10.0638 5.06376 12.8122 5.00323L13.1111 5H14.585L14.2929 4.70711C13.9324 4.34662 13.9047 3.77939 14.2097 3.3871L14.2929 3.29289L14.2097 3.3871Z" fill="black"/>
</svg>
