<svg width="20" height="20" viewBox="0 0 20 20" fill="none" xmlns="http://www.w3.org/2000/svg">
<path fill-rule="evenodd" clip-rule="evenodd" d="M15 4C16.6569 4 18 5.34315 18 7V13C18 14.6569 16.6569 16 15 16H5C3.34315 16 2 14.6569 2 13V7C2 5.34315 3.34315 4 5 4H15ZM15 6H5C4.44772 6 4 6.44772 4 7V13C4 13.5523 4.44772 14 5 14H15C15.5523 14 16 13.5523 16 13V7C16 6.44772 15.5523 6 15 6ZM10 11C10.5523 11 11 11.4477 11 12C11 12.5523 10.5523 13 10 13C9.44772 13 9 12.5523 9 12C9 11.4477 9.44772 11 10 11Z" fill="black"/>
</svg>
