<svg width="20" height="20" viewBox="0 0 20 20" fill="none" xmlns="http://www.w3.org/2000/svg">
<path fill-rule="evenodd" clip-rule="evenodd" d="M14 2C14.5523 2 15 2.44772 15 3V4C16.6569 4 18 5.34315 18 7C18 7.55228 17.5523 8 17 8C16.4872 8 16.0645 7.61396 16.0067 7.11662L16 7C16 6.44772 15.5523 6 15 6H5C4.44772 6 4 6.44772 4 7V8H7C7.55228 8 8 8.44772 8 9C8 9.55228 7.55228 10 7 10H4V15C4 15.5523 4.44772 16 5 16H7C7.55228 16 8 16.4477 8 17C8 17.5523 7.55228 18 7 18H5C3.34315 18 2 16.6569 2 15V7C2 5.34315 3.34315 4 5 4V3C5 2.44772 5.44772 2 6 2C6.55228 2 7 2.44772 7 3V4H13V3C13 2.44772 13.4477 2 14 2ZM14 10C14.5523 10 15 10.4477 15 11V13H17C17.5523 13 18 13.4477 18 14C18 14.5523 17.5523 15 17 15H15V17C15 17.5523 14.5523 18 14 18C13.4477 18 13 17.5523 13 17V15H11C10.4477 15 10 14.5523 10 14C10 13.4477 10.4477 13 11 13H13V11C13 10.4477 13.4477 10 14 10Z" fill="black"/>
</svg>
