<svg width="20" height="20" viewBox="0 0 20 20" fill="none" xmlns="http://www.w3.org/2000/svg">
<path fill-rule="evenodd" clip-rule="evenodd" d="M10 2C14.4183 2 18 5.58172 18 10C18 14.4183 14.4183 18 10 18C5.58172 18 2 14.4183 2 10C2 5.58172 5.58172 2 10 2ZM10 13C9.44772 13 9 13.4477 9 14C9 14.5523 9.44772 15 10 15C10.5523 15 11 14.5523 11 14C11 13.4477 10.5523 13 10 13ZM10 5C9.48716 5 9.06449 5.38604 9.00673 5.88338L9 6V11C9 11.5523 9.44772 12 10 12C10.5128 12 10.9355 11.614 10.9933 11.1166L11 11V6C11 5.44772 10.5523 5 10 5Z" fill="black"/>
</svg>
