<svg width="20" height="20" viewBox="0 0 20 20" fill="none" xmlns="http://www.w3.org/2000/svg">
<path fill-rule="evenodd" clip-rule="evenodd" d="M13.7071 3.29289L13.6129 3.2097C13.2206 2.90468 12.6534 2.93241 12.2929 3.29289L12.2097 3.3871C11.9047 3.77939 11.9324 4.34662 12.2929 4.70711L14.585 7H6L5.88338 7.00673C5.38604 7.06449 5 7.48716 5 8C5 8.55228 5.44772 9 6 9H17L17.1136 8.99402C17.9277 8.90718 18.3097 7.89547 17.7071 7.29289L13.7071 3.29289ZM15.002 12C15.002 11.4477 14.5543 11 14.002 11H3.002L2.88837 11.006C2.07434 11.0928 1.69232 12.1045 2.2949 12.7071L6.2949 16.7071L6.38911 16.7903C6.7814 17.0953 7.34863 17.0676 7.70911 16.7071L7.7923 16.6129C8.09733 16.2206 8.0696 15.6534 7.70911 15.2929L5.417 13H14.002L14.1186 12.9933C14.616 12.9355 15.002 12.5128 15.002 12Z" fill="black"/>
</svg>
