<svg width="20" height="20" viewBox="0 0 20 20" fill="none" xmlns="http://www.w3.org/2000/svg">
<path fill-rule="evenodd" clip-rule="evenodd" d="M3 14L3.11662 13.9933C3.5757 13.9399 3.93995 13.5757 3.99327 13.1166L4 13V4H13L13.1166 3.99327C13.614 3.93551 14 3.51284 14 3C14 2.48716 13.614 2.06449 13.1166 2.00673L13 2H3L2.88338 2.00673C2.4243 2.06005 2.06005 2.4243 2.00673 2.88338L2 3V13L2.00673 13.1166C2.06005 13.5757 2.4243 13.9399 2.88338 13.9933L3 14ZM17 18L17.1166 17.9933C17.5757 17.9399 17.9399 17.5757 17.9933 17.1166L18 17V7L17.9933 6.88338C17.9444 6.46255 17.6343 6.12142 17.2293 6.02641L17.1166 6.00673L17 6H7L6.88338 6.00673C6.4243 6.06005 6.06005 6.4243 6.00673 6.88338L6 7V17L6.00673 17.1166C6.05561 17.5374 6.36575 17.8786 6.77071 17.9736L6.88338 17.9933L7 18H17ZM8 8V16H16V8H8Z" fill="black"/>
</svg>
