<svg width="20" height="20" viewBox="0 0 20 20" fill="none" xmlns="http://www.w3.org/2000/svg">
<path fill-rule="evenodd" clip-rule="evenodd" d="M7 7V4C7 2.89543 7.89543 2 9 2H11C12.1046 2 13 2.89543 13 4V7H16C17.1046 7 18 7.89543 18 9V11C18 12.1046 17.1046 13 16 13H13V16C13 17.1046 12.1046 18 11 18H9C7.89543 18 7 17.1046 7 16V13H4C2.89543 13 2 12.1046 2 11V9C2 7.89543 2.89543 7 4 7H7ZM9 4V8C9 8.55228 8.55228 9 8 9H4V11H8C8.55228 11 9 11.4477 9 12V16H11V12C11 11.4477 11.4477 11 12 11H16V9H12C11.4477 9 11 8.55228 11 8V4H9Z" fill="black"/>
</svg>
