<svg width="20" height="20" viewBox="0 0 20 20" fill="none" xmlns="http://www.w3.org/2000/svg">
<path fill-rule="evenodd" clip-rule="evenodd" d="M13 4C14.2181 4 15.274 4.72834 15.7434 5.79884L15.8125 5.97065L15.864 6.126L16.0118 6.1749C17.0567 6.54915 17.8335 7.48664 17.9763 8.62149L17.9949 8.82373L18 9V11C18 12.2181 17.2717 13.274 16.2012 13.7434L16.0293 13.8125L15.873 13.864L15.8251 14.0118C15.4508 15.0567 14.5134 15.8335 13.3785 15.9763L13.1763 15.9949L13 16H5C3.40232 16 2.09634 14.7511 2.00509 13.1763L2 13V7C2 5.40232 3.24892 4.09634 4.82373 4.00509L5 4H13ZM13 6H5C4.48716 6 4.06449 6.38604 4.00673 6.88338L4 7V13C4 13.5128 4.38604 13.9355 4.88338 13.9933L5 14H13C13.5128 14 13.9355 13.614 13.9933 13.1166L14.0064 12.8863C14.0571 12.4384 14.4042 12.0784 14.8499 12.0112L14.9633 12.0007L15.0757 11.9972C15.5546 11.9619 15.9369 11.5888 15.9929 11.1193L16 11V9C16 8.48716 15.614 8.06449 15.1166 8.00673L14.8863 7.9936C14.4384 7.94285 14.0784 7.59585 14.0112 7.15011L14.0007 7.03673L13.9972 6.92431C13.9619 6.44538 13.5888 6.06305 13.1193 6.00706L13 6ZM8 7C8.55228 7 9 7.44772 9 8V12C9 12.5523 8.55228 13 8 13H6C5.44772 13 5 12.5523 5 12V8C5 7.44772 5.44772 7 6 7H8Z" fill="black"/>
</svg>
