<svg width="20" height="20" viewBox="0 0 20 20" fill="none" xmlns="http://www.w3.org/2000/svg">
<path d="M12.8997 2C14.1505 2 15.3616 2.29541 16.4551 2.85437C16.9469 3.10573 17.1418 3.70816 16.8904 4.19993C16.639 4.69169 16.0366 4.88657 15.5449 4.6352C14.7314 4.21938 13.832 4 12.8997 4C10.7175 4 8.8097 5.20585 7.7891 7.00012L12 7C12.5523 7 13 7.44772 13 8C13 8.55228 12.5523 9 12 9L7.08147 9.00039C7.02789 9.32543 7 9.65937 7 10C7 10.341 7.02795 10.6753 7.08163 11.0006L12 11C12.5523 11 13 11.4477 13 12C13 12.5523 12.5523 13 12 13L7.78967 13.0009C8.81041 14.7946 10.7179 16 12.8997 16C13.8317 16 14.7309 15.7807 15.5442 15.3651C16.036 15.1138 16.6384 15.3088 16.8897 15.8006C17.141 16.2924 16.9461 16.8948 16.4543 17.1461C15.361 17.7048 14.1502 18 12.8997 18C9.58267 18 6.7462 15.9309 5.57458 13.0006L4 13C3.44772 13 3 12.5523 3 12C3 11.4477 3.44772 11 4 11L5.06118 11.0003C5.0208 10.6726 5 10.3387 5 10C5 9.6616 5.02076 9.32808 5.06106 9.00068L4 9C3.44772 9 3 8.55228 3 8C3 7.44772 3.44772 7 4 7L5.57418 7.00037C6.74555 4.06957 9.58229 2 12.8997 2Z" fill="black"/>
</svg>
