<svg width="20" height="20" viewBox="0 0 20 20" fill="none" xmlns="http://www.w3.org/2000/svg">
<path fill-rule="evenodd" clip-rule="evenodd" d="M9.99999 15.8482L16.5038 12.1318C16.9834 11.8577 17.5942 12.0243 17.8682 12.5039C18.1227 12.9491 17.9972 13.5076 17.594 13.8045L17.4961 13.8682L10.4961 17.8682C10.2271 18.022 9.90454 18.0412 9.62214 17.9259L9.50385 17.8682L2.50385 13.8682C2.02433 13.5942 1.85773 12.9834 2.13174 12.5039C2.38618 12.0586 2.93106 11.8831 3.39153 12.0797L3.49613 12.1318L9.99999 15.8482L16.5038 12.1318L9.99999 15.8482ZM2.50385 6.13176L9.50385 2.13176C9.77285 1.97804 10.0954 1.95883 10.3778 2.07411L10.4961 2.13176L17.4961 6.13176C18.1284 6.49307 18.1656 7.37241 17.6077 7.79466L17.4961 7.86824L10.4961 11.8682C10.2271 12.022 9.90454 12.0412 9.62214 11.9259L9.50385 11.8682L2.50385 7.86824C1.87155 7.50693 1.83436 6.62759 2.39227 6.20534L2.50385 6.13176L9.50385 2.13176L2.50385 6.13176ZM9.99999 4.15175L5.01555 7L9.99999 9.84825L14.9844 7L9.99999 4.15175Z" fill="black"/>
</svg>
