<svg width="20" height="20" viewBox="0 0 20 20" fill="none" xmlns="http://www.w3.org/2000/svg">
<path fill-rule="evenodd" clip-rule="evenodd" d="M12.7071 3.70711C13.0976 3.31658 13.0976 2.68342 12.7071 2.29289C12.3166 1.90237 11.6834 1.90237 11.2929 2.29289C10.074 3.51176 9.29859 5.09118 9.07185 6.78513C8.59919 6.72789 8.16936 6.61502 7.62771 6.42185L7.34758 6.3215L7.10712 6.23977C6.56747 6.06505 6.16494 6 5.625 6C3.23416 6 2 7.46577 2 10.3333C2 14.3043 3.46706 18 5.625 18C6.46833 18 7.07839 17.9066 7.83612 17.6674L8.55036 17.4261L8.78373 17.3522C9.23167 17.2183 9.5769 17.1667 10 17.1667L10.2405 17.1725L10.4243 17.1863C10.6697 17.2114 10.9202 17.2638 11.2173 17.3526L11.468 17.4322L12.1446 17.6611L12.429 17.7462C13.0778 17.9285 13.6371 18 14.375 18C16.5329 18 18 14.3043 18 10.3333C18 7.46577 16.7658 6 14.375 6C13.8265 6 13.4132 6.06892 12.873 6.24604L12.6661 6.31672L12.3709 6.42233L12.0939 6.51717C11.7368 6.63376 11.4238 6.71166 11.0987 6.76002C11.3129 5.61149 11.8693 4.5449 12.7071 3.70711ZM13.6936 8.08598C13.9259 8.02173 14.1094 8 14.375 8C15.5778 8 16 8.50147 16 10.3333C16 13.288 14.9234 16 14.375 16C13.7353 16 13.3283 15.9377 12.766 15.7602L12.0902 15.5315L11.8055 15.4411L11.4923 15.3541C11.0848 15.25 10.712 15.1931 10.3114 15.1739L10.0232 15.1669L9.71184 15.1736C9.10358 15.2006 8.57094 15.3115 7.9143 15.53L7.21479 15.7665L6.98931 15.8333C6.5507 15.9542 6.17335 16 5.625 16C5.07657 16 4 13.288 4 10.3333C4 8.50147 4.42223 8 5.625 8C5.99839 8 6.21465 8.04199 6.67651 8.20555L6.95455 8.30516L7.26961 8.41312C8.19431 8.71607 8.9516 8.83333 10 8.83333L10.3016 8.82971L10.6305 8.81648C11.4849 8.76846 12.1729 8.61633 13.0441 8.30564L13.3269 8.20433L13.5081 8.14247L13.6936 8.08598Z" fill="black"/>
</svg>
