<svg width="20" height="20" viewBox="0 0 20 20" fill="none" xmlns="http://www.w3.org/2000/svg">
<path fill-rule="evenodd" clip-rule="evenodd" d="M7 12H13C15.7614 12 18 14.2386 18 17C18 17.5523 17.5523 18 17 18C16.4872 18 16.0645 17.614 16.0067 17.1166L15.9949 16.8237C15.907 15.3072 14.6928 14.093 13.1763 14.0051L13 14H7C5.34315 14 4 15.3431 4 17C4 17.5523 3.55228 18 3 18C2.44772 18 2 17.5523 2 17C2 14.3112 4.12231 12.1182 6.78311 12.0046L7 12ZM10 2C10.5523 2 11 2.44772 11 3C11 3.55228 10.5523 4 10 4C8.34315 4 7 5.34315 7 7C7 8.65685 8.34315 10 10 10C10.7415 10 11.4387 9.73127 11.9833 9.25098C12.3975 8.88566 13.0294 8.92529 13.3947 9.33949C13.76 9.75369 13.7204 10.3856 13.3062 10.7509C12.3997 11.5504 11.2334 12 10 12C7.23858 12 5 9.76142 5 7C5 4.23858 7.23858 2 10 2ZM15 2C15.5523 2 16 2.44772 16 3V4H17C17.5523 4 18 4.44772 18 5C18 5.55228 17.5523 6 17 6H16V7C16 7.55228 15.5523 8 15 8C14.4477 8 14 7.55228 14 7V6H13C12.4477 6 12 5.55228 12 5C12 4.44772 12.4477 4 13 4H14V3C14 2.44772 14.4477 2 15 2Z" fill="black"/>
</svg>
