<svg width="20" height="20" viewBox="0 0 20 20" fill="none" xmlns="http://www.w3.org/2000/svg">
<path fill-rule="evenodd" clip-rule="evenodd" d="M15 2C16.6569 2 18 3.34315 18 5V15C18 16.6569 16.6569 18 15 18H5C3.34315 18 2 16.6569 2 15V5C2 3.34315 3.34315 2 5 2H15ZM15 4H5C4.44772 4 4 4.44772 4 5V12.697L6.18627 9.41876C6.50017 8.9793 7.09949 8.87371 7.54124 9.15898L7.64018 9.23178L12.7853 13.5193L16 7.745V5C16 4.44772 15.5523 4 15 4ZM6.5 8C7.32843 8 8 7.32843 8 6.5C8 5.67157 7.32843 5 6.5 5C5.67157 5 5 5.67157 5 6.5C5 7.32843 5.67157 8 6.5 8Z" fill="black"/>
</svg>
