<svg width="20" height="20" viewBox="0 0 20 20" fill="none" xmlns="http://www.w3.org/2000/svg">
<path fill-rule="evenodd" clip-rule="evenodd" d="M13 2C14.6569 2 16 3.34302 16 4.99971V16.9982C16 17.8153 15.0831 18.2725 14.4357 17.8241L10 14.3157L5.65079 17.7573C5.00212 18.3133 4 17.8524 4 16.9982V4.99971C4 3.34302 5.34315 2 7 2H13ZM13 3.99981H7C6.44772 3.99981 6 4.44748 6 4.99971V14.8242L9.34921 12.2396C9.7237 11.9186 10.2763 11.9186 10.6508 12.2396L14 14.8242V4.99971C14 4.44748 13.5523 3.99981 13 3.99981ZM10 4.99961C10.5523 4.99961 11 5.44733 11 5.99961V6.999L12.0001 6.99942C12.5523 6.99942 13 7.44709 13 7.99932C13 8.55156 12.5523 8.99923 12.0001 8.99923L11 8.999V9.99903C11 10.5513 10.5523 10.999 10 10.999C9.44772 10.999 9 10.5513 9 9.99903V8.999L7.9999 8.99923C7.44767 8.99923 7 8.55156 7 7.99932C7 7.44709 7.44767 6.99942 7.9999 6.99942L9 6.999V5.99961C9 5.44733 9.44772 4.99961 10 4.99961Z" fill="black"/>
</svg>
