<svg width="20" height="20" viewBox="0 0 20 20" fill="none" xmlns="http://www.w3.org/2000/svg">
<path fill-rule="evenodd" clip-rule="evenodd" d="M4 3C4 2.44772 3.55228 2 3 2C2.44772 2 2 2.44772 2 3V17C2 17.5523 2.44772 18 3 18C3.55228 18 4 17.5523 4 17V3ZM13 10C13 9.44772 12.5523 9 12 9H11V8C11 7.44772 10.5523 7 10 7C9.44772 7 9 7.44772 9 8V9H8C7.44772 9 7 9.44772 7 10C7 10.5523 7.44772 11 8 11H9V12C9 12.5523 9.44772 13 10 13C10.5523 13 11 12.5523 11 12V11H12C12.5523 11 13 10.5523 13 10ZM12 17C12 16.4477 11.5523 16 11 16H9C8.44772 16 8 16.4477 8 17C8 17.5523 8.44772 18 9 18H11C11.5523 18 12 17.5523 12 17ZM12 3C12 2.44772 11.5523 2 11 2H9C8.44772 2 8 2.44772 8 3C8 3.55228 8.44772 4 9 4H11C11.5523 4 12 3.55228 12 3ZM18 3L17.9933 2.88338C17.94 2.4243 17.5757 2.06005 17.1166 2.00673L17 2H15L14.8834 2.00673C14.4243 2.06005 14.06 2.4243 14.0067 2.88338L14 3L14.0067 3.11662C14.06 3.5757 14.4243 3.93995 14.8834 3.99327L15 4H16V5L16.0067 5.11662C16.0645 5.61396 16.4872 6 17 6C17.5128 6 17.9355 5.61396 17.9933 5.11662L18 5V3ZM18 15L17.9933 14.8834C17.9355 14.386 17.5128 14 17 14C16.5266 14 16.1301 14.3289 16.0264 14.7707L16.0067 14.8834L16 15V16H15L14.8834 16.0067C14.4626 16.0556 14.1214 16.3657 14.0264 16.7707L14.0067 16.8834L14 17L14.0067 17.1166C14.0556 17.5374 14.3657 17.8786 14.7707 17.9736L14.8834 17.9933L15 18H17L17.1166 17.9933C17.5374 17.9444 17.8786 17.6343 17.9736 17.2293L17.9933 17.1166L18 17V15ZM18 9C18 8.44772 17.5523 8 17 8C16.4477 8 16 8.44772 16 9V11C16 11.5523 16.4477 12 17 12C17.5523 12 18 11.5523 18 11V9Z" fill="black"/>
</svg>
