<svg width="20" height="20" viewBox="0 0 20 20" fill="none" xmlns="http://www.w3.org/2000/svg">
<path fill-rule="evenodd" clip-rule="evenodd" d="M15 2C16.6569 2 18 3.34315 18 5V15C18 16.6569 16.6569 18 15 18H5C3.34315 18 2 16.6569 2 15V5C2 3.34315 3.34315 2 5 2H15ZM16 8H4V15C4 15.5523 4.44772 16 5 16H15C15.5523 16 16 15.5523 16 15V8ZM10.1168 14.9933L10.0001 15L9.916 14.996L9.79937 14.9798L9.68795 14.9503L9.57687 14.9063L9.47938 14.854L9.40492 14.8037L9.29298 14.7071L7.2929 12.7071C6.90237 12.3166 6.90237 11.6834 7.2929 11.2929C7.65339 10.9324 8.22064 10.9047 8.61294 11.2097L8.70715 11.2929L9 11.585L9.00008 10C9.00008 9.48716 9.38612 9.06449 9.88346 9.00673L10.0001 9C10.5524 9 11.0001 9.44772 11.0001 10L11 11.585L11.2931 11.2929C11.6535 10.9324 12.2208 10.9047 12.6131 11.2097L12.7073 11.2929C13.0678 11.6534 13.0955 12.2206 12.7905 12.6129L12.7073 12.7071L10.7072 14.7071L10.6217 14.7834L10.5519 14.8341L10.454 14.8913L10.3401 14.9407L10.2661 14.9642L10.1168 14.9933ZM15 4H5C4.44772 4 4 4.44772 4 5V6H16V5C16 4.44772 15.5523 4 15 4Z" fill="black"/>
</svg>
