<svg width="20" height="20" viewBox="0 0 20 20" fill="none" xmlns="http://www.w3.org/2000/svg">
<path fill-rule="evenodd" clip-rule="evenodd" d="M8.83419 2C9.46529 2 10.0705 2.25071 10.5168 2.69696L17.303 9.48319C18.2323 10.4125 18.2323 11.9191 17.303 12.8484L12.8484 17.303C11.9191 18.2323 10.4125 18.2323 9.48319 17.303L2.69696 10.5168C2.25071 10.0705 2 9.46529 2 8.83419V4.37959C2 3.06538 3.06538 2 4.37959 2H8.83419ZM8.83419 4H4.37959C4.16995 4 4 4.16995 4 4.37959V8.83419C4 8.93486 4.03999 9.03141 4.11118 9.10259L10.8974 15.8888C11.0456 16.0371 11.286 16.0371 11.4342 15.8888L15.8888 11.4342C16.0371 11.286 16.0371 11.0456 15.8888 10.8974L9.10259 4.11118C9.03141 4.03999 8.93486 4 8.83419 4ZM7.5 6C8.32843 6 9 6.67157 9 7.5C9 8.32843 8.32843 9 7.5 9C6.67157 9 6 8.32843 6 7.5C6 6.67157 6.67157 6 7.5 6Z" fill="black"/>
</svg>
