<svg width="20" height="20" viewBox="0 0 20 20" fill="none" xmlns="http://www.w3.org/2000/svg">
<path fill-rule="evenodd" clip-rule="evenodd" d="M5.99327 2.88338C5.93551 2.38604 5.51284 2 5 2C4.44772 2 4 2.44772 4 3V4H3C2.44772 4 2 4.44772 2 5C2 5.55228 2.44772 6 3 6H4V15L4.00673 15.1166C4.06449 15.614 4.48716 16 5 16H14V17C14 17.5523 14.4477 18 15 18C15.5523 18 16 17.5523 16 17V16H17L17.1166 15.9933C17.614 15.9355 18 15.5128 18 15L17.9933 14.8834C17.9355 14.386 17.5128 14 17 14H6V3L5.99327 2.88338ZM16 5C16 4.44772 15.5523 4 15 4H9C8.44772 4 8 4.44772 8 5C8 5.55228 8.44772 6 9 6H14V11C14 11.5523 14.4477 12 15 12C15.5523 12 16 11.5523 16 11V5Z" fill="black"/>
</svg>
