<svg width="20" height="20" viewBox="0 0 20 20" fill="none" xmlns="http://www.w3.org/2000/svg">
<path fill-rule="evenodd" clip-rule="evenodd" d="M17 4C17.5523 4 18 3.55228 18 3C18 2.44772 17.5523 2 17 2H3C2.44772 2 2 2.44772 2 3C2 3.55228 2.44772 4 3 4H17ZM10 13C10.5523 13 11 12.5523 11 12V11H12C12.5523 11 13 10.5523 13 10C13 9.44772 12.5523 9 12 9H11V8C11 7.44772 10.5523 7 10 7C9.44772 7 9 7.44772 9 8V9H8C7.44772 9 7 9.44772 7 10C7 10.5523 7.44772 11 8 11H9V12C9 12.5523 9.44772 13 10 13ZM3 12C3.55228 12 4 11.5523 4 11V9C4 8.44772 3.55228 8 3 8C2.44772 8 2 8.44772 2 9V11C2 11.5523 2.44772 12 3 12ZM17 12C17.5523 12 18 11.5523 18 11V9C18 8.44772 17.5523 8 17 8C16.4477 8 16 8.44772 16 9V11C16 11.5523 16.4477 12 17 12ZM17 18L17.1166 17.9933C17.5757 17.94 17.94 17.5757 17.9933 17.1166L18 17V15L17.9933 14.8834C17.94 14.4243 17.5757 14.06 17.1166 14.0067L17 14L16.8834 14.0067C16.4243 14.06 16.06 14.4243 16.0067 14.8834L16 15V16H15L14.8834 16.0067C14.386 16.0645 14 16.4872 14 17C14 17.5128 14.386 17.9355 14.8834 17.9933L15 18H17ZM5 18L5.11662 17.9933C5.61396 17.9355 6 17.5128 6 17C6 16.5266 5.67107 16.1301 5.22929 16.0264L5.11662 16.0067L5 16H4V15L3.99327 14.8834C3.94439 14.4626 3.63425 14.1214 3.22929 14.0264L3.11662 14.0067L3 14L2.88338 14.0067C2.46255 14.0556 2.12142 14.3657 2.02641 14.7707L2.00673 14.8834L2 15V17L2.00673 17.1166C2.05561 17.5374 2.36575 17.8786 2.77071 17.9736L2.88338 17.9933L3 18H5ZM11 18C11.5523 18 12 17.5523 12 17C12 16.4477 11.5523 16 11 16H9C8.44772 16 8 16.4477 8 17C8 17.5523 8.44772 18 9 18H11Z" fill="black"/>
</svg>
