<svg width="20" height="20" viewBox="0 0 20 20" fill="none" xmlns="http://www.w3.org/2000/svg">
<path fill-rule="evenodd" clip-rule="evenodd" d="M5 2H7C7.55228 2 8 2.44772 8 3C8 3.51284 7.61396 3.93551 7.11662 3.99327L7 4H5C4.48716 4 4.06449 4.38604 4.00673 4.88338L4 5V15C4 15.5128 4.38604 15.9355 4.88338 15.9933L5 16H15C15.5128 16 15.9355 15.614 15.9933 15.1166L16 15V13C16 12.4477 16.4477 12 17 12C17.5128 12 17.9355 12.386 17.9933 12.8834L18 13V15C18 16.5977 16.7511 17.9037 15.1763 17.9949L15 18H5C3.40232 18 2.09634 16.7511 2.00509 15.1763L2 15V5C2 3.40232 3.24892 2.09634 4.82373 2.00509L5 2H7H5ZM17 2L17.081 2.003L17.2007 2.02024L17.3121 2.04974L17.4232 2.09367L17.5207 2.146L17.6168 2.21279L17.7071 2.29289L17.8037 2.40469L17.8753 2.51594L17.9063 2.5769L17.9401 2.65835L17.9642 2.73401L17.9931 2.8819L18 3V7C18 7.55228 17.5523 8 17 8C16.4477 8 16 7.55228 16 7V5.414L11.7071 9.70711C11.3466 10.0676 10.7794 10.0953 10.3871 9.7903L10.2929 9.70711C9.93241 9.34662 9.90468 8.77939 10.2097 8.3871L10.2929 8.29289L14.584 4H13C12.4477 4 12 3.55228 12 3C12 2.44772 12.4477 2 13 2H17Z" fill="black"/>
</svg>
