<svg width="20" height="20" viewBox="0 0 20 20" fill="none" xmlns="http://www.w3.org/2000/svg">
<path fill-rule="evenodd" clip-rule="evenodd" d="M15 2C16.6569 2 18 3.34315 18 5C18 6.65685 16.6569 8 15 8C14.1893 8 13.4538 7.67845 12.9139 7.15593L8 9.58032V10.4197L12.9139 12.8441C13.4538 12.3215 14.1893 12 15 12C16.6569 12 18 13.3431 18 15C18 16.6569 16.6569 18 15 18C13.3431 18 12 16.6569 12 15C12 14.8733 12.0078 14.7485 12.0231 14.626L7.1038 12.1387C6.56235 12.6714 5.81955 13 5 13C3.34315 13 2 11.6569 2 10C2 8.34315 3.34315 7 5 7C5.81955 7 6.56235 7.32863 7.1038 7.8613L12.0231 5.374C12.0078 5.25147 12 5.12665 12 5C12 3.34315 13.3431 2 15 2Z" fill="black"/>
</svg>
