<svg width="20" height="20" viewBox="0 0 20 20" fill="none" xmlns="http://www.w3.org/2000/svg">
<path fill-rule="evenodd" clip-rule="evenodd" d="M10 2C14.4183 2 18 5.58172 18 10C18 14.4183 14.4183 18 10 18C5.58172 18 2 14.4183 2 10C2 5.58172 5.58172 2 10 2ZM11.9672 11.0013H8.03282C8.12566 12.405 8.41122 13.6777 8.83555 14.6325C9.25414 15.5743 9.70144 16 10 16C10.2986 16 10.7459 15.5743 11.1645 14.6325C11.5888 13.6777 11.8743 12.405 11.9672 11.0013ZM6.03103 11.0015L4.08303 11.0004C4.38049 12.7727 5.45493 14.2815 6.94409 15.1646C6.45677 14.0103 6.1294 12.577 6.03103 11.0015ZM15.917 11.0004L13.969 11.0015C13.8706 12.577 13.5431 14.0101 13.0554 15.1634C14.545 14.2813 15.6195 12.7727 15.917 11.0004ZM6.9446 4.83658L6.91131 4.85502C5.43908 5.74075 4.37817 7.2405 4.08297 8.99991L6.03098 8.99955C6.12928 7.42366 6.45676 5.99013 6.9446 4.83658ZM10 4L9.93836 4.0057C9.64193 4.05905 9.22623 4.48847 8.83555 5.36752C8.41112 6.32249 8.12552 7.59556 8.03276 8.99971H11.9672C11.8745 7.59556 11.5889 6.32249 11.1645 5.36752C10.7459 4.42568 10.2986 4 10 4ZM13.0559 4.83544L13.0593 4.8457C13.545 5.99771 13.871 7.42789 13.969 8.99969L15.9171 9.00057C15.6199 7.22785 14.5453 5.71865 13.0559 4.83544Z" fill="black"/>
</svg>
