<svg width="20" height="20" viewBox="0 0 20 20" fill="none" xmlns="http://www.w3.org/2000/svg">
<path fill-rule="evenodd" clip-rule="evenodd" d="M4.63603 4.56524L8.62204 8.55043C8.98075 8.20934 9.46593 8 10 8C11.1046 8 12 8.89543 12 10C12 10.5341 11.7907 11.0193 11.4496 11.378L15.364 15.2929C15.7244 15.6534 15.7522 16.2206 15.4472 16.6129L15.364 16.7071C14.9734 17.0976 14.3403 17.0976 13.9498 16.7071L12.7459 15.506C11.8918 15.834 10.9758 16 10 16C6.80071 16 4.24492 14.2161 2.40375 10.7853L2.23324 10.4588L2 10L2.23324 9.54121C2.77328 8.47891 3.37811 7.56507 4.04579 6.80341L3.22183 5.97944C2.83131 5.58893 2.8313 4.95578 3.22181 4.56526C3.61234 4.17473 4.2455 4.17472 4.63603 4.56524ZM4.43739 9.67717L4.25321 10L4.4104 10.2768C5.89057 12.8123 7.73671 14 10 14C10.3905 14 10.7685 13.9647 11.1344 13.8931L5.46177 8.2192C5.10253 8.64221 4.76124 9.12764 4.43739 9.67717ZM10 4C13.1993 4 15.7551 5.78386 17.5962 9.21474L17.7668 9.54121L18 10L17.7668 10.4588C17.2446 11.4859 16.6619 12.3742 16.0203 13.1204L14.6027 11.704C15.0067 11.2169 15.3879 10.6497 15.7468 10C14.2408 7.27405 12.3441 6 10 6C9.65186 6 9.31358 6.0281 8.98499 6.08489L7.35624 4.45566C8.1811 4.15303 9.06295 4 10 4Z" fill="black"/>
</svg>
