<svg width="20" height="20" viewBox="0 0 20 20" fill="none" xmlns="http://www.w3.org/2000/svg">
<path d="M7 14C7.85217 14 8.29743 13.0145 7.78323 12.3775L7.70711 12.2929L6.43168 11.0169C7.42641 10.4078 8.86394 9.99999 10.5 9.99999C13.5195 9.99999 15.8627 11.3889 15.9942 12.8692L16 13C16 13.5523 16.4477 14 17 14C17.5523 14 18 13.5523 18 13C18 10.1099 14.5714 7.99999 10.5 7.99999C8.34594 7.99999 6.37181 8.59059 4.99017 9.57486L3.70711 8.29288C3.10453 7.69031 2.09282 8.07232 2.00598 8.88636L2 8.99999V13C2 13.5128 2.38604 13.9355 2.88338 13.9933L3 14H7Z" fill="black"/>
</svg>
