<svg width="20" height="20" viewBox="0 0 20 20" fill="none" xmlns="http://www.w3.org/2000/svg">
<path fill-rule="evenodd" clip-rule="evenodd" d="M15 2C16.6569 2 18 3.34315 18 5V15C18 16.6569 16.6569 18 15 18H5C3.34315 18 2 16.6569 2 15V5C2 3.34315 3.34315 2 5 2H15ZM15 4H5C4.44772 4 4 4.44772 4 5V15C4 15.5523 4.44772 16 5 16H15C15.5523 16 16 15.5523 16 15V5C16 4.44772 15.5523 4 15 4ZM10 6C11.6569 6 13 7.34315 13 9C13 10.5977 11.7511 11.9037 10.1763 11.9949L10 12H9V13C9 13.5523 8.55228 14 8 14C7.44772 14 7 13.5523 7 13V7C7 6.44772 7.44772 6 8 6H10ZM10 8H9V10H10C10.5523 10 11 9.55228 11 9C11 8.48716 10.614 8.06449 10.1166 8.00673L10 8Z" fill="black"/>
</svg>
