<svg width="20" height="20" viewBox="0 0 20 20" fill="none" xmlns="http://www.w3.org/2000/svg">
<path fill-rule="evenodd" clip-rule="evenodd" d="M8 10L7.99317 10.1175L7.96415 10.266L7.94011 10.3417L7.90635 10.4231L7.87533 10.4841L7.80367 10.5953L7.7485 10.6631L7.70711 10.7071L5.70711 12.7071L5.6129 12.7903C5.2533 13.0699 4.7467 13.0699 4.3871 12.7903L4.29289 12.7071L4.2097 12.6129C3.9301 12.2533 3.9301 11.7467 4.2097 11.3871L4.29289 11.2929L4.585 11H3C2.44772 11 2 10.5523 2 10C2 9.48716 2.38604 9.06449 2.88338 9.00673L3 9H4.585L4.29289 8.70711L4.2097 8.6129C3.90468 8.22061 3.93241 7.65338 4.29289 7.29289C4.65338 6.93241 5.22061 6.90468 5.6129 7.2097L5.70711 7.29289L7.70711 9.29289L7.80369 9.40484L7.854 9.47929L7.90633 9.57678L7.95026 9.68786L7.97976 9.79927L7.996 9.918L8 10ZM11 17C11 17.5523 10.5523 18 10 18C9.48716 18 9.06449 17.614 9.00673 17.1166L9 17V3C9 2.44772 9.44772 2 10 2C10.5128 2 10.9355 2.38604 10.9933 2.88338L11 3V17ZM18 10C18 10.5523 17.5523 11 17 11H15.415L15.7071 11.2929C16.0676 11.6534 16.0953 12.2206 15.7903 12.6129L15.7071 12.7071C15.3466 13.0676 14.7794 13.0953 14.3871 12.7903L14.2929 12.7071L12.2929 10.7071L12.2515 10.6631L12.1963 10.5953L12.1247 10.4841L12.0937 10.4231L12.0599 10.3417L12.0358 10.266L12.0068 10.1175L12 10L12.004 9.918L12.0202 9.79927L12.0497 9.68786L12.0937 9.57678L12.146 9.47929L12.1963 9.40484L12.2929 9.29289L14.2929 7.29289C14.6834 6.90237 15.3166 6.90237 15.7071 7.29289C16.0676 7.65338 16.0953 8.22061 15.7903 8.6129L15.7071 8.70711L15.415 9H17C17.5523 9 18 9.44772 18 10Z" fill="black"/>
</svg>
