<svg width="20" height="20" viewBox="0 0 20 20" fill="none" xmlns="http://www.w3.org/2000/svg">
<path fill-rule="evenodd" clip-rule="evenodd" d="M13 2C14.6569 2 16 3.34315 16 5V15C16 16.6569 14.6569 18 13 18H7C5.34315 18 4 16.6569 4 15V5C4 3.34315 5.34315 2 7 2H13ZM13 4H7C6.44772 4 6 4.44772 6 5V15C6 15.5523 6.44772 16 7 16H13C13.5523 16 14 15.5523 14 15V5C14 4.44772 13.5523 4 13 4ZM10 12C10.5523 12 11 12.4477 11 13C11 13.5523 10.5523 14 10 14C9.44772 14 9 13.5523 9 13C9 12.4477 9.44772 12 10 12Z" fill="black"/>
</svg>
