<svg width="20" height="20" viewBox="0 0 20 20" fill="none" xmlns="http://www.w3.org/2000/svg">
<path fill-rule="evenodd" clip-rule="evenodd" d="M11 2C12.5977 2 13.9037 3.24892 13.9949 4.82373L14 5V6H15C16.5977 6 17.9037 7.24892 17.9949 8.82373L18 9V15C18 16.5977 16.7511 17.9037 15.1763 17.9949L15 18H9C7.40232 18 6.09634 16.7511 6.00509 15.1763L6 15V14H5C3.40232 14 2.09634 12.7511 2.00509 11.1763L2 11V5C2 3.40232 3.24892 2.09634 4.82373 2.00509L5 2H11ZM12 8H9C8.48716 8 8.06449 8.38604 8.00673 8.88338L8 9V12H11C11.5128 12 11.9355 11.614 11.9933 11.1166L12 11V8Z" fill="black"/>
</svg>
