<svg width="20" height="20" viewBox="0 0 20 20" fill="none" xmlns="http://www.w3.org/2000/svg">
<path fill-rule="evenodd" clip-rule="evenodd" d="M7 10.3205L2.18627 3.58124C1.7135 2.91937 2.18663 2 3 2H17C17.8134 2 18.2865 2.91937 17.8137 3.58124L13 10.3205V15C13 15.3788 12.786 15.725 12.4472 15.8944L8.44721 17.8944C7.78231 18.2269 7 17.7434 7 17V10.3205ZM4.94319 4L8.81373 9.41876C8.93488 9.58836 9 9.79158 9 10V15.382L11 14.382V10C11 9.79158 11.0651 9.58836 11.1863 9.41876L15.0568 4H4.94319Z" fill="black"/>
</svg>
