<svg width="20" height="20" viewBox="0 0 20 20" fill="none" xmlns="http://www.w3.org/2000/svg">
<path fill-rule="evenodd" clip-rule="evenodd" d="M6 16C3.79086 16 2 14.0812 2 11.7143C2 9.78982 3.19155 8.13306 4.86361 7.60405C5.74104 5.4454 7.7417 4 10 4C12.8522 4 15.2063 6.28456 15.5554 9.23893C16.9581 9.60266 18 10.9567 18 12.5714C18 14.3901 16.6749 15.8894 14.9641 15.9953L14.8 16H6ZM6 14L14.8406 13.9991C15.4685 13.9603 16 13.3602 16 12.5714C16 11.876 15.58 11.3115 15.0534 11.1749C14.2553 10.968 13.6659 10.2924 13.5692 9.47359C13.3328 7.47287 11.7844 6 10 6C8.59574 6 7.30266 6.91486 6.7164 8.35716C6.51471 8.85335 6.12357 9.24551 5.63372 9.44985L5.32061 9.56428C4.55329 9.88244 4 10.7274 4 11.7143C4 13.0063 4.92744 14 6 14Z" fill="black"/>
</svg>
