<svg width="20" height="20" viewBox="0 0 20 20" fill="none" xmlns="http://www.w3.org/2000/svg">
<path fill-rule="evenodd" clip-rule="evenodd" d="M18 10C18 10.5523 17.5523 11 17 11H5.415L7.70711 13.2929C8.06759 13.6534 8.09532 14.2206 7.7903 14.6129L7.70711 14.7071C7.34662 15.0676 6.77939 15.0953 6.3871 14.7903L6.29289 14.7071L2.29289 10.7071L2.2515 10.6631L2.19633 10.5953L2.12467 10.4841L2.07123 10.3713L2.03585 10.266L2.00683 10.1175L2 10L2.00279 9.92476L2.02024 9.79927L2.04974 9.68786L2.09367 9.57678L2.146 9.47929L2.21279 9.38325C2.23767 9.35153 2.26443 9.32136 2.29289 9.29289L6.29289 5.29289C6.68342 4.90237 7.31658 4.90237 7.70711 5.29289C8.06759 5.65338 8.09532 6.22061 7.7903 6.6129L7.70711 6.70711L5.415 9H17C17.5523 9 18 9.44772 18 10Z" fill="black"/>
</svg>
