<svg width="20" height="20" viewBox="0 0 20 20" fill="none" xmlns="http://www.w3.org/2000/svg">
<path fill-rule="evenodd" clip-rule="evenodd" d="M17 16C17.5523 16 18 16.4477 18 17C18 17.5523 17.5523 18 17 18H3C2.44772 18 2 17.5523 2 17C2 16.4477 2.44772 16 3 16H17ZM10 7C10.5523 7 11 7.44772 11 8V9H12C12.5523 9 13 9.44772 13 10C13 10.5523 12.5523 11 12 11H11V12C11 12.5523 10.5523 13 10 13C9.44772 13 9 12.5523 9 12V11H8C7.44772 11 7 10.5523 7 10C7 9.44772 7.44772 9 8 9H9V8C9 7.44772 9.44772 7 10 7ZM3 8C3.55228 8 4 8.44772 4 9V11C4 11.5523 3.55228 12 3 12C2.44772 12 2 11.5523 2 11V9C2 8.44772 2.44772 8 3 8ZM17 8C17.5523 8 18 8.44772 18 9V11C18 11.5523 17.5523 12 17 12C16.4477 12 16 11.5523 16 11V9C16 8.44772 16.4477 8 17 8ZM17 2L17.1166 2.00673C17.5757 2.06005 17.94 2.4243 17.9933 2.88338L18 3V5L17.9933 5.11662C17.94 5.5757 17.5757 5.93995 17.1166 5.99327L17 6L16.8834 5.99327C16.4243 5.93995 16.06 5.5757 16.0067 5.11662L16 5V4H15L14.8834 3.99327C14.386 3.93551 14 3.51284 14 3C14 2.48716 14.386 2.06449 14.8834 2.00673L15 2H17ZM5 2L5.11662 2.00673C5.61396 2.06449 6 2.48716 6 3C6 3.47339 5.67107 3.86995 5.22929 3.97359L5.11662 3.99327L5 4H4V5L3.99327 5.11662C3.94439 5.53745 3.63425 5.87858 3.22929 5.97359L3.11662 5.99327L3 6L2.88338 5.99327C2.46255 5.94439 2.12142 5.63425 2.02641 5.22929L2.00673 5.11662L2 5V3L2.00673 2.88338C2.05561 2.46255 2.36575 2.12142 2.77071 2.02641L2.88338 2.00673L3 2H5ZM11 2C11.5523 2 12 2.44772 12 3C12 3.55228 11.5523 4 11 4H9C8.44772 4 8 3.55228 8 3C8 2.44772 8.44772 2 9 2H11Z" fill="black"/>
</svg>
