<svg width="20" height="20" viewBox="0 0 20 20" fill="none" xmlns="http://www.w3.org/2000/svg">
<path fill-rule="evenodd" clip-rule="evenodd" d="M4.70314 4.70315L15.6568 15.6569C16.0474 16.0474 16.0474 16.6805 15.6568 17.0711C15.2663 17.4616 14.6332 17.4616 14.2426 17.0711L12.6508 15.4807C12.1294 15.6942 11.5765 15.8466 11.001 15.929L11 17C11 17.5523 10.5523 18 9.99999 18C9.44771 18 8.99999 17.5523 8.99999 17V15.9291C5.6077 15.4439 2.99999 12.5265 2.99999 9C2.99999 8.44772 3.44771 8 3.99999 8C4.55228 8 4.99999 8.44772 4.99999 9C4.99999 11.7614 7.23857 14 9.99999 14C10.3633 14 10.7176 13.9612 11.059 13.8876L9.00008 11.8293C8.1476 11.528 7.47195 10.8524 7.17067 9.99991L3.28893 6.11736C2.8984 5.72684 2.8984 5.09367 3.28893 4.70315C3.67945 4.31262 4.31262 4.31262 4.70314 4.70315ZM16 8C16.5523 8 17 8.44772 17 9C17 10.466 16.5493 11.8268 15.7789 12.9513L14.3299 11.5021C14.756 10.7662 15 9.91158 15 9C15 8.44772 15.4477 8 16 8ZM9.99999 2C11.6568 2 13 3.34315 13 5V9C13 9.35085 12.9398 9.68763 12.8291 10.0006L10.999 8.171L11 5C11 4.44772 10.5523 4 9.99999 4C9.44771 4 8.99999 4.44772 8.99999 5L8.99903 6.171L7.09099 4.26379C7.4192 2.96288 8.59715 2 9.99999 2Z" fill="black"/>
</svg>
