<svg width="20" height="20" viewBox="0 0 20 20" fill="none" xmlns="http://www.w3.org/2000/svg">
<path fill-rule="evenodd" clip-rule="evenodd" d="M9.23178 6.35982C9.60492 5.91205 10.2717 5.88219 10.684 6.27026L10.7682 6.35982L15.7682 12.3598C16.2863 12.9815 15.8879 13.9108 15.1132 13.994L15 14H13V17C13 17.4734 12.6711 17.8699 12.2293 17.9736L12.1166 17.9933L12 18H8C7.48716 18 7.06449 17.614 7.00673 17.1166L7 17V14H5C4.22924 14 3.7764 13.1828 4.10822 12.5448L4.16394 12.4506L4.23178 12.3598L9.23178 6.35982ZM10 8.562L7.135 12H8C8.47339 12 8.86995 12.3289 8.97359 12.7707L8.99327 12.8834L9 13V16H11V13C11 12.5266 11.3289 12.1301 11.7707 12.0264L11.8834 12.0067L12 12H12.864L10 8.562ZM17 2C17.5523 2 18 2.44772 18 3C18 3.55228 17.5523 4 17 4H3C2.44772 4 2 3.55228 2 3C2 2.44772 2.44772 2 3 2H17Z" fill="black"/>
</svg>
