<svg width="20" height="20" viewBox="0 0 20 20" fill="none" xmlns="http://www.w3.org/2000/svg">
<path fill-rule="evenodd" clip-rule="evenodd" d="M12.976 4.63802C12.7797 3.12716 11.5154 2 10 2C8.34315 2 7 3.34315 7 5C7 5.05656 7.00469 5.11201 7.01495 5.16547C6.17164 5.45849 5.49943 6.11724 5.18826 6.95492C4.91376 6.88747 4.6603 6.74609 4.45711 6.54289C4.16443 6.25021 4 5.85325 4 5.43934V5L3.99327 4.88338C3.93551 4.38604 3.51284 4 3 4C2.44772 4 2 4.44772 2 5V5.43934L2.00662 5.65649C2.05945 6.52161 2.42651 7.34072 3.04289 7.95711C3.57705 8.49126 4.26344 8.83818 5.00009 8.95561L5 10H3C2.44772 10 2 10.4477 2 11C2 11.5523 2.44772 12 3 12H5L5.00109 13.0442C4.26406 13.1615 3.57729 13.5085 3.04289 14.0429C2.42651 14.6593 2.05945 15.4784 2.00662 16.3435L2 16.5607V17L2.00673 17.1166C2.06449 17.614 2.48716 18 3 18C3.51284 18 3.93551 17.614 3.99327 17.1166L4 17V16.5607L4.00764 16.4064C4.04311 16.0491 4.20101 15.7132 4.45711 15.4571C4.7132 15.201 5.04914 15.0431 5.40641 15.0076L5.41889 15.0065C6.19192 16.7689 7.95219 18 10 18C12.0478 18 13.8081 16.7689 14.5811 15.0065L14.7452 15.0303C15.0452 15.0902 15.3234 15.2376 15.5429 15.4571C15.8356 15.7498 16 16.1467 16 16.5607V17L16.0067 17.1166C16.0645 17.614 16.4872 18 17 18C17.5523 18 18 17.5523 18 17V16.5607L17.9934 16.3435C17.9406 15.4784 17.5735 14.6593 16.9571 14.0429C16.423 13.5087 15.7366 13.1618 14.9998 13.0454L15 12H17C17.5523 12 18 11.5523 18 11C18 10.4477 17.5523 10 17 10H15L15.0009 8.95545C15.7372 8.83786 16.4232 8.49102 16.9571 7.95711C17.5735 7.34072 17.9406 6.52161 17.9934 5.65649L18 5.43934V5L17.9933 4.88338C17.9355 4.38604 17.5128 4 17 4C16.4872 4 16.0645 4.38604 16.0067 4.88338L16 5V5.43934L15.9924 5.59359C15.9569 5.95086 15.799 6.2868 15.5429 6.54289C15.3397 6.74609 15.0862 6.88747 14.8118 6.95186C14.5007 6.11757 13.8289 5.45901 12.9862 5.16693C12.9973 5.10095 13.0019 5.03284 12.9993 4.96327L12.9938 4.81401L12.976 4.63802ZM7.00673 7.88338C7.06449 7.38604 7.48716 7 8 7H12L12.1166 7.00673C12.614 7.06449 13 7.48716 13 8V13L12.9949 13.1763C12.9037 14.7511 11.5977 16 10 16C8.34315 16 7 14.6569 7 13V8L7.00673 7.88338Z" fill="black"/>
</svg>
