<svg width="20" height="20" viewBox="0 0 20 20" fill="none" xmlns="http://www.w3.org/2000/svg">
<path fill-rule="evenodd" clip-rule="evenodd" d="M13 15C13.5523 15 14 15.4477 14 16C14 16.5523 13.5523 17 13 17H3C2.44772 17 2 16.5523 2 16C2 15.4477 2.44772 15 3 15H13ZM17 11C17.5523 11 18 11.4477 18 12C18 12.5523 17.5523 13 17 13H3C2.44772 13 2 12.5523 2 12C2 11.4477 2.44772 11 3 11H17ZM13 7C13.5523 7 14 7.44772 14 8C14 8.55228 13.5523 9 13 9H3C2.44772 9 2 8.55228 2 8C2 7.44772 2.44772 7 3 7H13ZM17 3C17.5523 3 18 3.44772 18 4C18 4.55228 17.5523 5 17 5H3C2.44772 5 2 4.55228 2 4C2 3.44772 2.44772 3 3 3H17Z" fill="black"/>
</svg>
