<svg width="20" height="20" viewBox="0 0 20 20" fill="none" xmlns="http://www.w3.org/2000/svg">
<path fill-rule="evenodd" clip-rule="evenodd" d="M3.47186 9.42136L4.31457 8.57864C4.70707 8.18615 5.34343 8.18615 5.73593 8.57864C6.10039 8.9431 6.12643 9.51784 5.81403 9.91234L5.73593 10L4.89322 10.8427C3.71573 12.0202 3.71573 13.9293 4.89322 15.1068C6.02866 16.2422 7.84437 16.2828 9.0284 15.2284L9.15729 15.1068L10 14.2641C10.3925 13.8716 11.0289 13.8716 11.4214 14.2641C11.7858 14.6285 11.8119 15.2033 11.4995 15.5978L11.4214 15.6854L10.5786 16.5281C8.61616 18.4906 5.43435 18.4906 3.47186 16.5281C1.56102 14.6173 1.51074 11.5505 3.32101 9.57878L3.47186 9.42136ZM9.42136 3.47186C11.3838 1.50938 14.5657 1.50938 16.5281 3.47186C18.4906 5.43435 18.4906 8.61616 16.5281 10.5786L15.6854 11.4214C15.2929 11.8139 14.6566 11.8139 14.2641 11.4214C13.8716 11.0289 13.8716 10.3925 14.2641 10L15.1068 9.15729C16.2843 7.9798 16.2843 6.07071 15.1068 4.89322C13.9293 3.71573 12.0202 3.71573 10.8427 4.89322L10 5.73593C9.6075 6.12843 8.97114 6.12843 8.57864 5.73593C8.18615 5.34343 8.18615 4.70707 8.57864 4.31457L9.42136 3.47186ZM10.4214 8.15729C10.8139 7.76479 11.4502 7.76479 11.8427 8.15729C12.2352 8.54978 12.2352 9.18615 11.8427 9.57864L9.57864 11.8427C9.18615 12.2352 8.54978 12.2352 8.15729 11.8427C7.76479 11.4502 7.76479 10.8139 8.15729 10.4214L10.4214 8.15729Z" fill="black"/>
</svg>
