<svg width="20" height="20" viewBox="0 0 20 20" fill="none" xmlns="http://www.w3.org/2000/svg">
<path fill-rule="evenodd" clip-rule="evenodd" d="M7 12H13C15.7614 12 18 14.2386 18 17C18 17.5523 17.5523 18 17 18C16.4872 18 16.0645 17.614 16.0067 17.1166L15.9949 16.8237C15.907 15.3072 14.6928 14.093 13.1763 14.0051L13 14H7C5.34315 14 4 15.3431 4 17C4 17.5523 3.55228 18 3 18C2.44772 18 2 17.5523 2 17C2 14.3112 4.12231 12.1182 6.78311 12.0046L7 12H13H7ZM10 2C12.7614 2 15 4.23858 15 7C15 9.76142 12.7614 12 10 12C7.23858 12 5 9.76142 5 7C5 4.23858 7.23858 2 10 2ZM10 4C8.34315 4 7 5.34315 7 7C7 8.65685 8.34315 10 10 10C11.6569 10 13 8.65685 13 7C13 5.34315 11.6569 4 10 4Z" fill="black"/>
</svg>
