<svg width="20" height="20" viewBox="0 0 20 20" fill="none" xmlns="http://www.w3.org/2000/svg">
<path fill-rule="evenodd" clip-rule="evenodd" d="M3.14354 5.8762C3.42858 5.40316 4.04313 5.25076 4.51617 5.5358C4.98922 5.82085 5.14162 6.4354 4.85657 6.90844C4.29883 7.83403 4 8.89388 4 10C4 13.3137 6.68629 16 10 16C13.3137 16 16 13.3137 16 10C16 8.89457 15.7015 7.83536 15.1445 6.91016C14.8596 6.43703 15.0122 5.82253 15.4853 5.53764C15.9585 5.25276 16.573 5.40536 16.8578 5.8785C17.6012 7.113 18 8.52846 18 10C18 14.4183 14.4183 18 10 18C5.58172 18 2 14.4183 2 10C2 8.52754 2.39934 7.11123 3.14354 5.8762ZM10 2C10.5523 2 11 2.44772 11 3V7C11 7.55228 10.5523 8 10 8C9.44772 8 9 7.55228 9 7V3C9 2.44772 9.44772 2 10 2Z" fill="black"/>
</svg>
