<svg width="20" height="20" viewBox="0 0 20 20" fill="none" xmlns="http://www.w3.org/2000/svg">
<path fill-rule="evenodd" clip-rule="evenodd" d="M7 2C7.55228 2 8 2.44772 8 3C8 3.51284 7.61396 3.93551 7.11662 3.99327L7 4H4V7C4 7.51284 3.61396 7.93551 3.11662 7.99327L3 8C2.48716 8 2.06449 7.61396 2.00673 7.11662L2 7V3C2 2.48716 2.38604 2.06449 2.88338 2.00673L3 2H7ZM3.11662 12.0067L3 12L2.88338 12.0067C2.4243 12.06 2.06005 12.4243 2.00673 12.8834L2 13V17L2.00673 17.1166C2.06005 17.5757 2.4243 17.94 2.88338 17.9933L3 18H7L7.11662 17.9933C7.61396 17.9355 8 17.5128 8 17C8 16.4872 7.61396 16.0645 7.11662 16.0067L7 16H4V13L3.99327 12.8834C3.93995 12.4243 3.5757 12.06 3.11662 12.0067ZM17.9933 12.8834C17.9355 12.386 17.5128 12 17 12L16.8834 12.0067C16.386 12.0645 16 12.4872 16 13V16H13L12.8834 16.0067C12.386 16.0645 12 16.4872 12 17C12 17.5523 12.4477 18 13 18H17L17.1166 17.9933C17.614 17.9355 18 17.5128 18 17V13L17.9933 12.8834ZM17.1166 2.00673L17 2H13L12.8834 2.00673C12.386 2.06449 12 2.48716 12 3C12 3.51284 12.386 3.93551 12.8834 3.99327L13 4H16V7L16.0067 7.11662C16.06 7.5757 16.4243 7.93995 16.8834 7.99327L17 8L17.1166 7.99327C17.5757 7.93995 17.94 7.5757 17.9933 7.11662L18 7V3L17.9933 2.88338C17.94 2.4243 17.5757 2.06005 17.1166 2.00673Z" fill="black"/>
</svg>
