<svg width="20" height="20" viewBox="0 0 20 20" fill="none" xmlns="http://www.w3.org/2000/svg">
<path fill-rule="evenodd" clip-rule="evenodd" d="M12 2C14.7614 2 17 4.23858 17 7C17 9.68876 14.8777 11.8818 12.2169 11.9954L12 12H8V13H10C10.5523 13 11 13.4477 11 14C11 14.5523 10.5523 15 10 15H8V17C8 17.5523 7.55228 18 7 18C6.44772 18 6 17.5523 6 17V15H4C3.44772 15 3 14.5523 3 14C3 13.4477 3.44772 13 4 13H6V12H4C3.44772 12 3 11.5523 3 11C3 10.4872 3.38604 10.0645 3.88338 10.0067L4 10H6V3C6 2.44772 6.44772 2 7 2H12ZM12 4H8V10H12C13.6569 10 15 8.65685 15 7C15 5.40232 13.7511 4.09634 12.1763 4.00509L12 4Z" fill="black"/>
</svg>
