<svg width="20" height="20" viewBox="0 0 20 20" fill="none" xmlns="http://www.w3.org/2000/svg">
<path fill-rule="evenodd" clip-rule="evenodd" d="M17 16C17.5523 16 18 16.4477 18 17C18 17.5523 17.5523 18 17 18H3C2.44772 18 2 17.5523 2 17C2 16.4477 2.44772 16 3 16H17ZM10 14L9.918 13.996L9.79927 13.9798L9.68786 13.9503L9.57678 13.9063L9.47929 13.854L9.40484 13.8037L9.29289 13.7071L6.29289 10.7071C5.90237 10.3166 5.90237 9.68342 6.29289 9.29289C6.65338 8.93241 7.22061 8.90468 7.6129 9.2097L7.70711 9.29289L9 10.585V3C9 2.44772 9.44772 2 10 2C10.5523 2 11 2.44772 11 3V10.585L12.2929 9.29289C12.6534 8.93241 13.2206 8.90468 13.6129 9.2097L13.7071 9.29289C14.0676 9.65338 14.0953 10.2206 13.7903 10.6129L13.7071 10.7071L10.7071 13.7071L10.6631 13.7485L10.5953 13.8037L10.4841 13.8753L10.4231 13.9063L10.3417 13.9401L10.266 13.9642L10.1175 13.9932L10 14Z" fill="black"/>
</svg>
