<svg width="20" height="20" viewBox="0 0 20 20" fill="none" xmlns="http://www.w3.org/2000/svg">
<path fill-rule="evenodd" clip-rule="evenodd" d="M15 2C15.2652 2 15.5196 2.10536 15.7071 2.29289L17.7071 4.29289C17.8946 4.48043 18 4.73478 18 5V10C18 10.2652 17.8946 10.5196 17.7071 10.7071L15.7071 12.7071C15.5196 12.8946 15.2652 13 15 13H11.4142L6.70711 17.7071C6.51957 17.8946 6.26522 18 6 18H3C2.44772 18 2 17.5523 2 17V14C2 13.7348 2.10536 13.4804 2.29289 13.2929L7 8.58579V5C7 4.73478 7.10536 4.48043 7.29289 4.29289L9.29289 2.29289C9.48043 2.10536 9.73478 2 10 2H15ZM14.5858 4H10.4142L9 5.41421V9C9 9.26522 8.89464 9.51957 8.70711 9.70711L4 14.4142V16H5.58579L10.2929 11.2929C10.4804 11.1054 10.7348 11 11 11H14.5858L16 9.58579V5.41421L14.5858 4ZM13.5 5C14.3284 5 15 5.67157 15 6.5C15 7.32843 14.3284 8 13.5 8C12.6716 8 12 7.32843 12 6.5C12 5.67157 12.6716 5 13.5 5Z" fill="black"/>
</svg>
