<svg width="20" height="20" viewBox="0 0 20 20" fill="none" xmlns="http://www.w3.org/2000/svg">
<path fill-rule="evenodd" clip-rule="evenodd" d="M16 3C16 2.44772 16.4477 2 17 2C17.5523 2 18 2.44772 18 3V17C18 17.5523 17.5523 18 17 18C16.4477 18 16 17.5523 16 17V3ZM14 10L13.996 10.082L13.9798 10.2007L13.9503 10.3121L13.9063 10.4232L13.854 10.5207L13.8037 10.5952L13.7071 10.7071L10.7071 13.7071C10.3166 14.0976 9.68342 14.0976 9.29289 13.7071C8.93241 13.3466 8.90468 12.7794 9.2097 12.3871L9.29289 12.2929L10.585 11H3C2.44772 11 2 10.5523 2 10C2 9.44772 2.44772 9 3 9H10.585L9.29289 7.70711C8.93241 7.34662 8.90468 6.77939 9.2097 6.3871L9.29289 6.29289C9.65338 5.93241 10.2206 5.90468 10.6129 6.2097L10.7071 6.29289L13.7071 9.29289L13.7485 9.33685L13.8037 9.40469L13.8753 9.51594L13.9063 9.5769L13.9401 9.65835L13.9642 9.73401L13.9932 9.88253L14 10Z" fill="black"/>
</svg>
