<svg width="20" height="20" viewBox="0 0 20 20" fill="none" xmlns="http://www.w3.org/2000/svg">
<path fill-rule="evenodd" clip-rule="evenodd" d="M6 2C7.65685 2 9 3.34315 9 5V15C9 16.6569 7.65685 18 6 18H5C3.34315 18 2 16.6569 2 15V5C2 3.34315 3.34315 2 5 2H6ZM15 2C16.6569 2 18 3.34315 18 5V15C18 16.6569 16.6569 18 15 18H14C12.3431 18 11 16.6569 11 15V5C11 3.34315 12.3431 2 14 2H15ZM6 4H5C4.44772 4 4 4.44772 4 5V15C4 15.5523 4.44772 16 5 16H6C6.55228 16 7 15.5523 7 15V5C7 4.44772 6.55228 4 6 4ZM15 4H14C13.4477 4 13 4.44772 13 5V15C13 15.5523 13.4477 16 14 16H15C15.5523 16 16 15.5523 16 15V5C16 4.44772 15.5523 4 15 4Z" fill="black"/>
</svg>
