<svg width="20" height="20" viewBox="0 0 20 20" fill="none" xmlns="http://www.w3.org/2000/svg">
<path fill-rule="evenodd" clip-rule="evenodd" d="M11.5279 2C13.043 2 14.428 2.85601 15.1056 4.21115L17.3666 7.73313C17.7831 8.56626 18 9.48494 18 10.4164V16C18 17.1046 17.1046 18 16 18C14.8954 18 14 17.1046 14 16V15H6V16C6 17.1046 5.10457 18 4 18C2.89543 18 2 17.1046 2 16L2 10.4164C2 9.48494 2.21687 8.56626 2.63344 7.73313L4.89443 4.21115C5.572 2.85601 6.95705 2 8.47214 2H11.5279ZM15 11H13C12.4477 11 12 11.4477 12 12C12 12.5128 12.386 12.9355 12.8834 12.9933L13 13H15C15.5523 13 16 12.5523 16 12C16 11.4872 15.614 11.0645 15.1166 11.0067L15 11ZM7 11H5C4.44772 11 4 11.4477 4 12C4 12.5128 4.38604 12.9355 4.88338 12.9933L5 13H7C7.55228 13 8 12.5523 8 12C8 11.4872 7.61396 11.0645 7.11662 11.0067L7 11ZM11.7639 4H8.23607C7.53263 4 6.88526 4.36904 6.52512 4.96426L6.44721 5.10557L4 9H16L13.5528 5.10557C13.214 4.428 12.5215 4 11.7639 4Z" fill="black"/>
</svg>
