<svg width="20" height="20" viewBox="0 0 20 20" fill="none" xmlns="http://www.w3.org/2000/svg">
<path fill-rule="evenodd" clip-rule="evenodd" d="M11.4 13.6C12.2 14.4 12.2 15.6 11.4 16.4C11 16.8 10.5 17 10 17C9.5 17 9 16.8 8.6 16.4C7.8 15.6 7.8 14.4 8.6 13.6C9.4 12.8 10.6 12.8 11.4 13.6ZM10 9.8C11.3 9.8 12.5 10.4 13.4 11.4C13.8 11.8 13.7 12.4 13.3 12.8C13.2 12.9 12.9 13 12.7 13C12.4 13 12.2 12.9 12 12.7C10.9 11.5 9.2 11.5 8.1 12.7C7.7 13.1 7.1 13.1 6.7 12.8C6.3 12.4 6.3 11.8 6.6 11.4C7.5 10.4 8.7 9.8 10 9.8ZM10 6.4C12.0045 6.4 13.918 7.22004 15.3924 8.77315L15.6 9C16 9.4 15.9 10 15.5 10.4C15.3 10.5 15.1 10.6 14.8 10.6C14.5 10.6 14.3 10.5 14.1 10.3C13 9.1 11.5 8.4 10 8.4C8.5 8.4 7 9.1 5.9 10.3C5.5 10.7 4.9 10.7 4.5 10.4C4.1 10 4.1 9.4 4.4 9C5.9 7.3 7.9 6.4 10 6.4ZM10 3C12.9 3 15.7 4.3 17.7 6.5C18.1 6.9 18 7.5 17.6 7.9C17.5 8.1 17.2 8.2 17 8.2C16.7 8.2 16.5 8.1 16.3 7.9C14.6 6 12.4 5 10 5C7.6 5 5.4 6 3.7 7.9C3.3 8.3 2.7 8.3 2.3 8C1.9 7.6 1.9 7 2.3 6.5C4.3 4.3 7.1 3 10 3Z" fill="black"/>
</svg>
