<svg width="20" height="20" viewBox="0 0 20 20" fill="none" xmlns="http://www.w3.org/2000/svg">
<path fill-rule="evenodd" clip-rule="evenodd" d="M17 16C17.5523 16 18 16.4477 18 17C18 17.5523 17.5523 18 17 18H3C2.44772 18 2 17.5523 2 17C2 16.4477 2.44772 16 3 16H17ZM15 6C16.6569 6 18 7.34315 18 9V11C18 12.6569 16.6569 14 15 14H5C3.34315 14 2 12.6569 2 11V9C2 7.34315 3.34315 6 5 6H15ZM15 8H5C4.44772 8 4 8.44772 4 9V11C4 11.5523 4.44772 12 5 12H15C15.5523 12 16 11.5523 16 11V9C16 8.44772 15.5523 8 15 8ZM17 2C17.5523 2 18 2.44772 18 3C18 3.55228 17.5523 4 17 4H3C2.44772 4 2 3.55228 2 3C2 2.44772 2.44772 2 3 2H17Z" fill="black"/>
</svg>
