<svg width="20" height="20" viewBox="0 0 20 20" fill="none" xmlns="http://www.w3.org/2000/svg">
<path fill-rule="evenodd" clip-rule="evenodd" d="M17 2L17.1166 2.00673C17.5757 2.06005 17.94 2.4243 17.9933 2.88338L18 3V5L17.9933 5.11662C17.94 5.5757 17.5757 5.93995 17.1166 5.99327L17 6L16.8834 5.99327C16.4243 5.93995 16.06 5.5757 16.0067 5.11662L16 5V4H15L14.8834 3.99327C14.386 3.93551 14 3.51284 14 3C14 2.48716 14.386 2.06449 14.8834 2.00673L15 2H17ZM3 6L3.11662 6.00673C3.5757 6.06005 3.93995 6.4243 3.99327 6.88338L4 7V16H13L13.1166 16.0067C13.614 16.0645 14 16.4872 14 17C14 17.5128 13.614 17.9355 13.1166 17.9933L13 18H3L2.88338 17.9933C2.4243 17.9399 2.06005 17.5757 2.00673 17.1166L2 17V7L2.00673 6.88338C2.06005 6.4243 2.4243 6.06005 2.88338 6.00673L3 6ZM7 10L7.11662 10.0067C7.5757 10.06 7.93995 10.4243 7.99327 10.8834L8 11V12H9L9.11662 12.0067C9.61396 12.0645 10 12.4872 10 13C10 13.5128 9.61396 13.9355 9.11662 13.9933L9 14H7L6.88338 13.9933C6.4243 13.94 6.06005 13.5757 6.00673 13.1166L6 13V11L6.00673 10.8834C6.06005 10.4243 6.4243 10.06 6.88338 10.0067L7 10ZM17.1166 10.0067L17 10L16.8834 10.0067L16.7707 10.0264C16.3657 10.1214 16.0556 10.4626 16.0067 10.8834L16 11V12H15L14.8834 12.0067L14.7707 12.0264C14.3289 12.1301 14 12.5266 14 13C14 13.5128 14.386 13.9355 14.8834 13.9933L15 14H17L17.1166 13.9933L17.2293 13.9736C17.6343 13.8786 17.9444 13.5374 17.9933 13.1166L18 13V11L17.9933 10.8834L17.9736 10.7707C17.8786 10.3657 17.5374 10.0556 17.1166 10.0067ZM9.11662 2.00673L9 2H7L6.88338 2.00673L6.77071 2.02641C6.36575 2.12142 6.05561 2.46255 6.00673 2.88338L6 3V5L6.00673 5.11662L6.02641 5.22929C6.12142 5.63425 6.46255 5.94439 6.88338 5.99327L7 6L7.11662 5.99327L7.22929 5.97359C7.63425 5.87858 7.94439 5.53745 7.99327 5.11662L8 5V4H9L9.11662 3.99327L9.22929 3.97359C9.67107 3.86995 10 3.47339 10 3C10 2.48716 9.61396 2.06449 9.11662 2.00673Z" fill="black"/>
</svg>
