<svg width="20" height="20" viewBox="0 0 20 20" fill="none" xmlns="http://www.w3.org/2000/svg">
<path fill-rule="evenodd" clip-rule="evenodd" d="M10 2C5.582 2 2 5.582 2 10C2 14.418 5.582 18 10 18C14.418 18 18 14.418 18 10C18 5.582 14.418 2 10 2ZM9.00025 14.0006C8.73625 14.0006 8.48125 13.8966 8.29325 13.7076L6.29325 11.7076C5.90225 11.3166 5.90225 10.6846 6.29325 10.2936C6.68425 9.90257 7.31625 9.90257 7.70725 10.2936L8.84525 11.4316L12.1683 6.44557C12.4742 5.98557 13.0942 5.86157 13.5553 6.16857C14.0142 6.47557 14.1383 7.09557 13.8323 7.55557L9.83225 13.5556C9.66625 13.8046 9.39625 13.9666 9.09925 13.9956C9.06525 13.9986 9.03325 14.0006 9.00025 14.0006Z" fill="black"/>
</svg>
