<svg width="20" height="20" viewBox="0 0 20 20" fill="none" xmlns="http://www.w3.org/2000/svg">
<path fill-rule="evenodd" clip-rule="evenodd" d="M10 2C14.4183 2 18 5.58172 18 10C18 14.4183 14.4183 18 10 18C5.58172 18 2 14.4183 2 10C2 5.58172 5.58172 2 10 2ZM14.4427 6.70446C14.6794 5.94509 13.9544 5.22012 13.195 5.45675L13.0914 5.49507L8.14161 7.61639L8.02778 7.67403C7.88182 7.76005 7.76005 7.88182 7.67403 8.02778L7.61639 8.14161L5.49507 13.0914L5.45675 13.195C5.22012 13.9544 5.94509 14.6794 6.70446 14.4427L6.80813 14.4044L11.7579 12.2831L11.8717 12.2255C12.0177 12.1394 12.1394 12.0177 12.2255 11.8717L12.2831 11.7579L14.4044 6.80813L14.4427 6.70446ZM10 9C10.5523 9 11 9.44772 11 10C11 10.5523 10.5523 11 10 11C9.44772 11 9 10.5523 9 10C9 9.44772 9.44772 9 10 9Z" fill="black"/>
</svg>
