<svg width="20" height="20" viewBox="0 0 20 20" fill="none" xmlns="http://www.w3.org/2000/svg">
<path fill-rule="evenodd" clip-rule="evenodd" d="M11 2C12.6569 2 14 3.34315 14 5V15C14 16.6569 12.6569 18 11 18H9C7.34315 18 6 16.6569 6 15V5C6 3.34315 7.34315 2 9 2H11ZM11 4H9C8.44772 4 8 4.44772 8 5V15C8 15.5523 8.44772 16 9 16H11C11.5523 16 12 15.5523 12 15V5C12 4.44772 11.5523 4 11 4ZM3 4C3.55228 4 4 4.44772 4 5V15C4 15.5523 3.55228 16 3 16C2.44772 16 2 15.5523 2 15V5C2 4.44772 2.44772 4 3 4ZM17 4C17.5523 4 18 4.44772 18 5V15C18 15.5523 17.5523 16 17 16C16.4477 16 16 15.5523 16 15V5C16 4.44772 16.4477 4 17 4Z" fill="black"/>
</svg>
