<svg width="20" height="20" viewBox="0 0 20 20" fill="none" xmlns="http://www.w3.org/2000/svg">
<path fill-rule="evenodd" clip-rule="evenodd" d="M16 13H14V14C14 14.5523 13.5523 15 13 15H5C4.44772 15 4 14.5523 4 14V6C4 5.44772 4.44772 5 5 5H13C13.5523 5 14 5.44772 14 6V7H16V6C16 4.34315 14.6569 3 13 3H5C3.34315 3 2 4.34315 2 6V14C2 15.6569 3.34315 17 5 17H13C14.6569 17 16 15.6569 16 14V13ZM13 7H16C17.1046 7 18 7.89543 18 9V11C18 12.1046 17.1046 13 16 13H13C11.8954 13 11 12.1046 11 11V9C11 7.89543 11.8954 7 13 7ZM14 11C14.5523 11 15 10.5523 15 10C15 9.44772 14.5523 9 14 9C13.4477 9 13 9.44772 13 10C13 10.5523 13.4477 11 14 11Z" fill="black"/>
</svg>
