<svg width="20" height="20" viewBox="0 0 20 20" fill="none" xmlns="http://www.w3.org/2000/svg">
<path fill-rule="evenodd" clip-rule="evenodd" d="M6 7.5C6 5.83345 7.29774 4.48999 9.00654 4.10875L9.00157 4.05512L9 3C9 2.44772 9.44772 2 10 2C10.5523 2 11 2.44772 11 3V4L10.9935 4.10875C12.7023 4.48999 14 5.83345 14 7.5C14 8.05228 13.5523 8.5 13 8.5C12.4872 8.5 12.0645 8.11396 12.0067 7.61662L12 7.5C12 6.71601 11.1408 6 10 6C8.85921 6 8 6.71601 8 7.5C8 8.24479 8.77544 8.92823 9.83107 8.99471L10 9C12.1729 9 14 10.5226 14 12.5C14 14.1643 12.7058 15.5064 11.0004 15.8897L11 17C11 17.5523 10.5523 18 10 18C9.44772 18 9 17.5523 9 17L9.00059 15.8899C7.29473 15.5069 6 14.1646 6 12.5C6 11.9477 6.44772 11.5 7 11.5C7.51284 11.5 7.93551 11.886 7.99327 12.3834L8 12.5C8 13.284 8.85921 14 10 14C11.1408 14 12 13.284 12 12.5C12 11.7552 11.2246 11.0718 10.1689 11.0053L10 11C7.82708 11 6 9.47743 6 7.5Z" fill="black"/>
</svg>
