<svg width="20" height="20" viewBox="0 0 20 20" fill="none" xmlns="http://www.w3.org/2000/svg">
<path fill-rule="evenodd" clip-rule="evenodd" d="M10 4C13.866 4 17 7.13401 17 11C17 14.866 13.866 18 10 18C6.13401 18 3 14.866 3 11C3 7.13401 6.13401 4 10 4ZM10 6C7.23858 6 5 8.23858 5 11C5 13.7614 7.23858 16 10 16C12.7614 16 15 13.7614 15 11C15 8.23858 12.7614 6 10 6ZM10 8C10.5523 8 11 8.44772 11 9V11C11 11.5523 10.5523 12 10 12C9.44772 12 9 11.5523 9 11V9C9 8.44772 9.44772 8 10 8ZM13 2C13.5523 2 14 2.44772 14 3C14 3.55228 13.5523 4 13 4H7C6.44772 4 6 3.55228 6 3C6 2.44772 6.44772 2 7 2H13Z" fill="black"/>
</svg>
