<svg width="20" height="20" viewBox="0 0 20 20" fill="none" xmlns="http://www.w3.org/2000/svg">
<path fill-rule="evenodd" clip-rule="evenodd" d="M17 12C17.5128 12 17.9355 12.386 17.9933 12.8834L18 13V15C18 16.5977 16.7511 17.9037 15.1763 17.9949L15 18H5C3.40232 18 2.09634 16.7511 2.00509 15.1763L2 15V13C2 12.4477 2.44772 12 3 12C3.51284 12 3.93551 12.386 3.99327 12.8834L4 13V15C4 15.5128 4.38604 15.9355 4.88338 15.9933L5 16H15C15.5128 16 15.9355 15.614 15.9933 15.1166L16 15V13C16 12.4477 16.4477 12 17 12ZM10.7071 2.29289L13.7071 5.29289C14.0976 5.68342 14.0976 6.31658 13.7071 6.70711C13.3166 7.09763 12.6834 7.09763 12.2929 6.70711L11 5.414V13C11 13.5523 10.5523 14 10 14C9.48716 14 9.06449 13.614 9.00673 13.1166L9 13V5.414L7.70711 6.70711C7.31658 7.09763 6.68342 7.09763 6.29289 6.70711C5.90237 6.31658 5.90237 5.68342 6.29289 5.29289L9.29289 2.29289C9.68342 1.90237 10.3166 1.90237 10.7071 2.29289Z" fill="black"/>
</svg>
