<svg width="20" height="20" viewBox="0 0 20 20" fill="none" xmlns="http://www.w3.org/2000/svg">
<path fill-rule="evenodd" clip-rule="evenodd" d="M10.7071 2.29289L10.6129 2.2097C10.2206 1.90468 9.65338 1.93241 9.29289 2.29289L7.584 4H5L4.88338 4.00673C4.38604 4.06449 4 4.48716 4 5V7.584L2.29289 9.29289L2.2097 9.3871C1.90468 9.77939 1.93241 10.3466 2.29289 10.7071L4 12.415V15L4.00673 15.1166C4.06449 15.614 4.48716 16 5 16H7.585L9.29289 17.7071L9.3871 17.7903C9.77939 18.0953 10.3466 18.0676 10.7071 17.7071L12.414 16H15L15.1166 15.9933C15.614 15.9355 16 15.5128 16 15V12.414L17.7071 10.7071L17.7903 10.6129C18.0953 10.2206 18.0676 9.65338 17.7071 9.29289L16 7.585V5L15.9933 4.88338C15.9355 4.38604 15.5128 4 15 4H12.415L10.7071 2.29289ZM6 10C6 7.79086 7.79086 6 10 6C12.2091 6 14 7.79086 14 10C14 12.2091 12.2091 14 10 14C7.79086 14 6 12.2091 6 10Z" fill="black"/>
</svg>
