<svg width="20" height="20" viewBox="0 0 20 20" fill="none" xmlns="http://www.w3.org/2000/svg">
<path fill-rule="evenodd" clip-rule="evenodd" d="M11 2C11.2652 2 11.5196 2.10536 11.7071 2.29289L15.7071 6.29289C15.8946 6.48043 16 6.73478 16 7C16 7.55228 15.5523 8 15 8H11C10.4872 8 10.0645 7.61396 10.0067 7.11662L10 7L9.999 4H7C6.44772 4 6 4.44772 6 5V15C6 15.5128 6.38604 15.9355 6.88338 15.9933L7 16C7.55228 16 8 16.4477 8 17C8 17.5128 7.61396 17.9355 7.11662 17.9933L7 18C5.34315 18 4 16.6569 4 15V5C4 3.34315 5.34315 2 7 2H11ZM11.7071 10.2929L14 12.585L16.2929 10.2929C16.6534 9.93241 17.2206 9.90468 17.6129 10.2097L17.7071 10.2929C18.0676 10.6534 18.0953 11.2206 17.7903 11.6129L17.7071 11.7071L15.415 14L17.7071 16.2929C18.0976 16.6834 18.0976 17.3166 17.7071 17.7071C17.3166 18.0976 16.6834 18.0976 16.2929 17.7071L14 15.415L11.7071 17.7071C11.3466 18.0676 10.7794 18.0953 10.3871 17.7903L10.2929 17.7071C9.93241 17.3466 9.90468 16.7794 10.2097 16.3871L10.2929 16.2929L12.585 14L10.2929 11.7071C9.90237 11.3166 9.90237 10.6834 10.2929 10.2929C10.6834 9.90237 11.3166 9.90237 11.7071 10.2929Z" fill="black"/>
</svg>
