<svg width="20" height="20" viewBox="0 0 20 20" fill="none" xmlns="http://www.w3.org/2000/svg">
<path fill-rule="evenodd" clip-rule="evenodd" d="M7.5 10C8.8739 10 10.1301 10.5129 11.0941 11.361C11.6809 11.1285 12.3248 11 13 11C15.7614 11 18 13.149 18 15.8C18 16.4627 17.4404 17 16.75 17H3.375C2.61561 17 2 16.3732 2 15.6C2 12.5072 4.46243 10 7.5 10ZM7 3C8.65685 3 10 4.34315 10 6C10 7.65685 8.65685 9 7 9C5.34315 9 4 7.65685 4 6C4 4.34315 5.34315 3 7 3ZM14 5C15.1046 5 16 5.89543 16 7C16 8.10457 15.1046 9 14 9C12.8954 9 12 8.10457 12 7C12 5.89543 12.8954 5 14 5Z" fill="black"/>
</svg>
