<svg width="20" height="20" viewBox="0 0 20 20" fill="none" xmlns="http://www.w3.org/2000/svg">
<path fill-rule="evenodd" clip-rule="evenodd" d="M7.001 18C5.34448 18 4.0016 16.6569 4.0016 15V11H3.0018C2.11108 11 1.665 9.92286 2.29484 9.29289L9.29304 2.29289C9.68348 1.90237 10.3165 1.90237 10.707 2.29289L17.7052 9.29289C18.335 9.92286 17.8889 11 16.9982 11H15.9984V15C15.9984 16.6569 14.6555 18 12.999 18H7.001ZM10 4.41454L5.09242 9.32338L5.22529 9.41792C5.69757 9.78375 6.0016 10.3564 6.0016 11V15C6.0016 15.5524 6.44914 16 7.001 16L8 15.999V13C8 12.4477 8.44772 12 9 12H11C11.5523 12 12 12.4477 12 13V15.999L12.999 16C13.5509 16 13.9984 15.5524 13.9984 15V11C13.9984 10.2979 14.3602 9.68023 14.9076 9.32338L10 4.41454Z" fill="black"/>
</svg>
