<svg width="20" height="20" viewBox="0 0 20 20" fill="none" xmlns="http://www.w3.org/2000/svg">
<path fill-rule="evenodd" clip-rule="evenodd" d="M10 12L10.1175 12.0068L10.266 12.0358L10.3417 12.0599L10.4231 12.0937L10.4841 12.1247L10.5953 12.1963L10.6631 12.2515L10.7071 12.2929L12.7071 14.2929L12.7903 14.3871C13.0699 14.7467 13.0699 15.2533 12.7903 15.6129L12.7071 15.7071L12.6129 15.7903C12.2533 16.0699 11.7467 16.0699 11.3871 15.7903L11.2929 15.7071L11 15.415V17C11 17.5523 10.5523 18 10 18C9.48716 18 9.06449 17.614 9.00673 17.1166L9 17V15.415L8.70711 15.7071L8.6129 15.7903C8.22061 16.0953 7.65338 16.0676 7.29289 15.7071C6.93241 15.3466 6.90468 14.7794 7.2097 14.3871L7.29289 14.2929L9.29289 12.2929L9.40484 12.1963L9.47929 12.146L9.57678 12.0937L9.68786 12.0497L9.79927 12.0202L9.918 12.004L10 12ZM17 9C17.5523 9 18 9.44772 18 10C18 10.5128 17.614 10.9355 17.1166 10.9933L17 11H3C2.44772 11 2 10.5523 2 10C2 9.48716 2.38604 9.06449 2.88338 9.00673L3 9H17ZM10 2C10.5523 2 11 2.44772 11 3V4.585L11.2929 4.29289C11.6534 3.93241 12.2206 3.90468 12.6129 4.2097L12.7071 4.29289C13.0676 4.65338 13.0953 5.22061 12.7903 5.6129L12.7071 5.70711L10.7071 7.70711L10.6631 7.7485L10.5953 7.80367L10.4841 7.87533L10.4231 7.90635L10.3417 7.94011L10.266 7.96415L10.1175 7.99317L10 8L9.918 7.996L9.79927 7.97976L9.68786 7.95026L9.57678 7.90633L9.47929 7.854L9.40484 7.80369L9.29289 7.70711L7.29289 5.70711C6.90237 5.31658 6.90237 4.68342 7.29289 4.29289C7.65338 3.93241 8.22061 3.90468 8.6129 4.2097L8.70711 4.29289L9 4.585V3C9 2.44772 9.44772 2 10 2Z" fill="black"/>
</svg>
