<svg width="20" height="20" viewBox="0 0 20 20" fill="none" xmlns="http://www.w3.org/2000/svg">
<path fill-rule="evenodd" clip-rule="evenodd" d="M17.9962 9.75082C17.8645 5.44784 14.3349 2 10 2C5.58172 2 2 5.58172 2 10C2 14.4183 5.58172 18 10 18C11.161 18 12.2889 17.7519 13.3234 17.2789C13.8257 17.0492 14.0467 16.4559 13.817 15.9536C13.5874 15.4513 12.994 15.2303 12.4918 15.46C11.717 15.8142 10.8726 16 10 16C6.68629 16 4 13.3137 4 10C4 6.68629 6.68629 4 10 4C13.3137 4 16 6.68629 16 10V11L15.9933 11.1166C15.9355 11.614 15.5128 12 15 12C14.4477 12 14 11.5523 14 11V10L13.9951 9.80036C13.8911 7.68397 12.1422 6 10 6C7.79086 6 6 7.79086 6 10C6 12.2091 7.79086 14 10 14C11.0472 14 12.0003 13.5976 12.711 12.9393C13.2613 13.5882 14.0826 14 15 14C16.6569 14 18 12.6569 18 11V10L17.9962 9.75082ZM8 10C8 8.89543 8.89543 8 10 8C11.1046 8 12 8.89543 12 10C12 11.1046 11.1046 12 10 12C8.89543 12 8 11.1046 8 10Z" fill="black"/>
</svg>
