<svg width="20" height="20" viewBox="0 0 20 20" fill="none" xmlns="http://www.w3.org/2000/svg">
<path fill-rule="evenodd" clip-rule="evenodd" d="M11 2C11.2652 2 11.5196 2.10536 11.7071 2.29289L15.7071 6.29289C15.8946 6.48043 16 6.73478 16 7C16 7.55228 15.5523 8 15 8H11C10.4872 8 10.0645 7.61396 10.0067 7.11662L10 7L9.999 4H7C6.44772 4 6 4.44772 6 5V15C6 15.5128 6.38604 15.9355 6.88338 15.9933L7 16C7.55228 16 8 16.4477 8 17C8 17.5128 7.61396 17.9355 7.11662 17.9933L7 18C5.34315 18 4 16.6569 4 15V5C4 3.34315 5.34315 2 7 2H11ZM14.2929 10.2929C14.6534 9.93241 15.2206 9.90468 15.6129 10.2097L15.7071 10.2929L17.7071 12.2929C18.0676 12.6534 18.0953 13.2206 17.7903 13.6129L17.7071 13.7071L13.7071 17.7071C13.5508 17.8634 13.3481 17.9626 13.1314 17.9913L13 18H11C10.4872 18 10.0645 17.614 10.0067 17.1166L10 17V15C10 14.779 10.0732 14.5655 10.2061 14.392L10.2929 14.2929L14.2929 10.2929Z" fill="black"/>
</svg>
