<svg width="20" height="20" viewBox="0 0 20 20" fill="none" xmlns="http://www.w3.org/2000/svg">
<path fill-rule="evenodd" clip-rule="evenodd" d="M10 2C10.5523 2 11 2.44772 11 3L11.0008 4.08309C13.5128 4.50488 15.4954 6.48757 15.917 8.99963L17 9C17.5523 9 18 9.44772 18 10C18 10.5523 17.5523 11 17 11L15.917 11.0004C15.4954 13.5124 13.5128 15.4951 11.0008 15.9169L11 17C11 17.5523 10.5523 18 10 18C9.44772 18 9 17.5523 9 17L9.00019 15.9171C6.48776 15.4957 4.50475 13.5128 4.08304 11.0005L3 11C2.44772 11 2 10.5523 2 10C2 9.44772 2.44772 9 3 9L4.08287 9.00052C4.50422 6.4877 6.48742 4.50441 9.00019 4.08293L9 3C9 2.44772 9.44772 2 10 2ZM10 6C7.79086 6 6 7.79086 6 10C6 12.2091 7.79086 14 10 14C12.2091 14 14 12.2091 14 10C14 7.79086 12.2091 6 10 6ZM10 8C11.1046 8 12 8.89543 12 10C12 11.1046 11.1046 12 10 12C8.89543 12 8 11.1046 8 10C8 8.89543 8.89543 8 10 8Z" fill="black"/>
</svg>
