<svg width="20" height="20" viewBox="0 0 20 20" fill="none" xmlns="http://www.w3.org/2000/svg">
<path fill-rule="evenodd" clip-rule="evenodd" d="M8 12C8.55228 12 9 12.4477 9 13V17C9 17.5523 8.55228 18 8 18H3C2.44772 18 2 17.5523 2 17V13C2 12.4477 2.44772 12 3 12H8ZM17 7C17.5523 7 18 7.44772 18 8V17C18 17.5523 17.5523 18 17 18H12C11.4477 18 11 17.5523 11 17V8C11 7.44772 11.4477 7 12 7H17ZM8 2C8.55228 2 9 2.44772 9 3V9C9 9.55228 8.55228 10 8 10H3C2.44772 10 2 9.55228 2 9V3C2 2.44772 2.44772 2 3 2H8ZM17 2C17.5523 2 18 2.44772 18 3V4C18 4.55228 17.5523 5 17 5H12C11.4477 5 11 4.55228 11 4V3C11 2.44772 11.4477 2 12 2H17Z" fill="black"/>
</svg>
