<svg width="20" height="20" viewBox="0 0 20 20" fill="none" xmlns="http://www.w3.org/2000/svg">
<path fill-rule="evenodd" clip-rule="evenodd" d="M10 11C11.3063 11 12.4175 11.8349 12.8293 13.0001L17 13C17.5523 13 18 13.4477 18 14C18 14.5523 17.5523 15 17 15L12.829 15.0009C12.4169 16.1656 11.3059 17 10 17C8.69412 17 7.58312 16.1656 7.17102 15.0009L3 15C2.44772 15 2 14.5523 2 14C2 13.4477 2.44772 13 3 13L7.17067 13.0001C7.58249 11.8349 8.69375 11 10 11ZM10 13C9.44772 13 9 13.4477 9 14C9 14.5523 9.44772 15 10 15C10.5523 15 11 14.5523 11 14C11 13.4477 10.5523 13 10 13ZM15 3C16.6569 3 18 4.34315 18 6C18 7.65685 16.6569 9 15 9C13.6941 9 12.5831 8.16562 12.171 7.0009L3 7C2.44772 7 2 6.55228 2 6C2 5.44772 2.44772 5 3 5L12.1707 5.00009C12.5825 3.83485 13.6937 3 15 3ZM15 5C14.4477 5 14 5.44772 14 6C14 6.55228 14.4477 7 15 7C15.5523 7 16 6.55228 16 6C16 5.44772 15.5523 5 15 5Z" fill="black"/>
</svg>
