<svg width="20" height="20" viewBox="0 0 20 20" fill="none" xmlns="http://www.w3.org/2000/svg">
<path fill-rule="evenodd" clip-rule="evenodd" d="M4 17C4 17.5523 3.55228 18 3 18C2.44772 18 2 17.5523 2 17V3C2 2.44772 2.44772 2 3 2C3.55228 2 4 2.44772 4 3V17ZM6 10L6.004 9.918L6.02024 9.79927L6.04974 9.68786L6.09367 9.57678L6.146 9.47929L6.19631 9.40484L6.29289 9.29289L9.29289 6.29289C9.68342 5.90237 10.3166 5.90237 10.7071 6.29289C11.0676 6.65338 11.0953 7.22061 10.7903 7.6129L10.7071 7.70711L9.415 9H17C17.5523 9 18 9.44772 18 10C18 10.5523 17.5523 11 17 11H9.415L10.7071 12.2929C11.0676 12.6534 11.0953 13.2206 10.7903 13.6129L10.7071 13.7071C10.3466 14.0676 9.77939 14.0953 9.3871 13.7903L9.29289 13.7071L6.29289 10.7071L6.2515 10.6631L6.19633 10.5953L6.12467 10.4841L6.09365 10.4231L6.05989 10.3417L6.03585 10.266L6.00683 10.1175L6 10Z" fill="black"/>
</svg>
