<svg width="20" height="20" viewBox="0 0 20 20" fill="none" xmlns="http://www.w3.org/2000/svg">
<path fill-rule="evenodd" clip-rule="evenodd" d="M10 2C10.5523 2 11 2.44772 11 3V14.585L13.2929 12.2929C13.6534 11.9324 14.2206 11.9047 14.6129 12.2097L14.7071 12.2929C15.0676 12.6534 15.0953 13.2206 14.7903 13.6129L14.7071 13.7071L10.7071 17.7071L10.6631 17.7485L10.5953 17.8037L10.4841 17.8753L10.3713 17.9288L10.266 17.9642L10.1175 17.9932L10 18L9.92476 17.9972L9.79927 17.9798L9.68786 17.9503L9.57678 17.9063L9.47929 17.854L9.38325 17.7872C9.35153 17.7623 9.32136 17.7356 9.29289 17.7071L5.29289 13.7071C4.90237 13.3166 4.90237 12.6834 5.29289 12.2929C5.65338 11.9324 6.22061 11.9047 6.6129 12.2097L6.70711 12.2929L9 14.585V3C9 2.44772 9.44772 2 10 2Z" fill="black"/>
</svg>
