<svg width="20" height="20" viewBox="0 0 20 20" fill="none" xmlns="http://www.w3.org/2000/svg">
<path fill-rule="evenodd" clip-rule="evenodd" d="M8.31623 8.94868C8.72457 8.81257 9 8.43043 9 8V5C9 3.34315 7.65685 2 6 2H3C2.44772 2 2 2.44772 2 3C2 10.8547 9.14528 18 17 18C17.5523 18 18 17.5523 18 17V14C18 12.3431 16.6569 11 15 11H12C11.5696 11 11.1874 11.2754 11.0513 11.6838L10.3043 13.9248C8.74458 12.9124 7.37501 11.582 6.31438 10.0522L6.07516 9.69571L8.31623 8.94868ZM12.7208 13H15C15.5523 13 16 13.4477 16 14V15.9546C14.7978 15.8457 13.621 15.5439 12.503 15.0828L12.0866 14.9024L12.7208 13ZM17.989 4.85104L17.996 4.91075L17.9998 5.01935L17.996 5.0898L17.9798 5.20079L17.9505 5.31174L17.9288 5.37134L17.8753 5.48406L17.8296 5.55852L17.7803 5.62545L17.7071 5.70711L15.7071 7.70711L15.6129 7.7903C15.2533 8.0699 14.7467 8.0699 14.3871 7.7903L14.2929 7.70711L14.2097 7.6129C13.9301 7.2533 13.9301 6.7467 14.2097 6.3871L14.2929 6.29289L14.585 6H12C11.4477 6 11 5.55228 11 5C11 4.48716 11.386 4.06449 11.8834 4.00673L12 4H14.586L14.2929 3.70711L14.2097 3.6129C13.9047 3.22061 13.9324 2.65338 14.2929 2.29289C14.6534 1.93241 15.2206 1.90468 15.6129 2.2097L15.7071 2.29289L17.7071 4.29289L17.757 4.347L17.8296 4.44149L17.8751 4.51572L17.9063 4.57678L17.9503 4.68786L17.9726 4.76649L17.989 4.85104ZM6 4C6.55228 4 7 4.44772 7 5V7.27924L5.09757 7.91338C4.53454 6.67278 4.16796 5.35246 4.04542 4H6Z" fill="black"/>
</svg>
