<svg width="20" height="20" viewBox="0 0 20 20" fill="none" xmlns="http://www.w3.org/2000/svg">
<path fill-rule="evenodd" clip-rule="evenodd" d="M15 3C16.6569 3 18 4.34315 18 6V8C18 8.76831 17.7112 9.46916 17.2362 9.9999C17.7108 10.53 18 11.2312 18 12V14C18 15.6569 16.6569 17 15 17H5C3.34315 17 2 15.6569 2 14V12C2 11.2317 2.28882 10.5308 2.76381 10.0001C2.28917 9.47002 2 8.76878 2 8V6C2 4.34315 3.34315 3 5 3H15ZM15 11H5C4.44772 11 4 11.4477 4 12V14C4 14.5523 4.44772 15 5 15H15C15.5523 15 16 14.5523 16 14V12C16 11.4477 15.5523 11 15 11ZM6 12C6.55228 12 7 12.4477 7 13C7 13.5523 6.55228 14 6 14C5.44772 14 5 13.5523 5 13C5 12.4477 5.44772 12 6 12ZM15 5H5C4.44772 5 4 5.44772 4 6V8C4 8.55228 4.44772 9 5 9H15C15.5523 9 16 8.55228 16 8V6C16 5.44772 15.5523 5 15 5ZM6 6C6.55228 6 7 6.44772 7 7C7 7.55228 6.55228 8 6 8C5.44772 8 5 7.55228 5 7C5 6.44772 5.44772 6 6 6Z" fill="black"/>
</svg>
