<svg width="20" height="20" viewBox="0 0 20 20" fill="none" xmlns="http://www.w3.org/2000/svg">
<path fill-rule="evenodd" clip-rule="evenodd" d="M9.22673 2L10.792 2.00092C10.8513 2.00374 10.9206 2.01157 10.996 2.02798L11.1691 2.07097C11.5713 2.18771 11.7606 2.3983 12.1292 3.25077L12.2871 3.62729L12.451 4.03345L12.8342 3.86293C13.5976 3.5299 13.9434 3.42718 14.2162 3.42718C14.4976 3.42718 14.7823 3.52607 15.0015 3.69975L15.1053 3.79271L16.162 4.84498L16.3131 5.00911C16.5965 5.34082 16.6592 5.6034 16.4605 6.23104L16.3501 6.54822L16.2017 6.92673L15.9559 7.51329L16.5451 7.73561C17.4648 8.09429 17.7359 8.28039 17.8846 8.65252L17.9112 8.72456L17.9589 8.88382C17.983 8.97411 17.9932 9.03819 17.9974 9.10962L18 9.22647V10.7103C18 10.8339 17.9957 10.9055 17.9638 11.0333C17.8364 11.5449 17.6948 11.7264 16.7372 12.1393L16.5479 12.2196L15.9705 12.4545L16.1501 12.8493C16.699 14.0756 16.7553 14.4343 16.4201 14.8678L16.3669 14.9335L16.2432 15.0712L15.1562 16.1575C14.9192 16.3971 14.5856 16.5274 14.2606 16.5274C14.0898 16.5274 13.8749 16.4815 13.5706 16.3792L13.4107 16.3234L13.0414 16.1822L12.4851 15.9527L12.3291 16.3681C11.9164 17.4488 11.7331 17.738 11.3315 17.8915L11.2583 17.9173L11.1043 17.9615C11.0169 17.9841 10.955 17.9937 10.8862 17.9975L10.7735 18L9.20804 17.9991C9.14892 17.9963 9.0799 17.9885 9.00474 17.9722C8.54231 17.872 8.34049 17.7504 8.01586 17.071L7.94428 16.9167L7.78648 16.5521L7.548 15.9666L7.16457 16.1371C6.40086 16.47 6.05525 16.5726 5.78293 16.5726C5.50495 16.5726 5.22404 16.4758 4.99889 16.3004L4.89124 16.2062L3.80292 15.1181C3.39492 14.6856 3.29446 14.454 3.58402 13.6276L3.64716 13.4541L3.79474 13.0796L4.04309 12.488L3.63394 12.3344C2.56805 11.9272 2.27115 11.7406 2.11385 11.3438L2.08741 11.2715L2.04015 11.1117C2.01662 11.0224 2.00662 10.959 2.00257 10.8884L2 10.7728V9.28807C2 9.16346 2.00443 9.09116 2.03688 8.96228C2.14872 8.51808 2.27014 8.32367 2.93112 8.00948L3.09347 7.93468L3.45277 7.7802L4.02991 7.54625L3.85081 7.15004C3.24863 5.79456 3.24293 5.47232 3.72774 4.95938L3.79688 4.88814L4.84611 3.84129C5.08115 3.60495 5.41329 3.47332 5.73894 3.47332C5.93873 3.47332 6.19675 3.53525 6.59065 3.67775L6.768 3.7438L7.12861 3.88661L7.51564 4.04737L7.74446 3.4443C8.11371 2.50387 8.30627 2.2324 8.69908 2.09454L8.77516 2.07013L8.93507 2.02947C9.01225 2.01219 9.06675 2.00485 9.12744 2.00188L10.792 2.00092L9.22673 2ZM10.2654 4H9.68478L9.59598 4.21539L9.49017 4.4849L9.19618 5.26965C9.11261 5.49033 8.95422 5.67311 8.75061 5.78744L8.64518 5.83875L8.00809 6.10386C7.80128 6.18992 7.57287 6.20358 7.35928 6.14497L7.23321 6.10113L6.57075 5.82099L6.24104 5.68718L5.94281 5.57228L5.5309 5.98326L5.73485 6.45907L6.0825 7.22097C6.17926 7.43127 6.19949 7.66722 6.14237 7.88868L6.09881 8.01951L5.8383 8.65256C5.74962 8.86805 5.58902 9.04463 5.38569 9.15353L5.28061 9.2022L4.48631 9.52093L4.215 9.63473L4 9.7291V10.3211L4.1007 10.3632L4.48192 10.5142L5.25883 10.8036C5.48612 10.8856 5.67472 11.0465 5.79169 11.2548L5.84406 11.3628L6.1046 11.994C6.19063 12.2024 6.20322 12.4324 6.14273 12.647L6.09767 12.7735L5.76187 13.5636L5.56652 14.054L5.97824 14.4652L6.23658 14.358L6.73453 14.1392L7.20477 13.9233C7.42382 13.8187 7.6721 13.7978 7.90343 13.8621L8.01747 13.9013L8.6583 14.1659C8.8767 14.256 9.05489 14.42 9.16311 14.6273L9.21125 14.7344L9.5246 15.5138L9.7339 16H10.3168L10.405 15.7852L10.5103 15.5164L10.8036 14.732C10.8871 14.5094 11.0467 14.325 11.2521 14.2103L11.3585 14.1588L11.9966 13.8955C12.201 13.8112 12.4263 13.7974 12.6375 13.8541L12.7623 13.8967L13.2451 14.1021L13.7597 14.3135L14.0574 14.4284L14.47 14.0166L14.4286 13.9165L14.1971 13.3887L13.917 12.7794C13.8199 12.5687 13.7996 12.3323 13.857 12.1104L13.9007 11.9793L14.1608 11.349C14.249 11.1352 14.4081 10.9597 14.6095 10.8508L14.7136 10.802L15.5124 10.4801L16 10.2705V9.67935L15.8992 9.63741L15.5173 9.48681L14.7378 9.19724C14.511 9.11473 14.323 8.95356 14.2066 8.74517L14.1546 8.63719L13.8945 8.00344C13.8092 7.79556 13.7968 7.56631 13.8571 7.35247L13.902 7.22631L14.2372 6.43685L14.4323 5.94503L14.0203 5.53474L13.8981 5.58478L13.4412 5.78197L12.7801 6.08244C12.5701 6.17864 12.3348 6.19865 12.1138 6.14168L11.9833 6.09825L11.3429 5.835C11.1273 5.7464 10.9507 5.58585 10.8417 5.38255L10.793 5.27747L10.5393 4.64409L10.3603 4.21528L10.2654 4ZM10.0003 8C11.1028 8 12 8.89682 12 9.99942C12 11.102 11.1029 12 10.0003 12C8.89731 12 8 11.1022 8 9.99942C8 8.89663 8.89734 8 10.0003 8Z" fill="black"/>
</svg>
