<svg width="20" height="20" viewBox="0 0 20 20" fill="none" xmlns="http://www.w3.org/2000/svg">
<path fill-rule="evenodd" clip-rule="evenodd" d="M9.70742 5.29271L9.79061 5.38691C10.0702 5.74651 10.0702 6.2531 9.79061 6.6127L9.70742 6.7069L9.61321 6.79009C9.25358 7.06969 8.74694 7.06969 8.38732 6.79009L8.2931 6.7069L6.99976 5.41468L7.00012 14.9997C7.00012 15.5125 6.61408 15.9352 6.11674 15.9929L6.00012 15.9997L5.88335 15.9929C5.42427 15.9396 5.06002 15.5754 5.0067 15.1163L4.99997 14.9997L4.99976 5.41468L3.70699 6.7069L3.61277 6.79009C3.22045 7.09511 2.65318 7.06738 2.29267 6.7069C1.93216 6.34642 1.90443 5.7792 2.20948 5.38691L2.29267 5.29271L5.29287 2.29275L5.41333 2.18992L5.49588 2.13595L5.61375 2.07717L5.71243 2.04189L5.85101 2.01088L5.94623 2.00104L6.05421 2.00132L6.14852 2.01088L6.28793 2.04198L6.41457 2.08952L6.51964 2.14523L6.60178 2.20098L6.66557 2.2534L6.70722 2.29275L9.70742 5.29271L9.79061 5.38691L9.70742 5.29271ZM17.7905 14.6131L17.7073 14.7073L14.7071 17.7072L14.6216 17.7835L14.5512 17.8346L14.4541 17.8913L14.3812 17.9249L14.3137 17.9499L14.2622 17.9653L14.1484 17.9891L14.0541 17.9987L13.9252 17.997L13.8509 17.9891L13.7123 17.9581L13.5868 17.9111L13.4958 17.864L13.4132 17.81L13.3702 17.776L13.2928 17.7072L10.2926 14.7073C9.90201 14.3167 9.90201 13.6836 10.2926 13.2931C10.6531 12.9326 11.2203 12.9049 11.6127 13.2099L11.7069 13.2931L12.9997 14.5853L12.9999 5.00029C12.9999 4.48746 13.3859 4.06478 13.8832 4.00702L14 4.00029C14.5523 4.00029 15 4.44801 15 5.00029L14.9997 14.5853L16.293 13.2931C16.6535 12.9326 17.2208 12.9049 17.6131 13.2099L17.7073 13.2931C18.0678 13.6535 18.0956 14.2208 17.7905 14.6131Z" fill="black"/>
</svg>
