<svg width="20" height="20" viewBox="0 0 20 20" fill="none" xmlns="http://www.w3.org/2000/svg">
<path fill-rule="evenodd" clip-rule="evenodd" d="M14.9151 13.5961L14.9532 13.6962L14.9752 13.7775L14.9942 13.8919L14.9995 14.0314L14.988 14.1545L14.9573 14.2897L14.9293 14.3701L14.8754 14.4843L14.831 14.5571L14.7574 14.6534L14.6915 14.7226L14.6 14.8L10.6 17.8C9.97073 18.272 9.08494 17.8648 9.00572 17.1101L9 17L8.999 12.4142L6.70711 14.7071C6.31658 15.0976 5.68342 15.0976 5.29289 14.7071C4.93241 14.3466 4.90468 13.7794 5.2097 13.3871L5.29289 13.2929L8.585 9.9992L5.29289 6.70712C4.90237 6.3166 4.90237 5.68343 5.29289 5.29291C5.65338 4.93242 6.22061 4.90469 6.6129 5.20972L6.70711 5.29291L8.999 7.5842L9 3.00002C9 2.21343 9.85718 1.74908 10.5085 2.13852L10.6 2.20002L14.6306 5.22378L14.7071 5.29291L14.7613 5.35156L14.8322 5.44486L14.8898 5.54274L14.9311 5.63465L14.9571 5.70952L14.9881 5.84555L14.9982 5.93934L14.999 6.04601L14.9943 6.1074L14.9745 6.22575L14.9542 6.29999L14.9344 6.35736L14.9004 6.43567L14.8355 6.55008L14.7903 6.61291L14.7071 6.70712L11.414 9.9992L14.7071 13.2929L14.7727 13.3652L14.8421 13.4601L14.8596 13.4886C14.8804 13.5235 14.8989 13.5594 14.9151 13.5961ZM11 12.415V15L12.477 13.892L11 12.415ZM11 7.58401V5.00002L12.477 6.10702L11 7.58401Z" fill="black"/>
</svg>
