<svg width="20" height="20" viewBox="0 0 20 20" fill="none" xmlns="http://www.w3.org/2000/svg">
<path fill-rule="evenodd" clip-rule="evenodd" d="M10 18C9.44772 18 9 17.5523 9 17V5.415L6.70711 7.70711C6.34662 8.06759 5.77939 8.09532 5.3871 7.7903L5.29289 7.70711C4.93241 7.34662 4.90468 6.77939 5.2097 6.3871L5.29289 6.29289L9.29289 2.29289L9.33685 2.2515L9.40469 2.19633L9.51594 2.12467L9.62866 2.07123L9.73401 2.03585L9.88253 2.00683L10 2L10.0752 2.00279L10.2007 2.02024L10.3121 2.04974L10.4232 2.09367L10.5207 2.146L10.6168 2.21279C10.6485 2.23767 10.6786 2.26443 10.7071 2.29289L14.7071 6.29289C15.0976 6.68342 15.0976 7.31658 14.7071 7.70711C14.3466 8.06759 13.7794 8.09532 13.3871 7.7903L13.2929 7.70711L11 5.415V17C11 17.5523 10.5523 18 10 18Z" fill="black"/>
</svg>
