<svg width="20" height="20" viewBox="0 0 20 20" fill="none" xmlns="http://www.w3.org/2000/svg">
<path fill-rule="evenodd" clip-rule="evenodd" d="M18 11C18 6.58172 14.4183 3 10 3C5.58172 3 2 6.58172 2 11C2 12.6578 2.50643 14.2422 3.43556 15.5736C3.75163 16.0265 4.375 16.1374 4.8279 15.8214C5.28081 15.5053 5.39174 14.8819 5.07567 14.429C4.37896 13.4307 4 12.245 4 11C4 7.68629 6.68629 5 10 5C13.3137 5 16 7.68629 16 11C16 12.245 15.621 13.4307 14.9243 14.429C14.6083 14.8819 14.7192 15.5053 15.1721 15.8214C15.625 16.1374 16.2484 16.0265 16.5644 15.5736C17.4936 14.2422 18 12.6578 18 11ZM10.9552 10.5479L10.6313 9.49363C10.4267 8.83546 9.57335 8.83546 9.36867 9.49363L9.04482 10.5479C8.3411 12.8711 8 14.2451 8 14.8182C8 16.0232 8.89543 17 10 17C11.1046 17 12 16.0232 12 14.8182C12 14.3065 11.7281 13.1564 11.1689 11.2621L10.9552 10.5479Z" fill="black"/>
</svg>
