<svg width="20" height="20" viewBox="0 0 20 20" fill="none" xmlns="http://www.w3.org/2000/svg">
<path fill-rule="evenodd" clip-rule="evenodd" d="M11.4141 10L15.7071 5.70701C16.0981 5.31601 16.0981 4.68401 15.7071 4.29301C15.3161 3.90201 14.6841 3.90201 14.2931 4.29301L10.0001 8.58601L5.70713 4.29301C5.31613 3.90201 4.68413 3.90201 4.29313 4.29301C3.90213 4.68401 3.90213 5.31601 4.29313 5.70701L8.58613 10L4.29313 14.293C3.90213 14.684 3.90213 15.316 4.29313 15.707C4.48813 15.902 4.74413 16 5.00013 16C5.25613 16 5.51213 15.902 5.70713 15.707L10.0001 11.414L14.2931 15.707C14.4881 15.902 14.7441 16 15.0001 16C15.2561 16 15.5121 15.902 15.7071 15.707C16.0981 15.316 16.0981 14.684 15.7071 14.293L11.4141 10Z" fill="black"/>
</svg>
