<svg width="20" height="20" viewBox="0 0 20 20" fill="none" xmlns="http://www.w3.org/2000/svg">
<path fill-rule="evenodd" clip-rule="evenodd" d="M10.6129 2.2097L10.7071 2.29289L12.415 4H15C15.5128 4 15.9355 4.38604 15.9933 4.88338L16 5V7.585L17.7071 9.29289C18.0676 9.65338 18.0953 10.2206 17.7903 10.6129L17.7071 10.7071L16 12.414V15C16 15.5128 15.614 15.9355 15.1166 15.9933L15 16H12.414L10.7071 17.7071C10.3466 18.0676 9.77939 18.0953 9.3871 17.7903L9.29289 17.7071L7.585 16H5C4.48716 16 4.06449 15.614 4.00673 15.1166L4 15V12.415L2.29289 10.7071C1.93241 10.3466 1.90468 9.77939 2.2097 9.3871L2.29289 9.29289L4 7.584V5C4 4.48716 4.38604 4.06449 4.88338 4.00673L5 4H7.584L9.29289 2.29289C9.65338 1.93241 10.2206 1.90468 10.6129 2.2097ZM10.8614 5.49093C10.4814 4.83636 9.51864 4.83636 9.1386 5.49093L9.08085 5.60608L6.08085 12.6061L6.0411 12.7159C5.90927 13.1589 6.10058 13.6372 6.50154 13.867L6.60608 13.9191L6.71592 13.9589C7.15889 14.0907 7.63717 13.8994 7.86702 13.4985L7.91914 13.3939L8.08674 13H11.9127L12.0809 13.3939L12.133 13.4985C12.382 13.9328 12.9225 14.1212 13.3939 13.9191C13.8653 13.7171 14.1017 13.1958 13.9589 12.7159L13.9191 12.6061L10.9191 5.60608L10.8614 5.49093ZM11.0547 11L10 8.538L8.94474 11H11.0547Z" fill="black"/>
</svg>
