<svg width="20" height="20" viewBox="0 0 20 20" fill="none" xmlns="http://www.w3.org/2000/svg">
<path fill-rule="evenodd" clip-rule="evenodd" d="M12 16C12.5523 16 13 16.4477 13 17C13 17.5523 12.5523 18 12 18H8C7.44772 18 7 17.5523 7 17C7 16.4477 7.44772 16 8 16H12ZM9.99976 2C13.5154 2 16 4.14732 16 7.55614C16 9.03449 15.4264 10.2346 14.3487 11.5712L13.4566 12.6387L13.3379 12.7907L13.2369 12.9317L13.1392 13.0851C13.0951 13.6025 12.6622 14 12.1429 14H7.85714C7.33783 14 6.90495 13.6025 6.86077 13.0851L6.76306 12.9317L6.66209 12.7906L6.54339 12.6386L5.65131 11.5711C4.5737 10.2346 4 9.03449 4 7.5562C4 4.1474 6.4845 2 9.99976 2ZM9.99976 4C7.52954 4 6 5.32201 6 7.5562C6 8.4132 6.33277 9.1752 7.02715 10.0851L7.29685 10.4232L7.68221 10.8819L8.17355 11.4747C8.31871 11.6608 8.4408 11.8331 8.53989 12H11.4601L11.5669 11.831C11.6432 11.7167 11.7297 11.5988 11.8265 11.4747L12.7917 10.3159L12.9729 10.0852C13.6673 9.17525 14 8.41325 14 7.5562C14 5.32197 12.4704 4 9.99976 4Z" fill="black"/>
</svg>
