<svg width="20" height="20" viewBox="0 0 20 20" fill="none" xmlns="http://www.w3.org/2000/svg">
<path fill-rule="evenodd" clip-rule="evenodd" d="M17 15C17.5523 15 18 15.4477 18 16C18 16.5523 17.5523 17 17 17H7C6.44772 17 6 16.5523 6 16C6 15.4477 6.44772 15 7 15H17ZM17 11C17.5523 11 18 11.4477 18 12C18 12.5523 17.5523 13 17 13H3C2.44772 13 2 12.5523 2 12C2 11.4477 2.44772 11 3 11H17ZM17 7C17.5523 7 18 7.44772 18 8C18 8.55228 17.5523 9 17 9H7C6.44772 9 6 8.55228 6 8C6 7.44772 6.44772 7 7 7H17ZM17 3C17.5523 3 18 3.44772 18 4C18 4.55228 17.5523 5 17 5H3C2.44772 5 2 4.55228 2 4C2 3.44772 2.44772 3 3 3H17Z" fill="black"/>
</svg>
