<svg width="20" height="20" viewBox="0 0 20 20" fill="none" xmlns="http://www.w3.org/2000/svg">
<path fill-rule="evenodd" clip-rule="evenodd" d="M17.9949 5.82373C17.9037 4.24892 16.5977 3 15 3H5L4.82373 3.00509C3.24892 3.09634 2 4.40232 2 6V14L2.00509 14.1763C2.09634 15.7511 3.40232 17 5 17H15L15.1763 16.9949C16.7511 16.9037 18 15.5977 18 14V6L17.9949 5.82373ZM5 5H15L15.1166 5.00673C15.614 5.06449 16 5.48716 16 6V14L15.9933 14.1166C15.9355 14.614 15.5128 15 15 15H5L4.88338 14.9933C4.38604 14.9355 4 14.5128 4 14V6L4.00673 5.88338C4.06449 5.38604 4.48716 5 5 5ZM14 10C14.5128 10 14.9355 10.386 14.9933 10.8834L15 11V13C15 13.5128 14.614 13.9355 14.1166 13.9933L14 14H12C11.4477 14 11 13.5523 11 13C11 12.4872 11.386 12.0645 11.8834 12.0067L12 12H13V11C13 10.4872 13.386 10.0645 13.8834 10.0067L14 10ZM9 7C9 6.44772 8.55228 6 8 6H6L5.88338 6.00673C5.38604 6.06449 5 6.48716 5 7V9L5.00673 9.11662C5.06449 9.61396 5.48716 10 6 10L6.11662 9.99327C6.61396 9.93551 7 9.51284 7 9V8H8L8.11662 7.99327C8.61396 7.93551 9 7.51284 9 7Z" fill="black"/>
</svg>
