<svg width="20" height="20" viewBox="0 0 20 20" fill="none" xmlns="http://www.w3.org/2000/svg">
<path fill-rule="evenodd" clip-rule="evenodd" d="M5 18C3.34315 18 2 16.6569 2 15V11C2 9.34315 3.34315 8 5 8H6.352L7.55279 3.65836C8.03107 2.70179 8.97938 2.07683 10.0366 2.00661L10.2361 2H10.5C11.8255 2 12.91 3.03154 12.9947 4.33562L13 4.5V8H14.9983C15.1958 8 15.3929 8.01951 15.5866 8.05826C17.1533 8.37159 18.1889 9.85238 17.9696 11.4145L17.94 11.5883L16.74 15.5883C16.4712 16.9322 15.3293 17.9152 13.9759 17.9948L13.7983 18H5ZM6 10H5C4.44772 10 4 10.4477 4 11V15C4 15.5523 4.44772 16 5 16H6V10ZM10.5 4H10.2361C9.9468 4 9.67649 4.12482 9.48944 4.3347L9.41457 4.42975L8.24444 8.6633C8.20996 8.78805 8.16345 8.90916 8.10557 9.02492C8.0535 9.12906 8.02015 9.24123 8.00673 9.35629L8 9.47214V16H13.8583C14.2952 16 14.6765 15.7173 14.809 15.3101L14.8843 15.0137L16.0501 11.1278L16.0584 11.0092C16.0633 10.5382 15.7332 10.1152 15.2544 10.0194L15.1568 10.0049L15.0583 10H13C11.9456 10 11.0818 9.18412 11.0055 8.14926L11 8V4.5C11 4.25454 10.8231 4.05039 10.5899 4.00806L10.5 4Z" fill="black"/>
</svg>
