<svg width="20" height="20" viewBox="0 0 20 20" fill="none" xmlns="http://www.w3.org/2000/svg">
<path fill-rule="evenodd" clip-rule="evenodd" d="M4.63604 4.63604L15.364 15.364C15.7545 15.7545 15.7545 16.3877 15.364 16.7782C14.9734 17.1687 14.3403 17.1687 13.9497 16.7782L12.586 15.4157C12.0913 15.6523 11.5591 15.8232 11.0008 15.9169L11 17C11 17.5523 10.5523 18 10 18C9.44772 18 9 17.5523 9 17L9.00019 15.9171C6.48776 15.4957 4.50475 13.5128 4.08304 11.0005L3 11C2.44772 11 2 10.5523 2 10C2 9.44772 2.44772 9 3 9L4.08287 9.00052C4.17658 8.44164 4.34755 7.90896 4.58443 7.41383L3.22183 6.05025C2.8313 5.65973 2.8313 5.02656 3.22183 4.63604C3.61235 4.24551 4.24551 4.24551 4.63604 4.63604ZM6 10C6 12.2091 7.79086 14 10 14C10.3579 14 10.7049 13.953 11.035 13.8648L6.1352 8.96497C6.04701 9.29511 6 9.64206 6 10ZM10 2C10.5523 2 11 2.44772 11 3L11.0008 4.08309C13.5128 4.50488 15.4954 6.48757 15.917 8.99963L17 9C17.5523 9 18 9.44772 18 10C18 10.5523 17.5523 11 17 11L15.917 11.0004C15.8232 11.559 15.6523 12.0915 15.4154 12.5864L13.8646 11.0359C13.9529 10.7055 14 10.3582 14 10C14 7.79086 12.2091 6 10 6C9.64176 6 9.29452 6.04709 8.96413 6.13543L7.41359 4.58454C7.90869 4.34766 8.44134 4.17666 9.00019 4.08293L9 3C9 2.44772 9.44771 2 10 2Z" fill="black"/>
</svg>
