<svg width="20" height="20" viewBox="0 0 20 20" fill="none" xmlns="http://www.w3.org/2000/svg">
<path fill-rule="evenodd" clip-rule="evenodd" d="M11 2C11.2652 2 11.5196 2.10536 11.7071 2.29289L15.7071 6.29289C15.8946 6.48043 16 6.73478 16 7C16 7.55228 15.5523 8 15 8H11C10.4872 8 10.0645 7.61396 10.0067 7.11662L10 7L9.999 4H7C6.44772 4 6 4.44772 6 5V15C6 15.5128 6.38604 15.9355 6.88338 15.9933L7 16C7.55228 16 8 16.4477 8 17C8 17.5128 7.61396 17.9355 7.11662 17.9933L7 18C5.34315 18 4 16.6569 4 15V5C4 3.34315 5.34315 2 7 2H11ZM14 10C14.5523 10 15 10.4477 15 11V13H17C17.5523 13 18 13.4477 18 14C18 14.5523 17.5523 15 17 15H15V17C15 17.5523 14.5523 18 14 18C13.4477 18 13 17.5523 13 17V15H11C10.4477 15 10 14.5523 10 14C10 13.4477 10.4477 13 11 13H13V11C13 10.4477 13.4477 10 14 10Z" fill="black"/>
</svg>
