<svg width="20" height="20" viewBox="0 0 20 20" fill="none" xmlns="http://www.w3.org/2000/svg">
<path fill-rule="evenodd" clip-rule="evenodd" d="M2 10C2 5.58172 5.58172 2 10 2C14.4183 2 18 5.58172 18 10C18 14.4183 14.4183 18 10 18C5.58172 18 2 14.4183 2 10ZM4 10C4 13.3137 6.68629 16 10 16C13.3137 16 16 13.3137 16 10C16 6.68629 13.3137 4 10 4C6.68629 4 4 6.68629 4 10ZM7 9C6.44772 9 6 9.44772 6 10C6 10.5523 6.44772 11 7 11H10.584L10.2929 11.2929L10.2097 11.3871C9.90468 11.7794 9.93241 12.3466 10.2929 12.7071C10.6834 13.0976 11.3166 13.0976 11.7071 12.7071L13.7071 10.7071L13.7803 10.6254L13.854 10.5207L13.9063 10.4232L13.9503 10.3121L13.9798 10.2007L13.9972 10.0752L14 10L13.9931 9.8819L13.9642 9.73401L13.9288 9.62866L13.8753 9.51594L13.8037 9.40469L13.7485 9.33685L13.7071 9.29289L11.7071 7.29289L11.6129 7.2097C11.2206 6.90468 10.6534 6.93241 10.2929 7.29289L10.2097 7.3871L10.1404 7.4886C9.91161 7.87249 9.96245 8.37666 10.2929 8.70711L10.586 9H7Z" fill="black"/>
</svg>
