<svg width="20" height="20" viewBox="0 0 20 20" fill="none" xmlns="http://www.w3.org/2000/svg">
<path fill-rule="evenodd" clip-rule="evenodd" d="M13 4H5C3.34315 4 2 5.34315 2 7V13C2 14.6569 3.34315 16 5 16H13L13.1763 15.9949C14.4011 15.9239 15.4288 15.1181 15.8251 14.0118L15.873 13.864L16.0293 13.8125C17.193 13.3847 18 12.2823 18 11V9L17.9949 8.82373C17.9239 7.59888 17.1181 6.57117 16.0118 6.1749L15.864 6.126L15.8125 5.97065C15.3847 4.80702 14.2823 4 13 4ZM5 6H13C13.5243 6 13.9589 6.40547 13.9972 6.92431L14.0007 7.03673C14.019 7.53595 14.4011 7.93862 14.8863 7.9936L15 8C15.5523 8 16 8.44772 16 9V11C16 11.5243 15.5945 11.9589 15.0757 11.9972L14.9633 12.0007C14.464 12.019 14.0614 12.4011 14.0064 12.8863L14 13C14 13.5523 13.5523 14 13 14H5C4.44772 14 4 13.5523 4 13V7C4 6.44772 4.44772 6 5 6Z" fill="black"/>
</svg>
