<svg width="20" height="20" viewBox="0 0 20 20" fill="none" xmlns="http://www.w3.org/2000/svg">
<path fill-rule="evenodd" clip-rule="evenodd" d="M6 3C6 3.47339 5.67107 3.86995 5.22929 3.97359L5.11662 3.99327L5 4H4V5L3.99327 5.11662C3.94439 5.53745 3.63425 5.87858 3.22929 5.97359L3.11662 5.99327L3 6L2.88338 5.99327C2.46255 5.94439 2.12142 5.63425 2.02641 5.22929L2.00673 5.11662L2 5V3L2.00673 2.88338C2.05561 2.46255 2.36575 2.12142 2.77071 2.02641L2.88338 2.00673L3 2H5L5.11662 2.00673C5.61396 2.06449 6 2.48716 6 3ZM6 17C6 17.4734 5.67107 17.8699 5.22929 17.9736L5.11662 17.9933L5 18H3L2.88338 17.9933L2.77071 17.9736C2.40624 17.8881 2.11858 17.6032 2.02906 17.2403L2.00673 17.1166L2 17V15L2.00673 14.8834L2.02641 14.7707C2.11192 14.4062 2.39679 14.1186 2.75969 14.0291L2.88338 14.0067L3 14L3.11662 14.0067L3.22929 14.0264C3.59376 14.1119 3.88142 14.3968 3.97094 14.7597L3.99327 14.8834L4 15V16H5L5.11662 16.0067L5.22929 16.0264C5.67107 16.1301 6 16.5266 6 17ZM18 10C18 10.5523 17.5523 11 17 11H3C2.44772 11 2 10.5523 2 10C2 9.44772 2.44772 9 3 9H17C17.5523 9 18 9.44772 18 10ZM12 3C12 3.55228 11.5523 4 11 4H9C8.44772 4 8 3.55228 8 3C8 2.44772 8.44772 2 9 2H11C11.5523 2 12 2.44772 12 3ZM12 17C12 17.5523 11.5523 18 11 18H9C8.44772 18 8 17.5523 8 17C8 16.4477 8.44772 16 9 16H11C11.5523 16 12 16.4477 12 17ZM18 5L17.9933 5.11662C17.94 5.5757 17.5757 5.93995 17.1166 5.99327L17 6L16.8834 5.99327C16.4243 5.93995 16.06 5.5757 16.0067 5.11662L16 5V4H15L14.8834 3.99327C14.386 3.93551 14 3.51284 14 3C14 2.48716 14.386 2.06449 14.8834 2.00673L15 2H17L17.1166 2.00673C17.5757 2.06005 17.94 2.4243 17.9933 2.88338L18 3V5ZM18 17L17.9933 17.1166C17.9444 17.5374 17.6343 17.8786 17.2293 17.9736L17.1166 17.9933L17 18H15L14.8834 17.9933C14.386 17.9355 14 17.5128 14 17C14 16.5266 14.3289 16.1301 14.7707 16.0264L14.8834 16.0067L15 16H16V15L16.0067 14.8834C16.0556 14.4626 16.3657 14.1214 16.7707 14.0264L16.8834 14.0067L17 14L17.1166 14.0067C17.5374 14.0556 17.8786 14.3657 17.9736 14.7707L17.9933 14.8834L18 15V17Z" fill="black"/>
</svg>
