<svg width="20" height="20" viewBox="0 0 20 20" fill="none" xmlns="http://www.w3.org/2000/svg">
<path fill-rule="evenodd" clip-rule="evenodd" d="M15 4C16.6569 4 18 5.34315 18 7V8C18 8.51284 17.614 8.93551 17.1166 8.99327L16.8834 9.00673C16.386 9.06449 16 9.48716 16 10C16 10.5128 16.386 10.9355 16.8834 10.9933L17.1166 11.0067C17.614 11.0645 18 11.4872 18 12V13C18 14.6569 16.6569 16 15 16H5C3.34315 16 2 14.6569 2 13V12C2 11.4872 2.38604 11.0645 2.88338 11.0067L3.11662 10.9933C3.61396 10.9355 4 10.5128 4 10C4 9.48716 3.61396 9.06449 3.11662 9.00673L2.88338 8.99327C2.38604 8.93551 2 8.51284 2 8V7C2 5.34315 3.34315 4 5 4H15ZM16 7C16 6.44772 15.5523 6 15 6H5C4.44772 6 4 6.44772 4 7V7.17071C5.16519 7.58254 6 8.69378 6 10C6 11.3062 5.16519 12.4175 4 12.8293V13C4 13.5523 4.44772 14 5 14H15C15.5523 14 16 13.5523 16 13V12.8293C14.8348 12.4175 14 11.3062 14 10C14 8.75909 14.7534 7.69415 15.8278 7.23766L16 7.17071V7Z" fill="black"/>
</svg>
