<svg width="20" height="20" viewBox="0 0 20 20" fill="none" xmlns="http://www.w3.org/2000/svg">
<path fill-rule="evenodd" clip-rule="evenodd" d="M3 2H6C7.59768 2 8.90366 3.24892 8.99491 4.82373L9 5V8C9 8.3913 8.77237 8.74269 8.42419 8.90561L8.31623 8.94868L6.07516 9.69571L6.31438 10.0522C7.29343 11.4643 8.5357 12.7066 9.94779 13.6856L10.3043 13.9248L11.0513 11.6838C11.1751 11.3126 11.5021 11.0512 11.884 11.0067L12 11H15C16.5977 11 17.9037 12.2489 17.9949 13.8237L18 14V17C18 17.5523 17.5523 18 17 18C9.14528 18 2 10.8547 2 3C2 2.48716 2.38604 2.06449 2.88338 2.00673L3 2ZM15 13H12.7208L12.0866 14.9024L12.503 15.0828C13.4813 15.4863 14.5045 15.7677 15.5504 15.9048L16 15.9546V14C16 13.4477 15.5523 13 15 13ZM13 6C13.5523 6 14 6.44772 14 7C14 7.55228 13.5523 8 13 8C12.4477 8 12 7.55228 12 7C12 6.44772 12.4477 6 13 6ZM13 2C15.7614 2 18 4.23858 18 7C18 7.55228 17.5523 8 17 8C16.4872 8 16.0645 7.61396 16.0067 7.11662L15.9949 6.82373C15.9037 5.24892 14.5977 4 13 4C12.4477 4 12 3.55228 12 3C12 2.44772 12.4477 2 13 2ZM6 4H4.04542C4.15435 5.20218 4.45609 6.37898 4.91723 7.49696L5.09757 7.91338L7 7.27924V5C7 4.44772 6.55228 4 6 4Z" fill="black"/>
</svg>
