<svg width="20" height="20" viewBox="0 0 20 20" fill="none" xmlns="http://www.w3.org/2000/svg">
<path fill-rule="evenodd" clip-rule="evenodd" d="M6.5 15C7.32843 15 8 15.6716 8 16.5C8 17.3284 7.32843 18 6.5 18C5.67157 18 5 17.3284 5 16.5C5 15.6716 5.67157 15 6.5 15ZM13.5 15C14.3284 15 15 15.6716 15 16.5C15 17.3284 14.3284 18 13.5 18C12.6716 18 12 17.3284 12 16.5C12 15.6716 12.6716 15 13.5 15ZM3 2H5C5.51284 2 5.93551 2.38604 5.99327 2.88338L6 3V4H17C17.6253 4 18.087 4.56329 17.987 5.16215L17.9615 5.27472L16.376 10.8242C16.0247 12.0535 14.9362 12.9185 13.673 12.9945L13.4914 13H7C5.40232 13 4.09634 11.7511 4.00509 10.1763L4 10V4H3C2.44772 4 2 3.55228 2 3C2 2.48716 2.38604 2.06449 2.88338 2.00673L3 2H5H3ZM15.6743 6H6V10C6 10.5128 6.38604 10.9355 6.88338 10.9933L7 11H13.4914C13.8973 11 14.2585 10.7554 14.4129 10.3884L14.4529 10.2747L15.6743 6Z" fill="black"/>
</svg>
