<svg width="20" height="20" viewBox="0 0 20 20" fill="none" xmlns="http://www.w3.org/2000/svg">
<path fill-rule="evenodd" clip-rule="evenodd" d="M10.4776 6H15C16.6569 6 18 7.34315 18 9V13C18 14.6569 16.6569 16 15 16H5C3.34315 16 2 14.6569 2 13V7C2 5.34315 3.34315 4 5 4H8.38367C8.68571 4 8.97157 4.13652 9.16143 4.37144L10.4776 6ZM7.90609 6H5C4.44772 6 4 6.44772 4 7V13C4 13.5523 4.44772 14 5 14H15C15.5523 14 16 13.5523 16 13V9C16 8.44772 15.5523 8 15 8H10C9.69795 8 9.41209 7.86348 9.22224 7.62856L7.90609 6Z" fill="black"/>
</svg>
