<svg width="20" height="20" viewBox="0 0 20 20" fill="none" xmlns="http://www.w3.org/2000/svg">
<path fill-rule="evenodd" clip-rule="evenodd" d="M9.55472 15.9827L6.09222 17.885C5.62452 18.1419 5.04604 17.954 4.80016 17.4652C4.70225 17.2706 4.66846 17.0477 4.70403 16.831L5.36531 12.8019C5.41854 12.4775 5.31564 12.1466 5.09015 11.9169L2.28893 9.06349C1.91055 8.67806 1.90281 8.04507 2.27163 7.64966C2.4185 7.49221 2.61095 7.38974 2.81917 7.35812L6.69037 6.77028C7.00199 6.72296 7.27137 6.51843 7.41074 6.22335L9.14199 2.55755C9.37584 2.06239 9.94953 1.85909 10.4234 2.10347C10.612 2.20078 10.7648 2.36038 10.8579 2.55755L12.5891 6.22335C12.7285 6.51843 12.9979 6.72296 13.3095 6.77028L17.1807 7.35812C17.7036 7.43752 18.0659 7.94487 17.9899 8.49131C17.9597 8.70891 17.8616 8.91001 17.7109 9.06349L14.9097 11.9169C14.6842 12.1466 14.5813 12.4775 14.6346 12.8019L15.2958 16.831C15.3852 17.3752 15.0354 17.8921 14.5146 17.9854C14.3072 18.0226 14.0939 17.9873 13.9077 17.885L10.4452 15.9827C10.1664 15.8295 9.83345 15.8295 9.55472 15.9827Z" fill="black"/>
</svg>
