<svg width="20" height="20" viewBox="0 0 20 20" fill="none" xmlns="http://www.w3.org/2000/svg">
<path fill-rule="evenodd" clip-rule="evenodd" d="M2.00492 6.08762L2.46284 10.2092C2.70591 12.3969 3.93628 14.3533 5.8028 15.52L9.576 17.8784C9.83542 18.0405 10.1646 18.0405 10.424 17.8784L14.1972 15.52C16.0637 14.3533 17.2941 12.3969 17.5372 10.2092L17.9951 6.08762C18.0336 5.74117 17.8433 5.40967 17.5248 5.26814L10.3248 2.06892C10.118 1.97703 9.88198 1.97703 9.67517 2.06892L2.4752 5.26814C2.15666 5.40967 1.96643 5.74117 2.00492 6.08762ZM4.08963 6.73933L10 4.11313L15.9104 6.73933L15.5494 9.98833C15.3738 11.5684 14.4852 12.9814 13.1372 13.824L10 15.7849L6.86285 13.824C5.51479 12.9814 4.62617 11.5684 4.45061 9.98833L4.08963 6.73933Z" fill="black"/>
</svg>
