<svg width="20" height="20" viewBox="0 0 20 20" fill="none" xmlns="http://www.w3.org/2000/svg">
<path fill-rule="evenodd" clip-rule="evenodd" d="M16 8C16.5523 8 17 8.44772 17 9C17 12.5261 14.3928 15.4433 11.001 15.929L11 17C11 17.5523 10.5523 18 10 18C9.44772 18 9 17.5523 9 17L8.99999 15.9291C5.6077 15.4439 3 12.5265 3 9C3 8.44772 3.44772 8 4 8C4.55228 8 5 8.44772 5 9C5 11.7614 7.23858 14 10 14C12.7614 14 15 11.7614 15 9C15 8.44772 15.4477 8 16 8ZM10 2C11.6569 2 13 3.34315 13 5V9C13 10.6569 11.6569 12 10 12C8.34315 12 7 10.6569 7 9V5C7 3.34315 8.34315 2 10 2ZM10 4C9.44772 4 9 4.44772 9 5V9C9 9.55228 9.44772 10 10 10C10.5523 10 11 9.55228 11 9V5C11 4.44772 10.5523 4 10 4Z" fill="black"/>
</svg>
