<svg width="20" height="20" viewBox="0 0 20 20" fill="none" xmlns="http://www.w3.org/2000/svg">
<path fill-rule="evenodd" clip-rule="evenodd" d="M13.2 2C13.4122 2 13.6157 2.08429 13.7657 2.23431L17.7657 6.23431C17.9157 6.38434 18 6.58783 18 6.8V12.4C18 12.5871 17.9344 12.7684 17.8146 12.9121L13.8146 17.7121C13.6626 17.8945 13.4374 18 13.2 18H6.8C6.58783 18 6.38434 17.9157 6.23431 17.7657L2.23431 13.7657C2.08429 13.6157 2 13.4122 2 13.2V6.8C2 6.58783 2.08429 6.38434 2.23431 6.23431L6.23431 2.23431C6.38434 2.08429 6.58783 2 6.8 2H13.2ZM10 13C9.44772 13 9 13.4477 9 14C9 14.5523 9.44772 15 10 15C10.5523 15 11 14.5523 11 14C11 13.4477 10.5523 13 10 13ZM10 5C9.48716 5 9.06449 5.38604 9.00673 5.88338L9 6V10C9 10.5523 9.44772 11 10 11C10.5128 11 10.9355 10.614 10.9933 10.1166L11 10V6C11 5.44772 10.5523 5 10 5Z" fill="black"/>
</svg>
