<svg width="20" height="20" viewBox="0 0 20 20" fill="none" xmlns="http://www.w3.org/2000/svg">
<path fill-rule="evenodd" clip-rule="evenodd" d="M9 2C12.866 2 16 5.13401 16 9C16 10.5764 15.4789 12.0311 14.5996 13.2012L14.6545 13.2441L14.7071 13.2929L17.7071 16.2929C18.0976 16.6834 18.0976 17.3166 17.7071 17.7071C17.3466 18.0676 16.7794 18.0953 16.3871 17.7903L16.2929 17.7071L13.2929 14.7071C13.2587 14.6729 13.2275 14.6368 13.1993 14.5992C12.031 15.4789 10.5764 16 9 16C5.13401 16 2 12.866 2 9C2 5.13401 5.13401 2 9 2ZM9 4C6.23858 4 4 6.23858 4 9C4 11.7614 6.23858 14 9 14C11.7614 14 14 11.7614 14 9C14 6.23858 11.7614 4 9 4ZM9 6C9.55228 6 10 6.44772 10 7V8H11C11.5523 8 12 8.44772 12 9C12 9.55228 11.5523 10 11 10H10V11C10 11.5523 9.55228 12 9 12C8.44772 12 8 11.5523 8 11V10H7C6.44772 10 6 9.55228 6 9C6 8.44772 6.44772 8 7 8H8V7C8 6.44772 8.44772 6 9 6Z" fill="black"/>
</svg>
