<svg width="20" height="20" viewBox="0 0 20 20" fill="none" xmlns="http://www.w3.org/2000/svg">
<path fill-rule="evenodd" clip-rule="evenodd" d="M10 2C14.4183 2 18 5.58172 18 10C18 14.4183 14.4183 18 10 18C5.58172 18 2 14.4183 2 10C2 5.58172 5.58172 2 10 2ZM14.8688 6.49284L14.8596 6.5114L14.7903 6.6129L14.7071 6.70711L6.70711 14.7071C6.6423 14.7719 6.57081 14.826 6.49485 14.8693C7.48024 15.5809 8.69118 16 10 16C13.3137 16 16 13.3137 16 10C16 8.79137 15.6426 7.66621 15.0278 6.72442L14.8688 6.49284ZM9.00019 4.08293C6.16238 4.55893 4 7.02694 4 10C4 11.3088 4.41907 12.5198 5.13034 13.506C5.15947 13.4548 5.1932 13.4059 5.23165 13.3599L5.29289 13.2929L9.06124 9.52389C9.03549 9.47301 9.01734 9.41945 9.00779 9.36395L9 9.27273L9.00019 4.08293ZM11.0008 4.08309L11 7.584L13.2929 5.29289C13.3577 5.22808 13.4292 5.17403 13.5052 5.13073C12.7769 4.60447 11.9247 4.23822 11.0008 4.08309Z" fill="black"/>
</svg>
