<svg width="20" height="20" viewBox="0 0 20 20" fill="none" xmlns="http://www.w3.org/2000/svg">
<path fill-rule="evenodd" clip-rule="evenodd" d="M4.98426 9.00012C5.49704 8.99205 5.92573 9.37139 5.99132 9.86776L5.99988 9.98426L6.00221 10.1404C6.07041 12.3036 7.70469 14 9.66613 14C9.94481 14 10.2187 13.9662 10.4846 13.9L10.2929 13.7071C9.90237 13.3166 9.90237 12.6834 10.2929 12.2929C10.6834 11.9024 11.3166 11.9024 11.7071 12.2929L13.7071 14.2929C14.0976 14.6834 14.0976 15.3166 13.7071 15.7071L11.7071 17.7071C11.3166 18.0976 10.6834 18.0976 10.2929 17.7071C9.90237 17.3166 9.90237 16.6834 10.2929 16.2929L10.6823 15.9037C10.3493 15.9675 10.0096 16 9.66613 16C6.6662 16 4.22335 13.5384 4.01413 10.4172L4.00283 10.1876L4.00013 10.0157C3.99143 9.46352 4.43205 9.00882 4.98426 9.00012ZM9.70711 2.29289C10.0676 2.65338 10.0953 3.22061 9.7903 3.6129L9.70711 3.70711L9.31759 4.09625C9.6504 4.03244 9.99003 4 10.3334 4C13.479 4 16 6.70112 16 10C16 10.5523 15.5523 11 15 11C14.4477 11 14 10.5523 14 10C14 7.77603 12.3424 6 10.3334 6C10.0548 6 9.78099 6.03374 9.51514 6.09988L9.70711 6.29289C10.0976 6.68342 10.0976 7.31658 9.70711 7.70711C9.34663 8.06759 8.77939 8.09532 8.3871 7.7903L8.2929 7.70711L6.2929 5.70711C5.93241 5.34662 5.90468 4.77939 6.20971 4.3871L6.2929 4.29289L8.2929 2.29289C8.68342 1.90237 9.31659 1.90237 9.70711 2.29289Z" fill="black"/>
</svg>
