<svg width="20" height="20" viewBox="0 0 20 20" fill="none" xmlns="http://www.w3.org/2000/svg">
<path fill-rule="evenodd" clip-rule="evenodd" d="M9 10C9 11.3063 8.16515 12.4175 6.99991 12.8293L7 17C7 17.5523 6.55228 18 6 18C5.44772 18 5 17.5523 5 17L4.9991 12.829C3.83438 12.4169 3 11.3059 3 10C3 8.69412 3.83438 7.58312 4.9991 7.17102L5 3C5 2.44772 5.44772 2 6 2C6.55228 2 7 2.44772 7 3L6.99991 7.17067C8.16515 7.58249 9 8.69375 9 10ZM7 10C7 9.44772 6.55228 9 6 9C5.44772 9 5 9.44772 5 10C5 10.5523 5.44772 11 6 11C6.55228 11 7 10.5523 7 10ZM17 15C17 16.6569 15.6569 18 14 18C12.3431 18 11 16.6569 11 15C11 13.6941 11.8344 12.5831 12.9991 12.171L13 3C13 2.44772 13.4477 2 14 2C14.5523 2 15 2.44772 15 3L14.9999 12.1707C16.1651 12.5825 17 13.6937 17 15ZM15 15C15 14.4477 14.5523 14 14 14C13.4477 14 13 14.4477 13 15C13 15.5523 13.4477 16 14 16C14.5523 16 15 15.5523 15 15Z" fill="black"/>
</svg>
