<svg width="20" height="20" viewBox="0 0 20 20" fill="none" xmlns="http://www.w3.org/2000/svg">
<path fill-rule="evenodd" clip-rule="evenodd" d="M13.0685 6.36563C12.2425 5.57786 11.1402 5.1487 9.99973 5.16633C7.91272 5.16633 6.14022 6.57433 5.50824 8.47028C5.17314 9.46382 5.17314 10.5397 5.50824 11.5332L5.51118 11.5332C6.1461 13.4262 7.91566 14.8342 10.0027 14.8342C11.08 14.8342 12.0049 14.5587 12.7217 14.0719V14.0699C13.5653 13.5115 14.1414 12.6326 14.3207 11.639H9.99973V8.55847H17.5453C17.6394 9.09345 17.6835 9.64019 17.6835 10.184C17.6835 12.6171 16.8139 14.6743 15.3009 16.0675L15.3025 16.0688C13.9768 17.2916 12.1573 18 9.99973 18C6.97503 18 4.209 16.2951 2.85097 13.5938C1.71634 11.3333 1.71634 8.67017 2.85097 6.40972C4.209 3.70542 6.97503 2.00054 9.99973 2.00054C11.9868 1.97702 13.9063 2.72365 15.3525 4.08167L13.0685 6.36563Z" fill="black"/>
</svg>
