<svg width="20" height="20" viewBox="0 0 20 20" fill="none" xmlns="http://www.w3.org/2000/svg">
<path fill-rule="evenodd" clip-rule="evenodd" d="M10 2C14.4183 2 18 5.58172 18 10C18 14.4183 14.4183 18 10 18C5.58172 18 2 14.4183 2 10C2 5.58172 5.58172 2 10 2ZM10 4C6.68629 4 4 6.68629 4 10C4 13.3137 6.68629 16 10 16C13.3137 16 16 13.3137 16 10C16 6.68629 13.3137 4 10 4ZM9.50387 6.13622L13.5039 9.13622C14.1265 9.4994 14.1631 10.3674 13.6137 10.79L9.50387 13.8638C8.83721 14.2527 8 13.7718 8 13V7C8 6.22821 8.83721 5.74734 9.50387 6.13622Z" fill="black"/>
</svg>
