<svg width="20" height="20" viewBox="0 0 20 20" fill="none" xmlns="http://www.w3.org/2000/svg">
<path fill-rule="evenodd" clip-rule="evenodd" d="M17 12C17.5128 12 17.9355 12.386 17.9933 12.8834L18 13V15C18 16.5977 16.7511 17.9037 15.1763 17.9949L15 18H5C3.40232 18 2.09634 16.7511 2.00509 15.1763L2 15V13C2 12.4477 2.44772 12 3 12C3.51284 12 3.93551 12.386 3.99327 12.8834L4 13V15C4 15.5128 4.38604 15.9355 4.88338 15.9933L5 16H15C15.5128 16 15.9355 15.614 15.9933 15.1166L16 15V13C16 12.4477 16.4477 12 17 12ZM10 2C10.5523 2 11 2.44772 11 3V10.585L12.2929 9.29289C12.6534 8.93241 13.2206 8.90468 13.6129 9.2097L13.7071 9.29289C14.0676 9.65338 14.0953 10.2206 13.7903 10.6129L13.7071 10.7071L10.7071 13.7071C10.3466 14.0676 9.77939 14.0953 9.3871 13.7903L9.29289 13.7071L6.29289 10.7071C5.90237 10.3166 5.90237 9.68342 6.29289 9.29289C6.65338 8.93241 7.22061 8.90468 7.6129 9.2097L7.70711 9.29289L9 10.585V3C9 2.44772 9.44772 2 10 2Z" fill="black"/>
</svg>
