<svg width="20" height="20" viewBox="0 0 20 20" fill="none" xmlns="http://www.w3.org/2000/svg">
<path fill-rule="evenodd" clip-rule="evenodd" d="M10 4.99998V15C10 15.824 9.05924 16.2944 8.4 15.8L4.66667 13H3C2.44772 13 2 12.5523 2 12V7.99998C2 7.4477 2.44772 6.99998 3 6.99998H4.66667L8.4 4.19998C9.05924 3.70556 10 4.17594 10 4.99998ZM13.7071 7.29288L15 8.58498L16.2929 7.29288C16.6534 6.93239 17.2206 6.90466 17.6129 7.20969L17.7071 7.29288C18.0676 7.65336 18.0953 8.22059 17.7903 8.61288L17.7071 8.70709L16.415 9.99998L17.7071 11.2929C18.0976 11.6834 18.0976 12.3166 17.7071 12.7071C17.3166 13.0976 16.6834 13.0976 16.2929 12.7071L15 11.415L13.7071 12.7071C13.3466 13.0676 12.7794 13.0953 12.3871 12.7903L12.2929 12.7071C11.9324 12.3466 11.9047 11.7794 12.2097 11.3871L12.2929 11.2929L13.585 9.99998L12.2929 8.70709C11.9024 8.31657 11.9024 7.6834 12.2929 7.29288C12.6834 6.90235 13.3166 6.90235 13.7071 7.29288ZM8 6.99998L5.6 8.79998C5.4269 8.92981 5.21637 8.99998 5 8.99998H4V11H5C5.21637 11 5.4269 11.0702 5.6 11.2L8 13V6.99998Z" fill="black"/>
</svg>
