<svg width="20" height="20" viewBox="0 0 20 20" fill="none" xmlns="http://www.w3.org/2000/svg">
<path fill-rule="evenodd" clip-rule="evenodd" d="M8.31623 8.94868C8.72457 8.81257 9 8.43043 9 8V5C9 3.34315 7.65685 2 6 2H3C2.44772 2 2 2.44772 2 3C2 10.8547 9.14528 18 17 18C17.5523 18 18 17.5523 18 17V14C18 12.3431 16.6569 11 15 11H12C11.5696 11 11.1874 11.2754 11.0513 11.6838L10.3043 13.9248C8.74458 12.9124 7.37501 11.582 6.31438 10.0522L6.07516 9.69571L8.31623 8.94868ZM12.7208 13H15C15.5523 13 16 13.4477 16 14V15.9546C14.7978 15.8457 13.621 15.5439 12.503 15.0828L12.0866 14.9024L12.7208 13ZM17 2C17.5523 2 18 2.44772 18 3V7C18 7.55228 17.5523 8 17 8C16.4477 8 16 7.55228 16 7V3C16 2.44772 16.4477 2 17 2ZM13 2C13.5523 2 14 2.44772 14 3V7C14 7.55228 13.5523 8 13 8C12.4477 8 12 7.55228 12 7V3C12 2.44772 12.4477 2 13 2ZM6 4C6.55228 4 7 4.44772 7 5V7.27924L5.09757 7.91338C4.53454 6.67278 4.16796 5.35246 4.04542 4H6Z" fill="black"/>
</svg>
