<svg width="20" height="20" viewBox="0 0 20 20" fill="none" xmlns="http://www.w3.org/2000/svg">
<path fill-rule="evenodd" clip-rule="evenodd" d="M9 2C9.55228 2 10 2.44772 10 3C10 3.55228 9.55228 4 9 4H5C4.44772 4 4 4.44772 4 5V12.697L6.18627 9.41876C6.50017 8.9793 7.09949 8.87371 7.54124 9.15898L7.64018 9.23178L12.7853 13.5193L14.744 10H17C17.5523 10 18 10.4477 18 11V15C18 16.6569 16.6569 18 15 18H5C3.34315 18 2 16.6569 2 15V5C2 3.34315 3.34315 2 5 2H9ZM6.5 5C7.32843 5 8 5.67157 8 6.5C8 7.32843 7.32843 8 6.5 8C5.67157 8 5 7.32843 5 6.5C5 5.67157 5.67157 5 6.5 5ZM15 2C15.5523 2 16 2.44772 16 3V4H17C17.5523 4 18 4.44772 18 5C18 5.55228 17.5523 6 17 6H16V7C16 7.55228 15.5523 8 15 8C14.4477 8 14 7.55228 14 7V6H13C12.4477 6 12 5.55228 12 5C12 4.44772 12.4477 4 13 4H14V3C14 2.44772 14.4477 2 15 2Z" fill="black"/>
</svg>
