<svg width="20" height="20" viewBox="0 0 20 20" fill="none" xmlns="http://www.w3.org/2000/svg">
<path fill-rule="evenodd" clip-rule="evenodd" d="M5 4H12.0801C12.9559 4 13.788 4.38269 14.3579 5.04763L17.7593 9.34921C18.0802 9.7237 18.0802 10.2763 17.7593 10.6508L14.3579 14.9524C13.788 15.6173 12.9559 16 12.0801 16H5C3.34315 16 2 14.6569 2 13V7C2 5.34315 3.34315 4 5 4ZM15.6829 10L12.8394 6.34921C12.6494 6.12756 12.3721 6 12.0801 6H5C4.44772 6 4 6.44772 4 7V13C4 13.5523 4.44772 14 5 14H12.0801C12.3721 14 12.6494 13.8724 12.8394 13.6508L15.6829 10Z" fill="black"/>
</svg>
