<svg width="20" height="20" viewBox="0 0 20 20" fill="none" xmlns="http://www.w3.org/2000/svg">
<path fill-rule="evenodd" clip-rule="evenodd" d="M6 14.585L6.29289 14.2929C6.65338 13.9324 7.22061 13.9047 7.6129 14.2097L7.70711 14.2929C8.06759 14.6534 8.09532 15.2206 7.7903 15.6129L7.70711 15.7071L5.70711 17.7071L5.66315 17.7485L5.59531 17.8037L5.48406 17.8753L5.4231 17.9063L5.34165 17.9401L5.26599 17.9642L5.11747 17.9932L5 18L4.918 17.996L4.79927 17.9798L4.68786 17.9503L4.57678 17.9063L4.47929 17.854L4.40484 17.8037L4.29289 17.7071L2.29289 15.7071C1.90237 15.3166 1.90237 14.6834 2.29289 14.2929C2.65338 13.9324 3.22061 13.9047 3.6129 14.2097L3.70711 14.2929L4 14.585V5.415L3.70711 5.70711L3.6129 5.7903C3.22061 6.09532 2.65338 6.06759 2.29289 5.70711C1.93241 5.34662 1.90468 4.77939 2.2097 4.3871L2.29289 4.29289L4.29289 2.29289L4.40484 2.19631L4.47929 2.146L4.57678 2.09367L4.68786 2.04974L4.79927 2.02024L4.918 2.004L5 2L5.11747 2.00683L5.26599 2.03585L5.34165 2.05989L5.4231 2.09365L5.48406 2.12467L5.59531 2.19633L5.66315 2.2515L5.70711 2.29289L7.70711 4.29289L7.7903 4.3871C8.0699 4.7467 8.0699 5.2533 7.7903 5.6129L7.70711 5.70711L7.6129 5.7903C7.2533 6.0699 6.7467 6.0699 6.3871 5.7903L6.29289 5.70711L6 5.415V14.585ZM17 15C17.5523 15 18 15.4477 18 16C18 16.5523 17.5523 17 17 17H11C10.4477 17 10 16.5523 10 16C10 15.4477 10.4477 15 11 15H17ZM17 9C17.5523 9 18 9.44772 18 10C18 10.5523 17.5523 11 17 11H11C10.4477 11 10 10.5523 10 10C10 9.44772 10.4477 9 11 9H17ZM17 3C17.5523 3 18 3.44772 18 4C18 4.55228 17.5523 5 17 5H11C10.4477 5 10 4.55228 10 4C10 3.44772 10.4477 3 11 3H17Z" fill="black"/>
</svg>
