<svg width="20" height="20" viewBox="0 0 20 20" fill="none" xmlns="http://www.w3.org/2000/svg">
<path fill-rule="evenodd" clip-rule="evenodd" d="M8 4.37319L10 5.14831L12 4.37319C13.2839 3.8756 14.7161 3.8756 16 4.37319L17.4971 4.95341C17.8008 5.07112 18 5.35614 18 5.67309V14.8551C18 15.2832 17.6418 15.6302 17.2 15.6302C17.0982 15.6302 16.9974 15.6114 16.9029 15.5748L16 15.2249C14.7161 14.7273 13.2839 14.7273 12 15.2249L10 16L8 15.2249C6.71612 14.7273 5.28388 14.7273 4 15.2249L3.09711 15.5748C2.68689 15.7338 2.22131 15.5405 2.05722 15.143C2.01942 15.0514 2 14.9537 2 14.8551V5.67309C2 5.35614 2.19916 5.07112 2.50289 4.95341L4 4.37319C5.28388 3.8756 6.71612 3.8756 8 4.37319ZM4.72274 6.23803L4 6.51814V13.1213C5.55164 12.6948 7.21146 12.7743 8.72274 13.36L9 13.468V7L9.005 6.908L7.27726 6.23803C6.45835 5.92066 5.54165 5.92066 4.72274 6.23803ZM12.7227 6.23803L10.9957 6.907L11 7V13.467L11.2773 13.36C12.7885 12.7743 14.4484 12.6948 16 13.1213V6.51814L15.2773 6.23803C14.4584 5.92066 13.5416 5.92066 12.7227 6.23803Z" fill="black"/>
</svg>
