<svg width="20" height="20" viewBox="0 0 20 20" fill="none" xmlns="http://www.w3.org/2000/svg">
<path fill-rule="evenodd" clip-rule="evenodd" d="M10 2C12.7614 2 15 4.14903 15 6.8V13.2C15 15.851 12.7614 18 10 18C7.23858 18 5 15.851 5 13.2V6.8C5 4.14903 7.23858 2 10 2ZM10 4C8.34315 4 7 5.34315 7 7V13C7 14.6569 8.34315 16 10 16C11.6569 16 13 14.6569 13 13V7C13 5.34315 11.6569 4 10 4ZM10 6C10.5523 6 11 6.44772 11 7V9C11 9.55228 10.5523 10 10 10C9.44772 10 9 9.55228 9 9V7C9 6.44772 9.44772 6 10 6Z" fill="black"/>
</svg>
