<svg width="20" height="20" viewBox="0 0 20 20" fill="none" xmlns="http://www.w3.org/2000/svg">
<path fill-rule="evenodd" clip-rule="evenodd" d="M4 2C4.55228 2 5 2.44772 5 3V17C5 17.5523 4.55228 18 4 18C3.44772 18 3 17.5523 3 17V3C3 2.44772 3.44772 2 4 2ZM16 4C16.5523 4 17 4.44772 17 5V15C17 15.5523 16.5523 16 16 16C15.4477 16 15 15.5523 15 15V5C15 4.44772 15.4477 4 16 4ZM8 5C8.55228 5 9 5.44772 9 6V14C9 14.5523 8.55228 15 8 15C7.44772 15 7 14.5523 7 14V6C7 5.44772 7.44772 5 8 5ZM12 8C12.5523 8 13 8.44772 13 9V11C13 11.5523 12.5523 12 12 12C11.4477 12 11 11.5523 11 11V9C11 8.44772 11.4477 8 12 8Z" fill="black"/>
</svg>
