<svg width="20" height="20" viewBox="0 0 20 20" fill="none" xmlns="http://www.w3.org/2000/svg">
<path fill-rule="evenodd" clip-rule="evenodd" d="M9 2C10.3837 2 11.5486 2.93681 11.8951 4.21078C12.2361 4.07468 12.6093 4 13 4H15C16.6569 4 18 5.34315 18 7V15C18 16.6569 16.6569 18 15 18H5C3.34315 18 2 16.6569 2 15V5C2 3.34315 3.34315 2 5 2H9ZM9 4H5C4.44772 4 4 4.44772 4 5V15C4 15.5523 4.44772 16 5 16H10V5C10 4.44772 9.55228 4 9 4ZM15 6H13C12.4477 6 12 6.44772 12 7V16H15C15.5523 16 16 15.5523 16 15V7C16 6.44772 15.5523 6 15 6ZM8 13C8.55228 13 9 13.4477 9 14C9 14.5523 8.55228 15 8 15H6C5.44772 15 5 14.5523 5 14C5 13.4477 5.44772 13 6 13H8ZM8 9C8.55228 9 9 9.44772 9 10C9 10.5523 8.55228 11 8 11H6C5.44772 11 5 10.5523 5 10C5 9.44772 5.44772 9 6 9H8ZM8 5C8.55228 5 9 5.44772 9 6C9 6.55228 8.55228 7 8 7H6C5.44772 7 5 6.55228 5 6C5 5.44772 5.44772 5 6 5H8Z" fill="black"/>
</svg>
