<svg width="20" height="20" viewBox="0 0 20 20" fill="none" xmlns="http://www.w3.org/2000/svg">
<path fill-rule="evenodd" clip-rule="evenodd" d="M17.9949 4.82373C17.9037 3.24892 16.5977 2 15 2H5L4.82373 2.00509C3.24892 2.09634 2 3.40232 2 5V13L2.00509 13.1763C2.09634 14.7511 3.40232 16 5 16H7V14H5L4.88338 13.9933C4.38604 13.9355 4 13.5128 4 13V6H16V13L15.9933 13.1166C15.9355 13.614 15.5128 14 15 14H13V16H15L15.1763 15.9949C16.7511 15.9037 18 14.5977 18 13V5L17.9949 4.82373ZM10.082 7.003L9.96675 7.00055L9.88253 7.00683L9.73401 7.03585L9.65835 7.05989L9.5769 7.09365L9.51594 7.12467L9.40469 7.19633L9.33685 7.2515L9.29289 7.29289L6.29289 10.2929L6.2097 10.3871C5.90468 10.7794 5.93241 11.3466 6.29289 11.7071L6.3871 11.7903C6.77939 12.0953 7.34662 12.0676 7.70711 11.7071L9 10.416V17C9 17.5523 9.44772 18 10 18C10.5523 18 11 17.5523 11 17V10.414L12.2929 11.7071L12.3871 11.7903C12.7794 12.0953 13.3466 12.0676 13.7071 11.7071C14.0976 11.3166 14.0976 10.6834 13.7071 10.2929L10.7071 7.29289L10.5952 7.19631L10.5207 7.146L10.4232 7.09367L10.3121 7.04974L10.2007 7.02024L10.082 7.003Z" fill="black"/>
</svg>
