<svg width="20" height="20" viewBox="0 0 20 20" fill="none" xmlns="http://www.w3.org/2000/svg">
<path fill-rule="evenodd" clip-rule="evenodd" d="M18 10C18 10.5523 17.5523 11 17 11H15C14.4477 11 14 10.5523 14 10C14 9.44772 14.4477 9 15 9H17C17.5523 9 18 9.44772 18 10ZM6 10C6 10.5523 5.55228 11 5 11H3C2.44772 11 2 10.5523 2 10C2 9.44772 2.44772 9 3 9H5C5.55228 9 6 9.44772 6 10ZM13 16C13 17.1046 12.1046 18 11 18H9C7.89543 18 7 17.1046 7 16V4C7 2.89543 7.89543 2 9 2H11C12.1046 2 13 2.89543 13 4V16Z" fill="black"/>
</svg>
