<svg width="20" height="20" viewBox="0 0 20 20" fill="none" xmlns="http://www.w3.org/2000/svg">
<path fill-rule="evenodd" clip-rule="evenodd" d="M10 4.99998V15C10 15.824 9.05924 16.2944 8.4 15.8L4.66667 13H3C2.44772 13 2 12.5523 2 12V7.99998C2 7.4477 2.44772 6.99998 3 6.99998H4.66667L8.4 4.19998C9.05924 3.70556 10 4.17594 10 4.99998ZM8 6.99998L5.6 8.79998C5.4269 8.92981 5.21637 8.99998 5 8.99998H4V11H5C5.21637 11 5.4269 11.0702 5.6 11.2L8 13V6.99998ZM11.1487 7.47529C11.4385 7.00514 12.0545 6.85891 12.5247 7.14869C13.4405 7.71316 14 8.80978 14 9.99998C14 11.1902 13.4405 12.2868 12.5247 12.8513C12.0545 13.1411 11.4385 12.9948 11.1487 12.5247C10.8796 12.0881 10.9865 11.5257 11.3796 11.2156L11.5627 11.0858C11.8174 10.8751 12 10.4702 12 9.99998C12 9.52976 11.8174 9.12492 11.5627 8.91416L11.3796 8.78436C10.9865 8.47424 10.8796 7.91187 11.1487 7.47529Z" fill="black"/>
</svg>
