<svg width="500" height="174" viewBox="0 0 500 174" fill="none" xmlns="http://www.w3.org/2000/svg">
    <path fill-rule="evenodd" clip-rule="evenodd"
          d="M500 132.716L479.167 145.988C458.333 159.26 416.667 185.803 375 168.107C333.333 150.412 291.667 88.4776 250 57.5104C208.333 26.5433 166.667 26.5433 125 44.2388C83.3334 61.9343 41.6667 97.3253 20.8333 115.021L3.60913e-06 132.716L1.52116e-05 -1.31938e-05L20.8334 -1.13725e-05C41.6667 -9.55119e-06 83.3334 -5.90858e-06 125 -2.26596e-06C166.667 1.37665e-06 208.333 5.01927e-06 250 8.66188e-06C291.667 1.23045e-05 333.333 1.59471e-05 375 1.95897e-05C416.667 2.32323e-05 458.333 2.6875e-05 479.167 2.86963e-05L500 3.05176e-05L500 132.716Z"
    />
</svg>
