<svg width="500" viewBox="0 0 500 299" fill="none" xmlns="http://www.w3.org/2000/svg">
<path fill-rule="evenodd" clip-rule="evenodd" d="M500 246.716L479.167 259.988C458.333 273.26 416.667 299.803 375 282.107C333.333 264.412 291.667 202.478 250 171.51C208.333 140.543 166.667 140.543 125 158.239C83.3334 175.934 41.6667 211.325 20.8333 229.021L1.55301e-05 246.716L2.71325e-05 114L20.8334 114C41.6667 114 83.3334 114 125 114C166.667 114 208.333 114 250 114C291.667 114 333.333 114 375 114C416.667 114 458.333 114 479.167 114L500 114L500 246.716Z" fill="#71D99E"/>
<path fill-rule="evenodd" clip-rule="evenodd" d="M500 257.716L479.167 270.988C458.333 284.26 416.667 310.803 375 293.107C333.333 275.412 291.667 213.478 250 182.51C208.333 151.543 166.667 151.543 125 169.239C83.3334 186.934 41.6667 222.325 20.8333 240.021L1.55301e-05 257.716L2.71325e-05 125L20.8334 125C41.6667 125 83.3334 125 125 125C166.667 125 208.333 125 250 125C291.667 125 333.333 125 375 125C416.667 125 458.333 125 479.167 125L500 125L500 257.716Z" fill="#71D99E" fill-opacity="0.13"/>
<path fill-rule="evenodd" clip-rule="evenodd" d="M0 192C0 192 16.3053 169.474 30 158.462C60.3367 134.069 83 120.733 125 128.279C167 135.825 208 113.187 250 116.206C292 120.733 333 150.916 375 161.48C417 173.554 458 166.008 479 161.48L500 158.462L500 4.37114e-05L479 4.18755e-05C458 4.00396e-05 417 3.64553e-05 375 3.27835e-05C333 2.91118e-05 292 2.55275e-05 250 2.18557e-05C208 1.81839e-05 167 1.45996e-05 125 1.09278e-05C83 7.25609e-06 42 3.67176e-06 21 1.83588e-06L1.67852e-05 0L0 192Z" fill="#A9E5C3"/>
</svg>
