<svg width="16" height="16" viewBox="0 0 16 16" fill="none" xmlns="http://www.w3.org/2000/svg">
<path fill-rule="evenodd" clip-rule="evenodd" d="M13 12C13.5523 12 14 12.4477 14 13C14 13.5523 13.5523 14 13 14H3C2.44772 14 2 13.5523 2 13C2 12.4477 2.44772 12 3 12H13ZM12 5C13.1046 5 14 5.89543 14 7V9C14 10.1046 13.1046 11 12 11H4C2.89543 11 2 10.1046 2 9V7C2 5.89543 2.89543 5 4 5H12ZM12 7H4V9H12V7ZM13 2C13.5523 2 14 2.44772 14 3C14 3.55228 13.5523 4 13 4H3C2.44772 4 2 3.55228 2 3C2 2.44772 2.44772 2 3 2H13Z" fill="black"/>
</svg>
