<svg width="16" height="16" viewBox="0 0 16 16" fill="none" xmlns="http://www.w3.org/2000/svg">
<path fill-rule="evenodd" clip-rule="evenodd" d="M5.99327 2.88338C5.93551 2.38604 5.51284 2 5 2C4.44772 2 4 2.44772 4 3V4H3C2.44772 4 2 4.44772 2 5C2 5.55228 2.44772 6 3 6H4V11L4.00673 11.1166C4.06449 11.614 4.48716 12 5 12H10V13C10 13.5523 10.4477 14 11 14C11.5523 14 12 13.5523 12 13V12H13L13.1166 11.9933C13.614 11.9355 14 11.5128 14 11L13.9933 10.8834C13.9355 10.386 13.5128 10 13 10H6V3L5.99327 2.88338ZM12 5C12 4.44772 11.5523 4 11 4H9C8.44772 4 8 4.44772 8 5C8 5.55228 8.44772 6 9 6H10V7C10 7.55228 10.4477 8 11 8C11.5523 8 12 7.55228 12 7V5Z" fill="black"/>
</svg>
