<svg width="16" height="16" viewBox="0 0 16 16" fill="none" xmlns="http://www.w3.org/2000/svg">
<path d="M9.82978 2C10.7561 2 11.6533 2.22329 12.4625 2.64535C12.9521 2.90076 13.142 3.50477 12.8866 3.99445C12.6312 4.48413 12.0272 4.67404 11.5375 4.41863C11.0118 4.14441 10.4316 4 9.82978 4C8.86096 4 7.97346 4.37694 7.29729 4.99964L9 5C9.55228 5 10 5.44772 10 6C10 6.55228 9.55228 7 9 7L6.12033 7.00077C6.04179 7.31993 6 7.65471 6 8C6 8.34565 6.04188 8.68076 6.12057 9.00022L9 9C9.55228 9 10 9.44772 10 10C10 10.5523 9.55228 11 9 11L7.29828 11.0013C7.97433 11.6234 8.86144 12 9.82978 12C10.4314 12 11.0115 11.8557 11.5371 11.5816C12.0268 11.3262 12.6308 11.5162 12.8862 12.0059C13.1415 12.4957 12.9515 13.0996 12.4618 13.355C11.6528 13.7768 10.7559 14 9.82978 14C7.66843 14 5.78753 12.792 4.78068 11.0011L3 11C2.44772 11 2 10.5523 2 10C2 9.44772 2.44772 9 3 9L4.08084 9.00091C4.02767 8.67531 4 8.34091 4 8C4 7.65944 4.02761 7.32538 4.08067 7.00008L3 7C2.44772 7 2 6.55228 2 6C2 5.44772 2.44772 5 3 5L4.78012 4.99994C5.78683 3.20846 7.66802 2 9.82978 2Z" fill="black"/>
</svg>
