<svg width="16" height="16" viewBox="0 0 16 16" fill="none" xmlns="http://www.w3.org/2000/svg">
<path fill-rule="evenodd" clip-rule="evenodd" d="M13 7C13.5523 7 14 7.44772 14 8C14 8.55228 13.5523 9 13 9H12V11C12 11.5523 11.5523 12 11 12C10.4477 12 10 11.5523 10 11V9H9C8.44772 9 8 8.55228 8 8C8 7.44772 8.44772 7 9 7H13ZM9 4C9.55228 4 10 4.44772 10 5C10 5.55228 9.55228 6 9 6H7V11C7 11.5523 6.55228 12 6 12C5.44772 12 5 11.5523 5 11V6H3C2.44772 6 2 5.55228 2 5C2 4.44772 2.44772 4 3 4H9Z" fill="black"/>
</svg>
