<svg width="16" height="16" viewBox="0 0 16 16" fill="none" xmlns="http://www.w3.org/2000/svg">
<path d="M6 11C6.85217 11 7.29743 10.0145 6.78323 9.37746L6.70711 9.29288L6.02603 8.61035C6.64945 8.24359 7.51432 7.99999 8.5 7.99999C10.4269 7.99999 11.8921 8.93092 11.9943 9.89301L12 9.99999C12 10.5523 12.4477 11 13 11C13.5523 11 14 10.5523 14 9.99999C14 7.68511 11.4723 5.99999 8.5 5.99999C6.98846 5.99999 5.59191 6.43578 4.5843 7.16857L3.70711 6.29288C3.10453 5.69031 2.09282 6.07232 2.00598 6.88636L2 6.99999V9.99999C2 10.5128 2.38604 10.9355 2.88338 10.9933L3 11H6Z" fill="black"/>
</svg>
