<svg width="16" height="16" viewBox="0 0 16 16" fill="none" xmlns="http://www.w3.org/2000/svg">
<path fill-rule="evenodd" clip-rule="evenodd" d="M3.75736 3.75736L12.2426 12.2426C12.6332 12.6332 12.6332 13.2663 12.2426 13.6569C11.8521 14.0474 11.219 14.0474 10.8284 13.6569L9.82681 12.6558C9.56189 12.7598 9.28593 12.8419 9.00119 12.8997L9 13C9 13.5523 8.55228 14 8 14C7.44772 14 7 13.5523 7 13L6.99981 12.8999C5.04059 12.5022 3.49741 10.9588 3.09991 8.99946L3 9C2.44772 9 2 8.55228 2 8C2 7.44772 2.44772 7 3 7L3.10011 6.99954C3.15802 6.7144 3.24019 6.43807 3.34438 6.17281L2.34315 5.17157C1.95262 4.78105 1.95262 4.14788 2.34315 3.75736C2.73367 3.36683 3.36683 3.36683 3.75736 3.75736ZM5 8C5 9.65685 6.34315 11 8 11L8.166 10.994L5.00456 7.83322L5 8ZM8 2C8.55228 2 9 2.44772 9 3L9.00119 3.10026C10.9596 3.4983 12.5022 5.0411 12.8999 6.99968L13 7C13.5523 7 14 7.44772 14 8C14 8.55228 13.5523 9 13 9L12.8997 9.00132C12.8418 9.28615 12.7597 9.56218 12.6556 9.82717L10.9954 8.16732L11 8C11 6.34315 9.65685 5 8 5L7.832 5.005L6.17242 3.34454C6.43789 3.24024 6.71444 3.158 6.99981 3.10006L7 3C7 2.44772 7.44772 2 8 2Z" fill="black"/>
</svg>
