<svg width="16" height="16" viewBox="0 0 16 16" fill="none" xmlns="http://www.w3.org/2000/svg">
<path fill-rule="evenodd" clip-rule="evenodd" d="M13 12C13.5523 12 14 12.4477 14 13C14 13.5523 13.5523 14 13 14H3C2.44772 14 2 13.5523 2 13C2 12.4477 2.44772 12 3 12H13ZM3.70711 5.29289L5.70711 7.29289C6.09763 7.68342 6.09763 8.31658 5.70711 8.70711L3.70711 10.7071C3.07714 11.3371 2 10.8909 2 10V6C2 5.1091 3.07714 4.66293 3.70711 5.29289ZM13 7C13.5523 7 14 7.44772 14 8C14 8.55228 13.5523 9 13 9H9C8.44772 9 8 8.55228 8 8C8 7.44772 8.44772 7 9 7H13ZM13 2C13.5523 2 14 2.44772 14 3C14 3.55228 13.5523 4 13 4H3C2.44772 4 2 3.55228 2 3C2 2.44772 2.44772 2 3 2H13Z" fill="black"/>
</svg>
