<svg width="16" height="16" viewBox="0 0 16 16" fill="none" xmlns="http://www.w3.org/2000/svg">
<path fill-rule="evenodd" clip-rule="evenodd" d="M10 2C10.5523 2 11 2.44772 11 3V4H12C12.5128 4 12.9355 4.38604 12.9933 4.88338L13 5V8C13 10.1422 11.316 11.8911 9.19964 11.9951L9 12V13C9 13.5523 8.55228 14 8 14C7.44772 14 7 13.5523 7 13V12C4.8578 12 3.10892 10.316 3.0049 8.19964L3 8V5C3 4.48716 3.38604 4.06449 3.88338 4.00673L4 4H5V3C5 2.44772 5.44772 2 6 2C6.55228 2 7 2.44772 7 3V4H9V3C9 2.44772 9.44772 2 10 2Z" fill="black"/>
</svg>
