<svg width="16" height="16" viewBox="0 0 16 16" fill="none" xmlns="http://www.w3.org/2000/svg">
<path fill-rule="evenodd" clip-rule="evenodd" d="M7.999 3.06891L8.36429 2.76975C9.76635 1.61764 11.7587 1.77291 12.9952 3.14138C13.6438 3.85949 14 4.8002 14 5.8073C14 6.8144 13.6438 7.75495 12.9953 8.47228L8 14L3.00507 8.4727C2.35625 7.755 2 6.81447 2 5.8073C2 4.80014 2.35625 3.85945 3.00518 3.141C4.24138 1.77286 6.2337 1.61768 7.63571 2.76975L7.999 3.06891ZM12 5.8073C12 5.43803 11.8711 5.0975 11.6117 4.81033C11.0718 4.21286 10.1469 4.14079 9.52334 4.65321L8 5.90499L6.47666 4.65321C5.85309 4.14081 4.9282 4.21284 4.38868 4.80995C4.12896 5.09749 4 5.43801 4 5.8073C4 6.17638 4.12879 6.51639 4.3882 6.80334L8 10.7996L11.6122 6.80292C11.8342 6.55731 11.9606 6.27242 11.9921 5.96362L12 5.8073Z" fill="black"/>
</svg>
