<svg width="16" height="16" viewBox="0 0 16 16" fill="none" xmlns="http://www.w3.org/2000/svg">
<path fill-rule="evenodd" clip-rule="evenodd" d="M9.4141 8.00001L12.7071 4.70701C13.0981 4.31601 13.0981 3.68401 12.7071 3.29301C12.3161 2.90201 11.6841 2.90201 11.2931 3.29301L8.0001 6.58601L4.7071 3.29301C4.3161 2.90201 3.6841 2.90201 3.2931 3.29301C2.9021 3.68401 2.9021 4.31601 3.2931 4.70701L6.5861 8.00001L3.2931 11.293C2.9021 11.684 2.9021 12.316 3.2931 12.707C3.4881 12.902 3.7441 13 4.0001 13C4.2561 13 4.5121 12.902 4.7071 12.707L8.0001 9.41401L11.2931 12.707C11.4881 12.902 11.7441 13 12.0001 13C12.2561 13 12.5121 12.902 12.7071 12.707C13.0981 12.316 13.0981 11.684 12.7071 11.293L9.4141 8.00001Z" fill="black"/>
</svg>
