<svg width="16" height="16" viewBox="0 0 16 16" fill="none" xmlns="http://www.w3.org/2000/svg">
<path fill-rule="evenodd" clip-rule="evenodd" d="M3.20024 4.39919C3.53195 3.95762 4.15882 3.86856 4.6004 4.20027C5.04197 4.53198 5.13103 5.15885 4.79932 5.60042C4.28305 6.28768 4 7.12107 4 8C4 10.2091 5.79086 12 8 12C10.2091 12 12 10.2091 12 8C12 7.12142 11.7172 6.28833 11.2013 5.60123C10.8697 5.15957 10.9589 4.53272 11.4006 4.20112C11.8422 3.86952 12.4691 3.95874 12.8007 4.40039C13.5744 5.43093 14 6.68456 14 8C14 11.3137 11.3137 14 8 14C4.68629 14 2 11.3137 2 8C2 6.68404 2.42593 5.42994 3.20024 4.39919ZM8 2C8.55228 2 9 2.44772 9 3V7C9 7.55228 8.55228 8 8 8C7.44772 8 7 7.55228 7 7V3C7 2.44772 7.44772 2 8 2Z" fill="black"/>
</svg>
