<svg width="16" height="16" viewBox="0 0 16 16" fill="none" xmlns="http://www.w3.org/2000/svg">
<path fill-rule="evenodd" clip-rule="evenodd" d="M8 10.8482L12.5037 9.13176C12.9832 8.85775 13.5941 9.02434 13.8681 9.50386C14.1225 9.94913 13.997 10.5076 13.5939 10.8045L13.496 10.8682L8.49613 12.8682C8.22713 13.022 7.90456 13.0412 7.62216 12.9259L7.50387 12.8682L2.50402 10.8682C2.02451 10.5942 1.85792 9.98338 2.13193 9.50386C2.38636 9.05859 2.93123 8.88314 3.39169 9.07974L3.49628 9.13176L8 10.8482L12.5037 9.13176L8 10.8482ZM2.50402 5.13176L7.50387 3.13176C7.77287 2.97804 8.09544 2.95883 8.37784 3.07411L8.49613 3.13176L13.496 5.13176C14.1283 5.49307 14.1655 6.37241 13.6076 6.79466L13.496 6.86824L8.49613 8.86824C8.22713 9.02196 7.90456 9.04117 7.62216 8.92589L7.50387 8.86824L2.50402 6.86824C1.87174 6.50693 1.83455 5.62759 2.39244 5.20534L2.50402 5.13176L7.50387 3.13176L2.50402 5.13176Z" fill="black"/>
</svg>
