<svg width="16" height="16" viewBox="0 0 16 16" fill="none" xmlns="http://www.w3.org/2000/svg">
<path fill-rule="evenodd" clip-rule="evenodd" d="M11 4C12.1046 4 13 4.89543 13 6C13.468 6.00428 13.9291 6.32556 13.9926 6.87035L14 7V9C14 9.55228 13.5523 10 13 10C13 11.0544 12.1841 11.9182 11.1493 11.9945L11 12H4C2.94564 12 2.08183 11.1841 2.00549 10.1493L2 10V6C2 4.94564 2.81588 4.08183 3.85074 4.00549L4 4H11ZM8.56239 4.53415C8.56239 4.02187 7.89013 3.81941 7.56989 4.18933L7.51422 4.26546L5.07746 8.66438C4.87437 8.99447 5.09305 9.40299 5.47285 9.45967L5.56324 9.4663H7.43761V11.4659C7.43761 11.9781 8.10987 12.1806 8.43011 11.8107L8.48578 11.7345L10.9225 7.33562C11.1256 7.00553 10.9069 6.59701 10.5271 6.54033L10.4368 6.5337H8.56239V4.53415Z" fill="black"/>
</svg>
