<svg width="16" height="16" viewBox="0 0 16 16" fill="none" xmlns="http://www.w3.org/2000/svg">
<path fill-rule="evenodd" clip-rule="evenodd" d="M6 2C6.51284 2 6.93551 2.38604 6.99327 2.88338L7 3V6C7 6.51284 6.61396 6.93551 6.11662 6.99327L6 7H3C2.44772 7 2 6.55228 2 6C2 5.48716 2.38604 5.06449 2.88338 5.00673L3 5H5V3C5 2.48716 5.38604 2.06449 5.88338 2.00673L6 2ZM6.11662 9.00673L6 9H3L2.88338 9.00673C2.38604 9.06449 2 9.48716 2 10C2 10.5128 2.38604 10.9355 2.88338 10.9933L3 11H5V13L5.00673 13.1166C5.06005 13.5757 5.4243 13.94 5.88338 13.9933L6 14L6.11662 13.9933C6.5757 13.94 6.93995 13.5757 6.99327 13.1166L7 13V10L6.99327 9.88338C6.93995 9.4243 6.5757 9.06005 6.11662 9.00673ZM14 10C14 9.44772 13.5523 9 13 9H10L9.88338 9.00673C9.38604 9.06449 9 9.48716 9 10V13L9.00673 13.1166C9.06449 13.614 9.48716 14 10 14L10.1166 13.9933C10.614 13.9355 11 13.5128 11 13V11H13L13.1166 10.9933C13.614 10.9355 14 10.5128 14 10ZM10.1166 2.00673L10 2L9.88338 2.00673C9.4243 2.06005 9.06005 2.4243 9.00673 2.88338L9 3V6L9.00673 6.11662C9.06005 6.5757 9.4243 6.93995 9.88338 6.99327L10 7H13L13.1166 6.99327C13.614 6.93551 14 6.51284 14 6C14 5.48716 13.614 5.06449 13.1166 5.00673L13 5H11V3L10.9933 2.88338C10.94 2.4243 10.5757 2.06005 10.1166 2.00673Z" fill="black"/>
</svg>
