<svg width="16" height="16" viewBox="0 0 16 16" fill="none" xmlns="http://www.w3.org/2000/svg">
<path fill-rule="evenodd" clip-rule="evenodd" d="M3 2H5C6.05436 2 6.91817 2.81588 6.99451 3.85074L7 4V6C7 6.51284 6.61396 6.93551 6.11662 6.99327L6 7H5.06217L5.23608 7.30515C6.07451 8.71522 7.28478 9.92549 8.69485 10.7639L9 10.9378V10C9 9.48716 9.38604 9.06449 9.88338 9.00673L10 9H12C13.0544 9 13.9182 9.81588 13.9945 10.8507L14 11V13C14 13.5523 13.5523 14 13 14C7.23169 14 2 8.76831 2 3C2 2.48716 2.38604 2.06449 2.88338 2.00673L3 2H5H3ZM11.7071 2.29289L13.7071 4.29289C14.0976 4.68342 14.0976 5.31658 13.7071 5.70711L11.7071 7.70711C11.3166 8.09763 10.6834 8.09763 10.2929 7.70711C9.90237 7.31658 9.90237 6.68342 10.2929 6.29289L11.5858 5L10.2929 3.70711C9.90237 3.31658 9.90237 2.68342 10.2929 2.29289C10.6834 1.90237 11.3166 1.90237 11.7071 2.29289Z" fill="black"/>
</svg>
