<svg width="16" height="16" viewBox="0 0 16 16" fill="none" xmlns="http://www.w3.org/2000/svg">
<path fill-rule="evenodd" clip-rule="evenodd" d="M10.7071 2.29289L10.6129 2.2097C10.2206 1.90468 9.65338 1.93241 9.29289 2.29289L9.2097 2.3871C8.90468 2.77939 8.93241 3.34662 9.29289 3.70711L10.585 5H5L4.88338 5.00673C4.38604 5.06449 4 5.48716 4 6C4 6.55228 4.44772 7 5 7H13L13.1136 6.99402C13.9277 6.90718 14.3097 5.89547 13.7071 5.29289L10.7071 2.29289ZM12.002 10C12.002 9.44772 11.5543 9 11.002 9H3.002L2.88837 9.00598C2.07434 9.09282 1.69232 10.1045 2.2949 10.7071L5.2949 13.7071L5.38911 13.7903C5.7814 14.0953 6.34863 14.0676 6.70911 13.7071L6.7923 13.6129C7.09733 13.2206 7.0696 12.6534 6.70911 12.2929L5.417 11H11.002L11.1186 10.9933C11.616 10.9355 12.002 10.5128 12.002 10Z" fill="black"/>
</svg>
