<svg width="16" height="16" viewBox="0 0 16 16" fill="none" xmlns="http://www.w3.org/2000/svg">
<path fill-rule="evenodd" clip-rule="evenodd" d="M14 2V5H12V4H11V2H14ZM3 4L3.11662 4.00673C3.5757 4.06005 3.93995 4.4243 3.99327 4.88338L4 5V12H11L11.1166 12.0067C11.614 12.0645 12 12.4872 12 13C12 13.5128 11.614 13.9355 11.1166 13.9933L11 14H3L2.88338 13.9933C2.4243 13.9399 2.06005 13.5757 2.00673 13.1166L2 13V5L2.00673 4.88338C2.06005 4.4243 2.4243 4.06005 2.88338 4.00673L3 4ZM8 7V8H9V10H6V7H8ZM14 10V7H12V8H11V10H14ZM9 4V2H6V5H8V4H9Z" fill="black"/>
</svg>
