<svg width="16" height="16" viewBox="0 0 16 16" fill="none" xmlns="http://www.w3.org/2000/svg">
<path fill-rule="evenodd" clip-rule="evenodd" d="M8 2L12 6L12.0012 6.10026C11.6777 6.03451 11.3429 6 11 6C8.23858 6 6 8.23858 6 11C6 12.1261 6.3723 13.1653 7.00054 14.0012L5 14C4.44772 14 4 13.5523 4 13V3C4 2.44772 4.44772 2 5 2H8ZM11 8C11.5523 8 12 8.44772 12 9V10H13C13.5523 10 14 10.4477 14 11C14 11.5523 13.5523 12 13 12H12V13C12 13.5523 11.5523 14 11 14C10.4477 14 10 13.5523 10 13V12H9C8.44772 12 8 11.5523 8 11C8 10.4477 8.44772 10 9 10H10V9C10 8.44772 10.4477 8 11 8Z" fill="black"/>
</svg>
