<svg width="16" height="16" viewBox="0 0 16 16" fill="none" xmlns="http://www.w3.org/2000/svg">
<path fill-rule="evenodd" clip-rule="evenodd" d="M6 2C6.55228 2 7 2.44772 7 3C7 3.51284 6.61396 3.93551 6.11662 3.99327L6 4H4V6C4 6.51284 3.61396 6.93551 3.11662 6.99327L3 7C2.48716 7 2.06449 6.61396 2.00673 6.11662L2 6V3C2 2.48716 2.38604 2.06449 2.88338 2.00673L3 2H6ZM3.11662 9.00673L3 9L2.88338 9.00673C2.4243 9.06005 2.06005 9.4243 2.00673 9.88338L2 10V13L2.00673 13.1166C2.06005 13.5757 2.4243 13.94 2.88338 13.9933L3 14H6L6.11662 13.9933C6.61396 13.9355 7 13.5128 7 13C7 12.4872 6.61396 12.0645 6.11662 12.0067L6 12H4V10L3.99327 9.88338C3.93995 9.4243 3.5757 9.06005 3.11662 9.00673ZM13.9933 9.88338C13.9355 9.38604 13.5128 9 13 9L12.8834 9.00673C12.386 9.06449 12 9.48716 12 10V12H10L9.88338 12.0067C9.38604 12.0645 9 12.4872 9 13C9 13.5523 9.44772 14 10 14H13L13.1166 13.9933C13.614 13.9355 14 13.5128 14 13V10L13.9933 9.88338ZM13.1166 2.00673L13 2H10L9.88338 2.00673C9.38604 2.06449 9 2.48716 9 3C9 3.51284 9.38604 3.93551 9.88338 3.99327L10 4H12V6L12.0067 6.11662C12.06 6.5757 12.4243 6.93995 12.8834 6.99327L13 7L13.1166 6.99327C13.5757 6.93995 13.94 6.5757 13.9933 6.11662L14 6V3L13.9933 2.88338C13.94 2.4243 13.5757 2.06005 13.1166 2.00673Z" fill="black"/>
</svg>
