<svg width="16" height="16" viewBox="0 0 16 16" fill="none" xmlns="http://www.w3.org/2000/svg">
<path fill-rule="evenodd" clip-rule="evenodd" d="M3 2H5C6.05436 2 6.91817 2.81588 6.99451 3.85074L7 4V6C7 6.51284 6.61396 6.93551 6.11662 6.99327L6 7H5.06217L5.23608 7.30515C6.07451 8.71522 7.28478 9.92549 8.69485 10.7639L9 10.9378V10C9 9.48716 9.38604 9.06449 9.88338 9.00673L10 9H12C13.0544 9 13.9182 9.81588 13.9945 10.8507L14 11V13C14 13.5523 13.5523 14 13 14C7.23169 14 2 8.76831 2 3C2 2.48716 2.38604 2.06449 2.88338 2.00673L3 2H5H3ZM10.2929 4.29289L12.2929 2.29289C12.6834 1.90237 13.3166 1.90237 13.7071 2.29289C14.0676 2.65338 14.0953 3.22061 13.7903 3.6129L13.7071 3.70711L12.4142 5L13.7071 6.29289C14.0976 6.68342 14.0976 7.31658 13.7071 7.70711C13.3466 8.06759 12.7794 8.09532 12.3871 7.7903L12.2929 7.70711L10.2929 5.70711C9.93241 5.34662 9.90468 4.77939 10.2097 4.3871L10.2929 4.29289L12.2929 2.29289L10.2929 4.29289Z" fill="black"/>
</svg>
