<svg width="16" height="16" viewBox="0 0 16 16" fill="none" xmlns="http://www.w3.org/2000/svg">
<path fill-rule="evenodd" clip-rule="evenodd" d="M13.2 2C12.6878 2 12.1965 2.20348 11.8343 2.56569L10.5203 3.87971C10.3216 4.07842 10.0332 4.1583 9.76057 4.09014L4.12953 2.91089C3.79914 2.8417 3.45614 2.94386 3.21745 3.18255L2.78485 3.61515C2.47243 3.92757 2.47243 4.4341 2.78485 4.74652C2.84565 4.80733 2.91585 4.85793 2.99276 4.89638L8 6.4L4.8 9.6H3.29443C2.99141 9.6 2.7144 9.7712 2.57889 10.0422L2 11.2L4.2 11.8L4.8 14L5.95777 13.4211C6.2288 13.2856 6.4 13.0086 6.4 12.7056V11.2L9.6 8L11.1036 13.0072C11.3012 13.4024 11.7817 13.5626 12.1769 13.365C12.2538 13.3266 12.324 13.276 12.3848 13.2152L12.8174 12.7826C13.0561 12.5439 13.1583 12.2009 13.0891 11.8705L11.9099 6.23943C11.8417 5.96681 11.9216 5.67842 12.1203 5.47971L13.4343 4.16569C13.7965 3.80348 14 3.31223 14 2.8C14 2.35817 13.6418 2 13.2 2Z" fill="black"/>
</svg>
