<svg width="16" height="16" viewBox="0 0 16 16" fill="none" xmlns="http://www.w3.org/2000/svg">
<path fill-rule="evenodd" clip-rule="evenodd" d="M13 4C13.5523 4 14 3.55228 14 3C14 2.44772 13.5523 2 13 2H3C2.44772 2 2 2.44772 2 3C2 3.55228 2.44772 4 3 4H13ZM8 6L7.918 6.004L7.79927 6.02024L7.68786 6.04974L7.57678 6.09367L7.47929 6.146L7.40484 6.19631L7.29289 6.29289L5.29289 8.29289C4.90237 8.68342 4.90237 9.31658 5.29289 9.70711C5.65338 10.0676 6.22061 10.0953 6.6129 9.7903L6.70711 9.70711L7 9.415V13C7 13.5523 7.44772 14 8 14C8.55228 14 9 13.5523 9 13V9.415L9.29289 9.70711C9.65338 10.0676 10.2206 10.0953 10.6129 9.7903L10.7071 9.70711C11.0676 9.34662 11.0953 8.77939 10.7903 8.3871L10.7071 8.29289L8.70711 6.29289L8.66315 6.2515L8.59531 6.19633L8.48406 6.12467L8.4231 6.09365L8.34165 6.05989L8.26599 6.03585L8.11747 6.00683L8 6Z" fill="black"/>
</svg>
