<svg width="16" height="16" viewBox="0 0 16 16" fill="none" xmlns="http://www.w3.org/2000/svg">
<path fill-rule="evenodd" clip-rule="evenodd" d="M9 2C9.55228 2 10 2.44772 10 3L10.0011 3.26819C10.3149 3.44999 10.5748 3.71465 10.7507 4.03225C10.8037 4.01802 10.8585 4.00843 10.9147 4.00362L11 4H11.2929L11.4042 3.99119C11.5505 3.96788 11.6868 3.89898 11.7929 3.79289C11.899 3.68681 11.9679 3.55048 11.9912 3.40418L12 3.29289V3L12.0067 2.88338C12.0645 2.38604 12.4872 2 13 2C13.5128 2 13.9355 2.38604 13.9933 2.88338L14 3V3.29289L13.993 3.48786C13.9463 4.13456 13.6686 4.74558 13.2071 5.20711C12.7456 5.66863 12.1346 5.9463 11.4879 5.99298L11.2929 6H11V7H13C13.5523 7 14 7.44772 14 8C14 8.55228 13.5523 9 13 9H11V10H11.2929C12.0109 10 12.6994 10.2852 13.2071 10.7929C13.6686 11.2544 13.9463 11.8654 13.993 12.5121L14 12.7071V13C14 13.5523 13.5523 14 13 14C12.4872 14 12.0645 13.614 12.0067 13.1166L12 13V12.7071C12 12.5196 11.9255 12.3397 11.7929 12.2071C11.6868 12.101 11.5505 12.0321 11.4042 12.0088L11.2929 12H11C10.9434 12 10.888 11.9953 10.834 11.9863C10.4269 13.158 9.3118 14 8 14C6.6882 14 5.57305 13.158 5.16547 11.985L5.11662 11.9933L5 12H4.70711L4.59582 12.0088C4.44952 12.0321 4.31319 12.101 4.20711 12.2071C4.10102 12.3132 4.03212 12.4495 4.00881 12.5958L4 12.7071V13L3.99327 13.1166C3.93551 13.614 3.51284 14 3 14C2.48716 14 2.06449 13.614 2.00673 13.1166L2 13V12.7071L2.00702 12.5121C2.0537 11.8654 2.33137 11.2544 2.79289 10.7929C3.25442 10.3314 3.86544 10.0537 4.51214 10.007L4.70711 10H5V9H3C2.44772 9 2 8.55228 2 8C2 7.44772 2.44772 7 3 7H5V6H4.70711C3.98914 6 3.30057 5.71479 2.79289 5.20711C2.33137 4.74558 2.0537 4.13456 2.00702 3.48786L2 3.29289V3C2 2.44772 2.44772 2 3 2C3.51284 2 3.93551 2.38604 3.99327 2.88338L4 3V3.29289C4 3.48043 4.0745 3.66028 4.20711 3.79289C4.31319 3.89898 4.44952 3.96788 4.59582 3.99119L4.70711 4H5C5.0862 4 5.16986 4.01091 5.24966 4.03142C5.42543 3.71432 5.68564 3.44943 5.99993 3.26761L6 3C6 2.44772 6.44772 2 7 2H9Z" fill="black"/>
</svg>
