<svg width="16" height="16" viewBox="0 0 16 16" fill="none" xmlns="http://www.w3.org/2000/svg">
<path fill-rule="evenodd" clip-rule="evenodd" d="M4.3871 6.7903L4.29289 6.70711C3.93241 6.34662 3.90468 5.77939 4.2097 5.3871L4.29289 5.29289L7.29289 2.29289L7.33685 2.2515L7.40469 2.19633L7.51594 2.12467L7.62866 2.07123L7.73401 2.03585L7.8819 2.00691L8 2L8.07524 2.00279L8.20073 2.02024L8.31214 2.04974L8.42322 2.09367L8.52071 2.146L8.62545 2.21969L8.70711 2.29289L11.7071 5.29289C12.0976 5.68342 12.0976 6.31658 11.7071 6.70711C11.3466 7.06759 10.7794 7.09532 10.3871 6.7903L10.2929 6.70711L9 5.415V13C9 13.5523 8.55228 14 8 14C7.44772 14 7 13.5523 7 13V5.415L5.70711 6.70711C5.34662 7.06759 4.77939 7.09532 4.3871 6.7903L4.29289 6.70711L4.3871 6.7903Z" fill="black"/>
</svg>
