<svg width="16" height="16" viewBox="0 0 16 16" fill="none" xmlns="http://www.w3.org/2000/svg">
<path fill-rule="evenodd" clip-rule="evenodd" d="M8 2C11.3137 2 14 4.68629 14 8C14 11.3137 11.3137 14 8 14C4.68629 14 2 11.3137 2 8C2 4.68629 4.68629 2 8 2ZM8 4L7.96118 4.00595C7.81355 4.04969 7.60963 4.33611 7.41777 4.91168C7.15612 5.69664 7 6.80397 7 8C7 9.19603 7.15612 10.3034 7.41777 11.0883C7.62707 11.7162 7.85072 12 8 12C8.14928 12 8.37293 11.7162 8.58223 11.0883C8.84388 10.3034 9 9.19603 9 8C9 6.80397 8.84388 5.69664 8.58223 4.91168C8.39037 4.33611 8.18645 4.04969 8.03882 4.00595L8 4ZM5.41675 4.94737L5.37571 4.98113C4.53282 5.71448 4 6.79502 4 8C4 9.22405 4.54981 10.3197 5.41594 11.0534C5.15198 10.1583 5 9.11466 5 8C5 6.88534 5.15198 5.84168 5.41675 4.94737ZM10.5841 4.94659L10.5904 4.97169C10.8508 5.86057 11 6.89543 11 8C11 9.11466 10.848 10.1583 10.5833 11.0526C11.4502 10.3197 12 9.22405 12 8C12 6.77595 11.4502 5.68032 10.5841 4.94659Z" fill="black"/>
</svg>
