<svg width="16" height="16" viewBox="0 0 16 16" fill="none" xmlns="http://www.w3.org/2000/svg">
<path fill-rule="evenodd" clip-rule="evenodd" d="M9.16639 2.4387L9.25132 2.51831L13.4817 6.74868C14.1728 7.43976 14.1728 8.56024 13.4817 9.25132L9.25132 13.4817C8.56024 14.1728 7.43976 14.1728 6.74868 13.4817L2.51831 9.25132C1.82723 8.56024 1.82723 7.43976 2.51831 6.74868L6.74868 2.51831C7.41212 1.85487 8.47129 1.82833 9.16639 2.4387ZM7.29289 5.29289C6.90237 5.68342 6.90237 6.31658 7.29289 6.70711L8.58579 8L7.29289 9.29289C6.90237 9.68342 6.90237 10.3166 7.29289 10.7071C7.68342 11.0976 8.31658 11.0976 8.70711 10.7071L10.7071 8.70711C11.0976 8.31658 11.0976 7.68342 10.7071 7.29289L8.70711 5.29289C8.31658 4.90237 7.68342 4.90237 7.29289 5.29289Z" fill="black"/>
</svg>
