<svg width="16" height="16" viewBox="0 0 16 16" fill="none" xmlns="http://www.w3.org/2000/svg">
<path fill-rule="evenodd" clip-rule="evenodd" d="M13.7907 11.6128L13.7075 11.707L11.6656 13.7462L11.572 13.8202L11.5275 13.8495L11.472 13.8817L11.3734 13.9277L11.2855 13.9583L11.2047 13.9788L11.0853 13.9961L11 13.9997L10.9151 13.9961L10.851 13.9887L10.7686 13.9728L10.6547 13.9385L10.5768 13.906L10.469 13.8474L10.4283 13.8203L10.3704 13.7743L10.2929 13.7068L8.29267 11.707C7.90211 11.3164 7.90211 10.6833 8.29267 10.2928C8.65318 9.93233 9.22046 9.90461 9.61278 10.2096L9.70699 10.2928L9.99975 10.5853L9.99999 3.00031C9.99999 2.48747 10.386 2.0648 10.8834 2.00703L11.0001 2.00031C11.5524 2.00031 12.0001 2.44802 12.0001 3.00031L11.9998 10.5853L12.2931 10.2928C12.6537 9.93233 13.2209 9.90461 13.6133 10.2096L13.7075 10.2928C14.0379 10.6232 14.0888 11.1274 13.86 11.5113L13.7907 11.6128ZM4.37738 2.21831L4.42862 2.17929L4.50191 2.13265L4.62218 2.07383L4.76894 2.02678L4.85137 2.01088L4.96738 2.0004L5.08564 2.00347L5.20501 2.02079L5.31716 2.05104L5.37376 2.07188L5.4723 2.11788L5.57237 2.17933L5.62208 2.21647L5.70759 2.29275L7.70781 4.29261L7.791 4.38681C8.07063 4.7464 8.07063 5.25298 7.791 5.61256L7.70781 5.70676L7.61359 5.78995C7.25396 6.06954 6.74733 6.06954 6.3877 5.78995L6.29348 5.70676L6.00009 5.41426L6.00049 12.9993C6.00049 13.5121 5.61445 13.9348 5.11711 13.9925L5.00049 13.9993L4.88371 13.9925C4.42463 13.9392 4.06038 13.575 4.00706 13.1159L4.00033 12.9993L4.00009 5.41426L3.70733 5.70676L3.61312 5.78995C3.2208 6.09496 2.65352 6.06723 2.29301 5.70676C1.9325 5.3463 1.90476 4.77909 2.20981 4.38681L2.29301 4.29261L4.29322 2.29275L4.37738 2.21831Z" fill="black"/>
</svg>
