<svg width="16" height="16" viewBox="0 0 16 16" fill="none" xmlns="http://www.w3.org/2000/svg">
<path fill-rule="evenodd" clip-rule="evenodd" d="M4 13C4 13.5523 3.55228 14 3 14C2.44772 14 2 13.5523 2 13V3C2 2.44772 2.44772 2 3 2C3.55228 2 4 2.44772 4 3V13ZM6 8L6.004 7.918L6.02024 7.79927L6.04974 7.68786L6.09367 7.57678L6.146 7.47929L6.19631 7.40484L6.29289 7.29289L8.29289 5.29289C8.68342 4.90237 9.31658 4.90237 9.70711 5.29289C10.0676 5.65338 10.0953 6.22061 9.7903 6.6129L9.70711 6.70711L9.415 7H13C13.5523 7 14 7.44772 14 8C14 8.55228 13.5523 9 13 9H9.415L9.70711 9.29289C10.0676 9.65338 10.0953 10.2206 9.7903 10.6129L9.70711 10.7071C9.34662 11.0676 8.77939 11.0953 8.3871 10.7903L8.29289 10.7071L6.29289 8.70711L6.2515 8.66315L6.19633 8.59531L6.12467 8.48406L6.09365 8.4231L6.05989 8.34165L6.03585 8.26599L6.00683 8.11747L6 8Z" fill="black"/>
</svg>
