<svg width="16" height="16" viewBox="0 0 16 16" fill="none" xmlns="http://www.w3.org/2000/svg">
<path fill-rule="evenodd" clip-rule="evenodd" d="M5 14C3.40232 14 2.09634 12.7511 2.00509 11.1763L2 11V5C2 3.40232 3.24892 2.09634 4.82373 2.00509L5 2H11C12.5977 2 13.9037 3.24892 13.9949 4.82373L14 5V11C14 12.5977 12.7511 13.9037 11.1763 13.9949L11 14H5ZM7 9H4V11C4 11.5128 4.38604 11.9355 4.88338 11.9933L5 12H7V9ZM9 9H12V11L11.9933 11.1166C11.9355 11.614 11.5128 12 11 12H9V9ZM7 4H5C4.48716 4 4.06449 4.38604 4.00673 4.88338L4 5V7H7V4ZM9 4H11L11.1166 4.00673C11.614 4.06449 12 4.48716 12 5V7H9V4Z" fill="black"/>
</svg>
