<svg width="16" height="16" viewBox="0 0 16 16" fill="none" xmlns="http://www.w3.org/2000/svg">
<path fill-rule="evenodd" clip-rule="evenodd" d="M8 2C9.10457 2 10 2.89543 10 4V9C10 9.09278 9.98737 9.1826 9.96372 9.26785C10.5495 8.76058 10.9368 8.02947 10.9929 7.20735L11.0067 6.88338C11.0645 6.38604 11.4872 6 12 6C12.5523 6 13 6.44772 13 7C13 9.41854 11.2828 11.436 9.00119 11.8997L9 13C9 13.5523 8.55228 14 8 14C7.44772 14 7 13.5523 7 13L6.99981 11.8999C4.71767 11.4366 3 9.41889 3 7C3 6.44772 3.44772 6 4 6C4.55228 6 5 6.44772 5 7C5 7.90606 5.40167 8.71831 6.03666 9.26839C6.01263 9.1826 6 9.09278 6 9V4C6 2.89543 6.89543 2 8 2Z" fill="black"/>
</svg>
