<svg width="16" height="16" viewBox="0 0 16 16" fill="none" xmlns="http://www.w3.org/2000/svg">
<path fill-rule="evenodd" clip-rule="evenodd" d="M12 9C12.5523 9 13 9.44772 13 10V12C13 12.5523 12.5523 13 12 13H10C9.44772 13 9 12.5523 9 12V10C9 9.44772 9.44772 9 10 9H12ZM6 9C6.55228 9 7 9.44772 7 10V12C7 12.5523 6.55228 13 6 13H4C3.44772 13 3 12.5523 3 12V10C3 9.44772 3.44772 9 4 9H6ZM12 3C12.5523 3 13 3.44772 13 4V6C13 6.55228 12.5523 7 12 7H4C3.44772 7 3 6.55228 3 6V4C3 3.44772 3.44772 3 4 3H12Z" fill="black"/>
</svg>
