<svg width="16" height="16" viewBox="0 0 16 16" fill="none" xmlns="http://www.w3.org/2000/svg">
<path fill-rule="evenodd" clip-rule="evenodd" d="M7 8V7H10C10.5523 7 11 6.55228 11 6C11 5.44772 10.5523 5 10 5H6C5.44772 5 5 5.44772 5 6V9C5 9.55228 5.44772 10 6 10H11C12.6569 10 14 8.65685 14 7V5C14 3.34315 12.6569 2 11 2H5C3.34315 2 2 3.34315 2 5V10C2 11.6569 3.34315 13 5 13H11C11.5523 13 12 12.5523 12 12C12 11.4477 11.5523 11 11 11H5C4.44772 11 4 10.5523 4 10V5C4 4.44772 4.44772 4 5 4H11C11.5523 4 12 4.44772 12 5V7C12 7.55228 11.5523 8 11 8H7Z" fill="black"/>
</svg>
