<svg width="16" height="16" viewBox="0 0 16 16" fill="none" xmlns="http://www.w3.org/2000/svg">
<path fill-rule="evenodd" clip-rule="evenodd" d="M3 13C2.44772 13 2 12.5523 2 12C2 9.79086 3.79086 8 6 8C6.72903 8 7.41251 8.19503 8.00111 8.53577C8.58825 8.19482 9.27138 8 10 8C12.2091 8 14 9.79086 14 12C14 12.5128 13.614 12.9355 13.1166 12.9933L13 13H3ZM6 3C7.10457 3 8 3.89543 8 5C8 6.10457 7.10457 7 6 7C4.89543 7 4 6.10457 4 5C4 3.89543 4.89543 3 6 3ZM10.5 4C11.3284 4 12 4.67157 12 5.5C12 6.32843 11.3284 7 10.5 7C9.67157 7 9 6.32843 9 5.5C9 4.67157 9.67157 4 10.5 4Z" fill="black"/>
</svg>
