<svg width="16" height="16" viewBox="0 0 16 16" fill="none" xmlns="http://www.w3.org/2000/svg">
<path fill-rule="evenodd" clip-rule="evenodd" d="M13 12C13.5523 12 14 12.4477 14 13C14 13.5523 13.5523 14 13 14H3C2.44772 14 2 13.5523 2 13C2 12.4477 2.44772 12 3 12H13ZM8 10L7.918 9.996L7.79927 9.97976L7.68786 9.95026L7.57678 9.90633L7.47929 9.854L7.40484 9.80369L7.29289 9.70711L5.29289 7.70711C4.90237 7.31658 4.90237 6.68342 5.29289 6.29289C5.65338 5.93241 6.22061 5.90468 6.6129 6.2097L6.70711 6.29289L7 6.585V3C7 2.44772 7.44772 2 8 2C8.55228 2 9 2.44772 9 3V6.585L9.29289 6.29289C9.65338 5.93241 10.2206 5.90468 10.6129 6.2097L10.7071 6.29289C11.0676 6.65338 11.0953 7.22061 10.7903 7.6129L10.7071 7.70711L8.70711 9.70711L8.66315 9.7485L8.59531 9.80367L8.48406 9.87533L8.4231 9.90635L8.34165 9.94011L8.26599 9.96415L8.11747 9.99317L8 10Z" fill="black"/>
</svg>
