<svg width="16" height="16" viewBox="0 0 16 16" fill="none" xmlns="http://www.w3.org/2000/svg">
<path fill-rule="evenodd" clip-rule="evenodd" d="M11 12C11.5523 12 12 12.4477 12 13C12 13.5523 11.5523 14 11 14H9C8.44772 14 8 13.5523 8 13C8 12.4477 8.44772 12 9 12H11ZM3 10L3.11662 10.0067C3.5757 10.06 3.93995 10.4243 3.99327 10.8834L4 11V12H5L5.11662 12.0067C5.61396 12.0645 6 12.4872 6 13C6 13.5128 5.61396 13.9355 5.11662 13.9933L5 14H3L2.88338 13.9933C2.4243 13.94 2.06005 13.5757 2.00673 13.1166L2 13V11L2.00673 10.8834C2.06005 10.4243 2.4243 10.06 2.88338 10.0067L3 10ZM14 9C14 9.51284 13.614 9.93551 13.1166 9.99327L13 10H7C6.44772 10 6 9.55228 6 9V3L6.00673 2.88338C6.05561 2.46255 6.36575 2.12142 6.77071 2.02641L6.88338 2.00673L7 2H13L13.1166 2.00673C13.5757 2.06005 13.94 2.4243 13.9933 2.88338L14 3V9ZM12 8V4H8V8H12ZM3 4C3.55228 4 4 4.44772 4 5V7C4 7.55228 3.55228 8 3 8C2.44772 8 2 7.55228 2 7V5C2 4.44772 2.44772 4 3 4Z" fill="black"/>
</svg>
