<svg width="16" height="16" viewBox="0 0 16 16" fill="none" xmlns="http://www.w3.org/2000/svg">
<path fill-rule="evenodd" clip-rule="evenodd" d="M3.423 5.74866C3.438 5.61594 3.3815 5.48503 3.2715 5.39596L2.1515 4.1813V4H5.6305L8.3195 9.30625L10.6835 4H14V4.1813L13.042 5.00772C12.9595 5.0644 12.9185 5.15752 12.9355 5.24975V11.3221C12.9185 11.4139 12.9595 11.507 13.042 11.5637L13.9775 12.3901V12.5714H9.2715V12.3901L10.241 11.5435C10.336 11.458 10.336 11.4328 10.336 11.3019V6.39377L7.6415 12.5516H7.2775L4.14 6.39377V10.5209C4.114 10.6941 4.178 10.8691 4.3135 10.9942L5.574 12.3699V12.5516H2V12.3699L3.2605 10.9942C3.3955 10.8687 3.4555 10.6928 3.423 10.5209V5.74866Z" fill="black"/>
</svg>
