<svg width="16" height="16" viewBox="0 0 16 16" fill="none" xmlns="http://www.w3.org/2000/svg">
<path fill-rule="evenodd" clip-rule="evenodd" d="M3 4H6C6.51284 4 6.93551 4.38604 6.99327 4.88338L7 5V7C7 7.07165 6.9923 7.143 6.97709 7.21281L6.94868 7.31623L5.94868 11.3162C5.81257 11.7246 5.43043 12 5 12C4.35759 12 3.89287 11.4077 4.02037 10.7981L4.05132 10.6838L4.61257 8H3C2.48716 8 2.06449 7.61396 2.00673 7.11662L2 7V5C2 4.48716 2.38604 4.06449 2.88338 4.00673L3 4H6H3ZM10 4H13C13.5128 4 13.9355 4.38604 13.9933 4.88338L14 5V7C14 7.07165 13.9923 7.143 13.9771 7.21281L13.9487 7.31623L12.9487 11.3162C12.8126 11.7246 12.4304 12 12 12C11.3576 12 10.8929 11.4077 11.0204 10.7981L11.0513 10.6838L11.6126 8H10C9.48716 8 9.06449 7.61396 9.00673 7.11662L9 7V5C9 4.48716 9.38604 4.06449 9.88338 4.00673L10 4H13H10Z" fill="black"/>
</svg>
