<svg width="16" height="16" viewBox="0 0 16 16" fill="none" xmlns="http://www.w3.org/2000/svg">
<path fill-rule="evenodd" clip-rule="evenodd" d="M13 11C13.5523 11 14 11.4477 14 12C14 12.5523 13.5523 13 13 13H5C4.44772 13 4 12.5523 4 12C4 11.4477 4.44772 11 5 11H13ZM13 7C13.5523 7 14 7.44772 14 8C14 8.55228 13.5523 9 13 9H9C8.44772 9 8 8.55228 8 8C8 7.44772 8.44772 7 9 7H13ZM13 3C13.5523 3 14 3.44772 14 4C14 4.55228 13.5523 5 13 5H3C2.44772 5 2 4.55228 2 4C2 3.44772 2.44772 3 3 3H13Z" fill="black"/>
</svg>
