<svg width="16" height="16" viewBox="0 0 16 16" fill="none" xmlns="http://www.w3.org/2000/svg">
<path fill-rule="evenodd" clip-rule="evenodd" d="M13 4C13.5523 4 14 3.55228 14 3C14 2.44772 13.5523 2 13 2H3C2.44772 2 2 2.44772 2 3C2 3.55228 2.44772 4 3 4H13ZM13 14L13.1166 13.9933C13.5757 13.94 13.94 13.5757 13.9933 13.1166L14 13V11L13.9933 10.8834C13.94 10.4243 13.5757 10.06 13.1166 10.0067L13 10L12.8834 10.0067C12.4243 10.06 12.06 10.4243 12.0067 10.8834L12 11V12H11L10.8834 12.0067C10.386 12.0645 10 12.4872 10 13C10 13.5128 10.386 13.9355 10.8834 13.9933L11 14H13ZM5 14L5.11662 13.9933C5.61396 13.9355 6 13.5128 6 13C6 12.5266 5.67107 12.1301 5.22929 12.0264L5.11662 12.0067L5 12H4V11L3.99327 10.8834C3.94439 10.4626 3.63425 10.1214 3.22929 10.0264L3.11662 10.0067L3 10L2.88338 10.0067C2.46255 10.0556 2.12142 10.3657 2.02641 10.7707L2.00673 10.8834L2 11V13L2.00673 13.1166C2.05561 13.5374 2.36575 13.8786 2.77071 13.9736L2.88338 13.9933L3 14H5Z" fill="black"/>
</svg>
