<svg width="16" height="16" viewBox="0 0 16 16" fill="none" xmlns="http://www.w3.org/2000/svg">
<path fill-rule="evenodd" clip-rule="evenodd" d="M13.9945 3.85074C13.9182 2.81588 13.0544 2 12 2H4L3.85074 2.00549C2.81588 2.08183 2 2.94564 2 4V10L2.00549 10.1493C2.08183 11.1841 2.94564 12 4 12H5V10H4V4H12V10H11V12H12L12.1493 11.9945C13.1841 11.9182 14 11.0544 14 10V4L13.9945 3.85074ZM8.082 5.003L7.96675 5.00055L7.88253 5.00683L7.73401 5.03585L7.65835 5.05989L7.5769 5.09365L7.51594 5.12467L7.40469 5.19633L7.33685 5.2515L7.29289 5.29289L5.29289 7.29289L5.2097 7.3871C4.90468 7.77939 4.93241 8.34662 5.29289 8.70711L5.3871 8.7903C5.77939 9.09532 6.34662 9.06759 6.70711 8.70711L7 8.416V13C7 13.5523 7.44772 14 8 14C8.55228 14 9 13.5523 9 13V8.415L9.29289 8.70711L9.3871 8.7903C9.77939 9.09532 10.3466 9.06759 10.7071 8.70711C11.0976 8.31658 11.0976 7.68342 10.7071 7.29289L8.70711 5.29289L8.59516 5.19631L8.52071 5.146L8.42322 5.09367L8.31214 5.04974L8.20073 5.02024L8.082 5.003Z" fill="black"/>
</svg>
