<svg width="16" height="16" viewBox="0 0 16 16" fill="none" xmlns="http://www.w3.org/2000/svg">
<path fill-rule="evenodd" clip-rule="evenodd" d="M14 8C14 4.68629 11.3137 2 8 2C4.68629 2 2 4.68629 2 8C2 11.3137 4.68629 14 8 14C11.3137 14 14 11.3137 14 8ZM12 8C12 8.51284 11.614 8.93551 11.1166 8.99327L11 9H7.416L7.70711 9.29289L7.7903 9.3871C8.09532 9.77939 8.06759 10.3466 7.70711 10.7071C7.34662 11.0676 6.77939 11.0953 6.3871 10.7903L6.29289 10.7071L4.29289 8.70711L4.21969 8.62545L4.146 8.52071L4.09367 8.42322L4.04974 8.31214L4.02024 8.20073L4.00279 8.07524L4 8L4.00691 7.8819L4.03585 7.73401L4.07123 7.62866L4.12467 7.51594L4.19633 7.40469L4.2515 7.33685L4.29289 7.29289L6.29289 5.29289L6.3871 5.2097C6.7467 4.9301 7.2533 4.9301 7.6129 5.2097L7.70711 5.29289L7.7903 5.3871L7.85962 5.4886C8.06551 5.8341 8.04492 6.27703 7.79785 6.60306L7.70711 6.70711L7.414 7H11C11.5523 7 12 7.44772 12 8Z" fill="black"/>
</svg>
