<svg width="16" height="16" viewBox="0 0 16 16" fill="none" xmlns="http://www.w3.org/2000/svg">
<path fill-rule="evenodd" clip-rule="evenodd" d="M7 8L6.9409 8.07983C6.34881 8.9014 6 9.90996 6 11C6 12.1261 6.3723 13.1653 7.00054 14.0012L3 14C2.44772 14 2 13.5523 2 13C2 10.3112 4.12231 8.11818 6.78311 8.00462L7 8ZM11 8C11.5523 8 12 8.44772 12 9V10H13C13.5523 10 14 10.4477 14 11C14 11.5523 13.5523 12 13 12H12V13C12 13.5523 11.5523 14 11 14C10.4477 14 10 13.5523 10 13V12H9C8.44772 12 8 11.5523 8 11C8 10.4477 8.44772 10 9 10H10V9C10 8.44772 10.4477 8 11 8ZM8 2C9.65685 2 11 3.34315 11 5C11 5.35208 10.9393 5.69 10.8279 6.00387L11 6C9.42674 6 8.02319 6.72662 7.10664 7.86257C5.88571 7.48404 5 6.34545 5 5C5 3.34315 6.34315 2 8 2Z" fill="black"/>
</svg>
