<svg width="16" height="16" viewBox="0 0 16 16" fill="none" xmlns="http://www.w3.org/2000/svg">
<path fill-rule="evenodd" clip-rule="evenodd" d="M3 2H5C6.05436 2 6.91817 2.81588 6.99451 3.85074L7 4V6C7 6.51284 6.61396 6.93551 6.11662 6.99327L6 7H5.06217L5.23608 7.30515C6.07451 8.71522 7.28478 9.92549 8.69485 10.7639L9 10.9378V10C9 9.48716 9.38604 9.06449 9.88338 9.00673L10 9H12C13.0544 9 13.9182 9.81588 13.9945 10.8507L14 11V13C14 13.5523 13.5523 14 13 14C7.23169 14 2 8.76831 2 3C2 2.48716 2.38604 2.06449 2.88338 2.00673L3 2ZM10 2C10.5523 2 11 2.44772 11 3V6C11 6.55228 10.5523 7 10 7C9.44772 7 9 6.55228 9 6V3C9 2.44772 9.44772 2 10 2ZM13 2C13.5523 2 14 2.44772 14 3V6C14 6.55228 13.5523 7 13 7C12.4477 7 12 6.55228 12 6V3C12 2.44772 12.4477 2 13 2Z" fill="black"/>
</svg>
