<svg width="16" height="16" viewBox="0 0 16 16" fill="none" xmlns="http://www.w3.org/2000/svg">
<path fill-rule="evenodd" clip-rule="evenodd" d="M13 7C13.5523 7 14 7.44772 14 8C14 8.55228 13.5523 9 13 9H3C2.44772 9 2 8.55228 2 8C2 7.44772 2.44772 7 3 7H13ZM13 2L13.1166 2.00673C13.5757 2.06005 13.94 2.4243 13.9933 2.88338L14 3V5L13.9933 5.11662C13.94 5.5757 13.5757 5.93995 13.1166 5.99327L13 6L12.8834 5.99327C12.4243 5.93995 12.06 5.5757 12.0067 5.11662L12 5V4H11L10.8834 3.99327C10.386 3.93551 10 3.51284 10 3C10 2.48716 10.386 2.06449 10.8834 2.00673L11 2H13ZM13 14L13.1166 13.9933C13.5757 13.94 13.94 13.5757 13.9933 13.1166L14 13V11L13.9933 10.8834C13.94 10.4243 13.5757 10.06 13.1166 10.0067L13 10L12.8834 10.0067C12.4243 10.06 12.06 10.4243 12.0067 10.8834L12 11V12H11L10.8834 12.0067C10.386 12.0645 10 12.4872 10 13C10 13.5128 10.386 13.9355 10.8834 13.9933L11 14H13ZM5 2L5.11662 2.00673C5.61396 2.06449 6 2.48716 6 3C6 3.47339 5.67107 3.86995 5.22929 3.97359L5.11662 3.99327L5 4H4V5L3.99327 5.11662C3.94439 5.53745 3.63425 5.87858 3.22929 5.97359L3.11662 5.99327L3 6L2.88338 5.99327C2.46255 5.94439 2.12142 5.63425 2.02641 5.22929L2.00673 5.11662L2 5V3L2.00673 2.88338C2.05561 2.46255 2.36575 2.12142 2.77071 2.02641L2.88338 2.00673L3 2H5ZM5 14L5.11662 13.9933C5.61396 13.9355 6 13.5128 6 13C6 12.5266 5.67107 12.1301 5.22929 12.0264L5.11662 12.0067L5 12H4V11L3.99327 10.8834C3.94439 10.4626 3.63425 10.1214 3.22929 10.0264L3.11662 10.0067L3 10L2.88338 10.0067C2.46255 10.0556 2.12142 10.3657 2.02641 10.7707L2.00673 10.8834L2 11V13L2.00673 13.1166C2.05561 13.5374 2.36575 13.8786 2.77071 13.9736L2.88338 13.9933L3 14H5Z" fill="black"/>
</svg>
