<svg width="16" height="16" viewBox="0 0 16 16" fill="none" xmlns="http://www.w3.org/2000/svg">
<path fill-rule="evenodd" clip-rule="evenodd" d="M9.5 2C11.433 2 13 3.567 13 5.5C13 7.36856 11.5357 8.89513 9.69204 8.99482L9.5 9H7V10H8C8.55228 10 9 10.4477 9 11C9 11.5523 8.55228 12 8 12H7V13C7 13.5523 6.55228 14 6 14C5.44772 14 5 13.5523 5 13V12H4C3.44772 12 3 11.5523 3 11C3 10.4477 3.44772 10 4 10H5V9H4C3.44772 9 3 8.55228 3 8C3 7.48716 3.38604 7.06449 3.88338 7.00673L4 7H5V3C5 2.44772 5.44772 2 6 2H9.5ZM9.5 4H7V7H9.5C10.3284 7 11 6.32843 11 5.5C11 4.7203 10.4051 4.07955 9.64446 4.00687L9.5 4Z" fill="black"/>
</svg>
