<svg width="16" height="16" viewBox="0 0 16 16" fill="none" xmlns="http://www.w3.org/2000/svg">
<path fill-rule="evenodd" clip-rule="evenodd" d="M10 2C10.5523 2 11 2.44772 11 3V4C12.6569 4 14 5.34315 14 7V11C14 12.6569 12.6569 14 11 14H5C3.34315 14 2 12.6569 2 11V7C2 5.34315 3.34315 4 5 4V3C5 2.44772 5.44772 2 6 2C6.55228 2 7 2.44772 7 3V4H9V3C9 2.44772 9.44772 2 10 2ZM11 6H5C4.44772 6 4 6.44772 4 7V11C4 11.5523 4.44772 12 5 12H8V10C8 8.89543 8.89543 8 10 8H12V7C12 6.44772 11.5523 6 11 6Z" fill="black"/>
</svg>
