<svg width="16" height="16" viewBox="0 0 16 16" fill="none" xmlns="http://www.w3.org/2000/svg">
<path fill-rule="evenodd" clip-rule="evenodd" d="M10.707 9.293C11.098 9.684 11.098 10.316 10.707 10.707C10.512 10.902 10.256 11 10 11C9.744 11 9.488 10.902 9.293 10.707L8 9.414L6.707 10.707C6.512 10.902 6.256 11 6 11C5.744 11 5.488 10.902 5.293 10.707C4.902 10.316 4.902 9.684 5.293 9.293L6.586 8L5.293 6.707C4.902 6.316 4.902 5.684 5.293 5.293C5.684 4.902 6.316 4.902 6.707 5.293L8 6.586L9.293 5.293C9.684 4.902 10.316 4.902 10.707 5.293C11.098 5.684 11.098 6.316 10.707 6.707L9.414 8L10.707 9.293ZM8 2C4.686 2 2 4.687 2 8C2 11.314 4.686 14 8 14C11.313 14 14 11.314 14 8C14 4.687 11.313 2 8 2Z" fill="black"/>
</svg>
