<svg width="16" height="16" viewBox="0 0 16 16" fill="none" xmlns="http://www.w3.org/2000/svg">
<path fill-rule="evenodd" clip-rule="evenodd" d="M4.29289 9.29289C4.65338 8.93241 5.22061 8.90468 5.6129 9.2097L5.70711 9.29289L8 11.5858L10.2929 9.29289C10.6834 8.90237 11.3166 8.90237 11.7071 9.29289C12.0676 9.65338 12.0953 10.2206 11.7903 10.6129L11.7071 10.7071L8.70711 13.7071C8.34662 14.0676 7.77939 14.0953 7.3871 13.7903L7.29289 13.7071L4.29289 10.7071C3.90237 10.3166 3.90237 9.68342 4.29289 9.29289ZM8.70711 2.29289L11.7071 5.29289C12.0976 5.68342 12.0976 6.31658 11.7071 6.70711C11.3166 7.09763 10.6834 7.09763 10.2929 6.70711L8 4.41421L5.70711 6.70711C5.31658 7.09763 4.68342 7.09763 4.29289 6.70711C3.90237 6.31658 3.90237 5.68342 4.29289 5.29289L7.29289 2.29289C7.68342 1.90237 8.31658 1.90237 8.70711 2.29289Z" fill="black"/>
</svg>
