<svg width="16" height="16" viewBox="0 0 16 16" fill="none" xmlns="http://www.w3.org/2000/svg">
<path fill-rule="evenodd" clip-rule="evenodd" d="M5.7903 8.6129L5.70711 8.70711L3.70711 10.7071C3.31658 11.0976 2.68342 11.0976 2.29289 10.7071C1.93241 10.3466 1.90468 9.77939 2.2097 9.3871L2.29289 9.29289L3.58579 8L2.29289 6.70711C1.90237 6.31658 1.90237 5.68342 2.29289 5.29289C2.65338 4.93241 3.22061 4.90468 3.6129 5.2097L3.70711 5.29289L5.70711 7.29289C6.03755 7.62334 6.08839 8.12751 5.85962 8.5114L5.7903 8.6129ZM9 13C9 13.5523 8.55228 14 8 14C7.48716 14 7.06449 13.614 7.00673 13.1166L7 13V3C7 2.44772 7.44772 2 8 2C8.51284 2 8.93551 2.38604 8.99327 2.88338L9 3V13ZM13.7071 6.70711L12.4142 8L13.7071 9.29289C14.0976 9.68342 14.0976 10.3166 13.7071 10.7071C13.3166 11.0976 12.6834 11.0976 12.2929 10.7071L10.2929 8.70711C9.90237 8.31658 9.90237 7.68342 10.2929 7.29289L12.2929 5.29289C12.6834 4.90237 13.3166 4.90237 13.7071 5.29289C14.0976 5.68342 14.0976 6.31658 13.7071 6.70711Z" fill="black"/>
</svg>
