<svg width="16" height="16" viewBox="0 0 16 16" fill="none" xmlns="http://www.w3.org/2000/svg">
<path fill-rule="evenodd" clip-rule="evenodd" d="M8.39225 2L8.49976 2.23485L8.5874 2.43839L8.74563 2.82111L8.96398 3.36741L9.00052 3.44621C9.0659 3.5682 9.16377 3.66965 9.28307 3.73938L9.37639 3.78555L9.99394 4.0394L10.0918 4.07197C10.2244 4.10616 10.3639 4.10339 10.495 4.06398L10.5915 4.02755L11.2837 3.71362L11.6497 3.55581L11.9288 3.44361L12.5218 4.03416L12.4327 4.27529L12.2501 4.72753L11.9592 5.41054L11.9256 5.50516C11.8894 5.63346 11.8881 5.76916 11.9218 5.89814L11.9536 5.99339L12.2044 6.6045L12.2435 6.68549C12.3133 6.81052 12.4175 6.91289 12.5435 6.98052L12.6418 7.02454L13.4461 7.32395L13.7648 7.45004L14 7.55046V8.39725L13.6684 8.54678L13.3157 8.69461L12.6249 8.97232L12.5468 9.00891C12.4259 9.07426 12.3254 9.17156 12.2562 9.28998L12.2102 9.38258L11.9595 9.99037L11.9267 10.0887C11.8922 10.2218 11.8951 10.3619 11.9349 10.4935L11.9717 10.5904L12.2753 11.2522L12.4468 11.6434L12.5611 11.9255L11.9677 12.5179L11.815 12.4626L11.5836 12.3733L11.1607 12.2011L10.5813 11.9553L10.4877 11.9234C10.361 11.8894 10.2275 11.8892 10.1007 11.9229L10.007 11.9545L9.39168 12.2084L9.31191 12.247C9.18868 12.3158 9.08744 12.4181 9.0198 12.5417L8.97556 12.6383L8.72155 13.3193L8.56556 13.7177L8.44579 14H7.60711L7.53844 13.8525L7.41179 13.5617L7.19294 13.0296L7.03916 12.6415L7.00305 12.5612C6.93812 12.4369 6.8396 12.3333 6.71893 12.2622L6.62445 12.2151L6.0065 11.96L5.92097 11.9306C5.78217 11.8921 5.63524 11.8944 5.4979 11.937L5.39697 11.9765L5.00439 12.1573L4.46 12.3973L4.24609 12.4867L4.06961 12.5564L3.47691 11.9645L3.566 11.7248L3.74886 11.2734L4.04045 10.5892L4.07425 10.4943C4.11054 10.3656 4.11175 10.2294 4.07775 10.1001L4.04565 10.0046L3.79441 9.39591L3.75514 9.31492C3.68495 9.18989 3.58039 9.08766 3.45409 9.02031L3.35549 8.97652L2.67934 8.72542L2.17597 8.52605L2 8.44976V7.60214L2.14707 7.53403L2.55482 7.35925L3.3705 7.03137L3.44932 6.99486C3.57131 6.92952 3.6728 6.8317 3.74257 6.71243L3.78877 6.61913L4.03997 6.00869L4.07264 5.91058C4.10692 5.77769 4.10406 5.63787 4.06439 5.5065L4.02774 5.40979L3.72478 4.74747L3.50957 4.25031L3.43982 4.07413L4.03248 3.48282L4.29635 3.58021L4.68894 3.73676L5.41574 4.04312L5.5103 4.076C5.63845 4.11116 5.77372 4.11164 5.90211 4.07738L5.9969 4.04517L6.61124 3.78953L6.69031 3.75104C6.81248 3.68245 6.91294 3.58099 6.98033 3.45841L7.02449 3.3627L7.28584 2.6636L7.43815 2.27639L7.55605 2H8.39225ZM8.00047 6C6.89801 6 6 6.89752 6 7.99913C6 9.10125 6.89851 10 8.00047 10C9.10164 10 10 9.10109 10 7.99913C10 6.89768 9.10214 6 8.00047 6Z" fill="black"/>
</svg>
