<svg width="16" height="16" viewBox="0 0 16 16" fill="none" xmlns="http://www.w3.org/2000/svg">
<path fill-rule="evenodd" clip-rule="evenodd" d="M10.4 2C10.5591 2 10.7117 2.06321 10.8243 2.17574L13.8243 5.17574C13.9368 5.28826 14 5.44087 14 5.6V9.8C14 9.94036 13.9508 10.0763 13.8609 10.1841L10.8609 13.7841C10.7469 13.9209 10.5781 14 10.4 14H5.6C5.44087 14 5.28826 13.9368 5.17574 13.8243L2.17574 10.8243C2.06321 10.7117 2 10.5591 2 10.4V5.6C2 5.44087 2.06321 5.28826 2.17574 5.17574L5.17574 2.17574C5.28826 2.06321 5.44087 2 5.6 2H10.4ZM8 10C7.44772 10 7 10.4477 7 11C7 11.5523 7.44772 12 8 12C8.55228 12 9 11.5523 9 11C9 10.4477 8.55228 10 8 10ZM8 4C7.48716 4 7.06449 4.38604 7.00673 4.88338L7 5V8C7 8.55228 7.44772 9 8 9C8.51284 9 8.93551 8.61396 8.99327 8.11662L9 8V5C9 4.44772 8.55228 4 8 4Z" fill="black"/>
</svg>
