<svg width="16" height="16" viewBox="0 0 16 16" fill="none" xmlns="http://www.w3.org/2000/svg">
<path fill-rule="evenodd" clip-rule="evenodd" d="M11 11C11.5523 11 12 11.4477 12 12C12 12.5523 11.5523 13 11 13H3C2.44772 13 2 12.5523 2 12C2 11.4477 2.44772 11 3 11H11ZM7 7C7.55228 7 8 7.44772 8 8C8 8.55228 7.55228 9 7 9H3C2.44772 9 2 8.55228 2 8C2 7.44772 2.44772 7 3 7H7ZM13 3C13.5523 3 14 3.44772 14 4C14 4.55228 13.5523 5 13 5H3C2.44772 5 2 4.55228 2 4C2 3.44772 2.44772 3 3 3H13Z" fill="black"/>
</svg>
