<svg width="16" height="16" viewBox="0 0 16 16" fill="none" xmlns="http://www.w3.org/2000/svg">
<path fill-rule="evenodd" clip-rule="evenodd" d="M10.3014 5.27422C9.6819 4.68339 8.85518 4.36152 7.9998 4.37475C6.43454 4.37475 5.10517 5.43075 4.63118 6.85271C4.37986 7.59786 4.37986 8.40475 4.63118 9.1499H4.63339C5.10958 10.5697 6.43674 11.6257 8.002 11.6257C8.80998 11.6257 9.50364 11.419 10.0413 11.054V11.0525C10.674 10.6336 11.1061 9.97441 11.2405 9.22926H7.9998V6.91885H13.659C13.7295 7.32009 13.7626 7.73014 13.7626 8.13799C13.7626 9.96285 13.1104 11.5057 11.9757 12.5507L11.9769 12.5516C10.9826 13.4687 9.61797 14 7.9998 14C5.73127 14 3.65675 12.7213 2.63823 10.6953C1.78726 8.99998 1.78726 7.00262 2.63823 5.30729C3.65675 3.27907 5.73127 2.0004 7.9998 2.0004C9.4901 1.98277 10.9297 2.54273 12.0144 3.56126L10.3014 5.27422Z" fill="black"/>
</svg>
