<svg width="16" height="16" viewBox="0 0 16 16" fill="none" xmlns="http://www.w3.org/2000/svg">
<path fill-rule="evenodd" clip-rule="evenodd" d="M12 8C12.5523 8 13 8.44772 13 9V10H14C14.5523 10 15 10.4477 15 11C15 11.5523 14.5523 12 14 12H13V13C13 13.5523 12.5523 14 12 14C11.4477 14 11 13.5523 11 13V12H10C9.44771 12 9 11.5523 9 11C9 10.4477 9.44771 10 10 10H11V9C11 8.44772 11.4477 8 12 8ZM5.38367 2C5.68571 2 5.97157 2.13652 6.16143 2.37144L7.47758 4H12C12.5523 4 13 4.44772 13 5L13.0006 6.02248C12.8357 6.0076 12.6688 6 12.5 6C9.46243 6 7 8.46243 7 11.5C7 11.6688 7.0076 11.8357 7.02248 12.0006L2 12C1.44772 12 1 11.5523 1 11V3C1 2.44772 1.44772 2 2 2H5.38367Z" fill="black"/>
</svg>
