<svg width="16" height="16" viewBox="0 0 16 16" fill="none" xmlns="http://www.w3.org/2000/svg">
<path fill-rule="evenodd" clip-rule="evenodd" d="M5 1.9998H11C11.5128 1.9998 11.9355 2.3858 11.9933 2.8831L12 2.99971V14L8 12L4 14V2.99971C4 2.48692 4.38604 2.06429 4.88338 2.00653L5 1.9998ZM8.0001 3.99932C7.48713 3.99932 7.06449 4.38532 7.00673 4.88261L7 4.99922V5.9988L5.9999 5.99942C5.48712 5.99942 5.06449 6.38542 5.00673 6.88271L5 6.99932L5.00673 7.11593C5.06004 7.57497 5.42426 7.93918 5.88329 7.9925L5.9999 7.99922L7 7.9988V8.99942C7 9.5122 7.386 9.93483 7.88329 9.99259L7.9999 9.99932C8.51287 9.99932 8.93551 9.61332 8.99327 9.11603L9 8.99942V7.9988L10.0001 7.99922C10.5129 7.99922 10.9355 7.61322 10.9933 7.11593L11 6.99932L10.9933 6.88271C10.94 6.42367 10.5757 6.05946 10.1167 6.00614L10.0001 5.99942L9 5.9988V4.99922C9 4.44699 8.55233 3.99932 8.0001 3.99932Z" fill="black"/>
</svg>
