<svg width="16" height="16" viewBox="0 0 16 16" fill="none" xmlns="http://www.w3.org/2000/svg">
<path fill-rule="evenodd" clip-rule="evenodd" d="M8 2C11.3137 2 14 4.68629 14 8C14 11.3137 11.3137 14 8 14C4.68629 14 2 11.3137 2 8C2 4.68629 4.68629 2 8 2ZM8 4C7.48716 4 7.06449 4.38604 7.00673 4.88338L7 5V8.584L6.70711 8.29289L6.6129 8.2097C6.22061 7.90468 5.65338 7.93241 5.29289 8.29289C4.93241 8.65338 4.90468 9.22061 5.2097 9.6129L5.29289 9.70711L7.29289 11.7071L7.37455 11.7803L7.47929 11.854L7.57678 11.9063L7.68786 11.9503L7.79927 11.9798L7.92476 11.9972L8 12L8.1181 11.9931L8.26599 11.9642L8.37134 11.9288L8.48406 11.8753L8.59531 11.8037L8.66315 11.7485L8.70711 11.7071L10.7071 9.70711L10.7903 9.6129C11.0699 9.2533 11.0699 8.7467 10.7903 8.3871L10.7071 8.29289L10.6129 8.2097L10.5114 8.14038C10.1659 7.93449 9.72297 7.95508 9.39694 8.20215L9.29289 8.29289L9 8.586V5C9 4.44772 8.55228 4 8 4Z" fill="black"/>
</svg>
