<svg width="16" height="16" viewBox="0 0 16 16" fill="none" xmlns="http://www.w3.org/2000/svg">
<path fill-rule="evenodd" clip-rule="evenodd" d="M7.66604 12.487L5.06917 13.9137C4.71839 14.1064 4.28453 13.9655 4.10012 13.5989C4.02669 13.453 4.00135 13.2858 4.02802 13.1232L4.52398 10.1014C4.56391 9.85816 4.48673 9.60995 4.31761 9.43768L2.2167 7.29762C1.93291 7.00855 1.92711 6.5338 2.20373 6.23725C2.31388 6.11915 2.45821 6.0423 2.61438 6.01859L5.51777 5.57771C5.75149 5.54222 5.95353 5.38882 6.05805 5.16751L7.35649 2.41816C7.53188 2.04679 7.96215 1.89432 8.31752 2.0776C8.45903 2.15058 8.57358 2.27028 8.64342 2.41816L9.94185 5.16751C10.0464 5.38882 10.2484 5.54222 10.4821 5.57771L13.3855 6.01859C13.7777 6.07814 14.0494 6.45865 13.9924 6.86848C13.9698 7.03168 13.8962 7.18251 13.7832 7.29762L11.6823 9.43768C11.5132 9.60995 11.436 9.85816 11.4759 10.1014L11.9719 13.1232C12.0389 13.5314 11.7765 13.919 11.386 13.9891C11.2304 14.0169 11.0704 13.9905 10.9307 13.9137L8.33386 12.487C8.12482 12.3722 7.87509 12.3722 7.66604 12.487ZM6.70302 10.7341C7.5118 10.2898 8.4881 10.2898 9.29689 10.7341L9.5784 10.8888L9.50233 10.4253C9.35976 9.55669 9.63648 8.66672 10.2551 8.03659L10.657 7.62719L10.1819 7.55505C9.28279 7.41852 8.51938 6.83891 8.13339 6.0216L7.99995 5.73905L7.86652 6.0216C7.48052 6.83891 6.71711 7.41852 5.81803 7.55505L5.34292 7.62719L5.74482 8.03659C6.36343 8.66672 6.64014 9.55669 6.49758 10.4253L6.42151 10.8888L6.70302 10.7341Z" fill="black"/>
</svg>
