<svg width="16" height="16" viewBox="0 0 16 16" fill="none" xmlns="http://www.w3.org/2000/svg">
<path fill-rule="evenodd" clip-rule="evenodd" d="M4 8V14H3.00007C2.4872 14 2.0645 13.614 2.00673 13.1166L2 13V9C2 8.48716 2.38607 8.06449 2.88344 8.00673L3.00007 8H4ZM8.48216 2C8.7563 2 8.97853 2.22386 8.97853 2.5V6C8.97853 7.10457 9.86747 8 10.964 8H13.0074C13.0727 8 13.1379 8.0065 13.202 8.01942C13.6774 8.11519 14.0051 8.53817 14.0002 9.00922L13.992 9.12783L12.8347 13.0137L12.7895 13.1961C12.6967 13.6635 12.2893 14 11.8161 14H6.00029V7.47214C6.00029 7.3557 6.02047 7.24047 6.05964 7.13155L6.1051 7.02492C6.16256 6.90916 6.20873 6.78805 6.24296 6.6633L7.4046 2.42975C7.58833 2.16302 7.89194 2 8.22014 2H8.48216Z" fill="black"/>
</svg>
