<svg width="16" height="16" viewBox="0 0 16 16" fill="none" xmlns="http://www.w3.org/2000/svg">
<path fill-rule="evenodd" clip-rule="evenodd" d="M11.613 2.2096L11.7072 2.29279L13.707 4.29301L13.7833 4.37852L13.8204 4.42823L13.8497 4.47277L13.9062 4.57685L13.9487 4.68345L13.9672 4.74584L13.9932 4.88349L13.9994 4.96716L13.9963 5.0852L13.9889 5.14923L13.973 5.23166L13.9502 5.31236L13.9063 5.42345L13.8671 5.49869L13.8205 5.57198L13.7745 5.62988L13.707 5.70736L11.7072 7.70759C11.3167 8.09815 10.6835 8.09815 10.293 7.70759C9.93255 7.34708 9.90482 6.77981 10.2098 6.38748L10.293 6.29327L10.5855 6.00051L3.00052 6.00027C2.48768 6.00027 2.06501 5.61423 2.00725 5.11689L2.00052 5.00011C2.00052 4.44783 2.44823 4.00011 3.00052 4.00011L10.5855 4.00051L10.293 3.70712C9.93255 3.34661 9.90482 2.77933 10.2098 2.38701L10.293 2.29279C10.6535 1.93228 11.2207 1.90455 11.613 2.2096ZM2.23266 11.6412L2.17951 11.5716L2.13287 11.4983L2.08362 11.4007L2.04981 11.312L2.02699 11.2313L2.01109 11.1489L2.0018 11.0589L2.00181 10.9407L2.01139 10.8494L2.03279 10.7455L2.06131 10.6544L2.0938 10.5765L2.13374 10.4999L2.19754 10.403L2.25362 10.3343L2.29296 10.2927L4.29282 8.29245L4.38703 8.20926C4.74661 7.92963 5.25319 7.92963 5.61277 8.20926L5.70698 8.29245L5.79016 8.38667C6.06976 8.7463 6.06976 9.25294 5.79016 9.61256L5.70698 9.70678L5.41447 10.0002L12.9995 9.99977C13.5123 9.99977 13.935 10.3858 13.9927 10.8832L13.9995 10.9998L13.9927 11.1166C13.9394 11.5756 13.5752 11.9399 13.1161 11.9932L12.9995 11.9999L5.41447 12.0002L5.70698 12.2929L5.79016 12.3871C6.09517 12.7795 6.06745 13.3467 5.70698 13.7073C5.34651 14.0678 4.7793 14.0955 4.38703 13.7904L4.29282 13.7073L2.29296 11.707L2.25161 11.6631L2.24152 11.6499L2.23266 11.6412Z" fill="black"/>
</svg>
