<svg width="16" height="16" viewBox="0 0 16 16" fill="none" xmlns="http://www.w3.org/2000/svg">
<path fill-rule="evenodd" clip-rule="evenodd" d="M5 6C5 4.69375 5.83485 3.58249 7.00009 3.17067L7 2H9L9.0009 3.17102C10.1656 3.58311 11 4.69412 11 6C11 6.55228 10.5523 7 10 7C9.48716 7 9.06449 6.61396 9.00673 6.11662L9 6C9 5.44772 8.55228 5 8 5C7.44772 5 7 5.44772 7 6C7 6.51284 7.38604 6.93551 7.88338 6.99327L8 7C9.65685 7 11 8.34315 11 10C11 11.3059 10.1656 12.4169 9.0009 12.829L9 14H7L7.00009 12.8293C5.83485 12.4175 5 11.3063 5 10C5 9.44772 5.44772 9 6 9C6.51284 9 6.93551 9.38604 6.99327 9.88338L7 10C7 10.5523 7.44772 11 8 11C8.55228 11 9 10.5523 9 10C9 9.48716 8.61396 9.06449 8.11662 9.00673L8 9C6.34315 9 5 7.65685 5 6Z" fill="black"/>
</svg>
