<svg width="16" height="16" viewBox="0 0 16 16" fill="none" xmlns="http://www.w3.org/2000/svg">
<path fill-rule="evenodd" clip-rule="evenodd" d="M8 14C11.3137 14 14 11.3137 14 8C14 4.68629 11.3137 2 8 2C4.68629 2 2 4.68629 2 8C2 11.3137 4.68629 14 8 14ZM8 12C7.48716 12 7.06449 11.614 7.00673 11.1166L7 11V7.416L6.70711 7.70711L6.6129 7.7903C6.22061 8.09532 5.65338 8.06759 5.29289 7.70711C4.93241 7.34662 4.90468 6.77939 5.2097 6.3871L5.29289 6.29289L7.29289 4.29289L7.37455 4.21969L7.47929 4.146L7.57678 4.09367L7.68786 4.04974L7.79927 4.02024L7.92476 4.00279L8 4L8.1181 4.00691L8.26599 4.03585L8.37134 4.07123L8.48406 4.12467L8.59531 4.19633L8.66315 4.2515L8.70711 4.29289L10.7071 6.29289L10.7903 6.3871C11.0699 6.7467 11.0699 7.2533 10.7903 7.6129L10.7071 7.70711L10.6129 7.7903L10.5114 7.85962C10.1659 8.06551 9.72297 8.04492 9.39694 7.79785L9.29289 7.70711L9 7.414V11C9 11.5523 8.55228 12 8 12Z" fill="black"/>
</svg>
