<svg width="16" height="16" viewBox="0 0 16 16" fill="none" xmlns="http://www.w3.org/2000/svg">
<path fill-rule="evenodd" clip-rule="evenodd" d="M6.8825 3H9.1175C9.44948 3 9.75687 3.16444 9.94182 3.43385L10.0052 3.53968L10.4415 4.38095C10.9269 5.31712 11.8652 5.92526 12.9081 5.99357L13.1047 6H13.4444C13.7206 6 13.9497 6.20147 13.9927 6.46544L14 6.55556V12C14 12.5128 13.614 12.9355 13.1166 12.9933L13 13H3C2.48716 13 2.06449 12.614 2.00673 12.1166L2 12V6.55556C2 6.27941 2.20147 6.05033 2.46544 6.00727L2.55556 6H2.89527C3.94981 6 4.92162 5.44692 5.4623 4.55259L5.55854 4.38095L5.99475 3.53968C6.14757 3.24496 6.43505 3.04777 6.75936 3.00759L6.8825 3H9.1175H6.8825ZM8 7C6.89543 7 6 7.89543 6 9C6 10.1046 6.89543 11 8 11C9.10457 11 10 10.1046 10 9C10 7.89543 9.10457 7 8 7Z" fill="black"/>
</svg>
