<svg width="16" height="16" viewBox="0 0 16 16" fill="none" xmlns="http://www.w3.org/2000/svg">
<path fill-rule="evenodd" clip-rule="evenodd" d="M7 2C9.76142 2 12 4.23858 12 7C12 8.01911 11.6951 8.967 11.1716 9.75745L13.7071 12.2929C14.0976 12.6834 14.0976 13.3166 13.7071 13.7071C13.3466 14.0676 12.7794 14.0953 12.3871 13.7903L12.2929 13.7071L9.75745 11.1716C8.967 11.6951 8.01911 12 7 12C4.23858 12 2 9.76142 2 7C2 4.23858 4.23858 2 7 2ZM7 4C6.48716 4 6.06449 4.38604 6.00673 4.88338L6 5V6H5C4.48716 6 4.06449 6.38604 4.00673 6.88338L4 7C4 7.51284 4.38604 7.93551 4.88338 7.99327L5 8H6V9C6 9.55228 6.44772 10 7 10C7.51284 10 7.93551 9.61396 7.99327 9.11662L8 9V8H9C9.51284 8 9.93551 7.61396 9.99327 7.11662L10 7C10 6.48716 9.61396 6.06449 9.11662 6.00673L9 6H8V5C8 4.44772 7.55228 4 7 4Z" fill="black"/>
</svg>
