<svg width="16" height="16" viewBox="0 0 16 16" fill="none" xmlns="http://www.w3.org/2000/svg">
<path fill-rule="evenodd" clip-rule="evenodd" d="M4.49983 11C5.32822 11 5.99977 11.6716 5.99977 12.5C5.99977 13.3284 5.32822 14 4.49983 14C3.67143 14 2.99989 13.3284 2.99989 12.5C2.99989 11.6716 3.67143 11 4.49983 11ZM11.4996 11C12.328 11 12.9995 11.6716 12.9995 12.5C12.9995 13.3284 12.328 14 11.4996 14C10.6712 14 9.99962 13.3284 9.99962 12.5C9.99962 11.6716 10.6712 11 11.4996 11ZM2.99996 2H4.99989C5.5127 2 5.93536 2.38604 5.99312 2.88338L5.99985 3V4H12.9994C13.6247 4 14.0864 4.56329 13.9863 5.16215L13.9609 5.27472L12.3754 8.82416C12.0242 10.0535 10.9357 10.9185 9.67254 10.9945L9.49096 11H6.99981C5.40219 11 4.09626 9.75108 4.00502 8.17627L3.99992 8V4H2.99996C2.4477 4 2 3.55228 2 3C2 2.48716 2.38603 2.06449 2.88335 2.00673L2.99996 2H4.99989H2.99996Z" fill="black"/>
</svg>
