<svg width="16" height="16" viewBox="0 0 16 16" fill="none" xmlns="http://www.w3.org/2000/svg">
<path d="M3.6129 4.2097L3.70711 4.29289L6 6.585L7.29289 5.29289C7.65338 4.93241 8.22061 4.90468 8.6129 5.2097L8.70711 5.29289L11.5 8.085L12.2929 7.29289C12.8955 6.69032 13.9072 7.07233 13.994 7.88637L14 8L13.9983 11.0594L13.9893 11.1469L13.9643 11.2658L13.9401 11.3417L13.9063 11.4232L13.854 11.5207L13.7871 11.617L13.7071 11.7071C13.6717 11.7425 13.6343 11.7747 13.5953 11.8037L13.4841 11.8753L13.3713 11.9288L13.266 11.9642L13.1485 11.989L13.0892 11.996L13 12H10C9.14783 12 8.70257 11.0145 9.21677 10.3775L9.29289 10.2929L10.085 9.5L8 7.415L6.70711 8.70711C6.34662 9.06759 5.77939 9.09532 5.3871 8.7903L5.29289 8.70711L2.29289 5.70711C1.90237 5.31658 1.90237 4.68342 2.29289 4.29289C2.65338 3.93241 3.22061 3.90468 3.6129 4.2097Z" fill="black"/>
</svg>
