<svg width="16" height="16" viewBox="0 0 16 16" fill="none" xmlns="http://www.w3.org/2000/svg">
<path fill-rule="evenodd" clip-rule="evenodd" d="M6.5 2.37319L8 3.14831L9.5 2.37319C10.4629 1.8756 11.5371 1.8756 12.5 2.37319L13.6228 2.95341C13.8506 3.07112 14 3.35614 14 3.67309V12.8551C14 13.2832 13.7314 13.6302 13.4 13.6302C13.3237 13.6302 13.248 13.6114 13.1772 13.5748L12.5 13.2249C11.5371 12.7273 10.4629 12.7273 9.5 13.2249L8 14L6.5 13.2249C5.53709 12.7273 4.46291 12.7273 3.5 13.2249L2.82283 13.5748C2.51516 13.7338 2.16598 13.5405 2.04291 13.143C2.01457 13.0514 2 12.9537 2 12.8551V3.67309C2 3.35614 2.14937 3.07112 2.37717 2.95341L3.5 2.37319C4.46291 1.8756 5.53709 1.8756 6.5 2.37319Z" fill="black"/>
</svg>
