<svg width="16" height="16" viewBox="0 0 16 16" fill="none" xmlns="http://www.w3.org/2000/svg">
<path fill-rule="evenodd" clip-rule="evenodd" d="M3 2H5C6.05436 2 6.91817 2.81588 6.99451 3.85074L7 4V6C7 6.51284 6.61396 6.93551 6.11662 6.99327L6 7H5.06217L5.23608 7.30515C6.07451 8.71522 7.28478 9.92549 8.69485 10.7639L9 10.9378V10C9 9.48716 9.38604 9.06449 9.88338 9.00673L10 9H12C13.0544 9 13.9182 9.81588 13.9945 10.8507L14 11V13C14 13.5523 13.5523 14 13 14C7.23169 14 2 8.76831 2 3C2 2.48716 2.38604 2.06449 2.88338 2.00673L3 2H5H3ZM12.694 2L14 3.30602L12.8067 4.5L14 5.69398L12.694 7L11.5 5.80675L10.306 7L9 5.69398L10.1933 4.5L9 3.30602L10.306 2L11.5 3.19325L12.694 2Z" fill="black"/>
</svg>
