<svg width="16" height="16" viewBox="0 0 16 16" fill="none" xmlns="http://www.w3.org/2000/svg">
<path d="M11 2C11.5523 2 12 2.44772 12 3C12 3.51284 11.614 3.93551 11.1166 3.99327L11 4H7.08L9.78087 7.37531C10.0465 7.70732 10.0706 8.16639 9.85331 8.52151L9.78087 8.62469L7.079 12H11C11.5128 12 11.9355 12.386 11.9933 12.8834L12 13C12 13.5128 11.614 13.9355 11.1166 13.9933L11 14H5C4.19961 14 3.73847 13.1162 4.15378 12.4664L4.21913 12.3753L7.719 8L4.21913 3.6247C3.71913 2.99969 4.12116 2.08752 4.88802 2.00589L5 2H11Z" fill="black"/>
</svg>
