<svg width="16" height="16" viewBox="0 0 16 16" fill="none" xmlns="http://www.w3.org/2000/svg">
<path fill-rule="evenodd" clip-rule="evenodd" d="M4 14C3.44772 14 3 13.5523 3 13V3C3 2.44772 3.44772 2 4 2H7C8.71207 2 10 3.60991 10 5.5C10 6.06628 9.88439 6.60742 9.6764 7.08764C11.0401 7.44531 12 8.86825 12 10.5C12 12.3249 10.7994 13.8886 9.17556 13.9943L9 14H4ZM9.09314 9.00727L9 9H5V12H9C9.49707 12 10 11.3713 10 10.5C10 9.68312 9.55797 9.07953 9.09314 9.00727ZM7 4H5V7H7C7.49707 7 8 6.37134 8 5.5C8 4.68312 7.55797 4.07953 7.09315 4.00727L7 4Z" fill="black"/>
</svg>
