<svg width="16" height="16" viewBox="0 0 16 16" fill="none" xmlns="http://www.w3.org/2000/svg">
<path fill-rule="evenodd" clip-rule="evenodd" d="M12.6247 2.21911C13.0228 2.53758 13.113 3.09828 12.8532 3.52185L12.7809 3.62467L8.87235 8.51073C8.95364 8.65536 9.00001 8.82225 9.00001 8.99998H10C10.5523 8.99998 11 9.44769 11 9.99998C11 10.5523 10.5523 11 10 11L8.99997 10.9999L9.00001 13C9.00001 13.5523 8.55229 14 8.00001 14C7.44772 14 7.00001 13.5523 7.00001 13L6.99997 10.9999L6.00001 11C5.44772 11 5.00001 10.5523 5.00001 9.99998C5.00001 9.44769 5.44772 8.99998 6.00001 8.99998H7.00001C7.00001 8.82225 7.04637 8.65536 7.12766 8.51073L3.21914 3.62467C2.87413 3.19341 2.94405 2.56412 3.37531 2.21911C3.7734 1.90064 4.34022 1.93572 4.69643 2.2822L4.78088 2.37528L8.00001 6.39898L11.2191 2.37528C11.5641 1.94402 12.1934 1.8741 12.6247 2.21911Z" fill="black"/>
</svg>
