<svg width="16" height="16" viewBox="0 0 16 16" fill="none" xmlns="http://www.w3.org/2000/svg">
<path fill-rule="evenodd" clip-rule="evenodd" d="M13 9C13.5128 9 13.9355 9.38604 13.9933 9.88338L14 10V12C14 12.5128 13.614 12.9355 13.1166 12.9933L13 13H3C2.48716 13 2.06449 12.614 2.00673 12.1166L2 12V10C2 9.48716 2.38604 9.06449 2.88338 9.00673L3 9H13ZM3 10H5V12H3V10ZM13 3C13.5128 3 13.9355 3.38604 13.9933 3.88338L14 4V6C14 6.51284 13.614 6.93551 13.1166 6.99327L13 7H3C2.48716 7 2.06449 6.61396 2.00673 6.11662L2 6V4C2 3.48716 2.38604 3.06449 2.88338 3.00673L3 3H13ZM3 4H5V6H3V4Z" fill="black"/>
</svg>
