<svg width="16" height="16" viewBox="0 0 16 16" fill="none" xmlns="http://www.w3.org/2000/svg">
<path fill-rule="evenodd" clip-rule="evenodd" d="M3.75736 3.75737L12.2426 12.2427C12.6332 12.6332 12.6332 13.2663 12.2426 13.6569C11.8521 14.0474 11.219 14.0474 10.8284 13.6569L9.08193 11.9114C8.7319 11.9707 8.37133 12 8 12C5.63699 12 3.7095 10.8123 2.16412 8.27683L2 8.00001C2.41277 7.28442 2.85364 6.66888 3.32369 6.15018L2.34315 5.17158C1.95262 4.78106 1.95262 4.1479 2.34315 3.75737C2.73367 3.36685 3.36683 3.36685 3.75736 3.75737ZM8 4.00001C10.4474 4.00001 12.4276 5.27407 14 8.00001C13.5873 8.71549 13.1465 9.33095 12.6765 9.8496L6.91727 4.08876C7.26754 4.02939 7.62839 4.00001 8 4.00001Z" fill="black"/>
</svg>
