<svg width="16" height="16" viewBox="0 0 16 16" fill="none" xmlns="http://www.w3.org/2000/svg">
<path fill-rule="evenodd" clip-rule="evenodd" d="M13 10C13.4734 10 13.8699 10.3289 13.9736 10.7707L13.9933 10.8834L14 11V13L13.9933 13.1166L13.9736 13.2293C13.8881 13.5938 13.6032 13.8814 13.2403 13.9709L13.1166 13.9933L13 14H11L10.8834 13.9933L10.7707 13.9736C10.4062 13.8881 10.1186 13.6032 10.0291 13.2403L10.0067 13.1166L10 13L10.0067 12.8834L10.0264 12.7707C10.1119 12.4062 10.3968 12.1186 10.7597 12.0291L10.8834 12.0067L11 12H12V11L12.0067 10.8834L12.0264 10.7707C12.1301 10.3289 12.5266 10 13 10ZM13 2C13.5523 2 14 2.44772 14 3C14 3.51284 13.614 3.93551 13.1166 3.99327L13 4H5C4.48716 4 4.06449 4.38604 4.00673 4.88338L4 5V13C4 13.5523 3.55228 14 3 14C2.48716 14 2.06449 13.614 2.00673 13.1166L2 13V5C2 3.40232 3.24892 2.09634 4.82373 2.00509L5 2H13Z" fill="black"/>
</svg>
