<svg width="16" height="16" viewBox="0 0 16 16" fill="none" xmlns="http://www.w3.org/2000/svg">
<path fill-rule="evenodd" clip-rule="evenodd" d="M12 2C13.1046 2 14 2.89543 14 4V10C14 11.1046 13.1046 12 12 12H10L8 14L6 12H4C2.89543 12 2 11.1046 2 10V4C2 2.89543 2.89543 2 4 2H12ZM8 4C7.48716 4 7.06449 4.38604 7.00673 4.88338L7 5V6H6C5.44772 6 5 6.44772 5 7C5 7.51284 5.38604 7.93551 5.88338 7.99327L6 8H7V9C7 9.55228 7.44772 10 8 10C8.51284 10 8.93551 9.61396 8.99327 9.11662L9 9V8H10C10.5523 8 11 7.55228 11 7C11 6.48716 10.614 6.06449 10.1166 6.00673L10 6H9V5C9 4.44772 8.55228 4 8 4Z" fill="black"/>
</svg>
