<svg width="16" height="16" viewBox="0 0 16 16" fill="none" xmlns="http://www.w3.org/2000/svg">
<path fill-rule="evenodd" clip-rule="evenodd" d="M3 12L3.40116 11.1364L3.54048 10.8213C3.98099 9.77332 4.23074 8.64416 4.27629 7.49512L4.28389 7.11146V7L4.28843 6.80036C4.36826 5.05232 5.49056 3.59928 7.00019 3.14644L7 3C7 2.44772 7.44772 2 8 2C8.55228 2 9 2.44772 9 3L9.00088 3.14676C10.5068 3.59902 11.6271 5.04671 11.7111 6.78949L11.7161 7V7.11146L11.7224 7.46029C11.7638 8.60973 12.0096 9.73991 12.4462 10.7896L12.5988 11.1364L13 12H10C10 13.1046 9.10457 14 8 14C6.89543 14 6 13.1046 6 12H3Z" fill="black"/>
</svg>
