<svg width="16" height="16" viewBox="0 0 16 16" fill="none" xmlns="http://www.w3.org/2000/svg">
<path fill-rule="evenodd" clip-rule="evenodd" d="M12 13C12 13.5523 12.4477 14 13 14C13.5523 14 14 13.5523 14 13V3C14 2.44772 13.5523 2 13 2C12.4477 2 12 2.44772 12 3V13ZM10 8L9.996 7.918L9.97976 7.79927L9.95026 7.68786L9.90633 7.57678L9.854 7.47929L9.80369 7.40484L9.70711 7.29289L7.70711 5.29289C7.31658 4.90237 6.68342 4.90237 6.29289 5.29289C5.93241 5.65338 5.90468 6.22061 6.2097 6.6129L6.29289 6.70711L6.585 7H3C2.44772 7 2 7.44772 2 8C2 8.55228 2.44772 9 3 9H6.585L6.29289 9.29289C5.93241 9.65338 5.90468 10.2206 6.2097 10.6129L6.29289 10.7071C6.65338 11.0676 7.22061 11.0953 7.6129 10.7903L7.70711 10.7071L9.70711 8.70711L9.7485 8.66315L9.80367 8.59531L9.87533 8.48406L9.90635 8.4231L9.94011 8.34165L9.96415 8.26599L9.99317 8.11747L10 8Z" fill="black"/>
</svg>
