<svg width="16" height="16" viewBox="0 0 16 16" fill="none" xmlns="http://www.w3.org/2000/svg">
<path fill-rule="evenodd" clip-rule="evenodd" d="M8 2L12 6L12.0012 6.10026C11.6777 6.03451 11.3429 6 11 6C8.23858 6 6 8.23858 6 11C6 12.1261 6.3723 13.1653 7.00054 14.0012L5 14C4.44772 14 4 13.5523 4 13V3C4 2.44772 4.44772 2 5 2H8ZM9.70711 8.29289L11 9.585L12.2929 8.29289C12.6534 7.93241 13.2206 7.90468 13.6129 8.2097L13.7071 8.29289C14.0676 8.65338 14.0953 9.22061 13.7903 9.6129L13.7071 9.70711L12.415 11L13.7071 12.2929C14.0976 12.6834 14.0976 13.3166 13.7071 13.7071C13.3166 14.0976 12.6834 14.0976 12.2929 13.7071L11 12.415L9.70711 13.7071C9.34662 14.0676 8.77939 14.0953 8.3871 13.7903L8.29289 13.7071C7.93241 13.3466 7.90468 12.7794 8.2097 12.3871L8.29289 12.2929L9.585 11L8.29289 9.70711C7.90237 9.31658 7.90237 8.68342 8.29289 8.29289C8.68342 7.90237 9.31658 7.90237 9.70711 8.29289Z" fill="black"/>
</svg>
