<svg width="16" height="16" viewBox="0 0 16 16" fill="none" xmlns="http://www.w3.org/2000/svg">
<path fill-rule="evenodd" clip-rule="evenodd" d="M2 5C2 5.55228 2.44772 6 3 6L5.17102 6.0009C5.58311 7.16562 6.69412 8 8 8C9.30588 8 10.4169 7.16562 10.829 6.0009L13 6C13.5523 6 14 5.55228 14 5C14 4.44772 13.5523 4 13 4L10.8293 4.00009C10.4175 2.83485 9.30625 2 8 2C6.69375 2 5.58249 2.83485 5.17067 4.00009L3 4C2.44772 4 2 4.44772 2 5ZM2 11C2 11.5523 2.44772 12 3 12L8.17102 12.0009C8.58312 13.1656 9.69412 14 11 14C12.6569 14 14 12.6569 14 11C14 9.34315 12.6569 8 11 8C9.69375 8 8.58249 8.83485 8.17067 10.0001L3 10C2.44772 10 2 10.4477 2 11ZM10 11C10 10.4477 10.4477 10 11 10C11.5523 10 12 10.4477 12 11C12 11.5523 11.5523 12 11 12C10.4477 12 10 11.5523 10 11ZM7 5C7 4.44772 7.44772 4 8 4C8.55228 4 9 4.44772 9 5C9 5.55228 8.55228 6 8 6C7.44772 6 7 5.55228 7 5Z" fill="black"/>
</svg>
