<svg width="16" height="16" viewBox="0 0 16 16" fill="none" xmlns="http://www.w3.org/2000/svg">
<path fill-rule="evenodd" clip-rule="evenodd" d="M8 2C11.3137 2 14 4.68629 14 8C14 11.3137 11.3137 14 8 14C4.68629 14 2 11.3137 2 8C2 4.68629 4.68629 2 8 2ZM6 5C5.48716 5 5.06449 5.38604 5.00673 5.88338L5 6V10C5 10.5523 5.44772 11 6 11C6.51284 11 6.93551 10.614 6.99327 10.1166L7 10V6C7 5.44772 6.55228 5 6 5ZM9.00673 5.88338C9.06449 5.38604 9.48716 5 10 5C10.5523 5 11 5.44772 11 6V10L10.9933 10.1166C10.9355 10.614 10.5128 11 10 11C9.44772 11 9 10.5523 9 10V6L9.00673 5.88338Z" fill="black"/>
</svg>
