<svg width="16" height="16" viewBox="0 0 16 16" fill="none" xmlns="http://www.w3.org/2000/svg">
<path fill-rule="evenodd" clip-rule="evenodd" d="M9 2C10.1046 2 11 2.89543 11 4V12C11 13.1046 10.1046 14 9 14H7C5.89543 14 5 13.1046 5 12V4C5 2.89543 5.89543 2 7 2H9ZM9 4H7V12H9V4ZM3 4C3.55228 4 4 4.44772 4 5V11C4 11.5523 3.55228 12 3 12C2.44772 12 2 11.5523 2 11V5C2 4.44772 2.44772 4 3 4ZM13 4C13.5523 4 14 4.44772 14 5V11C14 11.5523 13.5523 12 13 12C12.4477 12 12 11.5523 12 11V5C12 4.44772 12.4477 4 13 4Z" fill="black"/>
</svg>
