<svg width="16" height="16" viewBox="0 0 16 16" fill="none" xmlns="http://www.w3.org/2000/svg">
<path fill-rule="evenodd" clip-rule="evenodd" d="M8 2C8.55228 2 9 2.44772 9 3L9.00119 3.10026C10.9596 3.4983 12.5022 5.0411 12.8999 6.99968L13 7C13.5523 7 14 7.44772 14 8C14 8.55228 13.5523 9 13 9L12.8997 9.00132C12.5017 10.9594 10.9593 12.5018 9.00119 12.8997L9 13C9 13.5523 8.55228 14 8 14C7.44772 14 7 13.5523 7 13L6.99981 12.8999C5.04059 12.5022 3.49741 10.9588 3.09991 8.99946L3 9C2.44772 9 2 8.55228 2 8C2 7.44772 2.44772 7 3 7L3.10011 6.99954C3.49793 5.04069 5.04093 3.49777 6.99981 3.10006L7 3C7 2.44772 7.44772 2 8 2ZM8 5C6.34315 5 5 6.34315 5 8C5 9.65685 6.34315 11 8 11C9.65685 11 11 9.65685 11 8C11 6.34315 9.65685 5 8 5Z" fill="black"/>
</svg>
