<svg width="16" height="16" viewBox="0 0 16 16" fill="none" xmlns="http://www.w3.org/2000/svg">
<path fill-rule="evenodd" clip-rule="evenodd" d="M3 2H13C13.5128 2 13.9355 2.38604 13.9933 2.88338L14 3V13C14 13.5128 13.614 13.9355 13.1166 13.9933L13 14H3C2.48716 14 2.06449 13.614 2.00673 13.1166L2 13V3C2 2.48716 2.38604 2.06449 2.88338 2.00673L3 2H13H3ZM7.92 10.996L8.00008 11L8.1329 10.9913L8.2661 10.9642L8.39693 10.9182L8.50046 10.8661L8.5819 10.8135L8.62172 10.7834L8.70724 10.7071L10.7073 8.70711L10.7905 8.6129C11.0701 8.2533 11.0701 7.7467 10.7905 7.3871L10.7073 7.29289L10.6131 7.2097C10.2535 6.9301 9.74688 6.9301 9.38727 7.2097L9.29306 7.29289L9 7.585L9.00013 6C9.00013 5.48716 8.61409 5.06449 8.11675 5.00673L8.00013 5L7.88346 5.00673C7.42437 5.06005 7.06013 5.4243 7.00681 5.88338L7.00008 6L7 7.585L6.70715 7.29289L6.61294 7.2097C6.22064 6.90468 5.65339 6.93241 5.2929 7.29289C4.93241 7.65338 4.90468 8.22061 5.20971 8.6129L5.2929 8.70711L7.29298 10.7071L7.40492 10.8037L7.47938 10.854L7.57687 10.9063L7.68795 10.9503L7.76657 10.9726L7.85112 10.989L7.92 10.996Z" fill="black"/>
</svg>
