<svg width="16" height="16" viewBox="0 0 16 16" fill="none" xmlns="http://www.w3.org/2000/svg">
<path fill-rule="evenodd" clip-rule="evenodd" d="M11.9945 3.85074C11.9182 2.81588 11.0544 2 10 2H6L5.85074 2.00549C4.81588 2.08183 4 2.94564 4 4V6L4.00772 6.12414C4.04351 6.41043 4.20188 6.66977 4.4453 6.83205L6.196 8L4.4453 9.16795C4.1671 9.35342 4 9.66565 4 10V12C4 13.1046 4.89543 14 6 14H10C11.1046 14 12 13.1046 12 12V10C12 9.66565 11.8329 9.35342 11.5547 9.16795L9.803 8L11.5547 6.83205L11.6537 6.75676C11.8721 6.56818 12 6.29256 12 6V4L11.9945 3.85074ZM6 10.536L8 9.203L10 10.536V12H6V10.536Z" fill="black"/>
</svg>
