<svg width="16" height="16" viewBox="0 0 16 16" fill="none" xmlns="http://www.w3.org/2000/svg">
<path fill-rule="evenodd" clip-rule="evenodd" d="M8 2C9.10457 2 10 2.89543 10 4V7.172L10.8292 8.00033C10.9178 7.74964 10.9741 7.48364 10.9929 7.20735L11.0067 6.88338C11.0645 6.38604 11.4872 6 12 6C12.5523 6 13 6.44772 13 7C13 7.91155 12.7561 8.76612 12.3299 9.502L12.7069 9.87843C13.0974 10.269 13.0974 10.9021 12.7069 11.2926C12.3163 11.6832 11.6832 11.6832 11.2926 11.2926L11.0001 11.0003C10.419 11.4368 9.73967 11.7497 9.00119 11.8997L9 13C9 13.5523 8.55228 14 8 14C7.44772 14 7 13.5523 7 13L6.99981 11.8999C4.71767 11.4366 3 9.41889 3 7C3 6.44772 3.44772 6 4 6C4.55228 6 5 6.44772 5 7C5 7.90606 5.40167 8.71831 6.03666 9.26839C6.01263 9.1826 6 9.09278 6 9V6L3.75736 3.75736C3.36684 3.36683 3.36684 2.73367 3.75736 2.34315C4.14788 1.95262 4.78105 1.95262 5.17157 2.34315L6.1266 3.29819C6.41083 2.53981 7.14238 2 8 2Z" fill="black"/>
</svg>
