<svg width="16" height="16" viewBox="0 0 16 16" fill="none" xmlns="http://www.w3.org/2000/svg">
<path fill-rule="evenodd" clip-rule="evenodd" d="M9.52845 10.6C9.92997 11 10.1307 11.5 10.1307 12C10.1307 12.5 9.92997 13.1 9.52845 13.4C9.12693 13.8 8.52466 14 8.02276 14C7.52086 14 6.91859 13.8 6.61745 13.4C6.21593 13 6.01517 12.5 6.01517 12C6.01517 11.5 6.21593 10.9 6.61745 10.6C7.42048 9.8 8.72542 9.8 9.52845 10.6ZM7.92246 6C9.22246 6 10.5225 6.6 11.4225 7.6C11.8225 8 11.7225 8.6 11.3225 9C10.9225 9.4 10.3225 9.3 9.92246 8.9C9.46413 8.35 8.75371 8.05208 8.09931 8.00625L7.92246 8C7.12246 8 6.42246 8.3 5.92246 8.9C5.82246 9.2 5.52246 9.3 5.22246 9.3C5.02246 9.3 4.72246 9.2 4.52246 9C4.12246 8.6 4.12246 8 4.42246 7.6C5.26621 6.6625 6.46152 6.07656 7.67881 6.00698L7.92246 6ZM8.02267 2C10.1227 2 12.0404 2.82004 13.5151 4.37315L13.7227 4.6C14.1227 5 14.0227 5.6 13.6227 6C13.5227 6.2 13.2227 6.3 13.0227 6.3C12.7227 6.3 12.5227 6.2 12.3227 6C11.2227 4.7 9.62267 4 8.02267 4C6.42267 4 4.92267 4.7 3.72267 6C3.32267 6.4 2.72267 6.4 2.32267 6.1C1.92267 5.7 1.92267 5 2.32267 4.6C3.75449 2.97727 5.64189 2.08347 7.72394 2.00557L8.02267 2Z" fill="black"/>
</svg>
