<svg width="16" height="16" viewBox="0 0 16 16" fill="none" xmlns="http://www.w3.org/2000/svg">
<path fill-rule="evenodd" clip-rule="evenodd" d="M11.9933 2.88338C11.9355 2.38604 11.5128 2 11 2C10.4477 2 10 2.44772 10 3V6L9.99451 6.14926C9.91817 7.18412 9.05436 8 8 8C6.89543 8 6 7.10457 6 6V3L5.99327 2.88338C5.93551 2.38604 5.51284 2 5 2C4.44772 2 4 2.44772 4 3V6L4.0049 6.19964C4.10892 8.31603 5.8578 10 8 10C10.2091 10 12 8.20914 12 6V3L11.9933 2.88338ZM12 13C12 12.4477 11.5523 12 11 12H5C4.44772 12 4 12.4477 4 13C4 13.5523 4.44772 14 5 14H11C11.5523 14 12 13.5523 12 13Z" fill="black"/>
</svg>
