<svg width="16" height="16" viewBox="0 0 16 16" fill="none" xmlns="http://www.w3.org/2000/svg">
<path fill-rule="evenodd" clip-rule="evenodd" d="M12 11C12.5523 11 13 11.4477 13 12C13 12.5523 12.5523 13 12 13H4C3.44772 13 3 12.5523 3 12C3 11.4477 3.44772 11 4 11H12ZM10 7C10.5523 7 11 7.44772 11 8C11 8.55228 10.5523 9 10 9H6C5.44772 9 5 8.55228 5 8C5 7.44772 5.44772 7 6 7H10ZM13 3C13.5523 3 14 3.44772 14 4C14 4.55228 13.5523 5 13 5H3C2.44772 5 2 4.55228 2 4C2 3.44772 2.44772 3 3 3H13Z" fill="black"/>
</svg>
