<svg width="16" height="16" viewBox="0 0 16 16" fill="none" xmlns="http://www.w3.org/2000/svg">
<path fill-rule="evenodd" clip-rule="evenodd" d="M7 8L6.9409 8.07983C6.34881 8.9014 6 9.90996 6 11C6 12.1261 6.3723 13.1653 7.00054 14.0012L3 14C2.44772 14 2 13.5523 2 13C2 10.3112 4.12231 8.11818 6.78311 8.00462L7 8ZM10.5114 9.14038L10.6129 9.2097L10.7071 9.29289L11.5 10.085L12.2929 9.29289C12.6834 8.90237 13.3166 8.90237 13.7071 9.29289C14.0976 9.68342 14.0976 10.3166 13.7071 10.7071L12.915 11.5L13.7071 12.2929C14.0676 12.6534 14.0953 13.2206 13.7903 13.6129L13.7071 13.7071C13.3466 14.0676 12.7794 14.0953 12.3871 13.7903L12.2929 13.7071L11.5 12.915L10.7071 13.7071C10.3166 14.0976 9.68342 14.0976 9.29289 13.7071C8.90237 13.3166 8.90237 12.6834 9.29289 12.2929L10.085 11.5L9.29289 10.7071C8.93241 10.3466 8.90468 9.77939 9.2097 9.3871L9.29289 9.29289C9.62334 8.96245 10.1275 8.91161 10.5114 9.14038ZM8 2C9.65685 2 11 3.34315 11 5C11 5.35208 10.9393 5.69 10.8279 6.00387L11 6C9.42674 6 8.02319 6.72662 7.10664 7.86257C5.88571 7.48404 5 6.34545 5 5C5 3.34315 6.34315 2 8 2Z" fill="black"/>
</svg>
