<svg width="16" height="16" viewBox="0 0 16 16" fill="none" xmlns="http://www.w3.org/2000/svg">
<path fill-rule="evenodd" clip-rule="evenodd" d="M6 10C6.55228 10 7 10.4477 7 11V13C7 13.5523 6.55228 14 6 14H3C2.44772 14 2 13.5523 2 13V11C2 10.4477 2.44772 10 3 10H6ZM13 6C13.5523 6 14 6.44772 14 7V13C14 13.5523 13.5523 14 13 14H10C9.44772 14 9 13.5523 9 13V7C9 6.44772 9.44772 6 10 6H13ZM6 2C6.55228 2 7 2.44772 7 3V7C7 7.55228 6.55228 8 6 8H3C2.44772 8 2 7.55228 2 7V3C2 2.44772 2.44772 2 3 2H6ZM13 2C13.5523 2 14 2.44772 14 3C14 3.55228 13.5523 4 13 4H10C9.44772 4 9 3.55228 9 3C9 2.44772 9.44772 2 10 2H13Z" fill="black"/>
</svg>
