<svg width="16" height="16" viewBox="0 0 16 16" fill="none" xmlns="http://www.w3.org/2000/svg">
<path d="M8 2C9.10457 2 10 2.89543 10 4C10 4.73984 9.59828 5.38585 9.00108 5.73181L9.00043 11.8739C10.3537 11.5254 11.4297 10.4866 11.8306 9.15525L11.873 9H11C10.4872 9 10.0645 8.61396 10.0067 8.11662L10 8C10 7.48716 10.386 7.06449 10.8834 7.00673L11 7H13C13.5523 7 14 7.44772 14 8C14 11.3137 11.3137 14 8 14C4.68629 14 2 11.3137 2 8C2 7.48716 2.38604 7.06449 2.88338 7.00673L3 7H5C5.55228 7 6 7.44772 6 8C6 8.51284 5.61396 8.93551 5.11662 8.99327L5 9H4.126L4.16936 9.15525C4.57037 10.4868 5.64665 11.5257 7.00016 11.874L6.99993 5.73239C6.40217 5.38657 6 4.74025 6 4C6 2.89543 6.89543 2 8 2Z" fill="black"/>
</svg>
