<svg width="16" height="16" viewBox="0 0 16 16" fill="none" xmlns="http://www.w3.org/2000/svg">
<path fill-rule="evenodd" clip-rule="evenodd" d="M8 4C10.7614 4 13 6.23858 13 9C13 11.7614 10.7614 14 8 14C5.23858 14 3 11.7614 3 9C3 6.23858 5.23858 4 8 4ZM8 6C7.48716 6 7.06449 6.38604 7.00673 6.88338L7 7V9C7 9.55228 7.44772 10 8 10C8.51284 10 8.93551 9.61396 8.99327 9.11662L9 9V7C9 6.44772 8.55228 6 8 6ZM9 2C9.55228 2 10 2.44772 10 3C10 3.55228 9.55228 4 9 4H7C6.44772 4 6 3.55228 6 3C6 2.44772 6.44772 2 7 2H9Z" fill="black"/>
</svg>
