<svg width="16" height="16" viewBox="0 0 16 16" fill="none" xmlns="http://www.w3.org/2000/svg">
<path fill-rule="evenodd" clip-rule="evenodd" d="M4.3871 9.2097L4.29289 9.29289C3.93241 9.65338 3.90468 10.2206 4.2097 10.6129L4.29289 10.7071L7.29289 13.7071L7.33685 13.7485L7.40469 13.8037L7.51594 13.8753L7.62866 13.9288L7.73401 13.9642L7.8819 13.9931L8 14L8.07524 13.9972L8.20073 13.9798L8.31214 13.9503L8.42322 13.9063L8.52071 13.854L8.62545 13.7803L8.70711 13.7071L11.7071 10.7071C12.0976 10.3166 12.0976 9.68342 11.7071 9.29289C11.3466 8.93241 10.7794 8.90468 10.3871 9.2097L10.2929 9.29289L9 10.585V3C9 2.44772 8.55228 2 8 2C7.44772 2 7 2.44772 7 3V10.585L5.70711 9.29289C5.34662 8.93241 4.77939 8.90468 4.3871 9.2097L4.29289 9.29289L4.3871 9.2097Z" fill="black"/>
</svg>
