<svg width="16" height="16" viewBox="0 0 16 16" fill="none" xmlns="http://www.w3.org/2000/svg">
<path fill-rule="evenodd" clip-rule="evenodd" d="M13 10L13.1166 10.0067C13.5374 10.0556 13.8786 10.3657 13.9736 10.7707L13.9933 10.8834L14 11V13L13.9933 13.1166C13.9444 13.5374 13.6343 13.8786 13.2293 13.9736L13.1166 13.9933L13 14H11L10.8834 13.9933C10.386 13.9355 10 13.5128 10 13C10 12.5266 10.3289 12.1301 10.7707 12.0264L10.8834 12.0067L11 12H12V11L12.0067 10.8834C12.0556 10.4626 12.3657 10.1214 12.7707 10.0264L12.8834 10.0067L13 10ZM3 10L3.11662 10.0067L3.22929 10.0264C3.59376 10.1119 3.88142 10.3968 3.97094 10.7597L3.99327 10.8834L4 11V12H5L5.11662 12.0067L5.22929 12.0264C5.67107 12.1301 6 12.5266 6 13C6 13.4734 5.67107 13.8699 5.22929 13.9736L5.11662 13.9933L5 14H3L2.88338 13.9933L2.77071 13.9736C2.40624 13.8881 2.11858 13.6032 2.02906 13.2403L2.00673 13.1166L2 13V11L2.00673 10.8834L2.02641 10.7707C2.11192 10.4062 2.39679 10.1186 2.75969 10.0291L2.88338 10.0067L3 10ZM8 2C8.55228 2 9 2.44772 9 3V7H13C13.5523 7 14 7.44772 14 8C14 8.55228 13.5523 9 13 9H9V13C9 13.5523 8.55228 14 8 14C7.44772 14 7 13.5523 7 13V9H3C2.44772 9 2 8.55228 2 8C2 7.44772 2.44772 7 3 7H7V3C7 2.44772 7.44772 2 8 2ZM13 2L13.1166 2.00673C13.5757 2.06005 13.94 2.4243 13.9933 2.88338L14 3V5L13.9933 5.11662C13.94 5.5757 13.5757 5.93995 13.1166 5.99327L13 6L12.8834 5.99327C12.4243 5.93995 12.06 5.5757 12.0067 5.11662L12 5V4H11L10.8834 3.99327C10.386 3.93551 10 3.51284 10 3C10 2.48716 10.386 2.06449 10.8834 2.00673L11 2H13ZM5 2L5.11662 2.00673C5.61396 2.06449 6 2.48716 6 3C6 3.47339 5.67107 3.86995 5.22929 3.97359L5.11662 3.99327L5 4H4V5L3.99327 5.11662C3.94439 5.53745 3.63425 5.87858 3.22929 5.97359L3.11662 5.99327L3 6L2.88338 5.99327C2.46255 5.94439 2.12142 5.63425 2.02641 5.22929L2.00673 5.11662L2 5V3L2.00673 2.88338C2.05561 2.46255 2.36575 2.12142 2.77071 2.02641L2.88338 2.00673L3 2H5Z" fill="black"/>
</svg>
