<svg width="16" height="16" viewBox="0 0 16 16" fill="none" xmlns="http://www.w3.org/2000/svg">
<path fill-rule="evenodd" clip-rule="evenodd" d="M12 2C13.1046 2 14 2.89543 14 4C14 5.10457 13.1046 6 12 6C11.5931 6 11.2145 5.87846 10.8986 5.6697L6.23607 8.00022L10.8986 10.3303C11.2145 10.1215 11.5931 10 12 10C13.1046 10 14 10.8954 14 12C14 13.1046 13.1046 14 12 14C10.9456 14 10.0818 13.1841 10.0055 12.1493L10.004 12.12L5.10136 9.6697C4.78551 9.87846 4.40695 10 4 10C2.89543 10 2 9.10457 2 8C2 6.89543 2.89543 6 4 6C4.40695 6 4.78551 6.12154 5.10136 6.3303L10.0036 3.87937C10.0659 2.83097 10.9359 2 12 2Z" fill="black"/>
</svg>
