<svg width="16" height="16" viewBox="0 0 16 16" fill="none" xmlns="http://www.w3.org/2000/svg">
<path fill-rule="evenodd" clip-rule="evenodd" d="M8 2L12 6L12.0012 6.10026C11.6777 6.03451 11.3429 6 11 6C8.23858 6 6 8.23858 6 11C6 12.1261 6.3723 13.1653 7.00054 14.0012L5 14C4.44772 14 4 13.5523 4 13V3C4 2.44772 4.44772 2 5 2H8ZM11.2929 8.29289C11.6534 7.93241 12.2206 7.90468 12.6129 8.2097L12.7071 8.29289L13.7071 9.29289C14.0676 9.65338 14.0953 10.2206 13.7903 10.6129L13.7071 10.7071L10.7071 13.7071C10.5508 13.8634 10.3481 13.9626 10.1314 13.9913L10 14H9C8.48716 14 8.06449 13.614 8.00673 13.1166L8 13V12C8 11.779 8.07316 11.5655 8.20608 11.392L8.29289 11.2929L11.2929 8.29289Z" fill="black"/>
</svg>
