<svg width="16" height="16" viewBox="0 0 16 16" fill="none" xmlns="http://www.w3.org/2000/svg">
<path fill-rule="evenodd" clip-rule="evenodd" d="M2 8C2 4.68629 4.68629 2 8 2C11.3137 2 14 4.68629 14 8C14 11.3137 11.3137 14 8 14C4.68629 14 2 11.3137 2 8ZM4 8C4 8.51284 4.38604 8.93551 4.88338 8.99327L5 9H8.584L8.29289 9.29289L8.2097 9.3871C7.90468 9.77939 7.93241 10.3466 8.29289 10.7071C8.65338 11.0676 9.22061 11.0953 9.6129 10.7903L9.70711 10.7071L11.7071 8.70711L11.7803 8.62545L11.854 8.52071L11.9063 8.42322L11.9503 8.31214L11.9798 8.20073L11.9972 8.07524L12 8L11.9931 7.8819L11.9642 7.73401L11.9288 7.62866L11.8753 7.51594L11.8037 7.40469L11.7485 7.33685L11.7071 7.29289L9.70711 5.29289L9.6129 5.2097C9.2533 4.9301 8.7467 4.9301 8.3871 5.2097L8.29289 5.29289L8.2097 5.3871L8.14038 5.4886C7.93449 5.8341 7.95508 6.27703 8.20215 6.60306L8.29289 6.70711L8.586 7H5C4.44772 7 4 7.44772 4 8Z" fill="black"/>
</svg>
