<svg width="16" height="16" viewBox="0 0 16 16" fill="none" xmlns="http://www.w3.org/2000/svg">
<path fill-rule="evenodd" clip-rule="evenodd" d="M8.70711 9.29289L11.7071 12.2929C12.0976 12.6834 12.0976 13.3166 11.7071 13.7071C11.3166 14.0976 10.6834 14.0976 10.2929 13.7071L8 11.4142L5.70711 13.7071C5.31658 14.0976 4.68342 14.0976 4.29289 13.7071C3.90237 13.3166 3.90237 12.6834 4.29289 12.2929L7.29289 9.29289C7.68342 8.90237 8.31658 8.90237 8.70711 9.29289ZM4.29289 2.29289C4.65338 1.93241 5.22061 1.90468 5.6129 2.2097L5.70711 2.29289L8 4.58579L10.2929 2.29289C10.6834 1.90237 11.3166 1.90237 11.7071 2.29289C12.0676 2.65338 12.0953 3.22061 11.7903 3.6129L11.7071 3.70711L8.70711 6.70711C8.34662 7.06759 7.77939 7.09532 7.3871 6.7903L7.29289 6.70711L4.29289 3.70711C3.90237 3.31658 3.90237 2.68342 4.29289 2.29289Z" fill="black"/>
</svg>
