<svg width="16" height="16" viewBox="0 0 16 16" fill="none" xmlns="http://www.w3.org/2000/svg">
<path fill-rule="evenodd" clip-rule="evenodd" d="M7 2C9.76142 2 12 4.23858 12 7C12 8.01911 11.6951 8.967 11.1716 9.75745L13.7071 12.2929C14.0976 12.6834 14.0976 13.3166 13.7071 13.7071C13.3466 14.0676 12.7794 14.0953 12.3871 13.7903L12.2929 13.7071L9.75745 11.1716C8.967 11.6951 8.01911 12 7 12C4.23858 12 2 9.76142 2 7C2 4.23858 4.23858 2 7 2ZM9 6H5C4.44772 6 4 6.44772 4 7C4 7.51284 4.38604 7.93551 4.88338 7.99327L5 8H9C9.55228 8 10 7.55228 10 7C10 6.48716 9.61396 6.06449 9.11662 6.00673L9 6Z" fill="black"/>
</svg>
