<svg width="16" height="16" viewBox="0 0 16 16" fill="none" xmlns="http://www.w3.org/2000/svg">
<path fill-rule="evenodd" clip-rule="evenodd" d="M7.29289 6.29289C7.65338 5.93241 8.22061 5.90468 8.6129 6.2097L8.70711 6.29289L11.7071 9.29289C12.3097 9.89547 11.9277 10.9072 11.1136 10.994L11 11H10V13C10 13.4734 9.67107 13.8699 9.22929 13.9736L9.11662 13.9933L9 14H7C6.48716 14 6.06449 13.614 6.00673 13.1166L6 13V11H5C4.18657 11 3.74389 10.102 4.15255 9.46637L4.21677 9.37747L4.29289 9.29289L7.29289 6.29289ZM13 2C13.5523 2 14 2.44772 14 3C14 3.55228 13.5523 4 13 4H3C2.44772 4 2 3.55228 2 3C2 2.44772 2.44772 2 3 2H13Z" fill="black"/>
</svg>
