<svg width="16" height="16" viewBox="0 0 16 16" fill="none" xmlns="http://www.w3.org/2000/svg">
<path fill-rule="evenodd" clip-rule="evenodd" d="M10.2929 2.29289C10.6534 1.93241 11.2206 1.90468 11.6129 2.2097L11.7071 2.29289L13.7071 4.29289L13.7485 4.33685L13.8037 4.40469L13.8753 4.51594L13.9288 4.62866L13.9642 4.73401L13.989 4.85153L13.9983 4.94074V5.05929L13.9932 5.11746L13.9726 5.23351L13.9401 5.34167L13.9063 5.42322L13.854 5.52071L13.7803 5.62545L13.7071 5.70711L11.7071 7.70711C11.3166 8.09763 10.6834 8.09763 10.2929 7.70711C9.93241 7.34662 9.90468 6.77939 10.2097 6.3871L10.2929 6.29289L10.584 6H10.2222C8.6818 6 7.87747 6.47817 6.85046 7.99868C7.87711 9.52162 8.68146 10 10.2222 10H10.585L10.2929 9.70711C9.93241 9.34662 9.90468 8.77939 10.2097 8.3871L10.2929 8.29289C10.6534 7.93241 11.2206 7.90468 11.6129 8.2097L11.7071 8.29289L13.7071 10.2929L13.7485 10.3369L13.8037 10.4047L13.8753 10.5159L13.9288 10.6287L13.9642 10.734L13.9931 10.8819L14 11L13.9972 11.0752L13.9798 11.2007L13.9503 11.3121L13.9063 11.4232L13.854 11.5207L13.7803 11.6254L13.7071 11.7071L11.7071 13.7071C11.3166 14.0976 10.6834 14.0976 10.2929 13.7071C9.93241 13.3466 9.90468 12.7794 10.2097 12.3871L10.2929 12.2929L10.584 12H10.2222C8.15937 12 6.92913 11.3772 5.72335 9.84836L5.46922 10.2581C5.39439 10.3752 5.32117 10.4863 5.24396 10.5998C4.6421 11.485 3.92203 12 3 12C2.44772 12 2 11.5523 2 11C2 10.4477 2.44772 10 3 10C3.1382 10 3.32327 9.86764 3.59005 9.47528L3.78052 9.18633L3.87877 9.03036L4.09802 8.66923L4.49194 7.99956L4.09802 7.33077L3.87877 6.96964C3.77785 6.80722 3.68662 6.66677 3.59005 6.52472C3.32327 6.13236 3.1382 6 3 6C2.44772 6 2 5.55228 2 5C2 4.44772 2.44772 4 3 4C3.92203 4 4.6421 4.51499 5.24396 5.4002C5.32117 5.51375 5.39439 5.62477 5.46922 5.74192L5.72335 6.15164C6.8767 4.68923 8.05244 4.05587 9.95781 4.00356L10.2222 4H10.585L10.2929 3.70711C9.93241 3.34662 9.90468 2.77939 10.2097 2.3871L10.2929 2.29289Z" fill="black"/>
</svg>
