<svg width="16" height="16" viewBox="0 0 16 16" fill="none" xmlns="http://www.w3.org/2000/svg">
<path fill-rule="evenodd" clip-rule="evenodd" d="M5.29289 4.29288L7.29289 2.29288C7.89547 1.69031 8.90718 2.07232 8.99402 2.88636L9 2.99999L9.00119 4.10025C11.2828 4.56398 13 6.58145 13 8.99999C13 11.7614 10.7614 14 8 14C5.23858 14 3 11.7614 3 8.99999C3 8.44771 3.44772 7.99999 4 7.99999C4.55228 7.99999 5 8.44771 5 8.99999C5 10.6568 6.34315 12 8 12C9.65685 12 11 10.6568 11 8.99999C11 7.69411 10.1656 6.58311 9.0009 6.17101L9 6.99999C9 7.85216 8.01449 8.29742 7.37747 7.78322L7.29289 7.7071L5.29289 5.7071C4.93241 5.34661 4.90468 4.77938 5.2097 4.38709L5.29289 4.29288L7.29289 2.29288L5.29289 4.29288Z" fill="black"/>
</svg>
