<svg width="16" height="16" viewBox="0 0 16 16" fill="none" xmlns="http://www.w3.org/2000/svg">
<path fill-rule="evenodd" clip-rule="evenodd" d="M7.75638 2.05169C7.88046 1.99655 8.01858 1.98553 8.14828 2.01861L8.24362 2.05169L13.6436 4.4511C13.8526 4.54399 13.988 4.74595 13.9992 4.96906L13.9963 5.06571L13.6529 8.15689C13.4802 9.71135 12.6429 11.1101 11.3649 11.997L11.1479 12.14L8.318 13.9088C8.15123 14.013 7.94603 14.0279 7.76828 13.9535L7.682 13.9088L4.8521 12.14C3.52589 11.3111 2.62789 9.95052 2.38203 8.41446L2.34713 8.15689L2.00369 5.06571C1.97843 4.83836 2.08451 4.61959 2.27147 4.49733L2.3564 4.4511L7.75638 2.05169ZM9.21364 5.38222L6.91006 8.49585L6.7071 8.29291C6.31658 7.90239 5.68342 7.90239 5.29289 8.29291C4.90237 8.68343 4.90237 9.3166 5.29289 9.70712L6.29288 10.7071C6.7168 11.131 7.4159 11.0892 7.7863 10.6178L10.7863 6.61786C11.1275 6.18359 11.0521 5.55494 10.6178 5.21372C10.1835 4.87251 9.55486 4.94795 9.21364 5.38222Z" fill="black"/>
</svg>
