<svg width="16" height="16" viewBox="0 0 16 16" fill="none" xmlns="http://www.w3.org/2000/svg">
<path fill-rule="evenodd" clip-rule="evenodd" d="M9 12C9.55228 12 10 12.4477 10 13C10 13.5523 9.55228 14 9 14H7C6.44772 14 6 13.5523 6 13C6 12.4477 6.44772 12 7 12H9ZM7.99984 2C10.3436 2 12 3.61049 12 6.1671C12 7.27587 11.6176 8.17595 10.8991 9.17841L10.3044 9.97902L10.2253 10.093L10.158 10.1988L10.0928 10.3138C10.0634 10.7019 9.77478 11 9.42857 11H6.57143C6.22522 11 5.93663 10.7019 5.90718 10.3138L5.84204 10.1987L5.77473 10.093L5.69559 9.97899L5.10087 9.17834C4.38247 8.17592 4 7.27587 4 6.16715C4 3.61055 5.65633 2 7.99984 2Z" fill="black"/>
</svg>
