<svg width="16" height="16" viewBox="0 0 16 16" fill="none" xmlns="http://www.w3.org/2000/svg">
<path fill-rule="evenodd" clip-rule="evenodd" d="M3.98252 6.50099C4.49527 6.49203 4.92463 6.87062 4.99108 7.36687L4.99985 7.48335L5.0018 7.60335C5.0507 8.99933 6.10384 10.159 7.49994 10.4373L7.5 9.50084C7.5 9.13002 7.88377 8.89815 8.20463 9.04427L8.27735 9.08482L11.2774 11.0848C11.5472 11.2647 11.5718 11.6416 11.351 11.8573L11.2774 11.9169L8.27735 13.9169C7.96881 14.1226 7.56301 13.9319 7.50661 13.5838L7.5 13.5008L7.49994 12.4615C5.10353 12.1686 3.20436 10.2711 3.01501 7.87458L3.00256 7.65584L3.00016 7.51833C2.9905 6.96613 3.43032 6.51065 3.98252 6.50099ZM8.5 2.50084L8.50012 3.54015C11.0314 3.84938 13 5.94553 13 8.50084C13 9.05313 12.5523 9.50084 12 9.50084C11.4872 9.50084 11.0645 9.1148 11.0067 8.61746L10.9947 8.32539C10.912 6.96469 9.87432 5.83842 8.50062 5.5645L8.5 6.50084C8.5 6.90019 8.05493 7.13838 7.72265 6.91687L4.72265 4.91687C4.42579 4.71895 4.42579 4.28273 4.72265 4.08482L7.72265 2.08482C8.05493 1.8633 8.5 2.10149 8.5 2.50084Z" fill="black"/>
</svg>
