<svg width="16" height="16" viewBox="0 0 16 16" fill="none" xmlns="http://www.w3.org/2000/svg">
<path fill-rule="evenodd" clip-rule="evenodd" d="M4 14C3.44772 14 3 13.5523 3 13C3 12.4477 3.44772 12 4 12H5V10H4C3.48716 10 3.06449 9.61396 3.00673 9.11662L3 9C3 8.48716 3.38604 8.06449 3.88338 8.00673L4 8H5V5C5 3.28793 6.60991 2 8.5 2C10.3901 2 12 3.28793 12 5C12 5.55228 11.5523 6 11 6C10.4477 6 10 5.55228 10 5C10 4.50293 9.37134 4 8.5 4C7.68312 4 7.07953 4.44203 7.00727 4.90685L7 5V8H9C9.51284 8 9.93551 8.38604 9.99327 8.88338L10 9C10 9.51284 9.61396 9.93551 9.11662 9.99327L9 10H7V12H12C12.5523 12 13 12.4477 13 13C13 13.5523 12.5523 14 12 14H4Z" fill="black"/>
</svg>
