<svg width="16" height="16" viewBox="0 0 16 16" fill="none" xmlns="http://www.w3.org/2000/svg">
<path fill-rule="evenodd" clip-rule="evenodd" d="M9 2C9.51284 2 9.93551 2.38604 9.99327 2.88338L10 3V5C10 4.48716 10.386 4.06449 10.8834 4.00673L11 4H13C13.5128 4 13.9355 4.38604 13.9933 4.88338L14 5V13C14 13.5128 13.614 13.9355 13.1166 13.9933L13 14H3C2.48716 14 2.06449 13.614 2.00673 13.1166L2 13V3C2 2.48716 2.38604 2.06449 2.88338 2.00673L3 2H9ZM7 10H5C4.44772 10 4 10.4477 4 11C4 11.5128 4.38604 11.9355 4.88338 11.9933L5 12H7C7.55228 12 8 11.5523 8 11C8 10.4872 7.61396 10.0645 7.11662 10.0067L7 10ZM7 7H5C4.44772 7 4 7.44772 4 8C4 8.51284 4.38604 8.93551 4.88338 8.99327L5 9H7C7.55228 9 8 8.55228 8 8C8 7.44772 7.55228 7 7 7ZM7 4H5C4.44772 4 4 4.44772 4 5C4 5.51284 4.38604 5.93551 4.88338 5.99327L5 6H7C7.55228 6 8 5.55228 8 5C8 4.44772 7.55228 4 7 4Z" fill="black"/>
</svg>
