<svg width="16" height="16" viewBox="0 0 16 16" fill="none" xmlns="http://www.w3.org/2000/svg">
<path fill-rule="evenodd" clip-rule="evenodd" d="M3 12L3.11662 11.9933C3.5757 11.9399 3.93995 11.5757 3.99327 11.1166L4 11V4H11L11.1166 3.99327C11.614 3.93551 12 3.51284 12 3C12 2.48716 11.614 2.06449 11.1166 2.00673L11 2H3L2.88338 2.00673C2.4243 2.06005 2.06005 2.4243 2.00673 2.88338L2 3V11L2.00673 11.1166C2.06005 11.5757 2.4243 11.9399 2.88338 11.9933L3 12ZM13 14L13.1166 13.9933C13.5757 13.94 13.94 13.5757 13.9933 13.1166L14 13V7L13.9933 6.88338C13.9444 6.46255 13.6343 6.12142 13.2293 6.02641L13.1166 6.00673L13 6H7L6.88338 6.00673C6.4243 6.06005 6.06005 6.4243 6.00673 6.88338L6 7V13L6.00673 13.1166C6.05561 13.5374 6.36575 13.8786 6.77071 13.9736L6.88338 13.9933L7 14H13ZM8 8V12H12V8H8Z" fill="black"/>
</svg>
