<svg width="16" height="16" viewBox="0 0 16 16" fill="none" xmlns="http://www.w3.org/2000/svg">
<path fill-rule="evenodd" clip-rule="evenodd" d="M10 2C11.0544 2 11.9182 2.81588 11.9945 3.85074L12 4V6C12 6.29256 11.8721 6.56818 11.6537 6.75676L11.5547 6.83205L9.803 8L11.5547 9.16795C11.8329 9.35342 12 9.66565 12 10V12C12 13.1046 11.1046 14 10 14H6C4.89543 14 4 13.1046 4 12V10C4 9.66565 4.1671 9.35342 4.4453 9.16795L6.196 8L4.4453 6.83205C4.20188 6.66977 4.04351 6.41043 4.00772 6.12414L4 6V4C4 2.94564 4.81588 2.08183 5.85074 2.00549L6 2H10ZM8 9.203L6 10.536V12H10V10.536L8 9.203ZM6 4H10V5.464L8 6.797L6 5.464V4Z" fill="black"/>
</svg>
