<svg width="16" height="16" viewBox="0 0 16 16" fill="none" xmlns="http://www.w3.org/2000/svg">
<path fill-rule="evenodd" clip-rule="evenodd" d="M9 2C10.1046 2 11 2.89543 11 4V12C11 13.1046 10.1046 14 9 14H7C5.89543 14 5 13.1046 5 12V4C5 2.89543 5.89543 2 7 2H9ZM3 2C3.55228 2 4 2.44772 4 3V13C4 13.5523 3.55228 14 3 14C2.44772 14 2 13.5523 2 13V3C2 2.44772 2.44772 2 3 2ZM13 2C13.5523 2 14 2.44772 14 3V13C14 13.5523 13.5523 14 13 14C12.4477 14 12 13.5523 12 13V3C12 2.44772 12.4477 2 13 2ZM9 4H7V12H9V4Z" fill="black"/>
</svg>
