<svg width="16" height="16" viewBox="0 0 16 16" fill="none" xmlns="http://www.w3.org/2000/svg">
<path fill-rule="evenodd" clip-rule="evenodd" d="M12 3C12 2.44772 12.4477 2 13 2C13.5523 2 14 2.44772 14 3V13C14 13.5523 13.5523 14 13 14C12.4477 14 12 13.5523 12 13V3ZM2 3L2.00673 2.88338C2.06005 2.4243 2.4243 2.06005 2.88338 2.00673L3 2H5L5.11662 2.00673C5.5757 2.06005 5.93995 2.4243 5.99327 2.88338L6 3L5.99327 3.11662C5.93995 3.5757 5.5757 3.93995 5.11662 3.99327L5 4H4V5L3.99327 5.11662C3.93551 5.61396 3.51284 6 3 6C2.48716 6 2.06449 5.61396 2.00673 5.11662L2 5V3ZM2 11L2.00673 10.8834C2.06449 10.386 2.48716 10 3 10C3.47339 10 3.86995 10.3289 3.97359 10.7707L3.99327 10.8834L4 11V12H5L5.11662 12.0067C5.53745 12.0556 5.87858 12.3657 5.97359 12.7707L5.99327 12.8834L6 13L5.99327 13.1166C5.94439 13.5374 5.63425 13.8786 5.22929 13.9736L5.11662 13.9933L5 14H3L2.88338 13.9933C2.46255 13.9444 2.12142 13.6343 2.02641 13.2293L2.00673 13.1166L2 13V11Z" fill="black"/>
</svg>
