<svg width="16" height="16" viewBox="0 0 16 16" fill="none" xmlns="http://www.w3.org/2000/svg">
<path d="M10 11C9.14783 11 8.70257 10.0145 9.21677 9.37746L9.29289 9.29288L9.97397 8.61035C9.35055 8.24359 8.48568 7.99999 7.5 7.99999C5.57312 7.99999 4.1079 8.93092 4.0057 9.89301L4 9.99999C4 10.5523 3.55228 11 3 11C2.44772 11 2 10.5523 2 9.99999C2 7.68511 4.52768 5.99999 7.5 5.99999C9.01154 5.99999 10.4081 6.43578 11.4157 7.16857L12.2929 6.29288C12.8955 5.69031 13.9072 6.07232 13.994 6.88636L14 6.99999V9.99999C14 10.5128 13.614 10.9355 13.1166 10.9933L13 11H10Z" fill="black"/>
</svg>
