<svg width="16" height="16" viewBox="0 0 16 16" fill="none" xmlns="http://www.w3.org/2000/svg">
<path fill-rule="evenodd" clip-rule="evenodd" d="M8.6129 10.2097L8.70711 10.2929L10.7071 12.2929C11.0976 12.6834 11.0976 13.3166 10.7071 13.7071C10.3466 14.0676 9.77939 14.0953 9.3871 13.7903L9.29289 13.7071L8 12.4142L6.70711 13.7071C6.31658 14.0976 5.68342 14.0976 5.29289 13.7071C4.93241 13.3466 4.90468 12.7794 5.2097 12.3871L5.29289 12.2929L7.29289 10.2929C7.62334 9.96245 8.12751 9.91161 8.5114 10.1404L8.6129 10.2097ZM13 7C13.5523 7 14 7.44772 14 8C14 8.51284 13.614 8.93551 13.1166 8.99327L13 9H3C2.44772 9 2 8.55228 2 8C2 7.48716 2.38604 7.06449 2.88338 7.00673L3 7H13ZM6.70711 2.29289L8 3.58579L9.29289 2.29289C9.68342 1.90237 10.3166 1.90237 10.7071 2.29289C11.0976 2.68342 11.0976 3.31658 10.7071 3.70711L8.70711 5.70711C8.31658 6.09763 7.68342 6.09763 7.29289 5.70711L5.29289 3.70711C4.90237 3.31658 4.90237 2.68342 5.29289 2.29289C5.68342 1.90237 6.31658 1.90237 6.70711 2.29289Z" fill="black"/>
</svg>
