<svg width="16" height="16" viewBox="0 0 16 16" fill="none" xmlns="http://www.w3.org/2000/svg">
<path fill-rule="evenodd" clip-rule="evenodd" d="M13 12C13.5523 12 14 12.4477 14 13C14 13.5523 13.5523 14 13 14H3C2.44772 14 2 13.5523 2 13C2 12.4477 2.44772 12 3 12H13ZM4.29289 5.29289C4.89547 4.69032 5.90718 5.07233 5.99402 5.88637L6 6V10C6 10.8522 5.01449 11.2974 4.37747 10.7832L4.29289 10.7071L2.29289 8.70711C1.93241 8.34662 1.90468 7.77939 2.2097 7.3871L2.29289 7.29289L4.29289 5.29289ZM13 7C13.5523 7 14 7.44772 14 8C14 8.55228 13.5523 9 13 9H9C8.44772 9 8 8.55228 8 8C8 7.44772 8.44772 7 9 7H13ZM13 2C13.5523 2 14 2.44772 14 3C14 3.55228 13.5523 4 13 4H3C2.44772 4 2 3.55228 2 3C2 2.44772 2.44772 2 3 2H13Z" fill="black"/>
</svg>
