<svg width="16" height="16" viewBox="0 0 16 16" fill="none" xmlns="http://www.w3.org/2000/svg">
<path fill-rule="evenodd" clip-rule="evenodd" d="M4 3C4 2.44772 3.55228 2 3 2C2.44772 2 2 2.44772 2 3V13C2 13.5523 2.44772 14 3 14C3.55228 14 4 13.5523 4 13V3ZM14 3L13.9933 2.88338C13.94 2.4243 13.5757 2.06005 13.1166 2.00673L13 2H11L10.8834 2.00673C10.4243 2.06005 10.06 2.4243 10.0067 2.88338L10 3L10.0067 3.11662C10.06 3.5757 10.4243 3.93995 10.8834 3.99327L11 4H12V5L12.0067 5.11662C12.0645 5.61396 12.4872 6 13 6C13.5128 6 13.9355 5.61396 13.9933 5.11662L14 5V3ZM14 11L13.9933 10.8834C13.9355 10.386 13.5128 10 13 10C12.5266 10 12.1301 10.3289 12.0264 10.7707L12.0067 10.8834L12 11V12H11L10.8834 12.0067C10.4626 12.0556 10.1214 12.3657 10.0264 12.7707L10.0067 12.8834L10 13L10.0067 13.1166C10.0556 13.5374 10.3657 13.8786 10.7707 13.9736L10.8834 13.9933L11 14H13L13.1166 13.9933C13.5374 13.9444 13.8786 13.6343 13.9736 13.2293L13.9933 13.1166L14 13V11Z" fill="black"/>
</svg>
