<svg width="16" height="16" viewBox="0 0 16 16" fill="none" xmlns="http://www.w3.org/2000/svg">
<path fill-rule="evenodd" clip-rule="evenodd" d="M14 7.99999C14 11.3137 11.3137 14 8 14C6.69118 14 5.48024 13.5809 4.49404 12.8697C4.57081 12.826 4.6423 12.7719 4.70711 12.7071L12.7071 4.7071C12.7722 4.64196 12.8265 4.57008 12.8699 4.4937C13.5806 5.47925 14 6.69064 14 7.99999ZM7.00019 2.08292L7 7.27272C7 7.36099 7.02163 7.4456 7.06124 7.52388L3.29289 11.2929C3.22808 11.3577 3.17403 11.4292 3.13073 11.5051C2.41907 10.5197 2 9.30881 2 7.99999C2 5.02693 4.16238 2.55892 7.00019 2.08292ZM9 5.58392L9.00081 2.08308C9.92466 2.23821 10.7769 2.60446 11.5062 3.13052C11.4292 3.17402 11.3577 3.22807 11.2929 3.29288L9 5.58392Z" fill="black"/>
</svg>
