<svg width="16" height="16" viewBox="0 0 16 16" fill="none" xmlns="http://www.w3.org/2000/svg">
<path fill-rule="evenodd" clip-rule="evenodd" d="M11 2C12.5977 2 13.9037 3.24892 13.9949 4.82373L14 5V11C14 12.5977 12.7511 13.9037 11.1763 13.9949L11 14H5C3.40232 14 2.09634 12.7511 2.00509 11.1763L2 11V5C2 3.40232 3.24892 2.09634 4.82373 2.00509L5 2H11ZM7 4H5C4.48716 4 4.06449 4.49634 4.00673 5.13577L4 5.28571V7V9V11C4 11.5128 4.49634 11.9355 5.13577 11.9933L5.28571 12H7H9H11C11.5128 12 11.9355 11.614 11.9933 11.1166L12 11V9V7V5.28571C12 4.62635 11.5037 4.08292 10.8642 4.00865L10.7143 4H9H7ZM8 5C8.51284 5 8.93551 5.38604 8.99327 5.88338L9 6V7H10C10.5523 7 11 7.44772 11 8C11 8.51284 10.614 8.93551 10.1166 8.99327L10 9H9V10C9 10.5523 8.55228 11 8 11C7.48716 11 7.06449 10.614 7.00673 10.1166L7 10V9H6C5.44772 9 5 8.55228 5 8C5 7.48716 5.38604 7.06449 5.88338 7.00673L6 7H7V6C7 5.44772 7.44772 5 8 5Z" fill="black"/>
</svg>
