<svg width="16" height="16" viewBox="0 0 16 16" fill="none" xmlns="http://www.w3.org/2000/svg">
<path fill-rule="evenodd" clip-rule="evenodd" d="M5 2C5.33288 2 5.62777 2.16265 5.80953 2.41281C6.48689 2.14643 7.22635 2 8 2C8.77365 2 9.51311 2.14643 10.1922 2.41308C10.3722 2.16265 10.6671 2 11 2H13C13.5523 2 14 2.44772 14 3V5C14 5.33288 13.8374 5.62777 13.5872 5.80953C13.8536 6.48689 14 7.22635 14 8C14 11.3137 11.3137 14 8 14C4.68629 14 2 11.3137 2 8C2 7.22635 2.14643 6.48689 2.41308 5.80784C2.16265 5.62777 2 5.33288 2 5V3C2 2.44772 2.44772 2 3 2H5ZM8 4C7.44772 4 7 4.44772 7 5V8C7 8.26522 7.10536 8.51957 7.29289 8.70711L9.29289 10.7071C9.68342 11.0976 10.3166 11.0976 10.7071 10.7071C11.0976 10.3166 11.0976 9.68342 10.7071 9.29289L9 7.58579V5C9 4.44772 8.55228 4 8 4Z" fill="black"/>
</svg>
