<svg width="16" height="16" viewBox="0 0 16 16" fill="none" xmlns="http://www.w3.org/2000/svg">
<path fill-rule="evenodd" clip-rule="evenodd" d="M5 2C5.55228 2 6 2.44772 6 3L6.0009 5.17102C7.16562 5.58311 8 6.69412 8 8C8 9.30588 7.16562 10.4169 6.0009 10.829L6 13C6 13.5523 5.55228 14 5 14C4.44772 14 4 13.5523 4 13L4.00009 10.8293C2.83485 10.4175 2 9.30625 2 8C2 6.69375 2.83485 5.58249 4.00009 5.17067L4 3C4 2.44772 4.44772 2 5 2ZM11 2C11.5523 2 12 2.44772 12 3L12.0009 8.17102C13.1656 8.58312 14 9.69412 14 11C14 12.6569 12.6569 14 11 14C9.34315 14 8 12.6569 8 11C8 9.69375 8.83485 8.58249 10.0001 8.17067L10 3C10 2.44772 10.4477 2 11 2ZM11 10C10.4477 10 10 10.4477 10 11C10 11.5523 10.4477 12 11 12C11.5523 12 12 11.5523 12 11C12 10.4477 11.5523 10 11 10ZM5 7C4.44772 7 4 7.44772 4 8C4 8.55228 4.44772 9 5 9C5.55228 9 6 8.55228 6 8C6 7.44772 5.55228 7 5 7Z" fill="black"/>
</svg>
