<svg width="16" height="16" viewBox="0 0 16 16" fill="none" xmlns="http://www.w3.org/2000/svg">
<path fill-rule="evenodd" clip-rule="evenodd" d="M12.5039 11.8641L8.44721 13.8944C7.81731 14.2094 7.08202 13.792 7.00637 13.1151L7 13L6.99994 9.9997L4.6 11.8C4.15817 12.1314 3.53137 12.0418 3.2 11.6C2.89412 11.1922 2.94688 10.6267 3.30432 10.2815L3.4 10.2L6.33294 7.9997L3.4 5.79999C2.95817 5.46862 2.86863 4.84182 3.2 4.39999C3.50588 3.99215 4.06349 3.88448 4.49497 4.13096L4.6 4.19999L6.99994 5.9997L7 2.99999C7 2.29574 7.70213 1.82473 8.34138 2.05977L8.44721 2.10557L12.4836 4.12466L12.5734 4.18023L12.6361 4.22812L12.6747 4.2607L12.7221 4.30805C12.8255 4.41378 12.9003 4.54 12.9462 4.67493L12.9657 4.73949C13.0542 5.07119 12.9728 5.44382 12.708 5.70681L12.6 5.79999L9.66694 7.9997L12.6 10.2C12.8449 10.3837 12.9749 10.647 12.9968 10.9165C13.0079 11.0536 12.9915 11.1926 12.946 11.325C12.9269 11.3818 12.9025 11.437 12.873 11.4898L12.7992 11.601L12.8 11.6L12.7991 11.6012L12.7882 11.6175L12.7573 11.653L12.7564 11.6541L12.7557 11.6549L12.7226 11.693L12.7452 11.6659L12.6742 11.7397L12.6063 11.7955L12.5039 11.8641ZM9 9.99999V11.381L10.105 10.829L9 9.99999ZM9 5.99999V4.61799L10.106 5.17099L9 5.99999Z" fill="black"/>
</svg>
