<svg width="16" height="16" viewBox="0 0 16 16" fill="none" xmlns="http://www.w3.org/2000/svg">
<path fill-rule="evenodd" clip-rule="evenodd" d="M5.12803 3.5L5.17825 3.37082C5.52062 2.56506 6.31932 2 7.25 2C8.22966 2 9.06309 2.62611 9.37197 3.5H10.25C11.4926 3.5 12.5 4.50736 12.5 5.75V6.62803C13.3739 6.93691 14 7.77034 14 8.75C14 9.71975 13.3845 10.5524 12.5 10.8674V11.75C12.5 12.9926 11.4926 14 10.25 14H9.5C9.11537 14 8.79837 13.7105 8.75505 13.3375L8.74589 13.1381C8.68862 12.3619 8.04077 11.75 7.25 11.75C6.42157 11.75 5.75 12.4216 5.75 13.25C5.75 13.6642 5.41421 14 5 14H4.25C3.00736 14 2 12.9926 2 11.75V11C2 10.6154 2.28953 10.2984 2.66253 10.255L2.86195 10.2459C3.63809 10.1886 4.25 9.54077 4.25 8.75C4.25 7.92157 3.57843 7.25 2.75 7.25C2.33579 7.25 2 6.91421 2 6.5V5.75C2 4.50736 3.00736 3.5 4.25 3.5H5.12803Z" fill="black"/>
</svg>
