<svg width="16" height="16" viewBox="0 0 16 16" fill="none" xmlns="http://www.w3.org/2000/svg">
<path fill-rule="evenodd" clip-rule="evenodd" d="M3 2H6C7.30625 2 8.41751 2.83485 8.82933 4.00009L11 4C12.5977 4 13.9037 5.24892 13.9949 6.82373L14 7V9C14 10.5977 12.7511 11.9037 11.1763 11.9949L11 12H10C8.69412 12 7.58312 11.1656 7.17102 10.0009L4 10V13C4 13.5523 3.55228 14 3 14C2.44772 14 2 13.5523 2 13V3C2 2.44772 2.44772 2 3 2ZM9 6V9C9 9.51284 9.38604 9.93551 9.88338 9.99327L10 10H11C11.5128 10 11.9355 9.61396 11.9933 9.11662L12 9V7C12 6.48716 11.614 6.06449 11.1166 6.00673L11 6H9ZM6 4H4V8H7V5C7 4.48716 6.61396 4.06449 6.11662 4.00673L6 4Z" fill="black"/>
</svg>
