<svg width="16" height="16" viewBox="0 0 16 16" fill="none" xmlns="http://www.w3.org/2000/svg">
<path fill-rule="evenodd" clip-rule="evenodd" d="M13.1166 2.00673L13 2H11L10.8834 2.00673C10.386 2.06449 10 2.48716 10 3C10 3.51284 10.386 3.93551 10.8834 3.99327L11 4H12V5L12.0067 5.11662C12.06 5.5757 12.4243 5.93995 12.8834 5.99327L13 6L13.1166 5.99327C13.5757 5.93995 13.94 5.5757 13.9933 5.11662L14 5V3L13.9933 2.88338C13.94 2.4243 13.5757 2.06005 13.1166 2.00673ZM3 10L3.11662 10.0067C3.5757 10.06 3.93995 10.4243 3.99327 10.8834L4 11V12H5L5.11662 12.0067C5.61396 12.0645 6 12.4872 6 13C6 13.5128 5.61396 13.9355 5.11662 13.9933L5 14H3L2.88338 13.9933C2.4243 13.94 2.06005 13.5757 2.00673 13.1166L2 13V11L2.00673 10.8834C2.06005 10.4243 2.4243 10.06 2.88338 10.0067L3 10ZM13 10L13.1166 10.0067C13.5374 10.0556 13.8786 10.3657 13.9736 10.7707L13.9933 10.8834L14 11V13L13.9933 13.1166C13.9444 13.5374 13.6343 13.8786 13.2293 13.9736L13.1166 13.9933L13 14H11L10.8834 13.9933C10.386 13.9355 10 13.5128 10 13C10 12.5266 10.3289 12.1301 10.7707 12.0264L10.8834 12.0067L11 12H12V11L12.0067 10.8834C12.0556 10.4626 12.3657 10.1214 12.7707 10.0264L12.8834 10.0067L13 10ZM10 5C10.5523 5 11 5.44772 11 6V10C11 10.5523 10.5523 11 10 11H6C5.44772 11 5 10.5523 5 10V6C5 5.44772 5.44772 5 6 5H10ZM5.11662 2.00673L5 2H3L2.88338 2.00673L2.77071 2.02641C2.36575 2.12142 2.05561 2.46255 2.00673 2.88338L2 3V5L2.00673 5.11662L2.02641 5.22929C2.12142 5.63425 2.46255 5.94439 2.88338 5.99327L3 6L3.11662 5.99327L3.22929 5.97359C3.63425 5.87858 3.94439 5.53745 3.99327 5.11662L4 5V4H5L5.11662 3.99327L5.22929 3.97359C5.67107 3.86995 6 3.47339 6 3C6 2.48716 5.61396 2.06449 5.11662 2.00673Z" fill="black"/>
</svg>
