<svg width="16" height="16" viewBox="0 0 16 16" fill="none" xmlns="http://www.w3.org/2000/svg">
<path fill-rule="evenodd" clip-rule="evenodd" d="M6 10.585L6.29289 10.2929C6.65338 9.93241 7.22061 9.90468 7.6129 10.2097L7.70711 10.2929C8.06759 10.6534 8.09532 11.2206 7.7903 11.6129L7.70711 11.7071L5.70711 13.7071L5.66315 13.7485L5.59531 13.8037L5.48406 13.8753L5.4231 13.9063L5.34165 13.9401L5.26599 13.9642L5.11747 13.9932L5 14L4.918 13.996L4.79927 13.9798L4.68786 13.9503L4.57678 13.9063L4.47929 13.854L4.40484 13.8037L4.29289 13.7071L2.29289 11.7071C1.90237 11.3166 1.90237 10.6834 2.29289 10.2929C2.65338 9.93241 3.22061 9.90468 3.6129 10.2097L3.70711 10.2929L4 10.585V5.415L3.70711 5.70711L3.6129 5.7903C3.22061 6.09532 2.65338 6.06759 2.29289 5.70711C1.93241 5.34662 1.90468 4.77939 2.2097 4.3871L2.29289 4.29289L4.29289 2.29289L4.40484 2.19631L4.47929 2.146L4.57678 2.09367L4.68786 2.04974L4.79927 2.02024L4.918 2.004L5 2L5.11747 2.00683L5.26599 2.03585L5.34165 2.05989L5.4231 2.09365L5.48406 2.12467L5.59531 2.19633L5.66315 2.2515L5.70711 2.29289L7.70711 4.29289L7.7903 4.3871C8.0699 4.7467 8.0699 5.2533 7.7903 5.6129L7.70711 5.70711L7.6129 5.7903C7.2533 6.0699 6.7467 6.0699 6.3871 5.7903L6.29289 5.70711L6 5.415V10.585ZM13 11C13.5523 11 14 11.4477 14 12C14 12.5523 13.5523 13 13 13H10C9.44772 13 9 12.5523 9 12C9 11.4477 9.44772 11 10 11H13ZM13 7C13.5523 7 14 7.44772 14 8C14 8.55228 13.5523 9 13 9H10C9.44772 9 9 8.55228 9 8C9 7.44772 9.44772 7 10 7H13ZM13 3C13.5523 3 14 3.44772 14 4C14 4.55228 13.5523 5 13 5H10C9.44772 5 9 4.55228 9 4C9 3.44772 9.44772 3 10 3H13Z" fill="black"/>
</svg>
