<svg width="16" height="16" viewBox="0 0 16 16" fill="none" xmlns="http://www.w3.org/2000/svg">
<path fill-rule="evenodd" clip-rule="evenodd" d="M6 7H5.06217L5.23608 7.30515C6.1344 8.81594 7.45957 10.0974 9 10.9378V10C9 9.44772 9.44772 9 10 9H12C13.1046 9 14 9.89543 14 11V13C14 13.5523 13.5523 14 13 14C7.23169 14 2 8.76831 2 3C2 2.44772 2.44772 2 3 2H5C6.10457 2 7 2.89543 7 4V6C7 6.55228 6.55228 7 6 7ZM9 2C11.7614 2 14 4.23858 14 7C14 7.55228 13.5523 8 13 8C12.4477 8 12 7.55228 12 7L11.9949 6.82373C11.9037 5.24892 10.5977 4 9 4C8.44772 4 8 3.55228 8 3C8 2.44772 8.44772 2 9 2Z" fill="black"/>
</svg>
