<svg width="16" height="16" viewBox="0 0 16 16" fill="none" xmlns="http://www.w3.org/2000/svg">
<path fill-rule="evenodd" clip-rule="evenodd" d="M13 12C13.5523 12 14 12.4477 14 13C14 13.5523 13.5523 14 13 14H3C2.44772 14 2 13.5523 2 13C2 12.4477 2.44772 12 3 12H13ZM13 2L13.1166 2.00673C13.5757 2.06005 13.94 2.4243 13.9933 2.88338L14 3V5L13.9933 5.11662C13.94 5.5757 13.5757 5.93995 13.1166 5.99327L13 6L12.8834 5.99327C12.4243 5.93995 12.06 5.5757 12.0067 5.11662L12 5V4H11L10.8834 3.99327C10.386 3.93551 10 3.51284 10 3C10 2.48716 10.386 2.06449 10.8834 2.00673L11 2H13ZM5 2L5.11662 2.00673C5.61396 2.06449 6 2.48716 6 3C6 3.47339 5.67107 3.86995 5.22929 3.97359L5.11662 3.99327L5 4H4V5L3.99327 5.11662C3.94439 5.53745 3.63425 5.87858 3.22929 5.97359L3.11662 5.99327L3 6L2.88338 5.99327C2.46255 5.94439 2.12142 5.63425 2.02641 5.22929L2.00673 5.11662L2 5V3L2.00673 2.88338C2.05561 2.46255 2.36575 2.12142 2.77071 2.02641L2.88338 2.00673L3 2H5Z" fill="black"/>
</svg>
