<svg width="16" height="16" viewBox="0 0 16 16" fill="none" xmlns="http://www.w3.org/2000/svg">
<path fill-rule="evenodd" clip-rule="evenodd" d="M7 3C7 2.44772 7.44772 2 8 2C8.55228 2 9 2.44772 9 3V13C9 13.5523 8.55228 14 8 14C7.44772 14 7 13.5523 7 13V3ZM2 3L2.00673 2.88338C2.06005 2.4243 2.4243 2.06005 2.88338 2.00673L3 2H5L5.11662 2.00673C5.5757 2.06005 5.93995 2.4243 5.99327 2.88338L6 3L5.99327 3.11662C5.93995 3.5757 5.5757 3.93995 5.11662 3.99327L5 4H4V5L3.99327 5.11662C3.93551 5.61396 3.51284 6 3 6C2.48716 6 2.06449 5.61396 2.00673 5.11662L2 5V3ZM14 3L13.9933 2.88338C13.94 2.4243 13.5757 2.06005 13.1166 2.00673L13 2H11L10.8834 2.00673C10.4243 2.06005 10.06 2.4243 10.0067 2.88338L10 3L10.0067 3.11662C10.06 3.5757 10.4243 3.93995 10.8834 3.99327L11 4H12V5L12.0067 5.11662C12.0645 5.61396 12.4872 6 13 6C13.5128 6 13.9355 5.61396 13.9933 5.11662L14 5V3ZM2 11L2.00673 10.8834C2.06449 10.386 2.48716 10 3 10C3.47339 10 3.86995 10.3289 3.97359 10.7707L3.99327 10.8834L4 11V12H5L5.11662 12.0067C5.53745 12.0556 5.87858 12.3657 5.97359 12.7707L5.99327 12.8834L6 13L5.99327 13.1166C5.94439 13.5374 5.63425 13.8786 5.22929 13.9736L5.11662 13.9933L5 14H3L2.88338 13.9933C2.46255 13.9444 2.12142 13.6343 2.02641 13.2293L2.00673 13.1166L2 13V11ZM14 11L13.9933 10.8834C13.9355 10.386 13.5128 10 13 10C12.5266 10 12.1301 10.3289 12.0264 10.7707L12.0067 10.8834L12 11V12H11L10.8834 12.0067C10.4626 12.0556 10.1214 12.3657 10.0264 12.7707L10.0067 12.8834L10 13L10.0067 13.1166C10.0556 13.5374 10.3657 13.8786 10.7707 13.9736L10.8834 13.9933L11 14H13L13.1166 13.9933C13.5374 13.9444 13.8786 13.6343 13.9736 13.2293L13.9933 13.1166L14 13V11Z" fill="black"/>
</svg>
