<svg width="16" height="16" viewBox="0 0 16 16" fill="none" xmlns="http://www.w3.org/2000/svg">
<path fill-rule="evenodd" clip-rule="evenodd" d="M12.0003 8V2H13.0002C13.5131 2 13.9358 2.38604 13.9936 2.88338L14.0003 3V7C14.0003 7.51284 13.6142 7.93551 13.1168 7.99327L13.0002 8H12.0003ZM7.51813 14C7.24399 14 7.02176 13.7761 7.02176 13.5V10C7.02176 8.89543 6.13282 8 5.03627 8H2.99294C2.92756 8 2.86235 7.9935 2.79824 7.98058C2.32286 7.88481 1.99522 7.46183 2.00005 6.99078L2.0083 6.87217L3.16559 2.98635L3.21077 2.80388C3.30357 2.33646 3.71101 2 4.18423 2H10V8.52786C10 8.68311 9.96412 8.83622 9.89519 8.97508C9.83773 9.09084 9.79156 9.21195 9.75733 9.3367L8.59569 13.5702C8.41196 13.837 8.10835 14 7.78015 14H7.51813Z" fill="black"/>
</svg>
