<svg width="16" height="16" viewBox="0 0 16 16" fill="none" xmlns="http://www.w3.org/2000/svg">
<path fill-rule="evenodd" clip-rule="evenodd" d="M12 2C12.5523 2 13 2.44772 13 3V13C13 13.5523 12.5523 14 12 14C11.4477 14 11 13.5523 11 13V3C11 2.44772 11.4477 2 12 2ZM4 3C4.55228 3 5 3.44772 5 4V12C5 12.5523 4.55228 13 4 13C3.44772 13 3 12.5523 3 12V4C3 3.44772 3.44772 3 4 3ZM8 6C8.55228 6 9 6.44772 9 7V9C9 9.55228 8.55228 10 8 10C7.44772 10 7 9.55228 7 9V7C7 6.44772 7.44772 6 8 6Z" fill="black"/>
</svg>
