<svg width="16" height="16" viewBox="0 0 16 16" fill="none" xmlns="http://www.w3.org/2000/svg">
<path fill-rule="evenodd" clip-rule="evenodd" d="M13 8C13.5128 8 13.9355 8.38604 13.9933 8.88338L14 9V11C14 12.5977 12.7511 13.9037 11.1763 13.9949L11 14H5C3.40232 14 2.09634 12.7511 2.00509 11.1763L2 11V9C2 8.44772 2.44772 8 3 8C3.51284 8 3.93551 8.38604 3.99327 8.88338L4 9V11C4 11.5128 4.38604 11.9355 4.88338 11.9933L5 12H11C11.5128 12 11.9355 11.614 11.9933 11.1166L12 11V9C12 8.44772 12.4477 8 13 8ZM8 2C8.55228 2 9 2.44772 9 3V6.584L9.29289 6.29289C9.65338 5.93241 10.2206 5.90468 10.6129 6.2097L10.7071 6.29289C11.0676 6.65338 11.0953 7.22061 10.7903 7.6129L10.7071 7.70711L8.70711 9.70711L8.66315 9.7485L8.59531 9.80367L8.48406 9.87533L8.37134 9.92877L8.26599 9.96415L8.11747 9.99317L8 10L7.92476 9.99721L7.79927 9.97976L7.68786 9.95026L7.57678 9.90633L7.47929 9.854L7.38325 9.78721C7.35153 9.76233 7.32136 9.73557 7.29289 9.70711L5.29289 7.70711C4.90237 7.31658 4.90237 6.68342 5.29289 6.29289C5.65338 5.93241 6.22061 5.90468 6.6129 6.2097L6.70711 6.29289L7 6.585V3C7 2.44772 7.44772 2 8 2Z" fill="black"/>
</svg>
