<svg width="16" height="16" viewBox="0 0 16 16" fill="none" xmlns="http://www.w3.org/2000/svg">
<path fill-rule="evenodd" clip-rule="evenodd" d="M5.00673 4.88338C5.06449 4.38604 5.48716 4 6 4C6.55228 4 7 4.44772 7 5V11L6.99327 11.1166C6.93551 11.614 6.51284 12 6 12C5.44772 12 5 11.5523 5 11V5L5.00673 4.88338ZM9.00673 4.88338C9.06449 4.38604 9.48716 4 10 4C10.5523 4 11 4.44772 11 5V11L10.9933 11.1166C10.9355 11.614 10.5128 12 10 12C9.44772 12 9 11.5523 9 11V5L9.00673 4.88338Z" fill="black"/>
</svg>
