<svg width="16" height="16" viewBox="0 0 16 16" fill="none" xmlns="http://www.w3.org/2000/svg">
<path fill-rule="evenodd" clip-rule="evenodd" d="M8 2C9.65685 2 11 3.34315 11 5C11 5.5406 10.7972 5.95243 10.4325 6.33695L10.305 6.46426L9.69768 7.00562C9.22788 7.46314 9 7.98494 9 9C9 9.51284 8.61396 9.93551 8.11662 9.99327L8 10C7.44772 10 7 9.55228 7 9L7.00529 8.71288C7.05456 7.40117 7.44742 6.47877 8.14759 5.73055L8.30232 5.5728L8.52685 5.36698L8.98333 4.96529C8.99403 4.95807 8.99834 4.95877 8.9999 4.96468L8.99118 4.86664C8.92599 4.3774 8.50707 4 8 4C7.48716 4 7.06449 4.38604 7.00673 4.88338L6.99327 5.11662C6.93551 5.61396 6.51284 6 6 6C5.44772 6 5 5.55228 5 5C5 3.34315 6.34315 2 8 2ZM7 12H9V14H7V12Z" fill="black"/>
</svg>
