<svg width="16" height="16" viewBox="0 0 16 16" fill="none" xmlns="http://www.w3.org/2000/svg">
<path fill-rule="evenodd" clip-rule="evenodd" d="M12 2C12.5523 2 13 2.44772 13 3C13 3.55228 12.5523 4 12 4H7V5.999L12 6C12.5523 6 13 6.44772 13 7C13 7.55228 12.5523 8 12 8L7 7.999V10H8C8.55228 10 9 10.4477 9 11C9 11.5523 8.55228 12 8 12H7V13C7 13.5523 6.55228 14 6 14C5.44772 14 5 13.5523 5 13V12H4C3.44772 12 3 11.5523 3 11C3 10.4477 3.44772 10 4 10H5V3C5 2.44772 5.44772 2 6 2H12Z" fill="black"/>
</svg>
