<svg width="78" height="77" viewBox="0 0 78 77" fill="none" xmlns="http://www.w3.org/2000/svg">
<path d="M41.5722 21.4328C40.4069 23.3744 37.5929 23.3745 36.4276 21.4329L32.2088 14.4035C31.6385 13.4533 31.6385 12.2662 32.2087 11.316L36.4277 4.28605C37.5929 2.34442 40.407 2.34438 41.5723 4.28598L45.7911 11.3153C46.3614 12.2655 46.3614 13.4527 45.7912 14.4029L41.5722 21.4328Z" fill="#71D99E"/>
<path d="M36.4278 55.5672C37.5931 53.6256 40.4071 53.6255 41.5724 55.5671L45.7912 62.5965C46.3615 63.5467 46.3615 64.7338 45.7913 65.684L41.5723 72.714C40.4071 74.6556 37.593 74.6556 36.4277 72.714L32.2089 65.6847C31.6386 64.7345 31.6386 63.5473 32.2088 62.5971L36.4278 55.5672Z" fill="#71D99E"/>
<path d="M56.3748 41.0894C54.3942 39.9311 54.3942 37.0686 56.3747 35.9102L63.4587 31.767C64.3942 31.2197 65.5522 31.2197 66.4878 31.7669L73.5723 35.9103C75.5529 37.0687 75.5529 39.9311 73.5724 41.0895L66.4884 45.2328C65.5529 45.78 64.3949 45.78 63.4593 45.2328L56.3748 41.0894Z" fill="#71D99E"/>
<path d="M21.6252 35.9106C23.6058 37.0689 23.6058 39.9314 21.6253 41.0898L14.5413 45.233C13.6058 45.7803 12.4478 45.7803 11.5122 45.2331L4.42768 41.0897C2.44711 39.9313 2.44708 37.0689 4.42762 35.9105L11.5116 31.7672C12.4471 31.22 13.6051 31.22 14.5407 31.7672L21.6252 35.9106Z" fill="#71D99E"/>
<path d="M49.4185 52.4115C48.8497 50.2175 50.8696 48.2235 53.0921 48.7849L61.0901 50.8054C62.1587 51.0754 62.9931 51.8991 63.2666 52.954L65.3137 60.85C65.8825 63.044 63.8626 65.038 61.6401 64.4765L53.642 62.456C52.5734 62.1861 51.739 61.3624 51.4655 60.3075L49.4185 52.4115Z" fill="#71D99E"/>
<path d="M28.5815 24.5885C29.1503 26.7825 27.1304 28.7765 24.9079 28.2151L16.9099 26.1946C15.8413 25.9246 15.0069 25.1009 14.7334 24.046L12.6863 16.15C12.1175 13.956 14.1374 11.962 16.3599 12.5235L24.358 14.544C25.4266 14.8139 26.261 15.6376 26.5345 16.6925L28.5815 24.5885Z" fill="#71D99E"/>
<path d="M24.908 48.7849C27.1305 48.2234 29.1504 50.2173 28.5816 52.4113L26.5349 60.3069C26.2615 61.3617 25.427 62.1855 24.3585 62.4555L16.3599 64.4762C14.1374 65.0377 12.1175 63.0438 12.6863 60.8498L14.733 52.9542C15.0065 51.8994 15.8409 51.0756 16.9095 50.8057L24.908 48.7849Z" fill="#71D99E"/>
<path d="M53.092 28.2151C50.8695 28.7766 48.8496 26.7827 49.4184 24.5887L51.4651 16.6931C51.7385 15.6383 52.573 14.8145 53.6415 14.5445L61.6401 12.5238C63.8626 11.9623 65.8825 13.9562 65.3137 16.1502L63.267 24.0458C62.9935 25.1006 62.1591 25.9244 61.0905 26.1943L53.092 28.2151Z" fill="#71D99E"/>
</svg>
